<?xml version="1.0" encoding="utf-8"?>
<!-- Generator: Adobe Illustrator 24.2.0, SVG Export Plug-In . SVG Version: 6.00 Build 0)  -->
<svg version="1.1" id="Layer_1" xmlns="http://www.w3.org/2000/svg" xmlns:xlink="http://www.w3.org/1999/xlink" x="0px" y="0px"
	 viewBox="0 0 611.8 26.1" style="enable-background:new 0 0 611.8 26.1;" xml:space="preserve">
<style type="text/css">
	.st0{fill:#B3935E;}
	.st1{fill:#B2935E;}
	.st2{fill:#B3935F;}
	.st3{fill:#B39460;}
	.st4{fill:#B3945F;}
	.st5{fill:#B59663;}
	.st6{fill:#B49460;}
	.st7{fill:#B49561;}
	.st8{fill:#B49562;}
	.st9{fill:#B89B6B;}
</style>
<g>
	<path class="st0" d="M0,19.7c1.7-0.6,2.7-1.8,3.3-3.3c1.2-2.8,1.4-5.7,1.7-8.7c0.1-1,0.1-2,0.2-2.9c0-0.6,0.3-1.3,0.9-1.3
		c0.8,0,0.7,0.9,0.7,1.4c-0.2,3.9-0.6,7.8-1.6,11.7c-0.5,2.1-1.4,4-3.3,5.1C1.3,22,0.7,22.2,0,22.5C0,21.6,0,20.6,0,19.7z"/>
	<path class="st0" d="M599.7,0c0,0.1,0,0.1,0,0.2c-0.4,0.5-1,0.4-1.6,0.4c-3.7,0-7.4,0-11.1,0c-0.5,0-1.1,0.1-1.6-0.4
		c0-0.1,0-0.1,0-0.2C590.3,0,595,0,599.7,0z"/>
	<path class="st0" d="M293.9,0c0,0.1,0,0.1,0,0.2c-0.4,0.5-1,0.4-1.6,0.4c-3.7,0-7.4,0-11.1,0c-0.5,0-1.1,0.1-1.6-0.4
		c0-0.1,0-0.1,0-0.2C284.4,0,289.2,0,293.9,0z"/>
	<path class="st0" d="M449.1,0c0,0.1,0,0.1,0,0.2c-0.2,0.3-0.5,0.4-0.8,0.4c-2.3,0.1-4.6,0.1-6.9,0c-0.3,0-0.6-0.1-0.9-0.3
		c0-0.1,0-0.2,0-0.3C443.3,0,446.2,0,449.1,0z"/>
	<path class="st0" d="M134.6,0.3c0-0.1,0-0.2,0-0.3c2.9,0,5.8,0,8.6,0c0,0.1,0,0.1,0,0.2c-0.2,0.3-0.5,0.4-0.8,0.4
		c-2.3,0.1-4.6,0.1-6.9,0C135.2,0.5,134.9,0.4,134.6,0.3z"/>
	<path class="st0" d="M0,24.7c0.3-0.2,0.4-0.7,0.8-0.4c0.4,0.3,0.4,0.7,0.3,1.2c0,0.3,0,0.7-0.5,0.7c-0.2,0-0.5,0-0.7,0
		C0,25.6,0,25.1,0,24.7z"/>
	<path class="st0" d="M479.8,0c0,0.1,0,0.1,0,0.2c-0.4,0.5-0.9,0.4-1.4,0.4c-1.5,0-3,0-4.5-0.2c-0.3,0-0.4-0.2-0.5-0.4
		C475.5,0,477.6,0,479.8,0z"/>
	<path class="st0" d="M173.9,0c0,0.1,0,0.1,0,0.2c-0.4,0.5-0.9,0.4-1.4,0.4c-1.5,0-3,0-4.5-0.2c-0.3,0-0.4-0.2-0.5-0.4
		C169.6,0,171.8,0,173.9,0z"/>
	<path class="st0" d="M376.9,0.2c0-0.1,0-0.1,0-0.2c2,0,4,0,6,0c0,0.1,0,0.1,0,0.2c-0.2,0.3-0.6,0.4-1,0.4c-1.4,0.1-2.8,0.1-4.1,0
		C377.4,0.6,377.1,0.5,376.9,0.2z"/>
	<path class="st0" d="M77,0c0,0.1,0,0.1,0,0.2c-0.2,0.3-0.6,0.4-1,0.4c-1.4,0.1-2.8,0.1-4.1,0c-0.4,0-0.7-0.1-0.9-0.4
		c0-0.1,0-0.1,0-0.2C73,0,75,0,77,0z"/>
	<path class="st0" d="M496.4,0.5c-0.2-0.1-0.3-0.3-0.3-0.5c1.9,0,3.8,0,5.8,0c0,0.1,0,0.1,0,0.2c-1.5,0.8-3.1,0.3-4.7,0.3
		C496.9,0.5,496.7,0.4,496.4,0.5z"/>
	<path class="st0" d="M486.5,0.5c-0.3,0-0.4-0.2-0.5-0.5c1.9,0,3.8,0,5.8,0c0,0.1,0,0.1,0,0.2c-1.4,0.7-2.8,0.3-4.2,0.3
		C487.2,0.5,486.9,0.3,486.5,0.5z"/>
	<path class="st0" d="M185.9,0c0,0.1,0,0.1,0,0.2c-1.4,0.7-2.8,0.3-4.2,0.3c-0.3,0-0.7-0.3-1-0.1c-0.3,0-0.4-0.2-0.5-0.5
		C182.1,0,184,0,185.9,0z"/>
	<path class="st0" d="M190.5,0.5c-0.2-0.1-0.3-0.3-0.3-0.5c1.9,0,3.8,0,5.8,0c0,0.1,0,0.1,0,0.2c-1.5,0.8-3.1,0.3-4.7,0.3
		C191.1,0.5,190.8,0.4,190.5,0.5z"/>
	<path class="st0" d="M36.7,0c0,0.1,0,0.2,0,0.3c-1.4,0.6-2.9,0.3-4.4,0.3c-0.2,0-0.4-0.1-0.6-0.1c-0.2-0.1-0.2-0.3-0.3-0.5
		C33.2,0,34.9,0,36.7,0z"/>
	<path class="st0" d="M337.5,0.5c-0.2-0.1-0.2-0.3-0.3-0.5c1.8,0,3.5,0,5.3,0c0,0.1,0,0.2,0,0.3c-1.4,0.6-2.9,0.3-4.4,0.3
		C337.9,0.5,337.7,0.4,337.5,0.5z"/>
	<path class="st0" d="M19.4,0c0,0.1,0,0.1,0,0.2c-1,0.7-2.1,0.4-3.1,0.3c-0.4,0-0.8-0.3-1.2-0.1c-0.3,0-0.4-0.2-0.5-0.4
		C16.2,0,17.8,0,19.4,0z"/>
	<path class="st0" d="M321,0.4c-0.3,0-0.4-0.2-0.5-0.4c1.6,0,3.2,0,4.8,0c0,0.1,0,0.1,0,0.2c-1,0.7-2.1,0.4-3.1,0.3
		C321.8,0.5,321.5,0.2,321,0.4z"/>
	<path class="st0" d="M9.6,0c0,0.2,0,0.4-0.3,0.4c-1.1,0-2.1,0.2-3.2,0.2c-0.5,0-1,0-1.3-0.4c0-0.1,0-0.2,0-0.2C6.4,0,8,0,9.6,0z"/>
	<path class="st0" d="M310.7,0.2c0-0.1,0-0.2,0-0.2c1.6,0,3.2,0,4.8,0c0,0.2,0,0.4-0.3,0.4c-1.1,0-2.1,0.2-3.2,0.2
		C311.5,0.6,311,0.6,310.7,0.2z"/>
	<path class="st0" d="M396.6,0.2c-0.1-0.1-0.2-0.2-0.3-0.2c1.6,0,3.2,0,4.8,0c0,0.1,0,0.2,0,0.3C399.6,0.9,398.1,0.7,396.6,0.2z"/>
	<path class="st0" d="M95.2,0c0,0.1,0,0.2,0,0.3c-1.5,0.6-3,0.5-4.5,0c-0.1-0.1-0.2-0.2-0.3-0.2C92,0,93.6,0,95.2,0z"/>
	<path class="st0" d="M245.4,0.2c0-0.1,0-0.2,0-0.2c1.4,0,2.7,0,4.1,0c-0.1,0.2-0.2,0.4-0.5,0.4c-0.6-0.2-1.2,0.2-1.9,0.1
		C246.5,0.5,245.9,0.7,245.4,0.2z"/>
	<path class="st0" d="M567.6,0c0,0.1,0,0.1,0,0.2c-1,0.8-2.1,0.2-3.1,0.3c-0.4,0-0.6-0.2-0.7-0.5C565,0,566.3,0,567.6,0z"/>
	<path class="st0" d="M555.4,0c-0.1,0.2-0.2,0.4-0.5,0.4c-0.6-0.2-1.2,0.2-1.9,0.1c-0.6-0.1-1.2,0.1-1.7-0.4c0-0.1,0-0.2,0-0.2
		C552.6,0,554,0,555.4,0z"/>
	<path class="st0" d="M258.6,0.5c-0.4,0-0.6-0.2-0.7-0.5c1.3,0,2.6,0,3.8,0c0,0.1,0,0.1,0,0.2C260.8,1,259.7,0.4,258.6,0.5z"/>
	<path class="st0" d="M329.6,0.2c0-0.1,0-0.2,0-0.2c1,0,2.1,0,3.1,0c0,0.4,0.1,0.8-0.2,1.2c-0.5-0.5-1-0.7-1.7-0.6
		C330.4,0.6,330,0.6,329.6,0.2z"/>
	<path class="st0" d="M26.9,0c0,0.3,0.1,0.7-0.2,1c-0.9-0.7-2-0.1-2.9-0.7c0-0.1,0-0.2,0-0.2C24.8,0,25.8,0,26.9,0z"/>
	<path class="st0" d="M237.3,0c-0.1,0.1-0.2,0.2-0.3,0.2c-1,0.5-2.1,0.6-3.1,0c0-0.1,0-0.1,0-0.2C235,0,236.1,0,237.3,0z"/>
	<path class="st0" d="M543.1,0c-0.1,0.1-0.2,0.2-0.3,0.2c-1,0.5-2.1,0.6-3.1,0c0-0.1,0-0.1,0-0.2C540.9,0,542,0,543.1,0z"/>
	<path class="st0" d="M107.7,0c0,0.1,0,0.2,0,0.2c-1.1,0.5-2.1,0.6-3.1,0c0-0.1,0-0.1,0-0.2C105.6,0,106.7,0,107.7,0z"/>
	<path class="st0" d="M410.4,0.2c0-0.1,0-0.1,0-0.2c1,0,2.1,0,3.1,0c0,0.1,0,0.2,0,0.2C412.5,0.8,411.5,0.8,410.4,0.2z"/>
	<path class="st0" d="M47,0c0,0.1,0,0.1,0,0.2c-0.7,0.6-1.6,0.3-2.4,0.2c-0.2-0.1-0.3-0.2-0.3-0.4C45.3,0,46.1,0,47,0z"/>
	<path class="st0" d="M352.9,0c0,0.1,0,0.1,0,0.2c-0.7,0.6-1.6,0.3-2.4,0.2c-0.2-0.1-0.3-0.2-0.3-0.4C351.1,0,352,0,352.9,0z"/>
	<path class="st0" d="M130.5,0c0,0.1,0,0.1,0,0.2c-0.9,0.6-1.7,0.5-2.6,0.1c0-0.1,0-0.2,0-0.3C128.7,0,129.6,0,130.5,0z"/>
	<path class="st0" d="M367.8,0.3c0-0.1,0-0.2,0-0.3c0.9,0,1.8,0,2.6,0c0,0.1,0,0.1,0,0.2C369.5,0.8,368.7,0.7,367.8,0.3z"/>
	<path class="st0" d="M64.5,0c0,0.1,0,0.1,0,0.2c-0.9,0.6-1.7,0.4-2.6,0.1c0-0.1,0-0.2,0-0.3C62.8,0,63.7,0,64.5,0z"/>
	<path class="st0" d="M433.8,0.3c0-0.1,0-0.2,0-0.3c0.9,0,1.8,0,2.6,0c0,0.1,0,0.1,0,0.2C435.5,0.8,434.6,0.7,433.8,0.3z"/>
	<path class="st0" d="M0,6.4C0.8,7,0.3,7.7,0,8.3C0,7.7,0,7,0,6.4z"/>
	<path class="st0" d="M440.5,0.3c2.9,0,5.7,0,8.6-0.1c7.2,2,14.2,4.2,21,7.2c1.7,0.8,3.5,1.6,5.2,2.4c0.8,0.4,1.5,0.7,2.4,0.6
		c0.5,0,1.1-0.2,1.3-0.7c0.3-0.6,0-1.1-0.5-1.5c-0.4-0.3-0.9-0.7-1.4-0.9c-4.8-2.4-9.7-4.6-14.8-6.4c-0.4-0.2-0.9-0.3-1.4-0.5
		c2.5-0.6,7.9-0.2,10,0.8c3.8,1.7,7.4,3.7,10.9,5.8c0.6,0.4,1.2,0.8,1.6,1.4c0.9,1.3,0.7,2.7-0.7,3.6c-1.6,1.1-3.4,1.3-5.3,0.8
		c-3.4-0.9-6.7-2.2-9.9-3.4c-8-3-16-6.2-24.3-8.3C442.4,1,441.2,1.2,440.5,0.3z"/>
	<path class="st0" d="M134.6,0.3c2.9,0,5.7-0.1,8.6-0.1c7.2,2,14.2,4.2,21,7.2c1.7,0.8,3.5,1.6,5.2,2.4c0.8,0.4,1.5,0.7,2.4,0.6
		c0.5,0,1.1-0.2,1.3-0.7c0.3-0.6,0-1.1-0.5-1.5c-0.5-0.4-1-0.7-1.5-1c-4.8-2.4-9.7-4.5-14.7-6.4c-0.4-0.2-0.9-0.3-1.4-0.5
		c2.4-0.6,7.8-0.2,9.9,0.8c3.8,1.7,7.5,3.7,11.1,5.9c0.6,0.4,1.2,0.8,1.6,1.4c0.9,1.3,0.7,2.7-0.7,3.6c-1.6,1.1-3.4,1.3-5.3,0.8
		c-3.5-0.9-6.8-2.2-10.2-3.5c-7.9-3-15.8-6.1-24.1-8.2C136.5,1,135.4,1.2,134.6,0.3z"/>
	<path class="st0" d="M233.9,0.2c1,0,2.1,0,3.1,0c-0.5,0.7-1,1.3-1.5,2c-0.7,0.9-0.6,1.9,0.2,2.7c0.9,1,2.1,1.5,3.4,1.4
		c4.2-0.1,8.4-0.3,12.6-0.5c4.3-0.1,8,1.3,11.2,4c4.7,4,9.2,8.1,12.7,13.1c0.6,0.8,1.1,1.7,1.6,2.5c0.1,0.1,0.1,0.3,0.2,0.5
		c-1,0-1.9,0-2.8,0c-0.6,0-0.8-0.4-1-0.8c-3.4-4.7-7.4-9-12-12.7c-3.5-2.8-7.5-3.9-11.9-4c-3.1-0.1-6.1,0-9.2,0.2
		c-1.6,0.1-3.1,0-4.6-0.7C232.3,6.6,231.4,3.2,233.9,0.2z"/>
	<path class="st0" d="M539.8,0.2c1,0,2.1,0,3.1,0c-0.5,0.7-1,1.3-1.5,2c-0.7,0.9-0.6,1.9,0.2,2.7c1,1.1,2.2,1.5,3.6,1.4
		c4.2-0.2,8.5-0.3,12.7-0.4c4.1-0.1,7.6,1.3,10.7,4c4.7,4,9.2,8.2,12.8,13.2c0.6,0.8,1.1,1.7,1.6,2.5c0.1,0.1,0.1,0.3,0.2,0.5
		c-1,0-1.9,0-2.8,0c-0.6,0-0.8-0.4-1-0.8c-3.4-4.7-7.4-9-12-12.7c-3.5-2.8-7.5-3.9-11.9-4c-3.1-0.1-6.1,0-9.2,0.2
		c-1.6,0.1-3.1,0-4.6-0.7C538.1,6.6,537.3,3.2,539.8,0.2z"/>
	<path class="st0" d="M159.7,21.4c-1.8,0-3.4-0.3-5-0.8c-5.9-1.9-11.7-3.9-17.6-5.8c-0.7-0.2-1.2-0.6-1.5-1.2c-0.1-0.3-0.2-0.7,0-1
		c0.3-0.4,0.6-0.2,1-0.1c2.7,0.9,5.5,1.7,8.2,2.6c4.7,1.5,9.3,2.9,14.1,4c0.6,0.1,1.3,0.2,1.9,0.1c1.2-0.3,2.2-1.3,2.2-2.4
		c0.1-1.3-0.8-2-1.8-2.5c-4.8-2.2-9.8-4-14.9-5.5c-3.3-0.9-6.5-1.8-9.8-2.7c-0.3-0.1-0.7-0.2-1-0.4c-0.4-0.3-0.8-0.7-0.6-1.2
		c0.2-0.6,0.7-0.2,1.1-0.1c7.7,1.3,15.3,3.1,22.5,6.2c1.8,0.8,3.6,1.7,5.3,2.7c0.7,0.4,1.3,0.9,1.8,1.6c1.4,1.9,1.1,3.7-0.9,5
		C163.2,20.9,161.6,21.6,159.7,21.4z"/>
	<path class="st0" d="M465.5,21.4c-1.8,0-3.4-0.3-5-0.8c-5.9-1.9-11.7-3.9-17.6-5.8c-0.6-0.2-1.1-0.5-1.4-1c-0.2-0.4-0.3-0.9,0-1.2
		c0.3-0.4,0.7-0.1,1.1,0c3,0.9,5.9,1.9,8.9,2.8c4.4,1.4,8.8,2.7,13.3,3.7c0.4,0.1,0.8,0.2,1.2,0.2c1.4,0,2.7-1,2.9-2.2
		c0.2-1-0.4-2.1-1.7-2.7c-4.1-1.9-8.3-3.4-12.6-4.8c-4-1.3-8-2.3-12.1-3.3c-0.6-0.2-1.2-0.3-1.6-1c-0.1-0.2-0.3-0.5-0.2-0.8
		c0.2-0.3,0.5-0.1,0.8-0.1c4.7,0.9,9.4,1.8,14,3.2c5,1.4,9.7,3.3,14.2,5.9c0.7,0.4,1.3,0.9,1.8,1.6c1.4,1.9,1.1,3.7-0.9,5
		C469.1,20.9,467.4,21.6,465.5,21.4z"/>
	<path class="st0" d="M496.4,0.5c1.1-0.5,2.3-0.1,3.5-0.2c0.7-0.1,1.3,0,2,0c2.4,1.3,4.9,2.1,7.6,2.4c0.5,0.1,1.1,0,1.2,0.5
		c0.1,0.5-0.5,0.9-0.9,1.2c-2.9,1.9-5.9,3.2-9.3,3.8c-4,0.7-7.8,0.2-11.7-1c-1.2-0.4-2-1.2-3.1-1.7c-3.8-2-7.9-3.2-11.8-4.8
		c1.2-0.5,2.5-0.1,3.7-0.2c0.7-0.1,1.5,0,2.2-0.1c3.8,1.9,7.7,3.6,12,4.4c1.8,0.3,3.6,0.6,5.5,0.6c0.4,0,0.7,0,1.1-0.1
		c0.7-0.2,1.6-0.2,1.8-1.2c0.1-0.8-0.4-1.4-1.1-1.8C498.1,1.6,497.2,1,496.4,0.5z"/>
	<path class="st0" d="M190.5,0.5c1.1-0.5,2.3-0.1,3.5-0.2c0.7-0.1,1.3,0,2,0c2.4,1.3,4.9,2.1,7.6,2.4c0.5,0.1,1.1,0,1.2,0.5
		c0.1,0.5-0.5,0.9-0.9,1.2c-2.9,1.9-5.9,3.2-9.3,3.8c-4,0.7-7.8,0.2-11.7-1c-1.2-0.4-2-1.2-3.1-1.7c-3.8-2-7.9-3.2-11.8-4.8
		c1.2-0.5,2.5-0.1,3.7-0.2c0.7-0.1,1.5,0,2.2-0.1c3.8,1.9,7.7,3.6,12,4.4c1.8,0.3,3.6,0.6,5.5,0.6c0.4,0,0.7,0,1.1-0.1
		c0.7-0.2,1.6-0.2,1.8-1.2c0.1-0.8-0.4-1.4-1.1-1.8C192.3,1.6,191.4,1,190.5,0.5z"/>
	<path class="st0" d="M396.6,0.2c1.5,0,3,0,4.5,0c3.8,3.4,7.5,6.9,10.4,11.1c1.7,2.4,3.1,4.9,3.6,7.8c0.4,2.2,0,4.3-0.5,6.4
		c-0.1,0.4-0.3,0.5-0.7,0.5c-1,0-2.2,0.3-2.8-0.1c-0.9-0.6,0.1-1.6,0.3-2.4c0.9-4.5-0.4-8.3-3.3-11.7C404.7,7.7,401,3.6,396.6,0.2z"
		/>
	<path class="st0" d="M90.7,0.2c1.5,0,3,0,4.5,0c3.8,3.4,7.5,6.9,10.4,11.1c1.7,2.4,3.1,4.9,3.6,7.8c0.4,2.2,0,4.3-0.5,6.4
		c-0.1,0.4-0.3,0.5-0.7,0.5c-1,0-2.2,0.3-2.8-0.1c-0.9-0.6,0.1-1.6,0.3-2.4c0.9-4.5-0.4-8.3-3.3-11.7C98.8,7.6,95.1,3.6,90.7,0.2z"
		/>
	<path class="st0" d="M61.9,0.3c0.9,0,1.7,0,2.6-0.1c6.7,7.8,12.6,16,16.3,25.9c-0.9,0-1.6,0-2.3,0c-0.5,0-0.7-0.2-0.9-0.6
		c-4.2-9-9.8-17.2-15.6-25.1C61.9,0.4,61.9,0.3,61.9,0.3z"/>
	<path class="st0" d="M367.8,0.3c0.9,0,1.7,0,2.6-0.1c6.7,7.8,12.6,16,16.3,25.9c-0.9,0-1.6,0-2.3,0c-0.5,0-0.7-0.2-0.9-0.6
		c-4.2-9-9.8-17.2-15.6-25.1C367.8,0.4,367.8,0.3,367.8,0.3z"/>
	<path class="st0" d="M515.8,0.3c1-0.3,1.8,0,2.6,0.6c4.2,3.5,8.1,7.1,11.3,11.5c0.9,1.3,1.1,2.5,0.6,3.9c-0.5,1.4-1.3,2.6-2.4,3.6
		c-1.2,1.1-2.2,1.2-3.6,0.3c-1.8-1.1-3.3-2.6-4.8-4c-1.1-1.1-2-2.2-3-3.3c-0.8-0.9-1.1-2-0.9-3.3c0.7,0.2,1.1,0.8,1.6,1.2
		c2,1.7,4,3.5,6,5.3c1.5,1.4,2.8,1.6,3.9,0.7c1.2-1,1.5-2.9,0.6-4.4c-1.2-1.9-2.8-3.3-4.5-4.8c-2.1-2-4.3-3.9-6.5-5.8
		C516.3,1.4,515.9,1,515.8,0.3z"/>
	<path class="st0" d="M209.7,9.4c2.6,2.3,5,4.4,7.5,6.6c1.6,1.4,2.8,1.6,3.9,0.8c1.3-1,1.6-3,0.6-4.6c-1.1-1.8-2.8-3.2-4.3-4.6
		c-2.2-2-4.4-4-6.6-6c-0.4-0.3-1.1-0.8-0.6-1.3c0.3-0.3,1.2-0.3,1.8,0.1c4.7,3.7,9.1,7.7,12.4,12.7c0.4,0.6,0.5,1.3,0.4,1.9
		c-0.4,2-1.3,3.7-2.9,5c-1,0.8-2,0.9-3.1,0.3c-3.4-2.2-6.1-4.9-8.5-8.1C209.6,11.6,209.5,10.6,209.7,9.4z"/>
	<path class="st0" d="M585.6,0.2c4.7,0,9.5,0,14.2,0c2.2,0,4.3,0.2,6.3,1.1c1.7,0.7,3,1.7,3.4,3.6c0.3,1.1-0.3,2-1.4,2.3
		c-1.6,0.4-3.1-0.1-4.6-0.3c-6.1-0.8-12.2-1.3-18.3-1.2c-0.4,0-0.7,0-1.1,0c-0.5-0.1-1.1-0.3-1-0.8c0.1-0.5,0.7-0.3,1-0.3
		c6.4-0.2,12.7-0.2,19,0.9c0.2,0,0.5,0,0.7,0c1.3-0.1,2.2-0.7,2.2-1.6c0.1-0.9-0.7-1.5-2-1.7c-6.8-1-13.6-0.8-20.5-0.6
		c-2.1,0.1-4.3,0.5-6.7-0.5C579.9,0.4,582.7,0.3,585.6,0.2z"/>
	<path class="st0" d="M279.7,0.2c4.7,0,9.5,0,14.2,0c2.2,0,4.3,0.2,6.3,1.1c1.7,0.7,2.9,1.7,3.4,3.6c0.3,1.1-0.3,2-1.4,2.3
		c-1.6,0.4-3.1-0.1-4.6-0.3c-6.1-0.8-12.2-1.3-18.4-1.2c-0.5,0-1,0.1-1.5-0.2c-0.2-0.2-0.5-0.3-0.5-0.6c0.1-0.3,0.4-0.3,0.7-0.3
		c1.8-0.1,3.6-0.2,5.4-0.1c4.7,0.1,9.3,0.2,14,1.1c0.2,0,0.5,0,0.7,0c1.3-0.1,2.2-0.7,2.2-1.6c0-0.9-0.7-1.5-2.1-1.7
		c-6.8-1-13.6-0.8-20.4-0.6c-2.1,0.1-4.3,0.5-6.7-0.5C274.1,0.4,276.9,0.3,279.7,0.2z"/>
	<path class="st1" d="M591,15.5c3,0,5.9,0,8.7,0c0.9,0,1.8,0.2,2.7-0.1c1.5-0.4,2.1-1.5,1.5-3c-0.6-1.4-1.8-2.1-3.2-2.3
		c-4-0.7-8-0.5-11.9-0.7c-1.1,0-2.1-0.1-3.2-0.2c-0.3,0-0.6-0.1-0.9-0.3c-0.2-0.2-0.6-0.4-0.5-0.8c0.1-0.4,0.5-0.3,0.8-0.3
		c3.7-0.1,7.3-0.1,11,0.3c2.5,0.2,4.9,0.6,7.3,1.1c1.2,0.3,2.1,0.9,2.7,2c0.7,1.2,1.1,2.5,1,4c-0.1,1.6-0.8,2.4-2.4,2.6
		c-3.7,0.2-7.4,0.1-11.1-0.6C592.6,17,591.7,16.5,591,15.5z"/>
	<path class="st1" d="M285.1,15.5c3,0,5.9,0,8.8,0c1,0,2,0.2,3-0.1c1.2-0.4,1.7-1.4,1.4-2.6c-0.5-1.6-1.7-2.3-3.2-2.6
		c-4-0.7-8-0.6-12.1-0.7c-1,0-2.1-0.1-3.1-0.2c-0.4,0-0.7-0.1-1-0.3c-0.2-0.2-0.5-0.4-0.4-0.8c0.1-0.3,0.4-0.3,0.7-0.3
		c6.3-0.1,12.5,0,18.7,1.5c0.9,0.2,1.6,0.7,2.1,1.4c0.9,1.2,1.3,2.6,1.3,4.1c0,1.7-0.7,2.7-2.4,2.8c-3.8,0.3-7.5,0.1-11.2-0.6
		C286.6,17,285.8,16.4,285.1,15.5z"/>
	<path class="st0" d="M74.2,26c-0.2,0.1-0.2,0.1-0.3,0.1c-3.2,0.2-3.2,0.2-4.7-2.5C65.9,17.7,62.8,12,58.6,6.8
		C58,6,58.2,4.4,58.8,3.7c0.6-0.7,0.8-0.1,1.1,0.3c1.7,2.3,3.4,4.6,5.1,7c3,4.3,5.8,8.7,8.3,13.3C73.5,24.8,73.8,25.3,74.2,26z"/>
	<path class="st0" d="M380.1,26.1c-1.2,0-2.1,0-3.1,0c-0.7,0-0.8-0.5-1.1-0.9c-2.6-4.8-5.2-9.5-8.2-14c-0.9-1.4-2-2.8-3-4.1
		c-0.5-0.6-0.7-1.2-0.6-2c0.1-0.7,0.2-1.5,0.9-1.7c0.6-0.2,0.8,0.7,1.1,1.1c4.7,6.3,9.2,12.8,13,19.7
		C379.4,24.8,379.7,25.3,380.1,26.1z"/>
	<path class="st0" d="M184.7,26.1c-0.5,0-0.8,0-1.2,0c-0.4,0-0.9,0.2-1-0.3c-0.1-0.4,0-0.9,0.3-1.2c0.3-0.4,0.8-0.7,1.2-0.9
		c2-1.1,3.9-2.3,5.6-3.9c2.5-2.3,3.8-5.1,3.9-8.4c0.1-1.3,0.5-1.8,1.7-1.9c1.5-0.2,1.5-0.3,1.5,1.2c-0.1,7-3.7,11.8-9.6,15.1
		C186.3,26.2,185.5,26,184.7,26.1z"/>
	<path class="st0" d="M490.5,26.1c-0.3,0-0.6,0-0.8,0c-0.5-0.1-1.1,0.4-1.3-0.4c-0.2-0.7,0.2-1.3,0.7-1.6c0.9-0.6,1.9-1.1,2.9-1.7
		c3.4-2.1,6.2-4.7,7.1-8.8c0.2-0.8,0.4-1.6,0.3-2.5c0-1,0.4-1.4,1.3-1.6c2-0.4,1.9-0.5,1.9,1.5c-0.3,6.7-3.7,11.4-9.5,14.6
		C492.2,26.2,491.3,26,490.5,26.1z"/>
	<path class="st0" d="M302.3,18.4c0.3-3.4,1.2-7.2,2.5-10.9c0-0.1,0.1-0.2,0.1-0.3c0.2-0.4,0.4-0.9,0.9-0.7c0.5,0.2,0.4,0.7,0.2,1.1
		c-0.3,1-0.6,2-0.8,3c-0.6,2.3-1,4.5-1.1,6.9c0,0.8-0.1,1.7,0.8,2.1c0.9,0.4,1.7-0.2,2.4-0.7c2.2-1.9,2.6-4.5,3.1-7.1
		c0.4-2.3,0.5-4.6,0.7-6.8c0-0.2,0-0.5,0.1-0.7c0.1-0.5,0.4-0.8,0.9-0.8c0.5,0,0.6,0.5,0.6,0.9c0,1.2,0,2.4-0.1,3.5
		c-0.3,3.5-0.8,6.9-1.9,10.2c-0.6,1.8-1.8,3.1-3.6,4C304.2,23.4,302.2,22.1,302.3,18.4z"/>
	<path class="st0" d="M329.6,0.2c0.6,0,1.3,0,1.9,0c0.8-0.1,1.1,0.2,1,1c-0.9,7.2-5.4,11.5-11.8,14.1c-0.7,0.3-1.5,0.6-2-0.3
		c-0.4-0.8-0.1-2,0.7-2.5c0.7-0.5,1.5-0.9,2.3-1.3c3.2-2,6-4.4,7.2-8.2C329.2,2.1,329.4,1.2,329.6,0.2z"/>
	<path class="st0" d="M23.8,0.2c0.7,0,1.4,0,2.1,0c0.6,0,0.8,0.2,0.8,0.7c-0.8,7.3-5.3,11.6-11.8,14.3c-0.7,0.3-1.5,0.7-2.1-0.3
		c-0.5-0.8-0.1-2,0.8-2.6c0.7-0.4,1.5-0.8,2.2-1.2c3.2-2,6-4.4,7.2-8.2C23.3,2.1,23.5,1.2,23.8,0.2z"/>
	<path class="st0" d="M48,14c0,2-2.1,4.7-4,5.2c-1,0.3-1.9-0.1-2.6-0.8c-1.5-1.3-2.9-2.7-4.4-4.1c-0.4-0.4-0.6-0.8-0.5-1.4
		c0.2-0.9,0.7-1.1,1.4-0.5c1.2,0.9,2.3,1.8,3.4,2.8c0.7,0.6,1.5,1,2.4,0.4c0.9-0.6,1.3-1.5,1-2.6c-0.3-1.3-1.3-2.2-2.2-3.2
		c-0.8-0.9-1.7-1.7-2.5-2.6c-0.2-0.3-0.5-0.5-0.6-0.9c-0.2-0.4-0.2-0.9,0.2-1.2c0.5-0.4,0.7,0.2,1,0.4c2.1,1.9,4.2,3.9,6.3,5.9
		C47.6,12.1,48.1,13,48,14z"/>
	<path class="st0" d="M353.9,14c0,2-2.1,4.6-4,5.1c-1,0.3-1.9-0.1-2.6-0.8c-1.5-1.3-2.9-2.7-4.4-4.1c-0.4-0.4-0.6-0.8-0.5-1.4
		c0.2-0.9,0.7-1.1,1.4-0.5c1.2,0.9,2.3,1.8,3.4,2.8c0.7,0.6,1.5,1,2.4,0.4c0.9-0.6,1.3-1.5,1-2.6c-0.3-1.3-1.3-2.2-2.2-3.2
		c-0.8-0.9-1.7-1.7-2.5-2.6c-0.2-0.3-0.5-0.5-0.6-0.9c-0.2-0.4-0.2-0.9,0.2-1.2c0.5-0.4,0.7,0.2,1,0.4c2.1,1.9,4.2,3.9,6.3,5.9
		C353.4,12.1,353.9,13,353.9,14z"/>
	<path class="st0" d="M133.2,14.6c-0.1,0.6-0.1,1.2-0.3,1.7c-0.4,1.6-1.2,2.3-2.8,2.1c-2.3-0.2-4.7-0.6-7-0.9
		c-0.5-0.1-0.8-0.5-1-0.9c-0.2-0.6-0.1-1,0.7-1c1.6,0.1,3.3,0.2,4.9,0.3c0.8,0.1,1.5-0.1,2-0.8c0.4-0.8,0.1-1.5-0.3-2.2
		c-0.5-0.7-1.2-1-2-1.3c-2-0.7-4.2-1-6.3-1.4c-0.5-0.1-0.9-0.2-1.2-0.5c-0.2-0.3-0.6-0.5-0.4-0.9c0.2-0.4,0.6-0.3,1-0.2
		c2.9,0.4,5.8,0.8,8.7,1.3C132,10.4,133.2,11.8,133.2,14.6z"/>
	<path class="st1" d="M439.1,14.6c-0.1,0.5-0.1,1.1-0.2,1.6c-0.4,1.7-1.2,2.4-3,2.2c-2.3-0.2-4.6-0.6-6.9-0.9
		c-0.5-0.1-0.8-0.4-1-0.8c-0.3-0.7-0.2-1.2,0.7-1.1c1.6,0.1,3.1,0.2,4.7,0.3c0.9,0.1,1.7,0,2.1-0.9c0.4-1,0-1.8-0.6-2.5
		c-0.4-0.5-1-0.7-1.6-0.9c-2-0.7-4.2-1-6.3-1.4c-0.3-0.1-0.6-0.1-0.9-0.3c-0.4-0.3-0.9-0.6-0.7-1.1c0.2-0.5,0.8-0.2,1.2-0.2
		c2.8,0.4,5.7,0.8,8.5,1.3C437.9,10.4,439.1,11.8,439.1,14.6z"/>
	<path class="st0" d="M550.6,26.1c-0.9,0-1.8,0-2.8,0c-0.5,0-0.6-0.3-0.8-0.6c-3-5.2-6.3-10.1-9.8-14.9c-0.6-0.8-0.7-1.7-0.5-2.7
		c0.1-0.5,0.4-0.7,0.8-0.2c4.9,5.7,9.5,11.6,13.1,18.2C550.7,25.9,550.7,25.9,550.6,26.1z"/>
	<path class="st0" d="M245,26.1c-1.1,0-2,0-2.9,0c-0.5,0-0.7-0.3-0.9-0.6c-2.9-5.1-6.3-10-9.7-14.8c-0.2-0.3-0.4-0.7-0.5-1.1
		c-0.2-0.7-0.4-1.7,0.2-2.1c0.6-0.3,0.9,0.7,1.3,1.1C237.1,14,241.3,19.7,245,26.1z"/>
	<path class="st0" d="M356.7,0.3c2-0.2,3.4,0.9,3.5,2.7c0.1,2.1-0.8,3.8-2.2,5.3c-1,1-1.9,1.2-3.2,0.5c-2-1-3.7-2.4-5.4-3.9
		c-1.1-0.9-2-1.9-3-2.9C346.1,2,346,2,346,1.9c-0.2-0.5-0.9-1.1-0.4-1.5c0.4-0.4,1.2-0.2,1.8,0.2c1.9,1.5,3.8,2.9,5.7,4.3
		c1.6,1.2,2.7,1.4,3.7,0.4c1.1-1,1.3-2.8,0.3-4.3C357,0.8,356.9,0.6,356.7,0.3z"/>
	<path class="st0" d="M50.8,0.3c2-0.2,3.4,0.9,3.5,2.7c0.1,2.1-0.8,3.8-2.2,5.3c-1,1-1.9,1.2-3.2,0.5c-2.1-1.1-3.9-2.5-5.6-4
		c-1.1-1-2.1-2-3.1-3.1c-0.3-0.4-0.9-1-0.3-1.4c0.4-0.3,1.1-0.2,1.7,0.2c1.9,1.5,3.9,2.9,5.8,4.4c1.6,1.2,2.7,1.4,3.7,0.4
		c1.1-1,1.3-2.8,0.4-4.2C51.2,0.9,51,0.7,50.8,0.3z"/>
	<path class="st1" d="M581.3,18.7c0.4,0,0.7,0,1.1,0c0.9,0,1.7-0.2,2.1-1.1c0.4-0.9,0.2-1.7-0.4-2.4c-1-1.2-2.4-1.5-3.9-1.5
		c-1,0.1-2.1,0-3.1-0.2c-0.4-0.1-0.8-0.1-0.8-0.6c0-0.5,0.4-0.5,0.8-0.5c0.3,0,0.6-0.1,1-0.1c1.3,0,2.4-0.6,3.2-1.6
		c0.9-1,0.9-1,1.6,0.2c1.3,2.2,3.1,4,5.2,5.5c1,0.7,2.2,1.5,1.8,2.9c-0.5,1.5-1.9,1.5-3.2,1.5c-1.5,0.1-2.9-0.4-4.2-1.1
		C581.9,19.7,581.5,19.4,581.3,18.7z"/>
	<path class="st1" d="M275.5,18.7c0.4,0,0.8,0,1.2,0c0.9,0,1.6-0.2,2-1c0.4-0.8,0.2-1.6-0.3-2.3c-1-1.3-2.4-1.7-3.9-1.6
		c-1.1,0-2.1,0-3.2-0.3c-0.4-0.1-0.8-0.2-0.7-0.6c0-0.4,0.4-0.5,0.7-0.5c1.9,0,3.5-0.5,4.7-2.1c0.4-0.6,0.8,0,1,0.3
		c0.9,1.4,1.8,2.8,3,3.9c0.8,0.8,1.7,1.4,2.6,2.1c0.9,0.7,2,1.5,1.5,2.8c-0.4,1.3-1.7,1.4-2.9,1.5c-1.6,0.1-3.1-0.3-4.5-1
		C276.1,19.7,275.7,19.4,275.5,18.7z"/>
	<path class="st0" d="M505.8,13c1.7,1.5,3.3,3.1,5.4,4.1c0.4,0.2,0.5,0.6,0.4,1.1c-0.6,1.9-1.3,3.8-2.5,5.5
		c-1.2,1.7-2.9,1.9-4.6,0.7c-0.6-0.5-1.1-1-1.6-1.6c-0.9-1.1-0.7-1.8,0.5-2.6c0.5-0.3,0.8-0.4,1.2,0.1c1.1,1.2,2,1.4,2.9,0.7
		c1-0.8,1.1-2.5,0.2-3.6c-0.5-0.6-1.1-1.2-1.7-1.8C505.1,14.7,505.1,14,505.8,13z"/>
	<path class="st0" d="M200.9,25.2c-1.6,0-4.1-1.9-4.4-3.2c-0.2-0.9,0.4-1.4,1-1.8c0.4-0.3,0.7-0.3,1.1,0.1c1.3,1.3,2.2,1.4,3,0.6
		c1-0.9,1-2.5,0-3.7c-0.5-0.6-1.1-1.2-1.7-1.7c-0.3-0.3-0.6-0.7-0.6-1.1c0-0.4,0-1,0.4-1.2c0.4-0.2,0.6,0.3,0.8,0.5
		c1.4,1.2,2.7,2.5,4.4,3.3c0.7,0.3,0.8,0.7,0.6,1.4c-0.6,1.8-1.3,3.6-2.4,5.1C202.6,24.5,201.8,25.1,200.9,25.2z"/>
	<path class="st1" d="M415.4,11.2c1.7,0.1,3.2,0.3,4.8,0.4c0.3,0,0.6,0,1,0c2.2-0.1,2.2-0.1,3,2c0.5,1.4,0.9,2.8,1,4.2
		c0,2.1-0.9,3-2.9,3c-1.1,0-2.1-0.2-3-0.5c-1.1-0.3-1.4-1.8-0.7-2.6c0.3-0.4,0.6-0.2,1-0.1c1,0.3,1.9,0.3,2.5-0.8
		c0.4-0.8-0.1-2.1-1-2.8c-1.1-0.8-2.4-0.8-3.6-1C416.2,12.8,415.5,12.3,415.4,11.2z"/>
	<path class="st0" d="M109.5,11.1c1,0.1,2,0.2,3,0.4c1.1,0.2,2.3,0.3,3.3,0c1.2-0.2,1.7,0.2,2.1,1.2c0.7,1.7,1.3,3.4,1.3,5.2
		c0,2-0.9,2.9-2.9,2.9c-1.1,0-2.1-0.2-3-0.5c-1.1-0.4-1.5-1.7-0.8-2.6c0.3-0.4,0.6-0.3,1-0.2c1,0.3,1.9,0.3,2.5-0.7
		c0.5-0.8,0-2.2-1.1-2.9c-1.1-0.8-2.4-0.8-3.6-1C110.3,12.8,109.7,12.3,109.5,11.1z"/>
	<path class="st0" d="M336,1.5c1.7,1.6,3.3,3.1,5.4,4.1c0.5,0.3,0.6,0.7,0.4,1.2c-0.6,1.9-1.3,3.7-2.4,5.3c-1.4,1.9-3.2,2.1-5,0.5
		c-0.4-0.4-0.9-0.8-1.2-1.3c-1-1.2-0.8-2,0.6-2.8c0.4-0.2,0.7-0.3,1,0.2c1,1.4,2.3,1.4,3,0.6c1-0.9,1-2.5,0-3.7
		c-0.5-0.6-1.1-1.1-1.6-1.6C335.4,3.2,335.3,2.8,336,1.5z"/>
	<path class="st0" d="M30.1,1.5c1.7,1.6,3.3,3.1,5.4,4.1C36,5.9,36,6.3,35.9,6.8c-0.6,1.9-1.3,3.7-2.4,5.3c-1.4,1.9-3.2,2.1-5,0.5
		c-0.4-0.4-0.9-0.8-1.2-1.3c-1-1.2-0.8-2,0.6-2.8c0.4-0.2,0.7-0.3,1,0.1c1.1,1.5,2.3,1.3,3,0.6c1-0.9,1-2.5,0-3.7
		c-0.5-0.6-1-1.1-1.6-1.6C29.5,3.3,29.5,2.5,30.1,1.5z"/>
	<path class="st0" d="M380.7,10.6c3.5,0.1,6.5,1.2,9.3,3.1c2.1,1.4,4.1,2.9,6.6,3.6c0.4,0.1,0.8,0.2,1.2,0.3
		c1.1,0.2,1.7,1.3,1.2,2.3c-0.6,1.4-1.4,2.8-2,4.1c-0.4,0.8-1,0.9-1.8,0.7c-0.8-0.3-0.9-0.8-0.7-1.5c0-0.3,0.1-0.5,0.2-0.8
		c0.9-1.8,0.1-3.2-1.2-4.4c-3.2-3.1-7-5.1-11.3-6.2C381.6,11.7,380.7,11.7,380.7,10.6z"/>
	<path class="st0" d="M75.8,10.6c3.1,0.4,5.9,1.5,8.5,3.2c2.1,1.4,4.2,2.9,6.7,3.6c0.4,0.1,0.8,0.1,1.2,0.2c0.8,0.3,1.3,1.3,0.9,2.1
		c-0.7,1.5-1.4,2.9-2.1,4.4c-0.4,0.7-1,0.8-1.7,0.6c-0.7-0.2-0.9-0.7-0.8-1.4c0-0.2,0-0.4,0.1-0.6c1.1-2.1,0.2-3.6-1.4-5.1
		c-3.1-2.8-6.7-4.7-10.7-5.8c-0.3-0.1-0.6-0.2-0.9-0.3c-0.5-0.1-0.9-0.3-0.8-0.7C74.9,10.3,75.5,10.8,75.8,10.6z"/>
	<path class="st0" d="M410.4,0.2c1,0,2.1,0,3.1,0c1.2,1.9,2.8,3.4,4.7,4.7c1.1,0.7,2.3,1.6,1.8,3c-0.5,1.4-2,1.4-3.3,1.5
		c-1.6,0-3-0.5-4.3-1.2c-0.4-0.2-0.8-0.5-0.9-1c0.3-0.2,0.6,0,0.9,0c0.9,0,1.8-0.1,2.2-1.1c0.4-0.9,0.2-1.8-0.4-2.5
		c-0.9-1-2.1-1.4-3.4-1.4c-1.2,0.1-2.4-0.1-3.6-0.3c-0.3-0.1-0.8-0.1-0.7-0.6c0-0.5,0.5-0.4,0.8-0.4C408.4,0.9,409.5,0.7,410.4,0.2z
		"/>
	<path class="st0" d="M104.6,0.2c1,0,2.1,0,3.1,0c1.2,1.9,2.8,3.4,4.7,4.7c1.1,0.7,2.3,1.6,1.8,3c-0.5,1.4-2,1.4-3.3,1.5
		c-1.6,0-3-0.5-4.3-1.2c-0.4-0.2-0.8-0.5-0.9-1c0.3-0.2,0.6,0,0.9,0c0.9,0,1.8-0.1,2.2-1.1c0.4-0.9,0.2-1.8-0.4-2.5
		c-0.9-1-2.1-1.4-3.4-1.4c-1.2,0.1-2.4-0.1-3.6-0.3c-0.3-0.1-0.8-0.1-0.7-0.6c0-0.5,0.5-0.4,0.8-0.4C102.6,0.9,103.6,0.7,104.6,0.2z
		"/>
	<path class="st0" d="M157.6,16.1c-3.8-0.8-7.5-1.8-11.1-2.8c-3.9-1.1-7.7-2.3-11.5-3.6c-0.3-0.1-0.7-0.2-0.9-0.5
		c-0.2-0.3-0.4-0.6-0.3-1c0.2-0.4,0.6-0.1,0.9-0.1c7.7,1.5,15.1,3.7,22.3,6.5c0.3,0.1,0.6,0.3,0.9,0.4c0.3,0.1,0.6,0.3,0.5,0.7
		C158.2,16.1,158,16.2,157.6,16.1z"/>
	<path class="st0" d="M463.1,16.1c-3-0.7-6.2-1.5-9.5-2.4c-4.3-1.2-8.6-2.5-12.8-4c-0.4-0.1-0.8-0.2-1-0.6c-0.2-0.3-0.4-0.6-0.2-0.9
		c0.2-0.4,0.5-0.2,0.8-0.1c7.7,1.5,15.1,3.6,22.3,6.5c0.3,0.1,0.6,0.3,0.9,0.4c0.3,0.1,0.6,0.3,0.5,0.7
		C464.1,16.1,463.8,16.2,463.1,16.1z"/>
	<path class="st1" d="M331.3,16.8c0-0.6-0.2-0.9-0.4-1.2c-0.5-0.7-1.1-1.5-1.6-2.2c-0.4-0.5-0.4-0.9,0.1-1.2c0.4-0.4,0.9-0.4,1.3,0
		c0.2,0.2,0.4,0.5,0.6,0.7c1.1,1.2,2.4,2.3,4.1,2.7c0.9,0.2,0.9,0.7,0.6,1.3c-0.3,0.6-0.8,1.2-1.4,1.6c-1.4,1-2.9,2-4.3,3
		c-0.9,0.6-1.7,0.4-2.4-0.3c-1.2-1.2-2.2-2.6-3.1-4c-0.3-0.4-0.4-0.9,0.1-1.3c0.5-0.4,0.9-0.1,1.3,0.2c0.7,0.7,1.3,1.3,2,2
		c0.6,0.5,1.2,0.6,1.9,0.3C330.8,17.9,331.2,17.4,331.3,16.8z"/>
	<path class="st1" d="M23.4,21.7c-0.7,0-1.2-0.3-1.6-0.8c-1.1-1.1-2.1-2.4-2.9-3.8c-0.3-0.5-0.5-1,0-1.4c0.5-0.4,1-0.1,1.4,0.3
		c0.6,0.6,1.2,1.2,1.9,1.8c0.8,0.8,1.7,0.7,2.5,0c0.8-0.7,1-1.5,0.3-2.4c-0.5-0.7-1-1.4-1.5-2.1c-0.4-0.5-0.5-0.9,0-1.3
		c0.5-0.5,1-0.3,1.5,0.1c0.3,0.3,0.6,0.7,1,1.1c1,1,2.2,1.9,3.6,2.1c0.9,0.2,0.9,0.7,0.6,1.3c-0.2,0.4-0.5,0.8-0.9,1.1
		c-1.5,1.4-3.4,2.3-5,3.6C24,21.6,23.7,21.6,23.4,21.7z"/>
	<path class="st0" d="M521.6,0.3c1.4-0.2,2.5-0.2,3.4,0.8c1.2,1.3,2.5,2.4,3.7,3.8c0.2,0.2,0.4,0.5,0.7,0.6c1.2,0.8,2.3,0.9,3,0.1
		c0.7-0.8,0.6-1.6-0.5-2.8c-0.7-0.8-1.5-1.6-2.3-2.5c1.5-0.3,2.6-0.2,3.5,1.2c1,1.5,2,2.9,1.9,4.7c0,0.9-0.3,1.7-0.7,2.5
		c-0.7,1.1-1.9,1.5-3.1,0.8c-0.2-0.1-0.5-0.3-0.7-0.5C527.6,6.1,524.8,3.1,521.6,0.3z"/>
	<path class="st0" d="M215.7,0.3c1.6-0.4,2.7,0.1,3.7,1.1c1.1,1.2,2.2,2.3,3.3,3.4c0.3,0.3,0.6,0.6,1,0.8c1.2,0.7,2.2,0.6,2.8-0.1
		c0.8-1,0.2-1.9-0.4-2.6c-0.8-0.9-1.6-1.7-2.4-2.5c1.7-0.5,2.3-0.4,3.4,1c1.1,1.5,2.1,3,2,4.9c0,0.9-0.3,1.6-0.7,2.3
		c-0.7,1.2-2,1.5-3.2,0.8c-0.3-0.2-0.5-0.4-0.8-0.6C221.7,6,218.9,3.1,215.7,0.3z"/>
	<path class="st0" d="M433.8,0.3c0.9,0,1.7,0,2.6-0.1c0.9,1.2,1.2,2.6,1.1,4c0,1.6-0.8,2.5-2.5,2.6c-3.8,0.2-7.5-0.1-11.2-0.9
		c-1.1-0.2-1.9-0.8-2.5-1.6c2.3,0,4.5,0,6.7,0c1.3,0,2.6,0.1,3.8,0.2c1,0.1,1.9-0.1,2.5-1.1c0.6-1,0.2-1.8-0.3-2.7
		C434,0.6,433.9,0.4,433.8,0.3z"/>
	<path class="st0" d="M127.9,0.3c0.9,0,1.7,0,2.6-0.1c0.9,1.2,1.2,2.6,1.1,4c0,1.6-0.8,2.5-2.5,2.6c-3.8,0.2-7.5-0.1-11.2-0.9
		c-1.1-0.2-2-0.7-2.5-1.6c2.2,0,4.4,0,6.7,0c1.3,0,2.6,0.1,3.8,0.2c1,0.1,1.9-0.1,2.5-1.1c0.6-1,0.2-1.8-0.3-2.7
		C128.1,0.6,128,0.4,127.9,0.3z"/>
	<path class="st0" d="M340.3,26.1c-0.1,0-0.2,0-0.4,0c-2.5,0.5-4.1-0.7-5.6-2.4c-0.6-0.7-0.5-1.2,0-1.8c0.6-0.7,1,0,1.4,0.3
		c0.7,0.7,1.4,1.4,2.2,2c1,0.9,2.2,0.9,3.3-0.1c1.1-1,1.4-2.3,0.7-3.4c-0.6-0.9-1.2-1.7-1.8-2.5c-0.3-0.4-0.6-0.9-0.4-1.4
		c0.2-0.7,0.6-1,1.3-0.5c1.8,1.3,3.3,3,4.2,5.1c0.7,1.5,0,3.5-1.3,4.5c-0.3,0.2-0.6,0.2-0.9,0.2C342.2,26.1,341.3,26.1,340.3,26.1z"
		/>
	<path class="st0" d="M34.4,26.1c-0.1,0-0.2,0-0.4,0c-2.4,0.5-4.1-0.7-5.5-2.4c-0.6-0.7-0.6-1.3,0-1.9c0.6-0.6,1,0.1,1.4,0.4
		c0.7,0.6,1.3,1.2,2,1.9c1.1,1,2.3,1,3.4,0.1c1.2-1,1.5-2.3,0.7-3.5c-0.6-0.8-1.2-1.7-1.8-2.5c-0.3-0.4-0.5-0.9-0.2-1.4
		c0.2-0.6,0.6-0.8,1.2-0.4c1.9,1.4,3.4,3.1,4.3,5.3c0.6,1.4-0.1,3.5-1.4,4.3c-0.3,0.2-0.6,0.2-0.9,0.2
		C36.3,26.1,35.3,26.1,34.4,26.1z"/>
	<path class="st0" d="M156.1,26.1c-1.1,0-2,0-2.9,0c-0.4,0-0.5-0.1-0.6-0.5c-0.2-1-1-1.6-1.9-2c-4.1-2-8.5-3.5-13-4.4
		c-0.5-0.1-0.9-0.2-1.4-0.3c-0.5-0.2-0.9-0.6-0.7-1.2c0.2-0.5,0.7-0.7,1.2-0.6c0.9,0.2,1.8,0.4,2.7,0.6c4,1.1,8.1,2.2,11.9,3.8
		c1.9,0.8,3.5,2,4.5,3.8C155.9,25.6,156,25.8,156.1,26.1z"/>
	<path class="st0" d="M461.9,26.1c-1,0-2,0-2.9,0c-0.3,0-0.5,0-0.6-0.4c-0.2-1.2-1.2-1.7-2.2-2.2c-4-2-8.3-3.3-12.6-4.3
		c-0.5-0.1-1-0.2-1.5-0.4c-0.5-0.2-0.9-0.5-0.7-1.1c0.1-0.6,0.7-0.7,1.2-0.6c0.9,0.2,1.8,0.4,2.7,0.6c4,1.1,8.1,2.2,11.9,3.8
		c1.9,0.8,3.5,2,4.5,3.9C461.8,25.6,461.8,25.8,461.9,26.1z"/>
	<path class="st0" d="M373.9,26.1c-0.9,0-1.5,0-2.1,0c-0.5,0-0.7-0.2-0.9-0.6c-2.8-4.7-5.9-9.2-9.2-13.6c-0.2-0.2-0.3-0.5-0.4-0.7
		c-0.2-0.5-0.1-1.1,0.3-1.4c0.5-0.3,0.7,0.3,1,0.6c3.9,4.5,7.7,9.1,10.6,14.3C373.4,25.1,373.6,25.5,373.9,26.1z"/>
	<path class="st0" d="M67.8,26c-2.4,0.3-2.4,0.3-3.5-1.6c-2.6-4.2-5.4-8.3-8.4-12.3c-0.5-0.6-0.9-1.2-0.5-2.1
		c0.2-0.4,0.5-0.6,0.8-0.2c4.3,5,8.6,10,11.6,15.9C67.9,25.9,67.8,25.9,67.8,26z"/>
	<path class="st0" d="M543.1,25.9c-2.3,0.7-3.7-0.1-4.7-2.1c-1.2-2.4-2.8-4.6-4.5-6.8c-0.4-0.5-0.6-1.1-0.5-1.8
		c0.2-0.7,0.2-1.6,1-1.8c0.6-0.1,0.8,0.7,1.1,1.2c2.5,3.4,4.9,6.8,7.1,10.4C542.7,25.3,542.9,25.6,543.1,25.9z"/>
	<path class="st0" d="M237.4,26.1c-1.2,0-2,0-2.9,0c-0.5,0-0.7-0.2-0.9-0.6c-1.8-3-3.7-6-5.8-8.8c-0.6-0.8-0.4-2.4,0.3-3.1
		c0.6-0.6,0.7,0,1,0.3c1.5,2,2.9,4,4.3,6.1C234.7,22,236,23.9,237.4,26.1z"/>
	<path class="st0" d="M70.8,3.8c7.7-1.1,15.9,3.6,17.9,10.3c-0.7,0.2-1.2-0.2-1.7-0.6c-0.8-0.5-1.5-1.2-2-2
		c-2.9-4.3-7.1-6.1-12.1-6.2C71.8,5.4,71.1,5.1,70.8,3.8z"/>
	<path class="st0" d="M379.4,3.7c7.2-0.1,11.7,3.9,14.9,9.7c0.1,0.2,0.4,0.5,0.1,0.7c-0.2,0.2-0.5,0-0.8-0.1
		c-1.2-0.5-2.1-1.4-2.8-2.5c-2.9-4.3-7.1-6.1-12.2-6.2c-0.9,0-1.5-0.2-1.9-1.1c-0.2-0.4-0.1-0.6,0.4-0.6
		C377.9,3.7,378.7,3.7,379.4,3.7z"/>
	<path class="st0" d="M259.1,25.6c-1.5-0.1-2.3-0.9-3.1-1.7c-1.2-1.1-1.8-2.6-3.1-3.7c-2.9-2.5-6.3-3.5-10-3.6c-1.2,0-1.8-0.4-2-1.7
		c3.4,0.1,6.7,0,9.8,1.5C254.6,18.5,257.1,21.7,259.1,25.6z"/>
	<path class="st0" d="M565,25.6c-1,0.1-1.7-0.4-2.3-0.9c-0.8-0.7-1.5-1.5-2-2.3c-2.4-3.4-5.8-5-9.7-5.5c-0.9-0.1-1.8-0.1-2.7-0.2
		c-0.3,0-0.6,0.1-0.7-0.2c-0.2-0.4-0.7-0.8-0.5-1.2c0.2-0.4,0.7-0.2,1.1-0.2c3.9,0.1,7.8,0.4,11.1,3C561.5,20.1,563.5,22.6,565,25.6
		z"/>
	<path class="st0" d="M11.9,4.5c-0.4,3.6-0.8,7.2-1.3,10.8c-0.4,2.6-2.3,4-4.4,5.3c-0.2,0.1-0.4,0.2-0.7,0.1
		c-0.3-0.2-0.2-0.5-0.1-0.8C5.6,19,6,18.2,6.8,17.6c1.3-1,1.8-2.3,1.9-3.9c0.3-3.1,0.9-6.2,1.4-9.2c0-0.1,0-0.2,0-0.2
		c0.2-0.6,0.5-1.2,1.2-1.1C11.9,3.3,11.9,4,11.9,4.5z"/>
	<path class="st0" d="M317.7,5.2c-0.4,3.4-0.7,6.7-1.2,10.1c-0.4,2.6-2.3,4.1-4.4,5.3c-0.6,0.3-1,0.1-0.8-0.6c0.2-0.7,0.3-1.5,1-2
		c1.9-1.4,2.3-3.4,2.5-5.5c0.3-2.6,0.8-5.2,1.2-7.8c0-0.2,0.1-0.5,0.1-0.7c0.2-0.5,0.5-0.9,1-0.8c0.6,0,0.6,0.6,0.7,1.1
		C317.8,4.6,317.7,4.9,317.7,5.2C317.6,5.2,317.7,5.2,317.7,5.2z"/>
	<path class="st0" d="M295.4,26.1c-1,0-2,0-3,0c-0.4,0-0.8,0-1-0.4c-0.3-0.5-0.4-1,0.5-1c1.2,0,2.4,0,3.6,0c0.6,0,1.2-0.1,1.5-0.7
		c0.3-0.7,0-1.2-0.4-1.7c-0.7-0.9-1.7-1.1-2.8-1.2c-1.3-0.2-2.7-0.3-4-0.5c-0.3,0-0.6,0-0.8-0.1c-0.4-0.2-0.8-0.4-0.8-0.8
		c0.1-0.5,0.6-0.3,0.9-0.2c2.4,0.1,4.9,0.2,7.3,0.4c2.6,0.3,4.2,3.5,3.1,5.8c-0.2,0.5-0.6,0.6-1.2,0.6
		C297.4,26.1,296.4,26.1,295.4,26.1z"/>
	<path class="st0" d="M601.3,26.1c-1,0-2,0-3,0c-0.4,0-0.7,0-1-0.4c-0.2-0.2-0.3-0.5-0.2-0.8c0.1-0.4,0.4-0.3,0.7-0.3
		c1.2,0,2.4,0,3.6,0c0.6,0,1.2-0.1,1.5-0.8c0.3-0.6,0-1.2-0.3-1.7c-0.4-0.6-1.1-0.9-1.8-1.1c-1.6-0.4-3.3-0.5-5-0.7
		c-0.3,0-0.6,0-0.9-0.2c-0.4-0.1-0.8-0.4-0.7-0.8c0.1-0.4,0.6-0.2,0.9-0.2c2.5,0.1,4.9,0.2,7.4,0.5c2.5,0.3,4.1,3.6,3,5.8
		c-0.2,0.4-0.6,0.6-1.1,0.6C603.3,26.1,602.3,26.1,601.3,26.1z"/>
	<path class="st0" d="M496,13.7c-0.1,2-1.1,3.5-2.5,4.8c-1,0.9-2.1,1.6-3.3,2.1c-0.9,0.4-1.2,0.1-1.1-0.8c0-0.8,0.5-1.2,1.1-1.6
		c1.2-0.8,2.4-1.6,3-3c0.6-1.5,0.3-2.4-1.2-3c-0.6-0.2-1.2-0.5-1.8-0.6c-0.4-0.1-0.6-0.3-0.6-0.7c0-0.4,0.2-0.6,0.5-0.7
		C491.9,9.2,496,11.6,496,13.7z"/>
	<path class="st0" d="M190.2,13.6c-0.1,1.7-0.7,2.9-1.7,4.1c-1.1,1.3-2.5,2.3-4.1,3c-0.9,0.4-1.2,0.1-1.1-0.8c0-0.8,0.5-1.2,1.1-1.6
		c1.2-0.8,2.4-1.6,3-3c0.6-1.5,0.3-2.4-1.2-3c-0.6-0.2-1.2-0.5-1.8-0.6c-0.3-0.1-0.6-0.3-0.6-0.6c0-0.4,0.3-0.6,0.6-0.8
		C186.2,9.3,190.1,11.6,190.2,13.6z"/>
	<path class="st1" d="M506.7,8.5c0.4,0.3,0.8,0.6,1.1,0.8c1.4,0.9,3.3,0.1,3.4-1.6c0-1.3,0.5-2,1.6-2.6c0.3,0.2,0.1,0.5,0.1,0.8
		c0,1.5,0.3,3,0.7,4.4c0.2,0.7,0.3,1.5,0.2,2.2c-0.1,0.9-0.7,1.5-1.6,1.6C509.8,14.4,506.5,11.1,506.7,8.5z"/>
	<path class="st0" d="M200.8,8.5c0.4,0.3,0.8,0.6,1.1,0.8c1.5,0.9,3.3,0.1,3.4-1.6c0-1.3,0.5-2,1.6-2.6c0.3,0.2,0.1,0.5,0.2,0.8
		c0,1.5,0.3,3,0.7,4.4c0.2,0.7,0.3,1.5,0.2,2.2c-0.1,0.9-0.7,1.5-1.6,1.6C203.9,14.4,200.6,11.1,200.8,8.5z"/>
	<path class="st0" d="M62.5,25.9c-1.6,0.4-2.6,0.1-3.5-1.3c-2.1-3.4-4.3-6.7-6.4-10.1c-0.2-0.3-0.4-0.6-0.5-0.9
		c-0.1-0.4,0.1-0.8,0.5-1c0.3-0.3,0.5,0.1,0.7,0.2C56.6,16.9,59.7,21.2,62.5,25.9z"/>
	<path class="st0" d="M99.1,15.9c2.1,0,3.3,0.8,3.9,2.5c1,2.5,0.4,4.9-0.8,7.3c-0.2,0.5-0.6,0.5-1,0.4c-0.5-0.1-0.7-0.5-0.8-1
		c-0.1-0.7,0.2-1.4,0.4-2.1c0.4-1.2,0.5-2.3,0-3.5c-0.5-1.3-1.4-1.8-2.7-1.5c-0.6,0.1-1.2,0.3-1.8,0.5c-0.5,0.2-0.9,0.2-1.2-0.3
		c-0.3-0.5,0-1,0.4-1.2C96.7,16.3,98.1,15.9,99.1,15.9z"/>
	<path class="st0" d="M405,15.9c2.1,0,3.4,0.9,4,2.8c0.8,2.4,0.3,4.7-0.8,6.9c-0.2,0.5-0.6,0.5-1,0.4c-0.6-0.1-0.8-0.5-0.8-1
		c-0.1-0.7,0.2-1.4,0.4-2.1c0.4-1.2,0.4-2.3-0.1-3.5c-0.5-1.2-1.3-1.7-2.6-1.4c-0.7,0.1-1.3,0.3-2,0.5c-0.5,0.2-0.9,0.1-1.1-0.3
		c-0.3-0.5,0-0.9,0.4-1.1C402.5,16.2,403.9,16,405,15.9z"/>
	<path class="st0" d="M366.9,26.1c-0.8,0.2-1.2-0.2-1.7-0.8c-2.4-3.6-4.7-7.2-6.9-10.9c-0.2-0.4-0.6-0.7-0.3-1.2
		c0.1-0.3,0.2-0.6,0.6-0.7c0.3-0.1,0.4,0.3,0.6,0.5c3.1,3.8,5.9,7.7,8.4,11.9c0.2,0.4,0.7,0.7,0.5,1.1
		C367.9,26.3,367.3,26,366.9,26.1z"/>
	<path class="st0" d="M267,9.6c0.7-0.3,1.3-0.5,1.8-0.8c0.8-0.5,1.6-1.1,1.3-2.2c-0.3-1-1.3-1.2-2.2-1.2c-1,0-1.9,0.3-2.8,0.6
		c-0.3,0.1-0.7,0.3-1,0.4c-0.5,0.2-1.3,0.3-1.5-0.2c-0.2-0.6,0.6-0.6,1-0.8c1.2-0.7,2.7-1,3.3-2.4c0.2-0.4,0.4-0.2,0.7-0.1
		c2.4,0.6,4.1,2.1,5.7,3.8c0.6,0.7,0.6,1.6-0.2,2.3C271.6,10.3,268.7,10.5,267,9.6z"/>
	<path class="st0" d="M572.9,9.6c0.5-0.2,1.1-0.4,1.6-0.7c0.8-0.5,1.6-1.1,1.3-2.1c-0.3-1.1-1.3-1.3-2.3-1.2c-1.1,0-2.1,0.4-3.1,0.8
		c-0.3,0.1-0.6,0.3-0.9,0.3c-0.5,0.1-1.1,0.2-1.2-0.4c-0.1-0.5,0.5-0.5,0.9-0.6c1.3-0.7,2.8-1,3.4-2.5c0.1-0.3,0.4-0.2,0.6-0.1
		c2.4,0.6,4.2,2.1,5.8,3.9c0.7,0.8,0.5,1.9-0.5,2.4C576.8,10.4,574.9,10.4,572.9,9.6z"/>
	<path class="st0" d="M611.7,6.5c0.4,2.3-0.7,4.3-1,6.4c-0.2,1.6-0.6,3.2-0.6,4.8c0,0.9,0.1,1.7,1.3,2.1c0.9,0.4,0.3,1.5,0.4,2.2
		c0.1,0.7-0.6,0.5-1,0.5c-1.6,0-2.5-1-2.6-2.6c-0.1-2.5,0.4-4.9,1-7.2c0.4-1.7,0.8-3.4,1.5-5C610.8,7.2,610.9,6.7,611.7,6.5z"/>
	<path class="st0" d="M436.1,26.1c-0.9,0.2-1.5,0-1.6-1.3c-0.1-0.8-0.8-1.3-1.6-1.6c-1-0.3-2-0.6-3-1c-0.5-0.1-0.9-0.3-1.2-0.8
		c-0.2-0.3-0.4-0.6-0.2-1c0.2-0.4,0.6-0.4,0.9-0.3c2.3,0.1,4.6,0.7,6.6,1.8c0.8,0.4,1.4,1.1,1.7,2C438.5,25.8,438.2,26.1,436.1,26.1
		z"/>
	<path class="st0" d="M130.4,26.1c-0.9,0.2-1.6,0-1.7-1.3c-0.1-0.7-0.8-1.3-1.5-1.5c-1-0.3-2-0.7-3.1-1c-0.4-0.1-0.8-0.3-1.1-0.7
		c-0.2-0.3-0.5-0.7-0.3-1.1c0.2-0.4,0.6-0.3,1-0.3c2.3,0.1,4.5,0.7,6.5,1.7c0.9,0.4,1.5,1.1,1.8,2.1
		C132.6,25.8,132.4,26.1,130.4,26.1z"/>
	<path class="st0" d="M321,0.4c1.4-0.5,2.9,0,4.3-0.2c1.3,1.2,1.1,2.6,0.5,4c-1,2.4-3,3.9-5.4,5c-0.3,0.1-0.8,0.3-1-0.1
		c-0.3-0.5-0.3-1.2,0.2-1.6c0.5-0.5,1.1-0.9,1.7-1.3c0.8-0.6,1.6-1.3,2-2.3c0.7-1.6,0.4-2.5-1.3-3.1C321.7,0.6,321.3,0.5,321,0.4z"
		/>
	<path class="st0" d="M15.2,0.4c1.4-0.5,2.9,0,4.3-0.2c1.3,1.2,1.1,2.6,0.5,4c-1,2.4-3,3.9-5.4,5c-0.3,0.1-0.8,0.3-1-0.1
		c-0.3-0.5-0.3-1.2,0.2-1.6c0.5-0.5,1.1-0.9,1.7-1.3c0.8-0.6,1.6-1.3,2-2.3c0.7-1.6,0.4-2.5-1.3-3.1C15.8,0.6,15.5,0.5,15.2,0.4z"/>
	<path class="st0" d="M213.5,26.1c0.8-1.5,0.3-2.7-0.5-3.9c-1-1.5-2.1-2.9-3.3-4.2c-0.2-0.3-0.5-0.5-0.6-0.9
		c-0.2-0.5-0.2-1.1,0.2-1.4c0.5-0.3,0.8,0.2,1,0.5c2,2.2,3.9,4.3,5.9,6.5c0.3,0.3,0.5,0.6,0.6,1c0.9,1.8,0.5,2.3-1.4,2.3
		C214.9,26.1,214.3,26.1,213.5,26.1z"/>
	<path class="st0" d="M519.3,26.1c0.9-1.6,0.2-2.8-0.6-4c-1-1.5-2.1-2.8-3.2-4.1c-0.2-0.3-0.5-0.6-0.6-0.9c-0.2-0.5-0.2-1,0.2-1.3
		c0.5-0.4,0.8,0.2,1,0.5c2,2.2,3.9,4.3,5.9,6.5c0.2,0.3,0.4,0.6,0.6,0.9c1,1.8,0.6,2.5-1.4,2.5C520.7,26.1,520.1,26.1,519.3,26.1z"
		/>
	<path class="st0" d="M399.9,15.2c-0.4,0-0.5,0-0.7,0c-0.5,0-1.1,0-1.2-0.6c-0.1-0.7,0.6-0.6,1-0.7c2.3-0.4,2.7-1.4,1.4-3.3
		c-1.2-1.8-2.9-2.9-5-2c-0.5,0.2-0.9,0.1-1.1-0.3c-0.3-0.6,0.3-0.7,0.7-0.9c1.9-0.7,3.8-0.6,5.4,0.7c1,0.8,1.9,1.8,2.6,2.9
		c1.2,2,0.6,3.3-1.6,3.9C400.8,15.1,400.3,15.2,399.9,15.2z"/>
	<path class="st0" d="M91.4,7c2.4,0,5.8,2.9,6.2,5.3c0.2,1.2-0.2,1.9-1.4,2.4c-1.1,0.4-2.2,0.5-3.3,0.4c-0.4,0-0.8-0.2-0.8-0.6
		c0-0.4,0.4-0.6,0.7-0.6c2.7-0.2,3-1.7,1.4-3.8C93,8.5,91.8,8,89.6,8.6c-0.5,0.1-1,0.2-1.2-0.3c-0.2-0.6,0.4-0.7,0.7-0.9
		C89.9,7.1,90.6,7,91.4,7z"/>
	<path class="st0" d="M455.3,26c-1.1,0.1-2,0.2-2.9-0.1c-3.6-1-7.3-1.9-11-2.9c-0.3-0.1-0.6-0.2-0.9-0.3c-0.5-0.3-1.1-0.7-0.9-1.2
		c0.1-0.4,0.8-0.1,1.3-0.1c4.6,0.5,9,1.8,13.3,3.7C454.5,25.3,455,25.4,455.3,26z"/>
	<path class="st0" d="M149.3,25.9c-5.1-0.2-9.9-1.9-14.8-3.3c-0.5-0.1-0.8-0.6-0.9-1.3C139.2,21.8,144.5,23.2,149.3,25.9z"/>
	<path class="st0" d="M363,26c-1.7,0.4-2.8,0.2-3.7-1.5c-1-1.9-2.2-3.6-3.4-5.4c-0.3-0.4-0.5-0.8-0.5-1.3c0.1-0.6,0.2-1.1,0.8-1.4
		c0.7-0.3,0.9,0.4,1.1,0.8c1.7,2.6,3.4,5.2,5.1,7.9C362.6,25.3,362.8,25.6,363,26z"/>
	<path class="st0" d="M57.1,25.9c-2,0.6-3.1-0.1-3.9-1.7c-1-1.8-2.1-3.5-3.2-5.2c-0.3-0.5-0.5-1-0.4-1.6c0.1-0.5,0.3-0.9,0.8-1.1
		c0.6-0.2,0.7,0.4,1,0.7C53.3,20,55.2,22.9,57.1,25.9z"/>
	<path class="st0" d="M567.8,26.1c0.4-0.8,1-0.6,1.4-0.7c1.6-0.3,2.1-1.3,1.3-2.7c-1.4-2.4-2.5-2.9-5.5-2.4c-0.4,0.1-0.9,0-1-0.4
		c-0.2-0.5,0.3-0.7,0.6-0.8c1.8-0.7,3.6-0.7,5.2,0.5c1.3,1,2.4,2.2,3.1,3.7c0.8,1.8,0.1,2.9-1.9,2.9C570.1,26.1,569,26.1,567.8,26.1
		z"/>
	<path class="st0" d="M262,26.1c0.3-0.7,0.8-0.6,1.3-0.7c1.8-0.3,2.3-1.3,1.3-2.9c-1.5-2.3-2.5-2.8-5.4-2.2c-0.4,0.1-0.8,0-1-0.4
		c-0.2-0.5,0.2-0.7,0.6-0.8c1.6-0.6,3.2-0.8,4.7,0.1c1.7,1,2.9,2.4,3.7,4.1c0.8,1.7,0,2.8-1.9,2.9C264.3,26.1,263.2,26.1,262,26.1z"
		/>
	<path class="st0" d="M181.2,15.9c-0.3,3.1-0.7,6.2-1,9.3c-0.1,1.2-1,0.8-1.7,0.9c-0.9,0-0.5-0.7-0.4-1c0.4-3.1,0.9-6.2,1.4-9.3
		c0.1-0.7,0.3-1.4,1.1-1.3C181.4,14.5,181.1,15.4,181.2,15.9z"/>
	<path class="st0" d="M487,15.9c-0.4,3.1-0.7,6.3-1.1,9.4c-0.1,1.2-1,0.7-1.6,0.7c-0.9,0.1-0.5-0.7-0.5-1c0.4-3.1,0.9-6.2,1.4-9.3
		c0.1-0.7,0.3-1.4,1.2-1.3C487.3,14.6,487,15.4,487,15.9z"/>
	<path class="st0" d="M323.4,26.1c-0.8,0.1-1.1-0.4-1.5-1c-0.4-0.6,0.2-0.8,0.5-1.1c0.9-0.8,0.9-1.7,0.4-2.7c-0.5-0.9-1-1.7-1.5-2.5
		c-0.2-0.3-0.4-0.7-0.1-1c0.4-0.4,0.8-0.1,1.1,0.1c0.9,0.6,1.4,1.5,1.9,2.4c0.6,1.1,1.2,2.2,2.6,2.7c0.3,0.1,0.4,0.2,0.2,0.5
		C326.8,24.2,324.1,26.1,323.4,26.1z"/>
	<path class="st0" d="M17.5,26.1c-0.8,0-1.1-0.4-1.4-1c-0.4-0.7,0.3-0.8,0.6-1.1c0.9-0.8,0.9-1.7,0.4-2.7c-0.5-0.9-1-1.7-1.5-2.5
		c-0.2-0.3-0.4-0.7,0-1c0.3-0.3,0.7-0.1,1,0.1c0.8,0.5,1.3,1.2,1.7,1.9c0.8,1.2,1.3,2.7,2.9,3.2c0.2,0.1,0.3,0.2,0.2,0.4
		C21.1,24.1,18.2,26.1,17.5,26.1z"/>
	<path class="st0" d="M117.5,26.1c-0.7,0.1-1.4-0.2-2.2-0.7c-1-0.6-2.1-0.8-3.2-1.2c-0.5-0.2-0.9-0.4-0.7-1c0.1-0.6,0.6-0.8,1.2-0.7
		c1,0.2,2,0.5,3.1,0.5c1,0,1.9,0,2.8-0.4c0.2-0.1,0.6-0.2,0.8-0.1c0.9,0.7,0.5,1.7,0.5,2.6c0,0.6-0.2,1.1-1,1
		C118.4,26.1,118.1,26.1,117.5,26.1z"/>
	<path class="st0" d="M423.7,26.1c-1,0-1.7-0.1-2.5-0.6c-0.9-0.6-2.1-0.8-3.2-1.2c-0.5-0.2-1-0.4-0.8-1.1c0.2-0.7,0.7-0.8,1.3-0.7
		c0.5,0.1,1.1,0.3,1.6,0.3c1.4,0.2,2.8,0.3,4.1-0.3c0.4-0.2,0.9-0.4,1.1,0.2c0.4,1,0.4,2.1-0.1,3C425,26.4,424.2,25.9,423.7,26.1z"
		/>
	<path class="st0" d="M176.8,16.6c-0.3,2.9-0.8,5.9-1.6,8.7c-0.2,0.7-1.2,1-1.8,0.7c-0.3-0.1-0.2-0.4-0.2-0.6c1-2.9,1.3-6,1.8-9
		c0.1-0.7,0.3-1.3,1.1-1.3C177,15.3,176.7,16.1,176.8,16.6z"/>
	<path class="st0" d="M482.7,16.6c-0.3,3-0.8,5.9-1.6,8.8c-0.2,0.7-1.1,1-1.8,0.7c-0.3-0.1-0.2-0.4-0.2-0.6c1-2.9,1.3-6,1.8-9
		c0.1-0.7,0.3-1.3,1.1-1.3C482.9,15.3,482.6,16.1,482.7,16.6z"/>
	<path class="st0" d="M585.2,22.7c1.5,0.1,2.8,0.2,4.2,0.4c0.6,0.1,1.2,0.1,1.8,0c1.8-0.2,1.8-0.2,2.5,1.5c0.6,1.5,0.6,1.5-1,1.5
		c-0.9,0-1.6-0.1-2.4-0.7c-1-0.7-2.3-0.6-3.5-0.9C585.8,24.3,585.4,23.7,585.2,22.7z"/>
	<path class="st0" d="M288.4,26.1c-1.5,0-2.9,0.3-4.1-0.7c-0.7-0.6-1.7-0.4-2.5-0.6c-0.5-0.1-1-0.2-1.4-0.3
		c-0.6-0.2-1.1-0.8-0.9-1.4c0.1-0.6,0.8-0.2,1.2-0.2c1.8,0.2,3.5,0.5,5.3,0.2c0.8-0.1,1.3,0.1,1.6,0.9
		C287.8,24.6,288.1,25.2,288.4,26.1z"/>
	<path class="st2" d="M516.1,5c3.1,2.6,6.3,5,8.9,8.1c0.2,0.2,0.4,0.4,0.3,0.7c-0.2,0.3-0.6,0.2-0.9,0.2c-0.4,0-0.8-0.3-1.2-0.6
		c-2.4-2.1-4.7-4.4-6.7-6.9C516.2,6.1,515.9,5.7,516.1,5z"/>
	<path class="st0" d="M210.2,5c3,2.5,6,4.8,8.5,7.7c0.3,0.3,0.9,0.8,0.6,1.2c-0.4,0.4-1.1,0.2-1.5-0.1c-0.8-0.6-1.5-1.2-2.2-1.8
		c-1.8-1.6-3.4-3.4-4.9-5.3C210.4,6.1,210,5.8,210.2,5z"/>
	<path class="st0" d="M561.1,26c-0.9,0.2-1.5,0.1-1.9-0.7c-1.8-3.2-4.9-4.5-8.4-4.9c-0.3,0-0.6,0-0.8-0.1c-0.4-0.1-0.5-0.5-0.5-0.9
		c0-0.3,0.3-0.2,0.5-0.3C554.6,18.9,559.4,21.8,561.1,26z"/>
	<path class="st0" d="M243.5,19.3c5.2-0.5,9.7,2.1,11.7,6.7c-0.8,0.2-1.4,0.2-1.9-0.6c-1.9-3.3-4.9-4.6-8.5-4.9
		C243.9,20.3,243.9,20.3,243.5,19.3z"/>
	<path class="st0" d="M418.4,0.4c3.1,0.1,6.1,0.2,9,0.4c1,0.1,2.1,0.2,3.1,0.4c0.2,0,0.6,0.1,0.7,0.4c0.1,0.4-0.3,0.5-0.6,0.7
		c-0.4,0.2-0.8,0.3-1.3,0.3c-3.2-0.2-6.4-0.4-9.5-1.1C419.1,1.2,419.1,1.3,418.4,0.4z"/>
	<path class="st0" d="M112.6,0.5c4.1,0.1,8.1,0.1,12,0.7c0.3,0,0.8,0.1,0.8,0.4c0,0.4-0.4,0.6-0.8,0.7c-1.4,0.4-2.9,0-4.3-0.1
		c-2.1-0.1-4.2-0.4-6.3-0.9C113.5,1.3,113,1.2,112.6,0.5z"/>
	<path class="st3" d="M588.3,12.1c4.1,0,8.1,0,12.1,0.7c0.3,0,0.6,0.1,0.7,0.4c0,0.3-0.3,0.4-0.5,0.6c-0.3,0.2-0.7,0.3-1,0.2
		c-3.4,0-6.7-0.4-10-1.1C588.9,12.8,589,12.7,588.3,12.1z"/>
	<path class="st3" d="M282.4,12.1c4.1,0,8,0,11.8,0.6c0.4,0.1,1,0,1,0.5c0,0.5-0.6,0.8-1.1,0.8c-1,0-1.9,0-2.9,0
		c-2.4-0.2-4.8-0.4-7.1-0.9C283.6,12.9,282.9,12.9,282.4,12.1z"/>
	<path class="st0" d="M258.6,0.5c1-0.5,2.1-0.1,3.1-0.3c0.8,0.4,1.7,0.7,2.5,1.1c0.9,0.4,0.9,1,0.1,1.4c-1.8,0.9-3.8,1.2-6,1
		c0.6-0.8,1.8-1,1.5-2.2C259.7,0.9,259.1,0.7,258.6,0.5z"/>
	<path class="st0" d="M79.1,18.5c2.9,1.6,6.7,5.3,7.9,7.6c-0.8,0-1.5,0-2.2,0c-0.5,0-0.7-0.2-0.9-0.6c-0.4-1.1-1.1-2-1.9-2.8
		c-0.4-0.5-0.9-0.9-1.3-1.4C80.3,20.4,79.8,19.6,79.1,18.5z"/>
	<path class="st0" d="M393.1,26.1c-0.9,0-1.5,0-2.2,0c-0.5,0-0.9-0.1-1.1-0.7c-0.5-1.3-1.3-2.3-2.3-3.2c-1.1-1-1.7-2.3-2.4-3.6
		C388.3,20.5,390.9,22.9,393.1,26.1z"/>
	<path class="st0" d="M564.5,0.5c1-0.5,2.1-0.1,3.1-0.3c0.9,0.4,1.8,0.7,2.6,1.2c0.7,0.3,0.8,0.9,0.1,1.3c-1.9,1-3.9,1.3-6.2,1
		C566.2,1.8,566.2,1.4,564.5,0.5z"/>
	<path class="st0" d="M309,7c-0.1,3.2-0.4,6-1.5,8.8c-0.1,0.4-0.2,0.9-0.7,0.8c-0.6-0.1-0.3-0.6-0.3-1c0.5-3.4,1-6.8,1.5-10.1
		c0.1-0.4,0.2-0.9,0.6-0.9c0.5,0.1,0.3,0.6,0.3,1C309,6.2,309,6.7,309,7z"/>
	<path class="st0" d="M3.2,7.1c-0.1,3.1-0.4,5.9-1.5,8.6c-0.1,0.4-0.2,1-0.8,0.9c-0.6-0.1-0.3-0.7-0.2-1c0.5-3.3,1-6.7,1.5-10
		c0.1-0.4,0.2-1,0.7-0.9c0.5,0.1,0.3,0.7,0.3,1C3.2,6.2,3.2,6.8,3.2,7.1z"/>
	<path class="st0" d="M83.7,0.5c1.8,0.1,3.4,0.7,4.8,1.9c0.5,0.5,0.9,1.1,0.6,1.9c-0.3,0.8-1,1.1-1.7,1.3c-0.3,0.1-0.6,0.1-0.7-0.2
		c-0.1-0.3,0.2-0.4,0.3-0.6c0.8-0.8,0.7-1.5-0.2-2.1c-1.6-1.2-3.3-1.6-5.3-0.7c-0.5,0.2-1,0.4-1.5,0.6c-0.2,0.1-0.6,0.1-0.7-0.2
		c-0.1-0.3,0.2-0.5,0.4-0.6C80.9,1,82.3,0.6,83.7,0.5z"/>
	<path class="st0" d="M389.4,1.4c-0.9,0-1.7,0.4-2.5,0.7c-0.4,0.2-0.7,0.3-1.1,0.4c-0.3,0.1-0.6,0.1-0.7-0.3
		c-0.1-0.3,0.1-0.4,0.3-0.6c2.4-1.8,6.9-1.5,8.9,0.7c0.5,0.6,0.9,1.2,0.5,2c-0.3,0.8-1,1-1.8,1.2c-0.2,0-0.5,0-0.6-0.3
		c-0.1-0.2,0.1-0.3,0.2-0.5c0.9-1,0.8-1.6-0.3-2.4C391.5,1.9,390.5,1.5,389.4,1.4z"/>
	<path class="st0" d="M172.8,17.6c-0.2,2.7-0.6,5.2-1.4,7.7c-0.1,0.4-0.2,0.8-0.8,0.8c-0.6,0-0.9,0-0.7-0.8c0.7-2.7,1.3-5.4,1.9-8.1
		c0-0.1,0-0.2,0.1-0.3c0.1-0.3,0.3-0.8,0.7-0.7c0.5,0,0.3,0.6,0.3,0.9C172.8,17.2,172.8,17.5,172.8,17.6z"/>
	<path class="st0" d="M475.5,26c0.7-3.1,1.4-6,2.1-8.9c0.1-0.2,0.1-0.5,0.2-0.7c0.1-0.2,0.3-0.4,0.5-0.4c0.3,0,0.3,0.3,0.3,0.6
		c0,3.1-0.6,6.1-1.5,9C476.8,26.4,476.2,26,475.5,26z"/>
	<path class="st4" d="M559.5,12.1c1.9,0.1,3.5,0.7,4.8,2.1c0.6,0.6,0.7,1.3,0.3,2c-0.3,0.7-1,1-1.8,1c-0.2,0-0.5,0-0.6-0.3
		c-0.1-0.2,0.1-0.3,0.3-0.5c0.8-0.9,0.8-1.5-0.2-2.2c-1.6-1.2-3.4-1.5-5.3-0.6c-0.4,0.2-0.8,0.4-1.2,0.5c-0.3,0.1-0.8,0.2-0.9-0.2
		c-0.1-0.4,0.3-0.5,0.6-0.7C556.7,12.5,558,12,559.5,12.1z"/>
	<path class="st4" d="M253.6,12.1c1.9,0,3.5,0.7,4.8,2.1c0.6,0.6,0.7,1.3,0.3,2.1c-0.4,0.7-1,1-1.8,0.9c-0.2,0-0.4,0-0.5-0.2
		c-0.1-0.3,0.1-0.3,0.3-0.5c0.8-0.9,0.8-1.5-0.2-2.2c-1.6-1.2-3.4-1.5-5.3-0.7c-0.5,0.2-0.9,0.5-1.4,0.5c-0.3,0-0.6,0.1-0.7-0.2
		c-0.1-0.3,0.2-0.5,0.4-0.6C250.8,12.6,252.1,12,253.6,12.1z"/>
	<path class="st0" d="M230.3,25.9c-1.6,0.4-2.8,0.2-3.5-1.3c-0.5-0.9-1.2-1.7-1.8-2.6c-0.2-0.3-0.5-0.6-0.5-1c0-0.5-0.1-1.1,0.4-1.3
		c0.4-0.2,0.6,0.4,0.9,0.6C227.3,22.2,228.8,24.1,230.3,25.9z"/>
	<path class="st0" d="M536.2,25.9c-1.8,0.5-2.9-0.1-3.7-1.5c-0.4-0.8-1.1-1.5-1.6-2.3c-0.2-0.3-0.4-0.6-0.5-0.9
		c-0.1-0.5-0.1-1.1,0.4-1.4c0.5-0.2,0.7,0.4,1,0.7C533.2,22.3,534.6,24.1,536.2,25.9z"/>
	<path class="st3" d="M382.4,13.7c1.6,0.5,2.8,1.2,4.1,1.9c1.8,1,3.6,2.2,5.2,3.6c0.2,0.2,0.5,0.4,0.7,0.7c0.2,0.3,0.4,0.7,0.1,1.1
		c-0.4,0.4-0.7,0-1-0.2c-1.6-1.3-3.2-2.6-4.9-3.8c-1-0.8-2.1-1.4-3.2-2.1C383,14.6,382.6,14.4,382.4,13.7z"/>
	<path class="st3" d="M76.5,13.7c3.7,1.5,6.9,3.4,9.7,6c0.4,0.4,0.7,0.9,0.3,1.3c-0.4,0.4-0.8-0.1-1.1-0.4c-2.6-2.1-5.2-4.2-8.1-5.9
		C77,14.6,76.7,14.4,76.5,13.7z"/>
	<path class="st0" d="M472,26c0,0-0.7,0.3-0.5-0.4c0.8-2.3,1.3-4.6,2.4-6.8c0.1-0.2,0.2-0.4,0.3-0.5c0.2-0.3,0.5-0.6,0.9-0.4
		c0.4,0.2,0.4,0.6,0.2,1c-0.2,0.6-0.4,1.1-0.6,1.7c-0.6,1.6-1.1,3.1-1.5,4.7C473.1,25.9,472.9,26.2,472,26z"/>
	<path class="st0" d="M166.3,26c-0.2-0.1-0.9,0.3-0.7-0.5c0.8-2.3,1.3-4.7,2.5-6.9c0.1-0.2,0.2-0.4,0.3-0.5c0.2-0.2,0.5-0.5,0.8-0.3
		c0.4,0.2,0.4,0.6,0.3,0.9c-0.2,0.6-0.4,1.1-0.6,1.7c-0.6,1.6-1.1,3.2-1.5,4.8C167.3,25.8,167.1,26.3,166.3,26z"/>
	<path class="st0" d="M6.3,23.3c0-1.4,0.4-1.8,1.8-2c1.1-0.1,1.5,0.4,1.6,1.4c0,0.3,0.1,0.6,0.1,0.9c0,0.3,0.1,0.6-0.2,0.8
		C9.3,24.5,9.2,24.2,9,24c-0.5-0.5-0.8-0.2-0.9,0.3c-0.1,0.3,0,0.6,0,0.9c0,0.3,0.5,0.8-0.3,0.8c-0.5,0-1.2,0.2-1.3-0.6
		C6.4,24.7,6.4,23.9,6.3,23.3z"/>
	<path class="st0" d="M312.2,23.2c0-1.3,0.5-1.7,1.9-1.9c1.1-0.1,1.5,0.4,1.6,1.4c0,0.4,0.1,0.9,0.1,1.3c0,0.5-0.3,0.5-0.6,0.3
		c-0.2-0.2-0.4-0.7-0.8-0.4c-0.4,0.3-0.4,0.8-0.2,1.2c0.3,0.9-0.1,1.1-1,1.1c-0.6-0.1-0.6-0.4-0.7-0.8
		C312.3,24.5,312.2,23.8,312.2,23.2z"/>
	<path class="st0" d="M51.9,26c-1.5,0.3-2.6,0.1-3.4-1.1c-0.5-0.8-1.3-1.5-2-2.2c-0.4-0.5-0.8-1.1-0.2-1.7c0.6-0.5,1.2-0.1,1.6,0.3
		C49.2,22.8,50.5,24.3,51.9,26z"/>
	<path class="st0" d="M357.7,25.9c-1.6,0.5-2.7-0.1-3.5-1.2c-0.5-0.7-1.2-1.4-1.8-2c-0.4-0.5-0.8-1.1-0.2-1.7
		c0.6-0.6,1.2-0.2,1.7,0.3C355.1,22.8,356.4,24.4,357.7,25.9z"/>
	<path class="st0" d="M13.4,24.7c0.1,0.8,0,1.5-1.2,1.4c-0.3-0.1-0.5-0.1-0.5-0.5c-0.1-1.5-0.6-2.9-0.8-4.4c0-0.1,0-0.2,0-0.4
		c0-0.6-0.1-1.5,0.5-1.7c0.6-0.2,0.7,0.8,1,1.3C13,21.8,13.3,23.2,13.4,24.7z"/>
	<path class="st0" d="M319.3,24.8c0,0.8,0,1.5-1.1,1.3c-0.4,0-0.6-0.1-0.6-0.5c-0.1-1.5-0.6-2.8-0.8-4.3c-0.1-0.8-0.3-1.8,0.5-2.1
		c0.5-0.2,0.8,0.9,1,1.5C318.9,22,319.2,23.4,319.3,24.8z"/>
	<path class="st0" d="M551.3,0.2c1.2,0.1,2.4-0.2,3.5,0.2c-1.8,0.5-3.4,1.4-5,2.3c-0.8,0.5-1.7,0.7-2.6,0.6c-0.3,0-0.6,0-0.7-0.4
		c-0.1-0.3,0.2-0.5,0.5-0.6C548.4,1.7,549.8,0.9,551.3,0.2z"/>
	<path class="st0" d="M245.4,0.2c1.2,0.1,2.4-0.2,3.5,0.2c-1.8,0.5-3.4,1.4-5,2.3c-0.8,0.5-1.7,0.7-2.6,0.6c-0.3,0-0.6,0-0.7-0.4
		c-0.1-0.3,0.2-0.5,0.5-0.6C242.6,1.7,244,0.9,245.4,0.2z"/>
	<path class="st3" d="M551.1,13.2c-1.9-1-3.8-0.5-5.7,0c-0.4,0.1-0.5-0.3-0.7-0.5c-0.2-0.4,0.2-0.4,0.5-0.5c2.3-0.7,4.6-1,7-0.5
		c0.3,0.1,0.8,0.1,0.9,0.4c0.1,0.4-0.4,0.6-0.8,0.8C551.9,13,551.5,13,551.1,13.2z"/>
	<path class="st3" d="M244.2,11.4c0.7-0.1,1.6,0.1,2.5,0.3c0.6,0.2,0.7,0.4,0.2,0.8c-0.6,0.4-1.3,0.8-2,0.5c-1.6-0.7-3.2-0.4-4.8,0
		c-0.5,0.1-1,0.3-1.1-0.3c-0.2-0.7,0.5-0.6,0.8-0.7C241.1,11.6,242.6,11.4,244.2,11.4z"/>
	<path class="st0" d="M376.9,0.2c2,0,4,0,6,0c0.3,0.1,0.6,0.2,0.3,0.6c-0.6,0.6-1.4,1.2-2.2,0.8c-1.6-0.7-3.2-0.4-4.8-0.1
		c-0.5,0.1-1,0.4-1.2-0.3c-0.2-0.8,0.6-0.6,0.9-0.7C376.2,0.3,376.6,0.3,376.9,0.2z"/>
	<path class="st0" d="M71,0.2c2,0,4,0,6,0c0.3,0.1,0.6,0.2,0.3,0.6c-0.6,0.6-1.4,1.2-2.2,0.8c-1.6-0.7-3.2-0.4-4.8-0.1
		c-0.5,0.1-1,0.4-1.2-0.3c-0.2-0.8,0.6-0.6,0.9-0.7C70.4,0.3,70.7,0.3,71,0.2z"/>
	<path class="st0" d="M210,26.1c-1.8,0-3.4,0.5-4.4-1.2c-0.4-0.7-0.4-1.3,0-1.9c0.3-0.4,0.6-0.5,1-0.1
		C207.7,23.9,208.7,24.9,210,26.1z"/>
	<path class="st0" d="M515.9,26.1c-1.2,0-2,0-2.8,0c-0.8,0-2-1.4-1.9-2.2c0-0.5,0.2-0.8,0.6-1.1c0.5-0.3,0.7,0.2,1,0.4
		C513.7,24.1,514.7,25,515.9,26.1z"/>
	<path class="st0" d="M208.3,19.8c0.2,0.1,0.3,0.2,0.5,0.3c0.8,0.7,1.6,1.4,2.4,2.1c0.4,0.4,0.6,0.9,0.1,1.3c-0.5,0.4-1,0.4-1.5-0.1
		c-0.7-0.8-1.4-1.7-2.1-2.6c-0.2-0.2-0.2-0.5-0.1-0.8C207.8,19.9,208,19.9,208.3,19.8z"/>
	<path class="st0" d="M514,19.8c0.2,0.1,0.4,0.1,0.5,0.3c0.9,0.8,1.7,1.5,2.6,2.3c0.4,0.4,0.4,0.8,0,1.2c-0.4,0.4-0.9,0.5-1.3,0
		c-0.8-0.9-1.6-1.9-2.3-2.8C513.2,20.4,513.5,20,514,19.8z"/>
	<path class="st0" d="M244.7,22.6c3.2-0.2,5.7,0.9,7.6,3.4c-1.3,0.4-1.7-0.8-2.4-1.2c-0.8-0.5-1.7-0.9-2.6-1.2
		C246.4,23.3,245.3,23.7,244.7,22.6z"/>
	<path class="st0" d="M558.1,26c-1.3,0.4-1.7-0.8-2.4-1.2c-0.8-0.5-1.7-0.9-2.6-1.2c-0.8-0.3-1.9,0.1-2.5-1
		C553.8,22.3,556.2,23.5,558.1,26z"/>
	<path class="st5" d="M428.7,12.4c1,0.1,1.9,0.1,2.8,0.2c0.6,0,1,0.3,0.9,1c-0.1,0.6-0.6,0.8-1.2,0.7c-0.9-0.2-1.7-0.3-2.6-0.5
		c-0.5-0.1-1.4-0.1-1.2-0.9C427.5,12,428.3,12.5,428.7,12.4z"/>
	<path class="st0" d="M309.6,26.1c-0.8,0.2-1.2-0.1-1.2-0.9c0-0.2-0.1-0.4-0.1-0.6c0.1-0.9-0.1-2.2,0.8-2.4c0.9-0.2,0.8,1.1,1.1,1.8
		c0.2,0.3,0.2,0.7,0.3,1C310.9,26,310.6,26.3,309.6,26.1z"/>
	<path class="st0" d="M122.7,12.4c1.2,0.1,2,0.1,2.9,0.2c0.6,0,1,0.3,0.9,0.9c-0.1,0.6-0.5,0.9-1.1,0.8c-1-0.2-1.9-0.4-2.9-0.6
		c-0.5-0.1-1.1-0.2-1-0.8C121.6,12.1,122.2,12.4,122.7,12.4C122.8,12.4,122.9,12.4,122.7,12.4z"/>
	<path class="st0" d="M3.7,26.1c-0.8,0.2-1.2-0.2-1.2-1c0-0.3-0.2-0.5-0.1-0.8c0.1-0.8,0-2,0.8-2.1c0.9-0.1,0.8,1.1,1,1.7
		c0.1,0.3,0.2,0.7,0.3,1C5,25.8,4.9,26.3,3.7,26.1z"/>
	<path class="st6" d="M41.5,12.9c-0.3,0-0.6-0.1-0.8-0.4c-0.6-0.7-1.3-1.4-2-2.1c-0.3-0.3-0.5-0.7-0.1-1c0.3-0.3,0.6-0.1,0.9,0.1
		c0.8,0.6,1.7,1.2,2.5,1.8c0.3,0.3,0.6,0.6,0.4,1C42.2,12.7,41.9,12.9,41.5,12.9z"/>
	<path class="st6" d="M348.3,12.1c-0.1,0.7-1,1.1-1.5,0.6c-0.9-0.8-1.6-1.6-2.4-2.5c-0.2-0.2-0.2-0.5,0-0.8c0.1-0.2,0.4-0.3,0.6-0.2
		c1.1,0.7,2.2,1.5,3.2,2.4C348.2,11.8,348.2,12,348.3,12.1z"/>
	<path class="st0" d="M530.7,25.9c-1.9,0.3-3.5-0.8-3.6-2.5c0-0.4,0.1-0.8,0.5-1c0.5-0.3,0.6,0.2,0.8,0.5
		C529.1,23.9,529.9,24.9,530.7,25.9z"/>
	<path class="st0" d="M224.9,26c-2.2,0.2-3.2-0.6-3.6-2.4c-0.1-0.5,0.1-1,0.5-1.2c0.5-0.2,0.6,0.3,0.8,0.5
		C223.3,23.9,224,24.9,224.9,26z"/>
	<path class="st0" d="M197,26.1c-1.6-0.1-3,0.5-3.8-1.1c-0.2-0.5-0.4-0.8,0-1.2c0.5-0.4,1-0.4,1.5,0.1
		C195.4,24.5,196.1,25.2,197,26.1z"/>
	<path class="st0" d="M403.9,26c-2.1,0.2-2.7-0.2-3.3-2c-0.1-0.4-0.2-0.9,0.2-1.2c0.5-0.3,0.8,0,1.2,0.3c0.1,0.1,0.2,0.2,0.3,0.4
		C402.8,24.3,403.3,25.1,403.9,26z"/>
	<path class="st0" d="M502.9,26.1c-1.5-0.1-3,0.5-3.8-1.2c-0.2-0.5-0.4-0.8,0.1-1.2c0.5-0.4,0.9-0.4,1.4,0
		C501.2,24.4,501.9,25.2,502.9,26.1z"/>
	<path class="st0" d="M98,25.9c-2,0.3-2.7-0.1-3.3-2c-0.1-0.5-0.1-0.9,0.3-1.1c0.5-0.3,0.9,0,1.1,0.4C96.8,24.1,97.4,25,98,25.9z"/>
	<path class="st0" d="M351.7,26c-2.2,0.3-3.7-0.7-3.6-2.4c0-0.2-0.1-0.5,0.2-0.6c0.3-0.1,0.4,0.1,0.6,0.3c0.8,0.7,1.6,1.4,2.4,2.2
		C351.4,25.5,351.7,25.7,351.7,26z"/>
	<path class="st0" d="M45.9,26c-1.5,0.3-2.6,0.1-3.4-1.2c-0.2-0.4-0.4-0.7-0.3-1.1c0-0.3-0.1-0.6,0.2-0.8c0.3-0.2,0.5,0.2,0.7,0.3
		C44,24.1,45,24.9,45.9,26z"/>
	<path class="st0" d="M28.2,26.1c-0.7,0-1.3,0-1.8,0c-1,0-1.7-0.9-1.4-1.9c0.1-0.4,0.3-0.8,0.7-0.9c0.5-0.2,0.7,0.3,1,0.5
		c0.2,0.3,0.4,0.6,0.6,0.8C27.5,25.1,27.8,25.5,28.2,26.1z"/>
	<path class="st0" d="M44.7,0.4C45.4,0,46.2,0.4,47,0.2c0.6,0.6,1.3,1.2,1.9,1.8c0.5,0.5,0.2,0.8-0.4,0.8c-0.6,0-1.1-0.2-1.5-0.6
		C46.2,1.6,45.4,1,44.7,0.4z"/>
	<path class="st0" d="M337.5,0.5c1.6-0.5,3.3-0.1,5-0.2c-0.4,1.4-1.1,1.8-2.5,1.5C339.1,1.5,338.3,1,337.5,0.5z"/>
	<path class="st0" d="M31.7,0.5c1.6-0.5,3.3-0.1,5-0.2c-0.4,1.4-1.1,1.8-2.5,1.5C33.2,1.5,32.4,1,31.7,0.5z"/>
	<path class="st0" d="M350.5,0.4c0.7-0.4,1.6-0.1,2.4-0.2c0.6,0.6,1.3,1.2,1.9,1.8c0.5,0.5,0.2,0.8-0.4,0.8c-0.6,0-1.1-0.2-1.5-0.6
		C352.1,1.6,351.3,1,350.5,0.4z"/>
	<path class="st0" d="M334.1,26.1c-0.8,0-1.3,0-1.8,0c-1.2,0.1-1.4-0.7-1.5-1.5c-0.1-0.5,0.2-1,0.7-1.3c0.5-0.3,0.8,0.3,1,0.6
		C333.1,24.5,333.5,25.2,334.1,26.1z"/>
	<path class="st0" d="M557.5,3.4c-0.3-0.1-0.7,0.1-0.8-0.3c-0.1-0.3,0.3-0.4,0.5-0.6c0.9-0.6,1.9-1.1,3-1.3c0.4-0.1,0.8-0.1,1,0.3
		c0.2,0.4-0.2,0.6-0.5,0.8C559.8,3,558.7,3.3,557.5,3.4z"/>
	<path class="st0" d="M251.7,3.4c-0.3-0.1-0.7,0.1-0.8-0.3c-0.1-0.4,0.3-0.5,0.6-0.6c0.9-0.6,1.9-1.1,3-1.3c0.3,0,0.8-0.1,0.9,0.3
		c0.1,0.3-0.2,0.6-0.5,0.7C253.9,3,252.9,3.3,251.7,3.4z"/>
	<path class="st7" d="M339.9,21.4c-0.1,0.6-0.5,0.9-1.1,0.6c-0.7-0.5-1.4-1.2-1.9-1.9c-0.4-0.5,0-1,0.7-1.1
		C338.1,19,339.9,20.8,339.9,21.4z"/>
	<path class="st0" d="M430.8,25.9c-0.6-0.1-1.2-0.2-1.9-0.3c-0.5-0.1-0.9-0.3-0.8-0.8c0.1-0.5,0.5-0.7,1-0.6
		c0.7,0.1,1.4,0.2,2.1,0.3c0.5,0.1,0.8,0.4,0.8,0.9C431.9,26,431.4,25.9,430.8,25.9z"/>
	<path class="st0" d="M124.9,25.9c-0.7-0.1-1.3-0.2-1.9-0.3c-0.5-0.1-0.9-0.3-0.8-0.9c0.1-0.5,0.5-0.6,1-0.6
		c0.6,0.1,1.2,0.2,1.8,0.3c0.6,0.1,1.2,0.4,1.1,1C126,26.1,125.3,25.8,124.9,25.9z"/>
	<path class="st7" d="M33.3,22.1c-0.5,0-2.4-1.8-2.4-2.3c0-0.6,0.7-1,1.2-0.6c0.7,0.5,1.3,1.1,1.8,1.7
		C34.3,21.4,33.9,22.1,33.3,22.1z"/>
	<path class="st0" d="M468.1,26c0.4-1.1,0.7-2.2,1.1-3.3c0.1-0.4,0.3-0.8,0.8-0.7c0.4,0.1,0.3,0.6,0.2,0.9c-0.1,0.7-0.2,1.3-0.3,2
		C469.8,25.9,469.3,26.4,468.1,26z"/>
	<path class="st0" d="M162.2,26c0.4-1.2,0.8-2.3,1.2-3.5c0.1-0.3,0.4-0.7,0.7-0.6c0.5,0.1,0.3,0.6,0.3,0.9c-0.1,0.7-0.2,1.4-0.3,2.1
		C163.8,26.2,163.7,26.2,162.2,26z"/>
	<path class="st0" d="M310.7,0.2c1.5,0.1,3-0.2,4.5,0.2c-0.9,0.4-1.8,0.9-2.7,1.3C311.3,2.2,310.5,1.5,310.7,0.2z"/>
	<path class="st0" d="M4.8,0.2c1.5,0.1,3-0.2,4.5,0.2C8.4,0.9,7.5,1.3,6.6,1.7C5.5,2.2,4.6,1.5,4.8,0.2z"/>
	<path class="st0" d="M320.6,4.2c-0.7-0.2-1.7-0.1-1.8-1.1c-0.1-0.9,0.8-0.9,1.5-1c0.8-0.1,1.3,0.3,1.3,1.1
		C321.7,4,321.3,4.3,320.6,4.2z"/>
	<path class="st0" d="M14.7,4.2C14,4.1,13,4.1,12.9,3.1c-0.1-0.9,0.8-0.9,1.5-1c0.8-0.1,1.4,0.3,1.4,1.2C15.8,4,15.4,4.3,14.7,4.2z"
		/>
	<path class="st8" d="M490.6,15.7c-1-0.1-2-0.2-2-1.1c0-0.9,0.9-0.9,1.6-0.9c0.8,0,1.2,0.4,1.2,1.1C491.5,15.6,491,15.8,490.6,15.7z
		"/>
	<path class="st3" d="M184.4,13.7c0.6-0.1,1.1,0.2,1.2,1.1c0.1,0.7-0.4,1-1,0.9c-0.8-0.1-1.8-0.1-1.8-1.1
		C182.7,13.8,183.5,13.8,184.4,13.7z"/>
	<path class="st6" d="M403.7,22.1c-0.5,0-1.1-0.1-1.1-0.7c-0.1-0.6,0.9-1.5,1.6-1.5c0.7,0,1.3,0.5,1.2,1.1
		C405.3,21.9,404.4,22,403.7,22.1z"/>
	<path class="st6" d="M97.7,22.1c-0.4,0-0.9,0-1-0.7c-0.1-0.6,0.9-1.5,1.6-1.5c0.7,0,1.2,0.4,1.3,1.2C99.6,21.6,98.6,22.1,97.7,22.1
		z"/>
	<path class="st0" d="M598.3,22.1c0.5,0,1,0,1.4,0c0.4,0.1,0.6,0.4,0.5,0.8c0,0.4-0.3,0.6-0.7,0.5c-0.9-0.1-1.7-0.2-2.6-0.3
		c-0.3,0-0.7-0.2-0.7-0.5c0-0.5,0.4-0.5,0.8-0.5C597.5,22.1,597.9,22.1,598.3,22.1C598.3,22.1,598.3,22.1,598.3,22.1z"/>
	<path class="st0" d="M292.8,22.1c0.4,0.1,1.6-0.5,1.6,0.6c0,1.3-1.2,0.4-1.8,0.5c-0.4,0.1-0.9,0-1.3-0.1c-0.4,0-0.8-0.1-0.8-0.6
		c0-0.5,0.5-0.5,0.8-0.5C291.7,22.1,292.1,22.1,292.8,22.1z"/>
	<path class="st5" d="M397.5,12.1c-0.5-0.1-1.3-0.1-1.4-0.8c0-0.7,0.7-1.1,1.4-1.1c0.8,0,1.2,0.7,1.3,1.3
		C398.9,12.1,398.1,12.1,397.5,12.1z"/>
	<path class="st5" d="M91.7,12.1c-0.6-0.1-1.4-0.1-1.5-0.9c0-0.7,0.6-1.1,1.3-1.1c0.8,0,1.3,0.6,1.4,1.2
		C93,12.1,92.3,12.1,91.7,12.1z"/>
	<path class="st0" d="M302.7,26.1c-0.2-0.1-1,0.4-0.9-0.5c0.1-0.7,0.2-1.6,1.2-1.6c0.7,0,1.1,0.4,1.1,1.1
		C304.2,26.1,303.6,26.2,302.7,26.1z"/>
	<path class="st0" d="M608.6,26c-0.2-0.1-1,0.4-0.9-0.5c0.1-0.7,0.2-1.6,1.2-1.6c0.7,0,1.1,0.4,1.1,1.1
		C610.1,26,609.5,26.2,608.6,26z"/>
	<path class="st0" d="M261.5,23.5c-0.5-0.1-1.4,0-1.4-0.8c0-0.7,0.7-1,1.3-1.1c0.5-0.1,1.4,0.9,1.4,1.4
		C262.8,23.4,262.4,23.6,261.5,23.5z"/>
	<path class="st0" d="M567.5,23.6c-0.7-0.1-1.5,0-1.5-0.9c0-0.7,0.7-1.1,1.4-1.1c0.8,0,1.3,0.7,1.3,1.3
		C568.7,23.8,567.9,23.4,567.5,23.6z"/>
	<path class="st0" d="M160.5,24.1c-0.1,0.5-0.2,1-0.3,1.6c-0.1,0.7-0.7,0.5-1,0.4c-0.7-0.1-0.2-0.5-0.2-0.8c0.1-0.5,0.3-1,0.5-1.4
		c0.1-0.3,0.3-0.7,0.7-0.7C160.7,23.2,160.4,23.7,160.5,24.1z"/>
	<path class="st0" d="M464.6,26.1c0.3-0.9,0.6-1.7,0.9-2.5c0.1-0.2,0.3-0.5,0.6-0.4c0.3,0.1,0.2,0.4,0.2,0.6
		c-0.1,0.6-0.1,1.2-0.3,1.8C465.9,26.4,465.2,26,464.6,26.1z"/>
	<path class="st9" d="M253.6,14.3c0.7,0.1,1.3,0.4,1.3,1.1c0,0.4-0.4,0.5-0.7,0.4c-0.6-0.2-1.6-0.2-1.6-1.1
		C252.5,14.3,253.2,14.3,253.6,14.3z"/>
	<path class="st9" d="M559.3,14.3c0.8,0.1,1.4,0.3,1.5,1.1c0,0.4-0.3,0.5-0.7,0.4c-0.7-0.2-1.5-0.2-1.7-1
		C558.3,14.4,559,14.4,559.3,14.3z"/>
	<path class="st0" d="M84.3,4.3c-0.6-0.2-1.4-0.2-1.5-1c-0.1-0.5,0.6-0.5,1-0.5c0.7,0,1.2,0.3,1.3,1C85.2,4.3,84.7,4.2,84.3,4.3z"/>
	<path class="st0" d="M389.5,2.8c0.7,0,1.3,0.2,1.5,0.9c0.1,0.5-0.4,0.5-0.7,0.5c-0.7-0.1-1.4-0.2-1.6-0.9
		C388.6,2.8,389.2,2.9,389.5,2.8z"/>
	<path class="st0" d="M307,25.1c-0.1,0.5,0.1,1-0.6,1c-0.5,0-0.6-0.3-0.6-0.7c0.1-0.5,0-1.2,0.6-1.2C307,24.1,306.9,24.8,307,25.1z"
		/>
	<path class="st0" d="M442.5,26.1c-0.6,0-1.1,0-1.7,0c-0.3,0-0.6,0.1-0.5-0.4c0.1-0.4,0.4-0.3,0.7-0.3c0.5,0.2,1,0.3,1.6,0.5
		C442.6,26,442.5,26,442.5,26.1z"/>
	<path class="st0" d="M136.7,26.1c-0.6,0-1.2,0-1.8,0c-0.2,0-0.5,0-0.4-0.4c0.1-0.3,0.3-0.4,0.5-0.3c0.6,0.2,1.1,0.3,1.7,0.5
		C136.7,26,136.7,26,136.7,26.1z"/>
	<path class="st0" d="M552.2,25.4c0.8,0,1.2,0.4,1.7,0.6C553.3,26,552.6,26.4,552.2,25.4z"/>
	<path class="st0" d="M248,26c-0.6,0-1.3,0.4-1.6-0.5C247.1,25.3,247.5,25.7,248,26z"/>
	<path class="st0" d="M180.7,0.5c1.1-0.5,2.3-0.1,3.5-0.2c0.6-0.1,1.2,0,1.8,0c0.8,0.4,1.5,0.8,2.2,1.4c0.3,0.3,0.7,0.6,0.4,1.1
		c-0.2,0.4-0.6,0.4-1,0.5c-0.6,0.1-1.2-0.1-1.7-0.4C184.1,2.1,182.4,1.3,180.7,0.5z"/>
	<path class="st0" d="M486.5,0.5c1.1-0.5,2.3-0.1,3.5-0.2c0.6-0.1,1.2,0,1.8,0c0.8,0.4,1.5,0.8,2.2,1.4c0.3,0.3,0.7,0.7,0.4,1.1
		c-0.2,0.4-0.6,0.4-1,0.5c-0.6,0.1-1.2-0.1-1.7-0.4C490,2.1,488.2,1.3,486.5,0.5z"/>
</g>
</svg>
