<?xml version="1.0" encoding="utf-8"?>
<!-- Generator: Adobe Illustrator 24.2.0, SVG Export Plug-In . SVG Version: 6.00 Build 0)  -->
<svg version="1.1" id="Color" xmlns="http://www.w3.org/2000/svg" xmlns:xlink="http://www.w3.org/1999/xlink" x="0px" y="0px"
	 viewBox="0 0 378.3 132" style="enable-background:new 0 0 378.3 132;" xml:space="preserve">
<style type="text/css">
	.st0{fill:url(#SVGID_1_);}
	.st1{fill:url(#SVGID_2_);}
	.st2{fill:url(#SVGID_3_);}
	.st3{fill:url(#SVGID_4_);}
	.st4{fill:url(#SVGID_5_);}
	.st5{fill:url(#SVGID_6_);}
	.st6{fill:url(#SVGID_7_);}
	.st7{enable-background:new    ;}
	.st8{fill:#A7A9AC;}
	.st9{fill:#F26522;}
	.st10{fill:none;stroke:#000000;stroke-width:0.1;stroke-miterlimit:10;}
</style>
<g>
	
		<radialGradient id="SVGID_1_" cx="148.4596" cy="674.8284" r="8.38" gradientTransform="matrix(1 0 0 1 0 -610)" gradientUnits="userSpaceOnUse">
		<stop  offset="0" style="stop-color:#8BC751"/>
		<stop  offset="0.214" style="stop-color:#87C350"/>
		<stop  offset="0.425" style="stop-color:#7BBA4E"/>
		<stop  offset="0.635" style="stop-color:#66AF4B"/>
		<stop  offset="0.8432" style="stop-color:#44A048"/>
		<stop  offset="1" style="stop-color:#0B9446"/>
	</radialGradient>
	<path class="st0" d="M156.8,64.8c0,4.6-3.8,8.4-8.4,8.4s-8.4-3.8-8.4-8.4s3.8-8.4,8.4-8.4C153.1,56.4,156.8,60.2,156.8,64.8z"/>
	
		<linearGradient id="SVGID_2_" gradientUnits="userSpaceOnUse" x1="33.1565" y1="612.7257" x2="33.1565" y2="644.8884" gradientTransform="matrix(1 0 0 1 0 -610)">
		<stop  offset="0" style="stop-color:#8DC63F"/>
		<stop  offset="1" style="stop-color:#008E4A"/>
	</linearGradient>
	<path class="st1" d="M6.7,0.8c0.1-0.4,0.4-0.6,1.5-0.7c3-0.1,9.9-0.6,24.1,1.4c13.8,1.8,23.5,6.3,23.5,6.3c3.5,8.1,4,15.8,3.7,21.6
		C59,40.2,56.7,50.8,55.2,55c-0.5,1.3-0.7,2.3-1.5,2.5c-0.7,0.2-1.4-1.5-2.3-3c-4-6.6-6.4-10.7-17.5-25.8
		C24.8,16.2,13.1,5.7,8.1,2.3C7.1,1.6,6.7,1.3,6.7,0.8z"/>
	
		<linearGradient id="SVGID_3_" gradientUnits="userSpaceOnUse" x1="12.2607" y1="691.7839" x2="17.8176" y2="621.3015" gradientTransform="matrix(1 0 0 1 0 -610)">
		<stop  offset="0" style="stop-color:#8DC63F"/>
		<stop  offset="1" style="stop-color:#008E4A"/>
	</linearGradient>
	<path class="st2" d="M0.2,7.1c8,2.1,17.2,8.3,23.9,15.7c-1.6,8.8-2.5,10.5-2.5,27.5s6,29.8,7.5,32.4c1,1.6,1,2.4,0.5,2.7
		c-0.6,0.4-1.7-0.3-4-2.6C14.9,72.3,7.3,57,3.3,42S-0.1,13.1,0.2,7.1z"/>
	
		<linearGradient id="SVGID_4_" gradientUnits="userSpaceOnUse" x1="92.4464" y1="626.1172" x2="64.8443" y2="661.6969" gradientTransform="matrix(1 0 0 1 0 -610)">
		<stop  offset="0" style="stop-color:#8DC63F"/>
		<stop  offset="1" style="stop-color:#008E4A"/>
	</linearGradient>
	<path class="st3" d="M64.1,5.3c0.6-0.5,2-0.3,2.6-0.2C67.9,5.3,81,7.9,93.6,15.4c10.9,6.6,18.2,13.8,20.1,15.7s1.3,4-1.8,6.8
		c-3,2.7-9.4,8.4-24.6,15.3c-15.4,6.9-26.9,9.4-29.9,10.2c-1.2,0.3-2.2,0.4-2.5,0c-0.7-1.1,1.9-3,4-8.7c1.4-3.8,4.2-12.6,5.5-23.5
		C66.6,12.7,62.8,6.3,64.1,5.3z"/>
	
		<linearGradient id="SVGID_5_" gradientUnits="userSpaceOnUse" x1="125.3369" y1="676.0925" x2="71.0034" y2="676.0925" gradientTransform="matrix(1 0 0 1 0 -610)">
		<stop  offset="0" style="stop-color:#8DC63F"/>
		<stop  offset="1" style="stop-color:#008E4A"/>
	</linearGradient>
	<path class="st4" d="M127.1,36.1c0.5,0.2-0.3,3-0.9,5.7c-0.6,2.7-2.3,12.6-1.8,22.5c0.7,13.9,4.9,22.6,7.6,27
		c1.5,2.4,2.7,3.6,2,4.3c-0.7,0.7-3.5,0.9-20.1-0.9C97.4,92.8,73.3,84.6,59,70.4c-1.1-1.1-1.5-1.8-1.2-2.7c0.3-0.9,1.6-1.2,3.7-1.5
		c5.4-0.8,16.2-3.5,29.2-8.6c18-7.1,29.2-16.2,33.2-19.4C125.6,36.9,126.4,35.7,127.1,36.1z"/>
	
		<linearGradient id="SVGID_6_" gradientUnits="userSpaceOnUse" x1="152.2894" y1="713.5142" x2="91.0992" y2="713.5142" gradientTransform="matrix(1 0 0 1 0 -610)">
		<stop  offset="0" style="stop-color:#8DC63F"/>
		<stop  offset="1" style="stop-color:#008E4A"/>
	</linearGradient>
	<path class="st5" d="M70.6,84.2c0.7-0.5,1.4,0.5,4.7,2.3c8,4.4,22.9,11.5,40.5,14.6c16.8,2.9,30.1,1.4,35.3,0.6
		c2.3-0.3,4-0.8,4.1-0.5c0.3,0.5-4.4,4.3-6.9,6.2c-6.5,4.9-15.8,9.6-22.3,12.3c-6,2.4-7.9,3.2-10,3.2c-3.3,0-10.8-4.1-14.5-6.3
		c-7-4.1-15-10.3-17.8-13.4c-6-6.7-7.5-8.2-10-12C70.5,86.2,69.9,84.7,70.6,84.2z"/>
	
		<linearGradient id="SVGID_7_" gradientUnits="userSpaceOnUse" x1="181.9452" y1="684.4342" x2="144.3815" y2="739.1884" gradientTransform="matrix(1 0 0 1 0 -610)">
		<stop  offset="0" style="stop-color:#8DC63F"/>
		<stop  offset="1" style="stop-color:#008E4A"/>
	</linearGradient>
	<path class="st6" d="M186.4,76.4c1.3,0.4,0.6,3-0.5,10.2c-1.1,7-3.9,17.6-8.2,25.3s-9.8,14.9-17.6,20.1c-13-0.8-23.5-2.9-33.7-8.6
		c14.3-5.4,27.8-13,38.2-21.5c7.6-6.2,12.5-11.5,18-20.5C184.8,77.7,185,76,186.4,76.4z"/>
	<g class="st7">
		<path class="st8" d="M192.2,72.8c0-3.8,2.4-5.5,5.5-5.5c1,0,2.3,0.2,3.2,0.7l-0.5,2c-0.7-0.4-1.6-0.6-2.4-0.6c-1.8,0-3,1.1-3,3.3
			c0,2.2,1.4,3.2,3.1,3.2c0.9,0,1.8-0.2,2.5-0.6l0.3,2c-1,0.5-2.1,0.7-3.3,0.7C194.9,78,192.2,76.5,192.2,72.8z"/>
		<path class="st8" d="M204,74.1c0-2.6,1.4-3.9,4.1-3.9c2.7,0,4,1.3,4,3.9c0,2.8-1.6,3.9-4,3.9C205.6,78,204,76.9,204,74.1z
			 M209.5,74.1c0-1.6-0.6-2.1-1.4-2.1c-0.8,0-1.4,0.5-1.4,2.2c0,1.4,0.5,2.1,1.4,2.1C208.9,76.2,209.5,75.6,209.5,74.1z"/>
		<path class="st8" d="M215.4,67.2h2.6v10.6h-2.6V67.2z"/>
		<path class="st8" d="M228.7,77.4c-0.9,0.4-2.1,0.6-3.2,0.6c-2,0-4.2-0.9-4.2-3.8c0-3.2,2-4,4-4c2.1,0,3.6,1,3.6,3.4
			c0,0.2,0,0.5,0,0.6H224v0.2c0,1.2,0.7,1.8,2,1.8c0.7,0,1.6-0.2,2.5-0.4L228.7,77.4z M226.5,73.1c0-1-0.5-1.4-1.2-1.4
			s-1.2,0.4-1.4,1.4H226.5z"/>
		<path class="st8" d="M235.6,70.2c1.6,0,2.3,0.4,2.8,0.9h0.1c0-0.5,0.1-0.9,0.9-0.9c0.4,0,0.8,0.1,1.1,0.2l-0.1,1.2
			c-0.3,0-0.5-0.1-0.7-0.1c-0.6,0-0.7,0.3-0.7,0.7c0,0.2,0.1,0.4,0.1,0.6c0,1.6-1.3,2.3-3.4,2.3c-0.1,0-0.3,0-0.5,0
			c-0.4,0.2-0.9,0.4-0.9,0.9c0,0.4,0.4,0.5,0.8,0.5h2.3c1.9,0,3,0.7,3,2.1c0,2.2-3,2.6-4.9,2.6c-1.2,0-3.7-0.2-3.7-1.9
			c0-1,0.8-1.4,1.3-1.7v-0.1c-0.8-0.2-0.9-0.6-0.9-1c0-0.8,0.9-1.3,1.7-1.6v-0.1c-1-0.3-1.7-1-1.7-2C232,71,233.5,70.2,235.6,70.2z
			 M235.2,77.9c-0.3,0.1-1,0.3-1,0.9c0,0.7,0.9,0.8,1.6,0.8c0.9,0,1.8-0.3,1.8-1c0-0.4-0.2-0.7-0.9-0.7
			C236.7,77.9,235.2,77.9,235.2,77.9z M235.6,73.8c0.7,0,1.1-0.4,1.1-1.2c0-0.7-0.4-1.2-1.1-1.2s-1.1,0.5-1.1,1.2
			C234.6,73.2,234.9,73.8,235.6,73.8z"/>
		<path class="st8" d="M244.7,66.2c0.8,0,1.4,0.5,1.4,1.3s-0.6,1.3-1.4,1.3s-1.4-0.5-1.4-1.3C243.3,66.8,243.8,66.2,244.7,66.2z
			 M243.4,70.3h2.6v7.5h-2.6V70.3z"/>
		<path class="st8" d="M249.2,74.1c0-2.6,1.4-3.9,4.1-3.9s4,1.3,4,3.9c0,2.8-1.6,3.9-4,3.9C250.9,78,249.2,76.9,249.2,74.1z
			 M254.7,74.1c0-1.6-0.6-2.1-1.4-2.1s-1.4,0.5-1.4,2.2c0,1.4,0.5,2.1,1.4,2.1C254.2,76.2,254.7,75.6,254.7,74.1z"/>
		<path class="st8" d="M263.3,78c-1,0-2.3-0.3-2.9-0.6l0.3-1.6c0.7,0.3,1.8,0.6,2.7,0.6c0.6,0,1.1-0.1,1.1-0.7c0-1.1-4-0.4-4-3.1
			c0-1.7,1.6-2.4,3.5-2.4c1.1,0,2.1,0.3,2.6,0.4l-0.3,1.6c-0.6-0.2-1.5-0.4-2.3-0.4c-0.6,0-1,0.2-1,0.6c0,1,3.9,0.4,3.9,3.1
			C266.9,77.3,265.1,78,263.3,78z"/>
		<path class="st8" d="M275.4,74.2c0-2.9,1.7-4.1,3.7-4.1c0.7,0,1.3,0.2,1.6,0.3v-3.3h2.5v10.7h-2.1l-0.3-0.9h-0.1
			c-0.5,0.6-1.2,1.1-2.2,1.1C276.6,78,275.4,76.3,275.4,74.2z M280.7,75.4v-3.1c-0.3-0.2-0.7-0.3-1.1-0.3c-1.2,0-1.6,1-1.6,2.2
			s0.5,2.1,1.3,2.1C279.9,76.2,280.4,75.9,280.7,75.4z"/>
		<path class="st8" d="M293.9,77.4c-0.9,0.4-2.1,0.6-3.2,0.6c-2,0-4.2-0.9-4.2-3.8c0-3.2,2-4,4-4c2.1,0,3.6,1,3.6,3.4
			c0,0.2,0,0.5,0,0.6h-4.9v0.2c0,1.2,0.7,1.8,2,1.8c0.7,0,1.6-0.2,2.5-0.4L293.9,77.4z M291.8,73.1c0-1-0.5-1.4-1.2-1.4
			s-1.3,0.4-1.4,1.4H291.8z"/>
		<path class="st8" d="M303.1,67.4h6.3v2h-3.7v2.3h2.8l-0.2,1.8h-2.5v2.4h3.7v2h-6.4L303.1,67.4L303.1,67.4z"/>
		<path class="st8" d="M315.4,78c-1,0-2.3-0.3-2.9-0.6l0.3-1.6c0.7,0.3,1.8,0.6,2.7,0.6c0.6,0,1.1-0.1,1.1-0.7c0-1.1-4-0.4-4-3.1
			c0-1.7,1.6-2.4,3.5-2.4c1.1,0,2.1,0.3,2.6,0.4l-0.3,1.6c-0.6-0.2-1.5-0.4-2.3-0.4c-0.6,0-1,0.2-1,0.6c0,1,3.9,0.4,3.9,3.1
			C319,77.3,317.3,78,315.4,78z"/>
		<path class="st8" d="M321.7,70.3h1.2l0.5-2h2v2h2.3l-0.1,1.7h-2.2v2.9c0,0.6,0.1,1,0.8,1c0.4,0,0.9-0.1,1.4-0.3l0.3,1.9
			c-1,0.3-1.9,0.5-2.7,0.5c-1.7,0-2.4-0.8-2.4-2.7V72h-1.2v-1.7H321.7z"/>
		<path class="st8" d="M338.6,77.8h-2.1l-0.3-0.9h-0.1c-0.7,0.7-1.6,1.1-2.5,1.1c-1.5,0-2.6-1-2.6-2.8v-4.9h2.6v4.5
			c0,0.9,0.4,1.4,1.1,1.4c0.5,0,1.1-0.4,1.4-0.8v-5.1h2.6v7.5H338.6z"/>
		<path class="st8" d="M341.9,74.2c0-2.9,1.7-4.1,3.7-4.1c0.8,0,1.3,0.2,1.6,0.3v-3.3h2.5v10.7h-2.1l-0.3-0.9h-0.1
			c-0.5,0.6-1.2,1.1-2.3,1.1C343,78,341.9,76.3,341.9,74.2z M347.2,75.4v-3.1c-0.3-0.2-0.7-0.3-1.1-0.3c-1.2,0-1.6,1-1.6,2.2
			s0.5,2.1,1.3,2.1C346.3,76.2,346.9,75.9,347.2,75.4z"/>
		<path class="st8" d="M354.5,66.2c0.8,0,1.4,0.5,1.4,1.3s-0.6,1.3-1.4,1.3s-1.4-0.5-1.4-1.3C353.1,66.8,353.7,66.2,354.5,66.2z
			 M353.2,70.3h2.6v7.5h-2.6V70.3z"/>
		<path class="st8" d="M359.1,74.1c0-2.6,1.4-3.9,4.1-3.9s4,1.3,4,3.9c0,2.8-1.6,3.9-4,3.9C360.7,78,359.1,76.9,359.1,74.1z
			 M364.6,74.1c0-1.6-0.6-2.1-1.4-2.1s-1.4,0.5-1.4,2.2c0,1.4,0.5,2.1,1.4,2.1C364,76.2,364.6,75.6,364.6,74.1z"/>
		<path class="st8" d="M373.1,78c-1,0-2.3-0.3-2.9-0.6l0.3-1.6c0.7,0.3,1.8,0.6,2.7,0.6c0.6,0,1.1-0.1,1.1-0.7c0-1.1-4-0.4-4-3.1
			c0-1.7,1.6-2.4,3.5-2.4c1.1,0,2.1,0.3,2.6,0.4l-0.3,1.6c-0.6-0.2-1.5-0.4-2.3-0.4c-0.6,0-1,0.2-1,0.6c0,1,3.9,0.4,3.9,3.1
			C376.7,77.3,375,78,373.1,78z"/>
	</g>
	<path class="st9" d="M313.2,41.2h13.1v20.7h7.6V41.2H347v-5.6h-33.8L313.2,41.2L313.2,41.2z M192.6,44.4v8.8c0,6,4.9,8.8,10.2,8.8
		h19.9v-5.6h-19.3c-1.8,0-3.3-1.5-3.3-3.3v-8.6c0-1.8,1.5-3.3,3.3-3.3h19.4v-5.6h-19.9C197.5,35.6,192.6,38.4,192.6,44.4z M264.1,53
		v-8.6c0-1.8,1.5-3.3,3.3-3.3h19.4v-5.6h-19.9c-5.2,0-10.2,2.8-10.2,8.8v8.8c0,6,4.9,8.8,10.2,8.8h19.9v-5.6h-19.4
		C265.6,56.3,264.1,54.9,264.1,53z M224.6,44.4v8.8c0,6,4.9,8.8,10.2,8.8h19.9v-5.6h-19.3c-1.8,0-3.3-1.5-3.3-3.3v-1.5h22.6v-5.7
		h-22.6v-1.5c0-1.8,1.5-3.3,3.3-3.3h19.4v-5.6h-19.9C229.6,35.6,224.6,38.4,224.6,44.4z M358.9,41.2h19.4v-5.6h-19.9
		c-5.2,0-10.2,2.8-10.2,8.8v8.8c0,6,4.9,8.8,10.2,8.8h19.9v-5.6h-19.4c-1.8,0-3.3-1.5-3.3-3.3v-1.5h22.6v-5.7h-22.6v-1.5
		C355.6,42.6,357.1,41.2,358.9,41.2z M299.8,49.5l-6.6-6.2h-6.6l10.6,10V62h5.3v-8.7l10.6-10h-6.7L299.8,49.5z"/>
	<path class="st10" d="M147.1,69.6"/>
	<path class="st9" d="M143.1,67.2c-0.8,0.6-1.8,1.3-2.1,1.5c-9.6,7-17.1,11.9-29.9,18.7c-35.2,18.8-64.9,26.3-68.7,18.8
		c-2.7-5.3,7.6-16.4,25.3-28.6c-0.8-0.5-1.5-1.1-2.2-1.6c-22.7,15.1-36.9,29.5-33.3,36.2c5,9.1,43.1-1.6,80.9-22.1
		c12.3-6.6,21.3-12.4,30.3-18.7c0.9-0.8,1.7-1.3,2.2-1.9c0.5-0.7,0.5-1.3,0-2C145.3,66.8,144.2,66.5,143.1,67.2z M170.9,39.7
		c-2.8-6.3-21.4-3.7-45.3,5.3c-0.1,0.9-0.3,1.9-0.4,3c18.7-6.7,33-8.4,35.1-3.2c1.1,2.8-1.3,7.6-6.7,13.4c1.3,1,2.2,2.3,2.8,3.9
		C167.5,52.4,172.8,44,170.9,39.7z"/>
	<g class="st7">
		<path class="st8" d="M192.2,88.6c0-3.8,2.4-5.5,5.5-5.5c1,0,2.3,0.2,3.2,0.7l-0.5,2c-0.7-0.4-1.6-0.6-2.4-0.6c-1.8,0-3,1.1-3,3.3
			c0,2.2,1.4,3.2,3.1,3.2c0.9,0,1.8-0.2,2.5-0.6l0.3,2c-1,0.5-2.1,0.7-3.3,0.7C194.9,93.8,192.2,92.4,192.2,88.6z"/>
		<path class="st8" d="M203.4,82.1c0.8,0,1.4,0.5,1.4,1.3s-0.6,1.3-1.4,1.3c-0.8,0-1.4-0.5-1.4-1.3S202.6,82.1,203.4,82.1z
			 M202.1,86.1h2.6v7.5h-2.6V86.1z"/>
		<path class="st8" d="M213.3,93.3c-0.9,0.4-2.1,0.6-3.2,0.6c-2,0-4.2-0.9-4.2-3.8c0-3.2,2-4,4-4c2.1,0,3.6,1,3.6,3.4
			c0,0.2,0,0.5,0,0.6h-4.9v0.2c0,1.2,0.7,1.8,2,1.8c0.7,0,1.6-0.2,2.5-0.4L213.3,93.3z M211.2,89c0-1-0.5-1.4-1.2-1.4
			s-1.2,0.4-1.4,1.4H211.2z"/>
		<path class="st8" d="M214.8,86.1h2.2l0.2,1h0.1c0.8-0.8,1.6-1.2,2.5-1.2c1.6,0,2.5,0.9,2.5,2.9v4.8h-2.6v-4.4c0-0.9-0.3-1.3-1-1.3
			c-0.6,0-1.1,0.3-1.5,0.9v4.8h-2.6v-7.5H214.8z"/>
		<path class="st8" d="M223.3,86.1h1.2l0.5-2h2v2h2.3l-0.1,1.7H227v2.9c0,0.6,0.1,1,0.8,1c0.4,0,0.9-0.1,1.4-0.3l0.3,1.9
			c-1,0.3-1.9,0.5-2.7,0.5c-1.7,0-2.4-0.8-2.4-2.7v-3.3h-1.2L223.3,86.1L223.3,86.1z"/>
		<path class="st8" d="M230.7,86.1h2.6v7.5h-2.6L230.7,86.1L230.7,86.1z M230.9,84.6l2-3.5l1.8,1l-2.8,3L230.9,84.6z"/>
		<path class="st8" d="M240.1,87.9H238v5.8h-2.6v-5.8h-1.2v-1.7h1.2v-0.4c0-2.3,1.7-2.9,3.5-2.9c0.9,0,1.9,0.1,2.6,0.3l-0.4,1.7
			c-0.4-0.1-1.2-0.2-1.7-0.2c-0.8,0-1.4,0.2-1.4,1v0.4h4.7v7.5h-2.6V87.9z"/>
		<path class="st8" d="M244.1,90c0-2.2,0.7-4,3.8-4c0.9,0,2,0.2,2.6,0.5l-0.4,1.9c-0.5-0.2-1.3-0.4-1.8-0.4c-1.1,0-1.6,0.6-1.6,2
			c0,1.1,0.4,1.9,1.8,1.9c0.7,0,1.4-0.2,1.9-0.4l0.3,1.8c-0.6,0.3-1.7,0.5-2.7,0.5C245.5,93.8,244.1,92.6,244.1,90z"/>
		<path class="st8" d="M251.3,89.9c0-2.6,1.4-3.9,4.1-3.9s4,1.3,4,3.9c0,2.8-1.6,3.9-4,3.9S251.3,92.7,251.3,89.9z M256.8,89.9
			c0-1.6-0.6-2.1-1.4-2.1S254,88.3,254,90c0,1.4,0.5,2.1,1.4,2.1C256.3,92,256.8,91.4,256.8,89.9z"/>
		<path class="st8" d="M263.4,93.8c-1,0-2.3-0.3-2.9-0.6l0.3-1.6c0.7,0.3,1.8,0.6,2.7,0.6c0.6,0,1.1-0.1,1.1-0.7c0-1.1-4-0.4-4-3.1
			c0-1.7,1.6-2.4,3.5-2.4c1.1,0,2.1,0.3,2.6,0.4l-0.3,1.6c-0.6-0.2-1.5-0.4-2.2-0.4c-0.6,0-1,0.2-1,0.6c0,1,3.9,0.4,3.9,3.1
			C267,93.1,265.2,93.8,263.4,93.8z"/>
		<path class="st8" d="M273,96.9c0.4-0.8,1-2,1.5-3.2h-0.6c-0.6-1.7-1.5-4.3-2-5.4c-0.2-0.4-0.3-0.5-0.7-0.5v-1.7
			c0.1,0,0.7-0.1,1-0.1c1,0,1.6,0.2,2,1.3c0.1,0.3,1,2.9,1.4,3.8h0.1c0.5-1.5,1.4-3.9,1.7-5.1h2.7c-1,3-2.9,7.9-4.2,10.7H273V96.9z"
			/>
		<path class="st8" d="M287.5,85.3h-3.2v-2h9.1v2h-3.2v8.4h-2.7L287.5,85.3L287.5,85.3z"/>
		<path class="st8" d="M300.4,93.3c-0.9,0.4-2.1,0.6-3.2,0.6c-2,0-4.2-0.9-4.2-3.8c0-3.2,2-4,4-4c2.1,0,3.6,1,3.6,3.4
			c0,0.2,0,0.5,0,0.6h-4.9v0.2c0,1.2,0.7,1.8,2,1.8c0.7,0,1.6-0.2,2.5-0.4L300.4,93.3z M298.3,89c0-1-0.5-1.4-1.2-1.4
			s-1.2,0.4-1.4,1.4H298.3z"/>
		<path class="st8" d="M301.6,90c0-2.2,0.7-4,3.8-4c0.9,0,2,0.2,2.6,0.5l-0.4,1.9c-0.5-0.2-1.3-0.4-1.8-0.4c-1.1,0-1.6,0.6-1.6,2
			c0,1.1,0.4,1.9,1.8,1.9c0.7,0,1.4-0.2,1.9-0.4l0.3,1.8c-0.6,0.3-1.7,0.5-2.7,0.5C303.1,93.8,301.6,92.6,301.6,90z"/>
		<path class="st8" d="M309.3,86.1h2.2l0.2,1h0.1c0.8-0.8,1.6-1.2,2.5-1.2c1.6,0,2.5,0.9,2.5,2.9v4.8h-2.6v-4.4c0-0.9-0.3-1.3-1-1.3
			c-0.6,0-1.1,0.3-1.5,0.9v4.8h-2.6v-7.5H309.3z"/>
		<path class="st8" d="M318.1,89.9c0-2.6,1.4-3.9,4.1-3.9s4,1.3,4,3.9c0,2.8-1.6,3.9-4,3.9C319.8,93.8,318.1,92.7,318.1,89.9z
			 M323.6,89.9c0-1.6-0.6-2.1-1.4-2.1s-1.4,0.5-1.4,2.2c0,1.4,0.5,2.1,1.4,2.1C323.1,92,323.6,91.4,323.6,89.9z"/>
		<path class="st8" d="M327.6,83h2.6v10.7h-2.6V83z"/>
		<path class="st8" d="M331.5,89.9c0-2.6,1.4-3.9,4.1-3.9s4,1.3,4,3.9c0,2.8-1.6,3.9-4,3.9C333.2,93.8,331.5,92.7,331.5,89.9z
			 M334.1,84.6l2-3.5l1.8,1l-2.8,3L334.1,84.6z M337,89.9c0-1.6-0.6-2.1-1.4-2.1s-1.4,0.5-1.4,2.2c0,1.4,0.5,2.1,1.4,2.1
			C336.5,92,337,91.4,337,89.9z"/>
		<path class="st8" d="M344.3,86c1.6,0,2.3,0.4,2.8,0.9h0.1c0-0.5,0.1-0.9,0.9-0.9c0.4,0,0.8,0.1,1.1,0.2l-0.1,1.2
			c-0.3,0-0.5-0.1-0.7-0.1c-0.6,0-0.7,0.3-0.7,0.7c0,0.2,0.1,0.4,0.1,0.6c0,1.6-1.3,2.3-3.4,2.3c-0.1,0-0.3,0-0.5,0
			c-0.4,0.2-0.9,0.4-0.9,0.9c0,0.4,0.4,0.5,0.8,0.5h2.3c1.9,0,3,0.7,3,2.1c0,2.2-3,2.6-4.9,2.6c-1.2,0-3.7-0.2-3.7-1.9
			c0-1,0.8-1.4,1.3-1.7v-0.1c-0.8-0.2-0.9-0.6-0.9-1c0-0.8,0.9-1.3,1.7-1.6v-0.1c-1-0.3-1.7-1-1.7-2C340.7,86.9,342.2,86,344.3,86z
			 M343.9,93.7c-0.3,0.1-1,0.3-1,0.9c0,0.7,0.9,0.8,1.6,0.8c0.9,0,1.8-0.3,1.8-1c0-0.4-0.2-0.7-0.9-0.7
			C345.4,93.7,343.9,93.7,343.9,93.7z M344.3,89.7c0.7,0,1.1-0.4,1.1-1.2c0-0.7-0.4-1.2-1.1-1.2s-1.1,0.5-1.1,1.2
			C343.3,89,343.6,89.7,344.3,89.7z"/>
		<path class="st8" d="M351.4,82.1c0.8,0,1.4,0.5,1.4,1.3s-0.6,1.3-1.4,1.3s-1.4-0.5-1.4-1.3S350.5,82.1,351.4,82.1z M350.1,86.1
			h2.6v7.5h-2.6V86.1z"/>
		<path class="st8" d="M353.9,90c0-2.2,0.7-4,3.8-4c0.9,0,2,0.2,2.6,0.5l-0.4,1.9c-0.5-0.2-1.3-0.4-1.8-0.4c-1.1,0-1.6,0.6-1.6,2
			c0,1.1,0.4,1.9,1.7,1.9c0.7,0,1.4-0.2,1.9-0.4l0.3,1.8c-0.6,0.3-1.7,0.5-2.8,0.5C355.4,93.8,353.9,92.6,353.9,90z"/>
		<path class="st8" d="M361.2,89.9c0-2.6,1.4-3.9,4.1-3.9s4,1.3,4,3.9c0,2.8-1.6,3.9-4,3.9C362.8,93.8,361.2,92.7,361.2,89.9z
			 M366.7,89.9c0-1.6-0.6-2.1-1.4-2.1s-1.4,0.5-1.4,2.2c0,1.4,0.5,2.1,1.4,2.1S366.7,91.4,366.7,89.9z"/>
		<path class="st8" d="M373.2,93.8c-1,0-2.3-0.3-2.9-0.6l0.3-1.6c0.7,0.3,1.8,0.6,2.7,0.6c0.6,0,1.1-0.1,1.1-0.7c0-1.1-4-0.4-4-3.1
			c0-1.7,1.6-2.4,3.5-2.4c1.1,0,2.1,0.3,2.6,0.4l-0.3,1.6c-0.6-0.2-1.5-0.4-2.3-0.4c-0.6,0-1,0.2-1,0.6c0,1,3.9,0.4,3.9,3.1
			C376.8,93.1,375.1,93.8,373.2,93.8z"/>
	</g>
</g>
</svg>
