<?xml version="1.0" encoding="utf-8"?>
<!-- Generator: Adobe Illustrator 24.2.0, SVG Export Plug-In . SVG Version: 6.00 Build 0)  -->
<svg version="1.1" id="Layer_1" xmlns="http://www.w3.org/2000/svg" xmlns:xlink="http://www.w3.org/1999/xlink" x="0px" y="0px"
	 viewBox="0 0 527.9 148.8" style="enable-background:new 0 0 527.9 148.8;" xml:space="preserve">
<style type="text/css">
	.st0{fill-rule:evenodd;clip-rule:evenodd;fill:#3E9C44;}
	.st1{fill-rule:evenodd;clip-rule:evenodd;fill:#AF3236;}
	.st2{fill-rule:evenodd;clip-rule:evenodd;}
</style>
<rect x="133.2" y="90.7" class="st0" width="393.5" height="12.8"/>
<rect x="133.2" y="129" class="st1" width="393.5" height="12.8"/>
<polygon class="st0" points="120.8,27.7 120.8,23 66.5,6.5 61.5,9.5 65.8,14.4 "/>
<polygon class="st0" points="120.8,35.8 120.8,31.1 66.5,18.3 61.5,21.5 65.8,26.2 "/>
<path class="st0" d="M120.8,43.3v-4.7l-54.3-8.8L64,31.5c0,0.1,0.1,0.1,0.1,0.2l0,0l0.2,0.3c0.1,0.1,0.1,0.3,0.2,0.5
	c0.1,0.1,0.2,0.2,0.3,0.3c0.1,0.1,0.3,0.2,0.4,0.3l0.4,0.3c0,0,0,0.1,0.1,0.1c0,0.1,0,0,0,0.1l0.1,0.1c0.1,0.2,0,0.4,0,0.6
	c0,0.1,0,0,0,0.1l0.2,0c0.1,0,0.2,0,0.3,0c0,0.1,0,0.2,0.1,0.2c0.1,0.1,0,0,0.1,0c0.2,0,0.4,0,0.6,0.1l0.1,0.1c0,0.3,0,0.6,0.1,0.9
	l0.1,0.2c0.1,0.1,0,0,0.1,0.1c0,0.2,0,0.4,0.1,0.6c0.1,0.1,0.1,0.3,0.2,0.5c0.1,0.1,0.1,0.1,0.1,0.3l0.1,0l0,0.3h0.2l0,0.2l0.1,0
	c0,0,0,0,0,0L120.8,43.3z"/>
<path class="st0" d="M120.8,52v-4.7l-48.3-4.6c0,0,0,0.1,0,0.1c0,0.7,0.1,0.3,0.1,0.5c-0.3,0.2-0.2,0.3-0.2,0.7
	c-0.3,0.2-0.2,0.1-0.2,0.5c0,0.2,0,0.4,0,0.5c0.1,0.3,0.1,0.3,0.2,0.3l0.2-0.1l-0.1,0.8l-0.2,0.1l0,0.5v0.8v0.3l0,0.5
	c0,0.1,0,0.1,0,0.2c0,0.2,0,0,0,0.1c0,0.1,0,0.2,0,0.3c0.1,0.5,0.2,0.8,0,1.4l28.2,1c0.1,0,0,0,0.3-0.2c0.2,0,0.1,0,0.2-0.1l0.8-0.4
	c0.4-0.2,0.7-0.3,0.7-0.3c0.1-0.1-0.1,0,0.1-0.1c0.3-0.1,0.8-0.1,1.1-0.1l0.3,0c0.1,0,0.2,0,0.3,0l1,0.3c0.2,0.1,0.5,0,0.7-0.1
	c0.2-0.1,0.3-0.1,0.5-0.3c0,0,0-0.2,0.1-0.2c-0.2,0-0.2,0-0.3-0.2c0.8-0.1,0.5-0.1,1,0.1l0.1,0.1l0,0c0.1,0.1,0.2,0.1,0.4,0.1
	c0,0.3,0.1,0.1,0.1,0.7c0,0.2,0,0.6-0.1,0.8L120.8,52z"/>
<path class="st0" d="M120.8,59.7V55l-14.5,0.3v0.1c-0.1,0-0.1,0-0.2,0.1l-0.1,0.1c-0.1,0.1-0.1,0.3-0.2,0.5l-0.3,0.1
	c0,0.1,0,0.2,0,0.3c0.1,0.1,0.2,0.2,0.4,0.2c0.2,0,0.1,0,0.2-0.1c0.1-0.1,0.1,0,0.2-0.1l0.2-0.1c0,0.2-0.1,0.4-0.2,0.6
	c-0.4,0.1-0.2,0.1-0.5,0.3c0,0.2-0.1,0.5,0.2,0.5c0.1,0,0.1,0,0.2-0.1l0.1,0c0.1-0.1,0,0,0.1-0.1l0.1-0.1c0,0.3-0.1,0.2-0.2,0.3
	c-0.1,0.2-0.1,1-0.1,1.2l-0.1,0.4c0,0.2-0.1,0.2-0.1,0.4c0,0.1,0,0.3-0.1,0.5c-0.1,0.1,0-0.1-0.1,0.1c0,0,0,0.2,0,0.2
	c0,0.2,0,0.2-0.2,0.3l-0.1-0.3l0,0l0-0.1l-0.2-0.2c-0.1-0.1-0.2-0.1-0.3-0.1c0-0.1,0-0.2,0-0.3c0-0.2,0-0.1,0-0.1
	c0.1-0.1,0.1-0.2,0.1-0.4c0-0.2,0.2-0.4,0.1-0.6c-0.1-0.3-0.4-0.1-0.5,0.3c-0.1,0-0.1,0-0.2,0l-0.1,0.1c0,0.2,0.1,0.5-0.1,0.7
	l-0.3,0.3c-0.2,0.1-0.4,0.2-0.6,0.3c0,0,0,0,0,0c-0.1,0.2-0.1,0-0.2,0.3L120.8,59.7L120.8,59.7z M96.5,55.5L74.3,56
	c0.1,0.2,0.1,0.3,0.2,0.5l0.1,0.1c0.1,0.1,0.1,0.3,0.2,0.4l0.2,0.2c0.1,0,0,0,0.1,0l0.6,0.5c0.1,0,0,0,0.1,0.1c0.1,0.1,0,0,0.1,0.1
	c0.1,0.1,0.1,0.1,0.2,0.1l0.2,0.3c0.1,0.1,0.2,0.2,0.3,0.3l0.2,0.3c0.1,0.1,0-0.1,0.1,0l0.1,0.2c0.1,0.1,0.2,0.3,0.3,0.4l0.1,0.2
	l0,0c0,0,0,0,0,0.1l0,0l0,0c0.1,0.1,0,0.2,0.1,0.4c0,0.2,0,0.2,0.1,0.3c0.1,0.3,0,0.2,0.2,0.4l0,0l0.3,0.3l0,0l0,0l0,0l0.1,0.1
	c0.1,0.1,0.1,0.2,0.3,0.3l0.1,0.1c0.3,0.2,0.2,0.1,0.4,0.4l0,0c0.1,0.1,0.2,0.1,0.2,0.2c0,0.1,0,0.2,0.1,0.3l0.1,0
	c0.1,0.1,0.1,0.1,0.1,0.2c0.4,0,0.5-0.1,0.6,0l0.4,0c0-0.1,0-0.1,0-0.1l0-0.1c0.4,0,0.7-0.1,1.1-0.1c0.2,0,0.3,0,0.3,0.1l7.9-0.7
	l0,0l0.1-0.1c0,0,0,0,0.1,0c0.4-0.3,0.4-0.2,0.5-0.3l0.1-0.1l1.6-0.2l0,0.2l-1.1,0.1c-0.1,0.1,0,0.2,0,0.3c0.1,0,0.3,0,0.4,0
	c0.2,0,0.3,0,0.3,0l2-0.2v0c0.3-0.1,0.4-0.2,0.6-0.4c0.1-0.2,0.2-0.2,0.1-0.5c0,0,0-0.1,0-0.1l0,0l-0.1,0l0,0l-0.1-0.1
	C94,60.7,94,60.6,94,60.5l0.2-0.2c0.1-0.1,0.2-0.1,0.3-0.2l0.1-0.1c0.2-0.1,0.5-0.3,0.7-0.5l0,0l0,0l0.5-0.5c0,0,0,0,0.1-0.1
	l0.1-0.4l0,0l0,0c0.1-0.2,0-0.5,0.1-0.7c0-0.1,0-0.1,0.1-0.2c0-0.2,0.2-0.4,0.3-0.5l0,0C96.6,56.9,96.5,56.1,96.5,55.5z"/>
<path class="st0" d="M120.8,67.8v-4.7l-25.4,2.8c0,0.1,0,0.1,0,0.2c-0.4,0.1-0.9,0.1-1.3,0.1c0,0.1,0,0.2,0.1,0.2l0,0l0.1,0.1
	c0.1,0.1,0.1,0,0.2,0.1l1.1,0.8c0.1,0.1,0.1,0.1,0.2,0.2c0.1,0,0.1,0,0.2,0l0.2,0l0,0l0.2,0.1c0.1,0,0.2,0,0.2,0.1l0.2,0.2
	c0.4,0.4,0.1,0.3,0.4,0.6c0.1,0.1,0,0,0.1,0c0,0,0.1,0,0.1,0l0.1,0.1c0.1,0.1,0.3,0.1,0.4,0.1c0,0.4-0.1-0.1-0.1,1.1
	c-0.3,0-1.5,0.1-1.8,0.2c-0.6,0.2-1.8,0.3-2.5,0.4c0,0.2-0.1,0.3-0.2,0.4L93,70.9c-0.1,0.1-0.1,0.2-0.2,0.4l0,0l-0.3,0.4
	c0,0,0,0.1-0.1,0.1l0,0.1l0,0c-0.1,0.1-0.1,0.1-0.1,0.2l0,0c-0.1,0.1-0.1,0.1-0.1,0.2L92,72.6c0,0-0.1,0.1-0.1,0.1L120.8,67.8
	L120.8,67.8z M65.1,70.4L61.5,74l4.3,3.2l23-3.9c-0.2-0.2-0.1-0.1-0.3-0.3L88,72.5c-0.1-0.1-0.1-0.1-0.2-0.1l0-0.3
	c-0.1,0-0.1,0-0.2,0c-0.2-0.1-0.3-0.1-0.5,0c0-0.1-0.1-0.1-0.2-0.1l0,0l-0.5-0.3c-0.1-0.1-0.1,0-0.2-0.1c-0.1-0.1-0.1-0.1-0.1-0.3
	c0-0.2-0.2-0.2-0.4-0.2l-0.1-0.3c-0.3,0-0.2,0-0.5,0c-0.1,0-0.2,0-0.4-0.1l0,0c-0.1,0-0.2-0.1-0.2-0.1l0,0c-0.1-0.1-0.2-0.1-0.4-0.1
	l0,0.4c-0.2,0-0.2,0-0.4,0l0.1-0.2c-0.1-0.1-0.1-0.2-0.2-0.3c-0.1-0.1,0,0-0.1-0.1c-0.1,0-0.2,0-0.3,0.1l0,0l-0.2,0.1
	c0-0.4-0.2-0.4-0.4-0.3c0,0.1,0,0.1,0,0.1l-0.1,0.1c-0.1,0.1-0.2,0.1-0.2,0.1l-0.1,0.2c0,0.1,0,0.2,0,0.2l-0.1,0.1l-0.5,0.1
	c-0.1,0.1-0.1,0.1-0.3,0.2c0,0-0.1,0-0.1,0.1l-0.2,0.2c-0.2,0.1-0.1,0.1-0.4,0.4c-0.1,0.1-0.3,0.1-0.5,0.2c-0.2,0.2-0.5,0.3-0.8,0.3
	c-0.2,0.1-0.1,0.1-0.4,0.2c-0.2,0.1,0,0-0.2,0.1L78.6,73c-0.2,0.1,0,0.1-0.4,0.2l-0.1,0c-0.3,0.1-1,0.2-1.2,0.2l-0.4-0.1
	c-0.1,0-0.3,0-0.4,0L76,73.2c-0.1,0-0.2,0-0.3-0.1L75.4,73c-0.1-0.1-0.2-0.1-0.3-0.1c0,0,0,0-0.1,0c-0.1,0-0.1,0-0.2,0
	c-0.1,0-0.1,0-0.1,0c-0.2,0-0.3,0-0.5,0c-0.2,0-0.2,0-0.4,0c-0.4,0-0.5,0-0.8,0c-0.2,0-0.3,0-0.3,0l-0.1,0c-0.1,0-0.1-0.1-0.2-0.1
	c-0.1-0.1-0.3-0.2-0.4-0.3l-0.3-0.1c-0.1,0-0.1,0-0.2,0c-0.3-0.1-0.3-0.1-0.5-0.1c-0.1,0-0.4,0-0.5,0c-0.2,0-0.2-0.1-0.4-0.1
	c-0.1-0.1-0.1-0.1-0.2-0.2l-0.2-0.1l0,0c-0.1-0.1-0.2-0.2-0.3-0.3c-0.1-0.1-0.2-0.1-0.3-0.1c-0.5,0-0.5,0.1-0.9-0.2
	c-0.1-0.1-0.3,0-0.4,0c0,0-0.1,0-0.1,0.1L67.5,71c-0.3-0.1-0.6,0.1-0.8-0.1c-0.3-0.2-0.5,0.1-0.6,0.1l-0.1-0.1
	c-0.1-0.1-0.2-0.1-0.3-0.2l-0.1-0.1c-0.1-0.1-0.2-0.1-0.3-0.1c-0.1-0.1-0.1-0.1-0.2-0.1S65.2,70.4,65.1,70.4L65.1,70.4L65.1,70.4
	L65.1,70.4z"/>
<polygon class="st0" points="120.8,75 120.8,70.3 66.5,80.4 61.5,85.7 65.8,88.6 "/>
<polygon class="st1" points="3.5,21.2 3.5,16.4 57.8,0 62.8,2.9 58.5,7.9 "/>
<path class="st1" d="M3.5,29.3v-4.7l13.2-3.1c0,0,0,0.1,0,0.2c0,0-0.1,0.1-0.1,0.1l-0.2,0.1c0,0.5,0,0.6,0.2,0.8l0.1,0.1l0.3,0.4
	c0,0.1,0,0,0,0.1l0.2,0.3c0,0.1,0,0,0,0.1c0,0.3-0.1,0.5,0.1,0.7c0.1,0,0,0,0.1,0.1c0.1,0.2,0.2,0.4,0.2,0.8l0,0.7l0.3,0l0.1,0.1
	c0,0.1,0,0.1,0,0.2l0.1,0.2c0,0.1,0.1,0,0.1,0.2L3.5,29.3L3.5,29.3z M23,19.9l34.8-8.2l5,3.3l-4.3,4.7l-15.2,2.6c-0.1,0-0.3,0-0.4,0
	l-1.1,0c-0.2,0-0.2,0-0.3,0c-0.3,0-0.5,0-0.8,0c-0.2,0-0.1,0.2-0.1,0.4v0L33.7,24c0,0,0,0-0.2,0c-0.4,0-0.4,0-0.8,0c0,0,0,0-0.1,0
	l-0.1,0c0,0-0.1,0-0.1,0l0,0l-0.5-0.2c0,0,0,0-0.1,0l-0.2-0.1l0,0l-0.7-0.3c-0.1,0-0.3-0.1-0.4-0.1l-0.1,0c0,0-0.1,0-0.1-0.1l-1-0.4
	c-0.1,0-0.1,0-0.3-0.1l-0.3-0.2l-0.1,0c-0.1,0,0,0-0.1,0l-1.8-0.8l0,0l-0.2-0.1l0,0L26,21.2c0,0,0,0-0.1,0l-0.2-0.1
	c-0.1,0-0.2-0.1-0.4-0.1c-0.1,0,0,0-0.1,0c0,0,0,0-0.1,0l-0.2-0.1l0,0c0,0,0,0-0.1,0l-0.4-0.1c-0.2-0.1,0,0-0.1-0.1l-0.2-0.1l0,0
	l0,0l-0.5-0.2C23.5,20.1,23.2,20,23,19.9L23,19.9z M26.1,25.3c0-0.1-0.1-0.1-0.1-0.2l-0.2-0.3c0-0.1,0-0.4,0-0.5c0-0.2,0,0,0-0.1
	c0,0,0,0,0,0c-0.1-0.1-0.1-0.1-0.1-0.2l0.1-0.1c0,0,0,0,0,0c0,0,0,0,0.1-0.1c0.1-0.2,0-0.3-0.1-0.4l0,0c-0.1-0.1-0.1-0.2-0.2-0.2
	c-0.1,0-0.1,0-0.2,0l0,0.2c-0.2,0-0.4,0-0.6,0c-0.2,0-0.1,0-0.3-0.1c-0.1,0-0.2,0-0.3,0l0,0c0,0,0,0-0.1,0l-0.3,0l0-0.4l-0.1-0.1
	l0,0c-0.1-0.1-0.1,0-0.2-0.1l0,0l-0.1-0.1c-0.1,0-0.1-0.1-0.1-0.2c-0.2,0.1-0.2,0.1-0.3,0l-0.1-0.1c-0.1-0.1-0.1-0.1-0.2-0.1
	c-0.2-0.1-0.1-0.3-0.3-0.4L22,21.5l0,0c-0.1,0,0,0,0,0c0,0-0.1-0.1-0.1-0.1c0-0.1,0-0.2,0-0.3c0,0-0.1,0-0.2,0l-0.1,0.1
	c-0.1,0.1-0.1,0-0.2,0.1c-0.1,0,0,0-0.1,0c0,0-0.2,0-0.1,0.2c0.1,0.1,0.1,0.1,0.2,0.2l0,0l0.2,0.2c0,0.1,0.1,0.1,0.1,0.3
	c0,0.1,0,0.1,0,0.1l-0.1,0.3c0,0.1,0,0-0.1,0.2c-0.1,0.3-0.1,0.7-0.1,1c0,0.6-0.1,0.6,0.2,0.8c0.1,0.1,0,0,0.1,0.1v1.4L26.1,25.3z"
	/>
<path class="st1" d="M3.5,36.7V32l16-2.6l0.1,0.1l0,0c0.3,0.2,0.4,0.2,0.6,0.3l0.2,0.1l0,0c0.1,0.1,0.2,0.1,0.2,0.2
	c0.1,0.1,0.1,0.1,0.2,0.2c0.1,0.1,0.1,0.2,0.2,0.3l0.1,0.2l0,0l0.1,0.2c0,0.1,0.1,0.2,0.1,0.3c0.2,0.2,0.2,0,0.4,0.3l0,0.1l0,0
	l0.2,0.4l0,0c0.1,0.1,0.1,0.2,0.2,0.3l0,0c0.1,0.1,0.2,0.2,0.3,0.3c0.1,0.1,0,0.3,0,0.5c-0.1,0.2,0,0.3-0.1,0.4l0,0.1l0.2,0
	c0,0.1,0,0.2,0,0.3c-0.1,0.2-0.1,0.4-0.2,0.6l-0.4-0.1l0,0.2L3.5,36.7L3.5,36.7z M22.7,28.9C22.7,28.9,22.7,28.9,22.7,28.9l0.1,0.1
	l0.3,0.2c0,0,0,0,0,0.1l0.5,0.6c0,0,0,0,0,0c0,0,0,0,0,0l0,0l0.6,0.5c0.1,0.1,0,0.3,0.1,0.5c0,0.1,0.1,0.2,0,0.3
	c-0.1,0.2-0.1,0.4,0,0.6c0,0.1,0,0.2,0.2,0.1c0.1,0,0.1-0.1,0.1-0.2c0.1,0.1,0.1,0.2,0.1,0.3l0.1,0.2l0.2,0c0,0.6,0,0.3,0.1,0.7
	l0.1,0.2c0,0.1,0.1,0.1,0.2,0.2c0.1,0,0.3,0,0.4,0.1l0.1,0.4c0,0,0,0,0,0.1c0.1,0.4,0.2,0.2,0.2,0.7l4.4-0.5c0-0.1-0.1-0.3-0.2-0.4
	l0,0l-0.2-0.1c-0.1,0-0.2-0.1-0.3-0.1l0,0c-0.1-0.1-0.2-0.2-0.3-0.3c0-0.1,0-0.1-0.1-0.1c-0.1-0.1-0.2-0.2-0.2-0.4l0.1-0.1
	c0.1-0.1,0.1,0,0.1-0.1c0-0.2-0.1-0.1-0.1-0.2c-0.5,0-0.3,0-0.6-0.2l-0.1-0.1c-0.1-0.1-0.1-0.3-0.1-0.5c0-0.6,0-0.4-0.1-0.6
	l-0.3-0.4c0,0-0.1,0-0.2,0c0-0.3,0-0.6-0.2-0.9l0,0c0,0,0-0.1,0-0.1l0,0l-0.3-0.4l0,0c-0.1-0.1-0.1-0.1-0.2-0.2
	c-0.1-0.1-0.1-0.3-0.1-0.5L22.7,28.9L22.7,28.9z M48.7,24.6l9.1-1.5l5,3.6l-1.4,1.4v0l-0.2-0.1c-0.2-0.1-0.3-0.1-0.4-0.1
	c-0.1,0,0,0-0.2,0c-0.1,0-0.3,0-0.4,0c-0.5,0-1,0.1-1.5,0.1c-0.3,0-0.6-0.2-0.9,0.1l-0.5,0.5c-0.1,0.1-0.1,0.2-0.1,0.3l0,0
	C57,29.2,57,29.3,57,29.4c-0.1,0.1-0.1,0.2-0.2,0.3c0,0.1,0,0.1-0.1,0.1L56.6,30c0,0,0,0-0.1,0.1l-0.4,0.4l0,0
	c-0.1,0.1-0.1,0.2-0.2,0.3c0,0.1-0.1,0.1-0.2,0.2l-0.1,0.1c-0.1,0-0.3,0.1-0.5,0l0,0c0,0,0,0-0.1,0L54.8,31c-0.1,0-0.1-0.1-0.2-0.1
	l0,0l-0.1-0.1c-0.1,0-0.3-0.1-0.4-0.1c-0.2,0-0.2-0.1-0.3-0.2c-0.2-0.2-0.3-0.1-0.6-0.2c-0.1,0-0.2-0.1-0.3-0.2l0,0l0,0
	c-0.2-0.2-0.1-0.1-0.3-0.3c0-0.1-0.1-0.1-0.2-0.2L51.7,29l0,0c-0.1-0.1-0.2-0.1-0.2-0.2c-0.1-0.2-0.1-0.4-0.2-0.5L51.2,28
	c-0.1-0.3,0,0.2-0.1-0.6c0-0.2,0-0.1-0.1-0.3l-0.2-0.4c0,0-0.1-0.1-0.1-0.2c0-0.1,0-0.1,0-0.1l-0.1-0.2c-0.1-0.1-0.2-0.2-0.2-0.3
	l-0.1-0.1c0,0,0,0,0,0l-0.2-0.2c0,0,0,0-0.1,0l-0.2-0.1c-0.1-0.1-0.2,0-0.3-0.1l-0.1-0.1l0,0l0,0l-0.1-0.1c0-0.1,0,0-0.1-0.1l0,0
	L48.7,24.6L48.7,24.6z"/>
<path class="st1" d="M3.5,45.5v-4.7l20-1.9l0,0l0,0l1.7-0.2l0.1,0c0,0.1,0,0,0,0.1c-0.1,0.2-0.2,0.2,0,0.5c0.1,0.1,0.1,0.3,0.1,0.5
	c0.2,0,0,0,0.2,0.1l0.2,0.1c0.4,0,0.3,0,0.4,0.4c0.1,0,0.3,0.1,0.5,0.2l0,0c0.1,0.1,0,0,0.1,0.1c0.2,0,0.3-0.1,0.4,0
	c0.1,0.1,0.1,0.3,0.3,0.5c0.1,0.1,0.1,0,0.2,0.1l0,0c0,0,0.1,0,0.1,0.1c0,0.1,0,0.1,0,0.2l0,0l0,0c0,0.1,0,0.2,0,0.3l0.1,0.4
	c0.2,0,0.2,0.1,0.2,0.2c0,0.6-0.1,0.5-0.1,0.8c0,0.5-0.1,0.1-0.1,0.3c0,0,0,0.4-0.2,0.7c0,0.1,0,0.1,0,0.2c0,0,0,0,0,0.1L3.5,45.5
	L3.5,45.5z M28.4,38.4l6.4-0.6c0,0,0.1,0.1,0.1,0.1c0,0.2-0.2,0.1,0.1,0.6c0.1,0.1,0.1,0.3,0.2,0.3c0,0,0.1,0.1,0.1,0.2l0.2,0
	l0.1-0.2c0.1,0,0.2,0,0.3,0c0.1,0,0.2-0.1,0.3,0l0.2,0.2c0.1,0.2,0,0.3-0.1,0.4c0.1,0,0,0.1,0.2,0.1l0.2,0c0,0,0,0,0,0c0,0,0,0,0,0
	l0,0c0.1,0.1,0.1,0.3,0.1,0.4c0.2-0.1,0-0.1,0.4-0.1l0,0c0.2,0.3,0,0.7,0.1,0.9c0,0.1,0.1,0,0.1,0.3l-0.3,0c0,0,0-0.1-0.1-0.2
	L36.8,41l-0.2,0.2l-0.3-0.1l-0.2,0.3c-0.2,0.4-0.1,0.3,0,0.5c0,0.1,0,0.2-0.1,0.3l0.1,0.1c0.1,0.1,0.3,0.1,0.2,0.3
	c0,0.1,0,0.1-0.1,0.2c0.1,0,0.1,0,0.2,0c0.1,0,0.1,0,0.2,0l0.2,0.1c0.1,0,0,0.1,0.1,0.1c0.2,0,0-0.2,0.4-0.1c0,0.3,0,0.3-0.2,0.5
	c0,0.2,0,0.1,0.1,0.1l0.1,0c0.2-0.3,0.2-0.1,0.3-0.2c0.1-0.1,0-0.1,0.3-0.1c0,0.1,0,0.1,0.1,0.2l0.3,0.5l0,0
	c0.1,0.1,0.3,0.1,0.4,0.2c0,0,0.1,0.1,0.1,0.1l-7.9,0.3c0,0-0.1,0-0.1-0.2c0-0.1,0-0.2,0-0.3c-0.2-0.6,0.1-0.5-0.3-0.8
	c-0.1,0,0,0-0.1-0.1c-0.1-0.1-0.1-0.2-0.2-0.3c0-0.1-0.1-0.2-0.1-0.3c-0.1-0.1-0.1-0.2-0.2-0.3l0,0c-0.2-0.4,0.2-0.7,0-1.1
	c0,0-0.1-0.2-0.1-0.3c0-0.1,0-0.1-0.1-0.3l0-0.7c-0.1,0,0,0-0.1,0c-0.1,0-0.2-0.1-0.2-0.2c-0.1-0.1-0.1-0.3-0.1-0.4
	c-0.1-0.1,0,0-0.1-0.1L29.2,39c0-0.1-0.1-0.1-0.1-0.2l-0.1,0c-0.1,0.2,0,0.3,0,0.5c0.1,0,0.1,0,0.1,0.1l0,0c0.1,0.1,0.1,0.2,0.1,0.4
	c-0.1,0.1-0.3,0.2-0.4,0.1l-0.1-0.1c-0.1-0.1-0.1-0.2-0.1-0.3c0-0.1-0.1-0.1-0.1-0.2c0-0.3,0-0.4-0.1-0.6L28.4,38.4L28.4,38.4z"/>
<path class="st1" d="M3.5,53.2v-4.7l27.9,0.7l0,0l0,0l0.1,0c0.1,0.1,0.2,0.2,0.3,0.3l0.5,0.3c0.2,0.1,0.1,0.1,0.2,0.2l0.2,0.3l0,0
	l0.4,1c0.1,0.2,0.1,0.5,0.2,0.7c0,0,0,0,0,0c0.1,0.1,0.2,0.2,0.3,0.2c0.1,0,0.5-0.2,0.5-0.3l0.5-0.3c0.2-0.1,0.5-0.5,0.5-0.7
	c0-0.2,0-0.4,0-0.6c0-0.1-0.2-0.3-0.2-0.3l-0.1-0.1l0,0l0,0c0,0,0,0-0.1,0l-0.1-0.1l-0.1-0.3c0-0.1-0.1-0.2-0.1-0.4l9.5,0.2l0.2,0.3
	c0.1,0.2,0.2,0.3,0.3,0.4c0.1,0.1,0,0,0,0c0.1,0.1,0.1,0.1,0.2,0.2l0.3,0.3c0.1,0.1,0,0.1,0.2,0.3c0.1,0.1,0.1,0.2,0.2,0.3
	c0.2-0.1-0.1-0.1,0.2-0.1c0.1,0,0.1,0.1,0.4,0.3c0,0,0,0,0,0c0,0,0,0,0,0c0,0,0,0,0,0.1l0.4,0.5c0.1,0.1,0.1,0.1,0.2,0.3
	c0.3,0,0-0.1,0.4-0.1c0,0.1,0,0,0.2,0.2l0,0l0,0c0.1,0.1,0,0,0,0.1c0,0.1,0.2,0.2,0.1,0.4c-0.1,0.2,0,0-0.1,0.2
	c0,0.3,0.1,0.8,0.2,1.1c0,0.3,0.1,0,0.1,0.5c0,0.3,0.1,0.2,0.4,0.3c0,0,0,0.1,0.1,0.1c0,0.1,0,0,0.1,0.2c-0.2,0.2-0.2,0.2-0.2,0.4
	c0.1,0,0.1,0,0.2,0.1c0.1,0.1,0,0.1,0.1,0.2c0.1,0.2,0.3,0.1,0.3,0.2l0.1,0.2c0.1,0.2,0.1,0.4,0.1,0.6L3.5,53.2z"/>
<path class="st1" d="M3.5,61.3v-4.7l43.9,4.8c0,0,0,0,0.1,0.1l0.1,0.1l0.2,0.3l0,0c0,0.1,0.1,0.1,0.1,0.2c0,0.1,0,0.1,0,0.2
	c0,0.1,0,0,0,0.1l0.1,0.2c0.1,0.2,0.3,0.2,0.4,0.3l0.2,0.2c0.1,0.1,0.1,0,0.1,0.2c0,0.1,0.1,0.2,0.2,0.3l0.5,0.5c0.2,0,0.2,0,0.3,0
	c0.1,0.1,0.2,0.2,0.3,0.3l0,0c0.1,0.1,0.1,0.1,0.2,0.1l0.6,0.1c0.2,0,0,0.1,0.4,0.1c0,0.1,0,0,0,0.1l0.1,0.2c0,0.1,0.1,0.1,0.2,0.1
	c0.1,0,0.2,0,0.3,0c0-0.1,0-0.1,0-0.1l0,0l0-0.1c0,0,0.1,0,0.1,0c0.1,0,0.1,0.1,0.2,0.2l0.3,0.1c0,0.1,0,0.1,0,0.2
	c0,0.1,0.1,0.2,0.2,0.2c0.2,0.1,0.4,0.1,0.6-0.1c0.1-0.1,0.1-0.1,0.2-0.1c0,0.1,0,0.1,0,0.2c0,0.1,0,0.1-0.1,0.1l0,0
	c-0.2,0.3,0,0.5,0,0.5l0,0l0.1,0.1c0.1,0.1,0.1,0.2,0.2,0.2c0.1,0.1,0.1,0.1,0.1,0.2c0,0.1,0.1,0.1,0.2,0.2c0.2,0.1,0.1,0,0.2,0.1
	c0.1,0,0.1,0,0.2,0.1l0,0l0.1,0.1l0,0l0.2,0c0.2,0,0,0,0.2,0.1c0.2,0,0.2,0.1,0.4,0.1l0.1,0l0,0c0,0,0,0,0.1,0
	c0.2,0,0.2,0.1,0.4,0.1l0,0l0.1,0c0.1,0.1,0,0,0.2,0.1c0.1,0.1,0.4,0.1,0.5,0.1c0.1,0,0.2,0,0.3,0c0.1,0,0.4,0,0.5,0.1l0.1,0
	c0,0,0,0,0.1,0c0.6,0.1,0.7-0.2,1-0.2c0,0,0,0,0.1,0c0,0,0,0,0,0c0,0,0,0,0,0c0.1,0,0.2,0,0.3,0.1c0.1,0.1,0.2,0.1,0.3,0.2
	c0.1,0.1,0.1,0.1,0.2,0.2c0.2,0.1,0.2,0.3,0.4,0.4c0.1,0,0.3,0.1,0.4,0.1c0.1,0,0.2,0,0.2,0.1l0.1,0.1l-2.5,1.8L3.5,61.3L3.5,61.3z
	 M58.9,67.6C58.9,67.6,58.9,67.6,58.9,67.6C59.1,67.7,58.8,67.5,58.9,67.6z"/>
<polygon class="st1" points="3.5,68.5 3.5,63.8 57.8,73.8 62.8,79.2 58.5,82.1 "/>
<path class="st2" d="M51.2,100.5c1,0,1.8-0.2,2.3-0.6c0.5-0.4,0.7-1,0.7-1.9c0-0.8-0.3-1.4-0.8-1.8c-0.5-0.4-1.3-0.6-2.2-0.6h-2.6
	v4.9H51.2L51.2,100.5z M43.2,113.2V91.6h8c2.9,0,5.1,0.5,6.5,1.6s2.1,2.7,2.1,4.9c0,2.2-0.8,3.9-2.3,5c-1.5,1.1-3.8,1.7-6.8,1.7
	h-2.1v8.4H43.2L43.2,113.2z M81.8,111.4c-1.3,0.7-2.6,1.3-4,1.7c-1.4,0.4-2.8,0.5-4.3,0.5c-1.7,0-3.3-0.3-4.7-0.8
	c-1.4-0.5-2.7-1.3-3.7-2.3c-1.1-1-1.9-2.3-2.5-3.7c-0.6-1.4-0.9-2.9-0.9-4.5c0-3.4,1.1-6.1,3.4-8.1c2.2-2.1,5.2-3.1,8.9-3.1
	c1.3,0,2.6,0.1,3.9,0.4c1.3,0.3,2.5,0.7,3.7,1.3V98c-1.2-0.8-2.4-1.4-3.6-1.7c-1.2-0.4-2.4-0.6-3.6-0.6c-2.2,0-3.9,0.6-5.2,1.8
	s-1.9,2.8-1.9,4.9c0,2,0.6,3.6,1.8,4.8c1.2,1.2,2.8,1.8,4.8,1.8c1.3,0,2.6-0.2,3.9-0.7c1.3-0.5,2.6-1.1,3.9-2L81.8,111.4L81.8,111.4
	z M3.9,140.8V136c1.6,1,3,1.7,4.1,2.1c1.1,0.4,2.2,0.6,3.3,0.6s1.9-0.2,2.4-0.5c0.5-0.3,0.8-0.8,0.8-1.4c0-0.5-0.2-0.9-0.5-1.3
	s-1.1-0.7-2.4-1.1c-3.1-1.1-5.2-2.2-6.4-3.3s-1.7-2.6-1.7-4.3c0-1.8,0.7-3.3,2.3-4.5c1.5-1.2,3.5-1.7,5.9-1.7c1.2,0,2.5,0.2,3.7,0.4
	c1.2,0.3,2.5,0.7,3.7,1.3v4.4c-1.5-0.7-2.8-1.3-3.9-1.6c-1.1-0.3-2.2-0.5-3.1-0.5c-1,0-1.8,0.2-2.4,0.4c-0.5,0.3-0.8,0.7-0.8,1.3
	c0,0.4,0.2,0.9,0.7,1.3c0.5,0.4,1.2,0.8,2.2,1.1c0.2,0.1,0.5,0.2,0.9,0.4c2.1,0.8,3.5,1.4,4.4,2c0.9,0.6,1.6,1.3,2.1,2.2
	c0.5,0.9,0.7,2,0.7,3.2c0,2-0.8,3.6-2.3,4.7c-1.5,1.1-3.6,1.7-6.3,1.7c-1.3,0-2.6-0.2-3.9-0.5C6.3,142,5.1,141.5,3.9,140.8
	L3.9,140.8z M23.3,142.5v-21.6h5.6v21.6H23.3L23.3,142.5z M38.6,128.9v13.6h-5.3v-21.6H38l11.6,12.9v-12.9h5.3v21.6h-4.2L38.6,128.9
	L38.6,128.9z M59.2,142.5v-21.6h14.5v4h-9.1v4.4h8.6v4h-8.6v5.2h9.3v4.1L59.2,142.5L59.2,142.5z M77.3,142.5v-21.6h4.8l6.9,8.7
	l7-8.7h4.8v21.6h-5.3v-13.4l-6.4,7.9l-6.4-7.9v13.4H77.3L77.3,142.5z M104.7,140.8V136c1.6,1,3,1.7,4.1,2.1c1.1,0.4,2.2,0.6,3.3,0.6
	c1.1,0,1.9-0.2,2.4-0.5c0.5-0.3,0.8-0.8,0.8-1.4c0-0.5-0.2-0.9-0.5-1.3c-0.3-0.3-1.1-0.7-2.4-1.1c-3.1-1.1-5.2-2.2-6.4-3.3
	s-1.7-2.6-1.7-4.3c0-1.8,0.8-3.3,2.3-4.5c1.5-1.2,3.5-1.7,5.9-1.7c1.2,0,2.5,0.2,3.7,0.4c1.2,0.3,2.5,0.7,3.7,1.3v4.4
	c-1.4-0.7-2.8-1.3-3.9-1.6c-1.2-0.3-2.2-0.5-3.2-0.5c-1,0-1.8,0.2-2.3,0.4c-0.5,0.3-0.8,0.7-0.8,1.3c0,0.4,0.2,0.9,0.7,1.3
	c0.5,0.4,1.2,0.8,2.2,1.1c0.2,0.1,0.5,0.2,0.9,0.4c2.1,0.8,3.5,1.4,4.4,2c0.9,0.6,1.7,1.3,2.1,2.2c0.5,0.9,0.7,2,0.7,3.2
	c0,2-0.8,3.6-2.3,4.7c-1.5,1.1-3.6,1.7-6.3,1.7c-1.3,0-2.6-0.2-3.9-0.5C107.1,142,105.9,141.5,104.7,140.8z"/>
<g>
	<path class="st2" d="M139.5,28.4c0.1,0,0.1,0,0.2,0c0.1,0,0.2,0,0.4,0c0.9,0,1.6-0.2,2-0.6s0.6-1.1,0.6-2.1c0-0.8-0.2-1.4-0.7-1.7
		c-0.4-0.4-1.2-0.5-2.2-0.5h-0.4L139.5,28.4L139.5,28.4z M134.8,39.8V19.8h4.6c1.7,0,2.9,0.1,3.7,0.2c0.8,0.1,1.5,0.4,2,0.7
		c0.7,0.5,1.3,1.1,1.7,2c0.4,0.9,0.6,1.9,0.6,3.2c0,2-0.5,3.6-1.6,4.6c-1.1,1-2.6,1.6-4.7,1.6h-1.6v7.6H134.8L134.8,39.8z
		 M154.7,32.6c-1.1,0.3-1.9,0.7-2.4,1.1s-0.7,1-0.7,1.7c0,0.5,0.1,0.8,0.4,1.1s0.6,0.4,1,0.4c0.6,0,1.1-0.2,1.3-0.6
		c0.3-0.4,0.4-1.1,0.4-2.1L154.7,32.6L154.7,32.6z M155.3,39.8l-0.3-1.4c-0.5,0.5-1.1,1-1.7,1.3c-0.6,0.3-1.3,0.4-2,0.4
		c-1.2,0-2.1-0.4-2.8-1.1s-1-1.8-1-3.1c0-1.1,0.3-2.1,0.9-2.8c0.6-0.7,1.5-1.4,2.9-1.9c0.3-0.1,0.8-0.3,1.3-0.5
		c1.6-0.6,2.3-1.2,2.3-1.9c0-0.4-0.1-0.8-0.3-1c-0.2-0.2-0.6-0.3-1-0.3c-0.5,0-0.9,0.1-1.1,0.5c-0.2,0.3-0.4,0.8-0.4,1.4v0.1h-4.2
		c0-1.7,0.5-3,1.4-3.8c0.9-0.8,2.4-1.2,4.3-1.2c0.9,0,1.6,0.1,2.3,0.2c0.7,0.2,1.2,0.4,1.7,0.7c0.6,0.4,1,0.9,1.2,1.4
		c0.2,0.6,0.4,1.6,0.4,3.1v0.5v5.3c0,1.2,0,2.1,0.1,2.7c0.1,0.6,0.2,1.1,0.4,1.5L155.3,39.8L155.3,39.8z M166.1,28
		c-0.5,0-0.9,0.3-1.1,0.8c-0.2,0.5-0.3,1.8-0.3,3.6c0,1.9,0.1,3.2,0.3,3.6c0.2,0.5,0.5,0.7,1,0.7c0.6,0,0.9-0.3,1.1-0.9
		c0.2-0.6,0.3-2.1,0.3-4.6c0-1.3-0.1-2.1-0.3-2.6C167,28.3,166.6,28,166.1,28L166.1,28z M171.5,19.8v19.9h-3.8v-1.7
		c-0.4,0.7-0.9,1.2-1.5,1.5c-0.6,0.3-1.2,0.5-1.9,0.5c-0.6,0-1.1-0.1-1.6-0.3c-0.5-0.2-0.9-0.5-1.2-0.9c-0.4-0.5-0.6-1.1-0.8-1.9
		c-0.1-0.8-0.2-2.3-0.2-4.4c0-3.4,0.3-5.6,0.9-6.7s1.6-1.6,3.1-1.6c0.6,0,1.2,0.1,1.7,0.4c0.5,0.3,0.9,0.7,1.3,1.3v-6.3L171.5,19.8
		L171.5,19.8z M173.2,39.8v-15h3.8v2.1c0.5-0.8,1-1.3,1.5-1.7c0.6-0.4,1.2-0.6,1.9-0.7v4.8c-0.2,0-0.5-0.1-0.7-0.1
		c-0.2,0-0.4,0-0.6,0c-0.7,0-1.1,0.2-1.4,0.7c-0.3,0.5-0.4,1.4-0.4,2.8v7.2L173.2,39.8L173.2,39.8z M185.2,32.3c0,2.1,0.1,3.4,0.3,4
		s0.5,0.8,1.1,0.8c0.5,0,0.9-0.3,1.1-0.8c0.2-0.5,0.3-1.8,0.3-4s-0.1-3.5-0.3-4c-0.2-0.5-0.5-0.8-1.1-0.8c-0.5,0-0.9,0.3-1.1,0.8
		S185.2,30.2,185.2,32.3L185.2,32.3z M181,32.3c0-2.9,0.4-5,1.3-6.1c0.8-1.2,2.3-1.8,4.3-1.8c2,0,3.5,0.6,4.3,1.8s1.3,3.2,1.3,6.1
		c0,2.9-0.4,5-1.3,6.1c-0.8,1.2-2.3,1.8-4.3,1.8c-2.1,0-3.5-0.6-4.3-1.7C181.4,37.3,181,35.2,181,32.3L181,32.3z M184.5,23.2
		l2.6-3.7h3.8l-4.5,3.7H184.5L184.5,23.2z M193.5,39.8v-15h3.9v1.8c0.5-0.7,1-1.2,1.6-1.6c0.6-0.3,1.3-0.5,2.1-0.5
		c1.2,0,2,0.4,2.5,1.2c0.5,0.8,0.8,2,0.8,3.7v10.4h-4.2v-9.3c0-1.2-0.1-1.9-0.2-2.2s-0.4-0.4-0.8-0.4c-0.5,0-0.8,0.2-1.1,0.7
		s-0.4,1.1-0.4,1.9v9.4L193.5,39.8L193.5,39.8z M218.5,28c-0.5,0-0.9,0.3-1.1,0.8c-0.2,0.5-0.3,1.8-0.3,3.6c0,1.9,0.1,3.2,0.3,3.6
		c0.2,0.5,0.5,0.7,1,0.7c0.6,0,0.9-0.3,1.1-0.9c0.2-0.6,0.3-2.1,0.3-4.6c0-1.3-0.1-2.1-0.3-2.6C219.4,28.3,219,28,218.5,28L218.5,28
		z M223.9,19.8v19.9h-3.8v-1.7c-0.4,0.7-0.9,1.2-1.5,1.5c-0.6,0.3-1.2,0.5-1.9,0.5c-0.6,0-1.1-0.1-1.6-0.3c-0.5-0.2-0.9-0.5-1.2-0.9
		c-0.4-0.5-0.6-1.1-0.8-1.9c-0.1-0.8-0.2-2.3-0.2-4.4c0-3.4,0.3-5.6,0.9-6.7s1.6-1.6,3.1-1.6c0.6,0,1.2,0.1,1.7,0.4
		c0.5,0.3,0.9,0.7,1.3,1.3v-6.3L223.9,19.8L223.9,19.8z M232.4,34.5h3.9v0.4c0,1.8-0.5,3.1-1.4,4c-0.9,0.9-2.3,1.3-4.1,1.3
		c-0.9,0-1.7-0.1-2.5-0.4c-0.7-0.3-1.3-0.6-1.7-1.1c-0.5-0.5-0.8-1.2-1-2.1c-0.2-0.9-0.3-2.3-0.3-4.2c0-2.1,0.1-3.6,0.3-4.4
		s0.6-1.5,1-2.1c0.5-0.5,1.1-0.9,1.8-1.1s1.6-0.4,2.6-0.4c1,0,1.8,0.1,2.6,0.4s1.3,0.7,1.8,1.3c0.4,0.5,0.6,1,0.8,1.7
		s0.3,1.8,0.3,3.3v1.8h-6.8c0,0,0,0.1,0,0.2c0,0.6-0.1,1.1-0.1,1.3c0,1,0.1,1.8,0.3,2.2s0.6,0.6,1.1,0.6c0.5,0,0.8-0.2,1.1-0.5
		s0.4-0.8,0.4-1.4c0-0.1,0-0.3,0-0.6C232.4,34.6,232.4,34.6,232.4,34.5L232.4,34.5z M229.6,30.3h2.8c0,0,0,0,0-0.1
		c0-0.4,0.1-0.6,0.1-0.8c0-0.7-0.1-1.3-0.4-1.6s-0.6-0.5-1.1-0.5c-0.5,0-0.9,0.2-1.1,0.5c-0.2,0.3-0.3,0.9-0.3,1.7
		c0,0.2,0,0.4,0,0.5C229.6,30.1,229.6,30.2,229.6,30.3L229.6,30.3z M253.3,32.1h4.6c0,0.1,0,0.3,0,0.4s0,0.3,0,0.6
		c0,2.4-0.5,4.2-1.6,5.4s-2.7,1.8-4.9,1.8c-1.3,0-2.4-0.2-3.3-0.7c-0.9-0.4-1.7-1.1-2.2-2c-0.4-0.6-0.7-1.5-0.9-2.6
		c-0.2-1.1-0.3-2.9-0.3-5.3s0.1-4.1,0.3-5.3c0.2-1.1,0.5-2,0.9-2.6c0.6-0.9,1.3-1.5,2.2-2c0.9-0.4,2-0.6,3.3-0.6
		c2.2,0,3.8,0.6,4.9,1.8c1.1,1.2,1.6,3,1.6,5.4v0.2l-4.5,0c0-1.4-0.2-2.3-0.5-2.9c-0.3-0.5-0.8-0.8-1.5-0.8c-0.8,0-1.3,0.3-1.5,1
		c-0.3,0.7-0.4,2.4-0.4,5.3v0.4c0,3.1,0.1,5,0.4,5.7c0.3,0.7,0.8,1,1.5,1c0.7,0,1.2-0.3,1.5-0.8s0.4-1.5,0.4-2.8L253.3,32.1
		L253.3,32.1z M266.3,32.6c-1.1,0.3-1.9,0.7-2.4,1.1c-0.5,0.5-0.7,1-0.7,1.7c0,0.5,0.1,0.8,0.4,1.1s0.6,0.4,1,0.4
		c0.6,0,1.1-0.2,1.3-0.6c0.3-0.4,0.4-1.1,0.4-2.1L266.3,32.6L266.3,32.6z M266.9,39.8l-0.3-1.4c-0.5,0.5-1.1,1-1.7,1.3
		c-0.6,0.3-1.3,0.4-2,0.4c-1.2,0-2.1-0.4-2.8-1.1s-1-1.8-1-3.1c0-1.1,0.3-2.1,0.9-2.8c0.6-0.7,1.5-1.4,2.9-1.9
		c0.3-0.1,0.8-0.3,1.3-0.5c1.6-0.6,2.3-1.2,2.3-1.9c0-0.4-0.1-0.8-0.3-1c-0.2-0.2-0.5-0.3-1-0.3c-0.5,0-0.9,0.1-1.1,0.5
		c-0.2,0.3-0.4,0.8-0.4,1.4v0.1h-4.2c0-1.7,0.5-3,1.4-3.8c0.9-0.8,2.4-1.2,4.3-1.2c0.9,0,1.6,0.1,2.3,0.2c0.7,0.2,1.2,0.4,1.7,0.7
		c0.6,0.4,1,0.9,1.2,1.4c0.2,0.6,0.4,1.6,0.4,3.1v0.5v5.3c0,1.2,0,2.1,0.1,2.7c0.1,0.6,0.2,1.1,0.4,1.5L266.9,39.8L266.9,39.8z
		 M276.5,39.8h-4.2V19.8h4.2V39.8L276.5,39.8z M278.3,23.3v-3.6h4.2v3.6H278.3L278.3,23.3z M278.3,39.8v-15h4.2v15H278.3L278.3,39.8
		z M289.5,28c-0.5,0-0.9,0.3-1.1,0.8c-0.2,0.5-0.3,1.8-0.3,3.6c0,1.9,0.1,3.2,0.3,3.6s0.5,0.7,1,0.7c0.6,0,0.9-0.3,1.1-0.9
		c0.2-0.6,0.3-2.1,0.3-4.6c0-1.3-0.1-2.1-0.3-2.6C290.4,28.3,290,28,289.5,28L289.5,28z M294.9,19.8v19.9h-3.8v-1.7
		c-0.4,0.7-0.9,1.2-1.5,1.5c-0.6,0.3-1.2,0.5-1.9,0.5c-0.6,0-1.1-0.1-1.6-0.3s-0.9-0.5-1.2-0.9c-0.4-0.5-0.6-1.1-0.8-1.9
		c-0.1-0.8-0.2-2.3-0.2-4.4c0-3.4,0.3-5.6,0.9-6.7c0.6-1.1,1.6-1.6,3.1-1.6c0.6,0,1.2,0.1,1.7,0.4c0.5,0.3,0.9,0.7,1.3,1.3v-6.3
		L294.9,19.8L294.9,19.8z M303.4,32.6c-1.1,0.3-1.9,0.7-2.4,1.1c-0.5,0.5-0.7,1-0.7,1.7c0,0.5,0.1,0.8,0.4,1.1s0.6,0.4,1,0.4
		c0.6,0,1.1-0.2,1.3-0.6c0.3-0.4,0.4-1.1,0.4-2.1L303.4,32.6L303.4,32.6z M303.9,39.8l-0.3-1.4c-0.5,0.5-1.1,1-1.7,1.3
		c-0.6,0.3-1.3,0.4-2,0.4c-1.2,0-2.1-0.4-2.8-1.1s-1-1.8-1-3.1c0-1.1,0.3-2.1,0.9-2.8c0.6-0.7,1.5-1.4,2.9-1.9
		c0.3-0.1,0.8-0.3,1.3-0.5c1.6-0.6,2.3-1.2,2.3-1.9c0-0.4-0.1-0.8-0.3-1c-0.2-0.2-0.5-0.3-1-0.3c-0.5,0-0.9,0.1-1.1,0.5
		c-0.2,0.3-0.4,0.8-0.4,1.4v0.1h-4.2c0-1.7,0.5-3,1.4-3.8c0.9-0.8,2.4-1.2,4.3-1.2c0.9,0,1.6,0.1,2.3,0.2c0.7,0.2,1.2,0.4,1.7,0.7
		c0.6,0.4,1,0.9,1.2,1.4c0.2,0.6,0.4,1.6,0.4,3.1v0.5v5.3c0,1.2,0,2.1,0.1,2.7c0.1,0.6,0.2,1.1,0.4,1.5L303.9,39.8L303.9,39.8z
		 M314.8,28c-0.5,0-0.9,0.3-1.1,0.8c-0.2,0.5-0.3,1.8-0.3,3.6c0,1.9,0.1,3.2,0.3,3.6s0.5,0.7,1,0.7c0.6,0,0.9-0.3,1.1-0.9
		c0.2-0.6,0.3-2.1,0.3-4.6c0-1.3-0.1-2.1-0.3-2.6C315.6,28.3,315.3,28,314.8,28L314.8,28z M320.2,19.8v19.9h-3.8v-1.7
		c-0.4,0.7-0.9,1.2-1.5,1.5c-0.6,0.3-1.2,0.5-1.9,0.5c-0.6,0-1.1-0.1-1.6-0.3s-0.9-0.5-1.2-0.9c-0.4-0.5-0.6-1.1-0.8-1.9
		c-0.1-0.8-0.2-2.3-0.2-4.4c0-3.4,0.3-5.6,0.9-6.7c0.6-1.1,1.6-1.6,3.1-1.6c0.6,0,1.2,0.1,1.7,0.4c0.5,0.3,0.9,0.7,1.3,1.3v-6.3
		L320.2,19.8L320.2,19.8z M334.4,28c-0.5,0-0.9,0.3-1.1,0.8c-0.2,0.5-0.3,1.8-0.3,3.6c0,1.9,0.1,3.2,0.3,3.6s0.5,0.7,1,0.7
		c0.6,0,0.9-0.3,1.1-0.9c0.2-0.6,0.3-2.1,0.3-4.6c0-1.3-0.1-2.1-0.3-2.6C335.2,28.3,334.9,28,334.4,28L334.4,28z M339.8,19.8v19.9
		H336v-1.7c-0.4,0.7-0.9,1.2-1.5,1.5c-0.6,0.3-1.2,0.5-1.9,0.5c-0.6,0-1.1-0.1-1.6-0.3s-0.9-0.5-1.2-0.9c-0.4-0.5-0.6-1.1-0.8-1.9
		c-0.1-0.8-0.2-2.3-0.2-4.4c0-3.4,0.3-5.6,0.9-6.7c0.6-1.1,1.6-1.6,3.1-1.6c0.6,0,1.2,0.1,1.7,0.4c0.5,0.3,0.9,0.7,1.3,1.3v-6.3
		L339.8,19.8L339.8,19.8z M348.2,34.5h3.9v0.4c0,1.8-0.5,3.1-1.4,4c-0.9,0.9-2.3,1.3-4.1,1.3c-0.9,0-1.7-0.1-2.5-0.4
		c-0.7-0.3-1.3-0.6-1.7-1.1c-0.5-0.5-0.8-1.2-1-2.1c-0.2-0.9-0.3-2.3-0.3-4.2c0-2.1,0.1-3.6,0.3-4.4c0.2-0.8,0.5-1.5,1-2.1
		c0.5-0.5,1.1-0.9,1.8-1.1c0.7-0.3,1.6-0.4,2.5-0.4c1,0,1.8,0.1,2.5,0.4s1.3,0.7,1.8,1.3c0.4,0.5,0.6,1,0.8,1.7s0.3,1.8,0.3,3.3v1.8
		h-6.8c0,0,0,0.1,0,0.2c0,0.6,0,1.1,0,1.3c0,1,0.1,1.8,0.3,2.2s0.6,0.6,1.1,0.6c0.5,0,0.8-0.2,1.1-0.5c0.2-0.3,0.4-0.8,0.4-1.4
		c0-0.1,0-0.3,0-0.6C348.2,34.6,348.2,34.6,348.2,34.5L348.2,34.5z M345.5,30.3h2.8c0,0,0,0,0-0.1c0-0.4,0-0.6,0-0.8
		c0-0.7-0.1-1.3-0.4-1.6s-0.6-0.5-1.1-0.5c-0.5,0-0.9,0.2-1.1,0.5s-0.3,0.9-0.3,1.7c0,0.2,0,0.4,0,0.5
		C345.5,30.1,345.5,30.2,345.5,30.3L345.5,30.3z M357.8,39.8h-4.2V19.8h4.2V39.8L357.8,39.8z M366.3,33h4.3v0.6
		c0,1.1,0.1,1.9,0.4,2.3s0.7,0.7,1.3,0.7c0.5,0,0.9-0.2,1.2-0.5c0.3-0.3,0.4-0.8,0.4-1.4c0-1-0.7-1.9-2.1-2.8
		c-0.2-0.1-0.4-0.3-0.5-0.4c0,0-0.1-0.1-0.2-0.1c-1.9-1.3-3-2.2-3.5-2.9c-0.3-0.5-0.6-1-0.8-1.6c-0.2-0.6-0.3-1.3-0.3-2
		c0-1.7,0.5-3.1,1.5-4.1c1-1,2.4-1.5,4.2-1.5c1.9,0,3.4,0.5,4.4,1.5c1,1,1.5,2.4,1.5,4.2c0,0.1,0,0.2,0,0.3c0,0.1,0,0.2,0,0.3h-4.2
		v-0.3c0-0.9-0.1-1.5-0.4-2c-0.3-0.5-0.7-0.7-1.2-0.7c-0.4,0-0.8,0.2-1.1,0.5s-0.4,0.7-0.4,1.3c0,0.8,0.8,1.7,2.3,2.7
		c0.3,0.2,0.5,0.3,0.6,0.4c0.1,0.1,0.3,0.2,0.5,0.3c1.6,1,2.7,1.9,3.1,2.6c0.3,0.5,0.5,1,0.6,1.6s0.2,1.2,0.2,1.9
		c0,2-0.5,3.5-1.6,4.6c-1,1.1-2.5,1.6-4.4,1.6c-2,0-3.5-0.5-4.5-1.5c-1-1-1.5-2.6-1.5-4.6c0-0.1,0-0.3,0-0.4
		C366.2,33.6,366.3,33.3,366.3,33L366.3,33z M379.5,23.3v-3.6h4.2v3.6H379.5L379.5,23.3z M379.5,39.8v-15h4.2v15H379.5L379.5,39.8z
		 M384.5,35l3.7,0c0,0.8,0.2,1.3,0.5,1.7s0.6,0.5,1.2,0.5c0.4,0,0.8-0.1,1-0.4c0.3-0.2,0.4-0.6,0.4-1c0-0.3-0.1-0.6-0.3-0.8
		c-0.2-0.2-0.6-0.5-1.2-0.8c-0.1-0.1-0.4-0.2-0.6-0.3c-1.5-0.7-2.6-1.3-3.2-2c-0.4-0.4-0.8-0.9-1-1.5c-0.2-0.5-0.3-1.1-0.3-1.7
		c0-1.4,0.5-2.5,1.4-3.3c0.9-0.8,2.2-1.2,3.8-1.2c1.6,0,2.9,0.4,3.8,1.2c0.9,0.8,1.3,1.9,1.3,3.4v0.3l-3.7,0c0-0.8-0.1-1.3-0.3-1.6
		c-0.2-0.3-0.5-0.5-1-0.5c-0.4,0-0.8,0.1-1,0.3c-0.3,0.2-0.4,0.5-0.4,0.9c0,0.7,0.6,1.3,1.9,1.8c0.2,0.1,0.3,0.1,0.4,0.2
		c1.7,0.8,2.9,1.5,3.4,2.2c0.6,0.7,0.9,1.7,0.9,2.8c0,1.5-0.5,2.7-1.4,3.5c-0.9,0.8-2.3,1.2-4,1.2c-1.6,0-2.9-0.4-3.8-1.3
		c-0.9-0.8-1.4-2-1.4-3.5L384.5,35L384.5,35z M402.7,39.7v-2.9c0,0-0.1,0-0.1,0c-0.2,0-0.4,0-0.5,0c-0.5,0-0.9-0.2-1.1-0.5
		c-0.2-0.3-0.3-1.1-0.3-2.4v-6.1h2v-3.1h-2v-4.1h-4.2v4.1h-1.6v3.1h1.6v5v1.8c0,1.1,0,1.9,0.1,2.4c0.1,0.5,0.2,1,0.4,1.3
		c0.3,0.5,0.7,0.9,1.3,1.2c0.6,0.3,1.3,0.4,2.1,0.4c0.3,0,0.6,0,1-0.1C401.7,39.9,402.2,39.8,402.7,39.7L402.7,39.7z M410.3,34.5
		h3.9v0.4c0,1.8-0.5,3.1-1.4,4c-0.9,0.9-2.3,1.3-4.1,1.3c-0.9,0-1.7-0.1-2.5-0.4c-0.7-0.3-1.3-0.6-1.7-1.1c-0.5-0.5-0.8-1.2-1-2.1
		c-0.2-0.9-0.3-2.3-0.3-4.2c0-2.1,0.1-3.6,0.3-4.4c0.2-0.8,0.5-1.5,1-2.1c0.5-0.5,1.1-0.9,1.8-1.1c0.7-0.3,1.6-0.4,2.5-0.4
		c1,0,1.8,0.1,2.5,0.4s1.3,0.7,1.8,1.3c0.4,0.5,0.6,1,0.8,1.7s0.3,1.8,0.3,3.3v1.8h-6.8c0,0,0,0.1,0,0.2c0,0.6,0,1.1,0,1.3
		c0,1,0.1,1.8,0.3,2.2c0.2,0.4,0.6,0.6,1.1,0.6c0.5,0,0.8-0.2,1.1-0.5c0.2-0.3,0.4-0.8,0.4-1.4c0-0.1,0-0.3,0-0.6
		C410.3,34.6,410.3,34.6,410.3,34.5L410.3,34.5z M407.6,30.3h2.8c0,0,0,0,0-0.1c0-0.4,0-0.6,0-0.8c0-0.7-0.1-1.3-0.4-1.6
		s-0.6-0.5-1.1-0.5c-0.5,0-0.9,0.2-1.1,0.5s-0.3,0.9-0.3,1.7c0,0.2,0,0.4,0,0.5C407.6,30.1,407.6,30.2,407.6,30.3L407.6,30.3z
		 M415.7,39.8v-15h3.7v1.8c0.5-0.7,1-1.2,1.5-1.6c0.5-0.3,1.2-0.5,2-0.5c0.7,0,1.3,0.2,1.8,0.5c0.5,0.4,0.9,0.9,1.1,1.5
		c0.5-0.7,1-1.2,1.5-1.6c0.6-0.3,1.2-0.5,2-0.5c1.1,0,1.9,0.4,2.4,1.1s0.8,2,0.8,3.7v10.4h-4v-9.5c0-1.1-0.1-1.7-0.2-2
		c-0.1-0.3-0.4-0.4-0.8-0.4c-0.5,0-0.8,0.2-1,0.7c-0.3,0.5-0.4,1.1-0.4,1.9v9.4h-3.9v-9.5c0-1.1-0.1-1.7-0.2-2
		c-0.1-0.3-0.4-0.4-0.8-0.4c-0.4,0-0.8,0.2-1,0.7c-0.3,0.5-0.4,1.1-0.4,1.9v9.4L415.7,39.8L415.7,39.8z M440.7,32.6
		c-1.1,0.3-1.9,0.7-2.4,1.1c-0.5,0.5-0.7,1-0.7,1.7c0,0.5,0.1,0.8,0.4,1.1s0.6,0.4,1,0.4c0.6,0,1.1-0.2,1.3-0.6
		c0.3-0.4,0.4-1.1,0.4-2.1L440.7,32.6L440.7,32.6z M441.3,39.8l-0.3-1.4c-0.5,0.5-1.1,1-1.7,1.3c-0.6,0.3-1.3,0.4-2,0.4
		c-1.2,0-2.1-0.4-2.8-1.1s-1-1.8-1-3.1c0-1.1,0.3-2.1,0.9-2.8c0.6-0.7,1.5-1.4,2.9-1.9c0.3-0.1,0.8-0.3,1.3-0.5
		c1.6-0.6,2.3-1.2,2.3-1.9c0-0.4-0.1-0.8-0.3-1c-0.2-0.2-0.5-0.3-1-0.3c-0.5,0-0.9,0.1-1.1,0.5c-0.2,0.3-0.4,0.8-0.4,1.4v0.1h-4.2
		c0-1.7,0.5-3,1.4-3.8c0.9-0.8,2.4-1.2,4.3-1.2c0.9,0,1.6,0.1,2.3,0.2c0.7,0.2,1.2,0.4,1.7,0.7c0.6,0.4,1,0.9,1.2,1.4
		c0.2,0.6,0.4,1.6,0.4,3.1v0.5v5.3c0,1.2,0,2.1,0.1,2.7c0.1,0.6,0.2,1.1,0.4,1.5L441.3,39.8L441.3,39.8z M134.8,73.8V53.9h4.9
		l3.9,12.3c-0.1-2.1-0.3-3.9-0.3-5.4c-0.1-1.5-0.1-2.8-0.1-3.8v-3.1h4.2v19.9h-4.9l-3.9-12.7c0.2,1.7,0.3,3.3,0.4,4.8
		s0.1,3.1,0.1,4.5v3.4L134.8,73.8L134.8,73.8z M155.9,66.6c-1.1,0.3-1.9,0.7-2.4,1.1c-0.5,0.4-0.7,1-0.7,1.7c0,0.5,0.1,0.8,0.4,1.1
		s0.6,0.4,1,0.4c0.6,0,1.1-0.2,1.3-0.6c0.3-0.4,0.4-1.1,0.4-2.1L155.9,66.6L155.9,66.6z M156.4,73.8l-0.3-1.4
		c-0.5,0.6-1.1,1-1.7,1.3c-0.6,0.3-1.3,0.4-2,0.4c-1.2,0-2.1-0.4-2.8-1.1s-1-1.8-1-3.1c0-1.1,0.3-2.1,0.9-2.8
		c0.6-0.7,1.5-1.4,2.9-1.9c0.3-0.1,0.8-0.3,1.3-0.5c1.6-0.6,2.3-1.2,2.3-1.9c0-0.4-0.1-0.8-0.3-1c-0.2-0.2-0.6-0.3-1-0.3
		c-0.5,0-0.9,0.2-1.1,0.5c-0.2,0.3-0.4,0.8-0.4,1.4v0.1H149c0-1.7,0.5-3,1.4-3.8c0.9-0.8,2.4-1.2,4.3-1.2c0.9,0,1.6,0.1,2.3,0.2
		s1.2,0.4,1.7,0.7c0.6,0.4,1,0.9,1.2,1.4c0.2,0.6,0.4,1.6,0.4,3.1v0.5v5.3c0,1.2,0,2.1,0.1,2.7c0.1,0.6,0.2,1.1,0.4,1.5L156.4,73.8
		L156.4,73.8z M168.4,67.9h4.1c0,0.1,0,0.2,0,0.3s0,0.2,0,0.3c0,1.9-0.4,3.3-1.3,4.3c-0.9,0.9-2.2,1.4-4.1,1.4
		c-2.1,0-3.5-0.6-4.3-1.7c-0.8-1.2-1.3-3.2-1.3-6.1s0.4-5,1.3-6.2c0.8-1.2,2.3-1.8,4.3-1.8c1.8,0,3.2,0.5,4,1.4s1.3,2.4,1.3,4.4v0.3
		h-4V64c0-0.9-0.1-1.5-0.3-1.9c-0.2-0.4-0.5-0.6-1-0.6c-0.5,0-0.9,0.3-1.1,0.8c-0.2,0.5-0.3,1.8-0.3,4c0,2.1,0.1,3.4,0.3,4
		s0.5,0.8,1.1,0.8c0.4,0,0.8-0.2,1-0.6c0.2-0.4,0.3-1,0.3-1.9c0-0.1,0-0.2,0-0.3C168.4,68.1,168.4,68,168.4,67.9L168.4,67.9z
		 M173.9,57.3v-3.6h4.2v3.6L173.9,57.3L173.9,57.3z M173.9,73.8v-15h4.2v15H173.9z"/>
	<path class="st2" d="M183.7,66.3c0,2.1,0.1,3.4,0.3,4s0.5,0.8,1.1,0.8c0.5,0,0.9-0.3,1.1-0.8c0.2-0.5,0.3-1.8,0.3-4s-0.1-3.5-0.3-4
		c-0.2-0.5-0.5-0.8-1.1-0.8c-0.5,0-0.9,0.3-1.1,0.8S183.7,64.2,183.7,66.3L183.7,66.3z M179.5,66.3c0-2.9,0.4-5,1.3-6.1
		c0.8-1.2,2.3-1.8,4.3-1.8c2,0,3.5,0.6,4.3,1.8s1.3,3.2,1.3,6.2c0,2.9-0.4,5-1.3,6.1s-2.3,1.8-4.3,1.8c-2.1,0-3.5-0.6-4.3-1.7
		C179.9,71.3,179.5,69.3,179.5,66.3L179.5,66.3z M192,73.8v-15h3.9v1.8c0.5-0.7,1-1.2,1.6-1.6c0.6-0.3,1.3-0.5,2.1-0.5
		c1.2,0,2,0.4,2.5,1.2c0.5,0.8,0.8,2,0.8,3.7v10.4h-4.2v-9.3c0-1.2-0.1-1.9-0.2-2.2c-0.1-0.3-0.4-0.4-0.8-0.4
		c-0.5,0-0.8,0.2-1.1,0.7s-0.4,1.1-0.4,1.9v9.4H192L192,73.8z M211.3,66.6c-1.1,0.3-1.9,0.7-2.4,1.1c-0.5,0.4-0.7,1-0.7,1.7
		c0,0.5,0.1,0.8,0.4,1.1s0.6,0.4,1,0.4c0.6,0,1.1-0.2,1.3-0.6c0.3-0.4,0.4-1.1,0.4-2.1L211.3,66.6L211.3,66.6z M211.8,73.8l-0.3-1.4
		c-0.5,0.6-1.1,1-1.7,1.3c-0.6,0.3-1.3,0.4-2,0.4c-1.2,0-2.1-0.4-2.8-1.1s-1-1.8-1-3.1c0-1.1,0.3-2.1,0.9-2.8
		c0.6-0.7,1.5-1.4,2.9-1.9c0.3-0.1,0.8-0.3,1.3-0.5c1.6-0.6,2.3-1.2,2.3-1.9c0-0.4-0.1-0.8-0.3-1c-0.2-0.2-0.6-0.3-1-0.3
		c-0.5,0-0.9,0.2-1.1,0.5c-0.2,0.3-0.4,0.8-0.4,1.4v0.1h-4.2c0-1.7,0.5-3,1.4-3.8c0.9-0.8,2.4-1.2,4.3-1.2c0.9,0,1.6,0.1,2.3,0.2
		s1.2,0.4,1.7,0.7c0.6,0.4,1,0.9,1.2,1.4c0.2,0.6,0.4,1.6,0.4,3.1v0.5v5.3c0,1.2,0,2.1,0.1,2.7c0.1,0.6,0.2,1.1,0.4,1.5L211.8,73.8
		L211.8,73.8z M221.5,73.8h-4.2V53.9h4.2V73.8L221.5,73.8z M235.6,62c-0.5,0-0.9,0.3-1.1,0.8c-0.2,0.5-0.3,1.8-0.3,3.6
		c0,1.9,0.1,3.2,0.3,3.6c0.2,0.5,0.5,0.7,1,0.7c0.6,0,0.9-0.3,1.1-0.9c0.2-0.6,0.3-2.1,0.3-4.6c0-1.3-0.1-2.1-0.3-2.6
		C236.5,62.3,236.1,62,235.6,62L235.6,62z M241.1,53.9v19.9h-3.8v-1.7c-0.4,0.7-0.9,1.2-1.5,1.5c-0.6,0.3-1.2,0.5-1.9,0.5
		c-0.6,0-1.1-0.1-1.6-0.3c-0.5-0.2-0.9-0.5-1.2-0.9c-0.4-0.5-0.6-1.1-0.8-1.9c-0.1-0.8-0.2-2.3-0.2-4.4c0-3.4,0.3-5.6,0.9-6.7
		s1.6-1.6,3.1-1.6c0.6,0,1.2,0.1,1.7,0.4c0.5,0.3,0.9,0.7,1.3,1.3v-6.3L241.1,53.9L241.1,53.9z M249.5,68.6h3.9v0.4
		c0,1.8-0.5,3.1-1.4,3.9c-0.9,0.9-2.3,1.3-4.1,1.3c-0.9,0-1.7-0.1-2.5-0.4c-0.7-0.3-1.3-0.6-1.7-1.1c-0.5-0.5-0.8-1.2-1-2.1
		s-0.3-2.3-0.3-4.2c0-2.1,0.1-3.6,0.3-4.4s0.6-1.5,1-2.1c0.5-0.5,1.1-0.9,1.8-1.2c0.7-0.3,1.6-0.4,2.6-0.4c1,0,1.8,0.1,2.6,0.4
		s1.3,0.7,1.8,1.3c0.4,0.5,0.6,1,0.8,1.7c0.2,0.7,0.3,1.8,0.3,3.3v1.8h-6.8c0,0,0,0.1,0,0.2c0,0.6-0.1,1.1-0.1,1.3
		c0,1.1,0.1,1.8,0.3,2.2s0.6,0.6,1.1,0.6c0.5,0,0.8-0.2,1.1-0.5s0.4-0.8,0.4-1.4c0-0.1,0-0.3,0-0.6
		C249.5,68.6,249.5,68.6,249.5,68.6L249.5,68.6z M246.8,64.3h2.8c0,0,0,0,0-0.1c0-0.4,0.1-0.7,0.1-0.8c0-0.7-0.1-1.3-0.4-1.6
		s-0.6-0.5-1.1-0.5c-0.5,0-0.9,0.2-1.1,0.5s-0.3,0.9-0.3,1.7c0,0.2,0,0.4,0,0.5C246.8,64.1,246.8,64.2,246.8,64.3L246.8,64.3z
		 M262.3,73.8V53.9h10.9v3.9h-6.2v3.7h5.7v4h-5.7v4.3h6.2v4.1L262.3,73.8L262.3,73.8z M280,62c-0.5,0-0.9,0.3-1.1,0.8
		c-0.2,0.5-0.3,1.8-0.3,3.6c0,1.9,0.1,3.2,0.3,3.6c0.2,0.5,0.5,0.7,1,0.7c0.6,0,0.9-0.3,1.1-0.9s0.3-2.1,0.3-4.6
		c0-1.3-0.1-2.1-0.3-2.6C280.9,62.3,280.5,62,280,62L280,62z M285.4,53.9v19.9h-3.8v-1.7c-0.4,0.7-0.9,1.2-1.5,1.5
		c-0.6,0.3-1.2,0.5-1.9,0.5c-0.6,0-1.1-0.1-1.6-0.3s-0.9-0.5-1.2-0.9c-0.4-0.5-0.6-1.1-0.8-1.9c-0.1-0.8-0.2-2.3-0.2-4.4
		c0-3.4,0.3-5.6,0.9-6.7c0.6-1.1,1.6-1.6,3.1-1.6c0.6,0,1.2,0.1,1.7,0.4c0.5,0.3,0.9,0.7,1.3,1.3v-6.3L285.4,53.9L285.4,53.9z
		 M298,58.8v15h-3.9V72c-0.5,0.7-1,1.2-1.6,1.6c-0.6,0.3-1.3,0.5-2,0.5c-1.2,0-2-0.4-2.5-1.2c-0.5-0.8-0.8-2-0.8-3.7V58.8h4.2v9.3
		c0,1.2,0.1,1.9,0.2,2.2c0.1,0.3,0.4,0.4,0.8,0.4c0.5,0,0.8-0.2,1.1-0.7c0.3-0.4,0.4-1.1,0.4-1.9v-9.4L298,58.8L298,58.8z
		 M306.2,67.9h4.1c0,0.1,0,0.2,0,0.3s0,0.2,0,0.3c0,1.9-0.5,3.3-1.3,4.3c-0.9,0.9-2.2,1.4-4,1.4c-2,0-3.5-0.6-4.3-1.7
		c-0.8-1.2-1.3-3.2-1.3-6.1s0.4-5,1.3-6.2c0.8-1.2,2.3-1.8,4.3-1.8c1.8,0,3.2,0.5,4,1.4c0.9,0.9,1.3,2.4,1.3,4.4v0.3h-4V64
		c0-0.9-0.1-1.5-0.3-1.9c-0.2-0.4-0.5-0.6-1-0.6c-0.5,0-0.9,0.3-1.1,0.8c-0.2,0.5-0.3,1.8-0.3,4c0,2.1,0.1,3.4,0.3,4s0.5,0.8,1,0.8
		c0.4,0,0.8-0.2,1-0.6c0.2-0.4,0.3-1,0.3-1.9c0-0.1,0-0.2,0-0.3C306.2,68.1,306.2,68,306.2,67.9L306.2,67.9z M318.5,66.6
		c-1.1,0.3-1.9,0.7-2.4,1.1s-0.7,1-0.7,1.7c0,0.5,0.1,0.8,0.4,1.1s0.6,0.4,1,0.4c0.6,0,1.1-0.2,1.3-0.6c0.3-0.4,0.4-1.1,0.4-2.1
		L318.5,66.6L318.5,66.6z M319,73.8l-0.3-1.4c-0.5,0.6-1.1,1-1.7,1.3c-0.6,0.3-1.3,0.4-2,0.4c-1.2,0-2.1-0.4-2.8-1.1s-1-1.8-1-3.1
		c0-1.1,0.3-2.1,0.9-2.8c0.6-0.7,1.5-1.4,2.9-1.9c0.3-0.1,0.8-0.3,1.3-0.5c1.6-0.6,2.3-1.2,2.3-1.9c0-0.4-0.1-0.8-0.3-1
		c-0.2-0.2-0.5-0.3-1-0.3c-0.5,0-0.9,0.2-1.1,0.5c-0.2,0.3-0.4,0.8-0.4,1.4v0.1h-4.2c0-1.7,0.5-3,1.4-3.8c0.9-0.8,2.4-1.2,4.3-1.2
		c0.9,0,1.6,0.1,2.3,0.2c0.7,0.2,1.2,0.4,1.7,0.7c0.6,0.4,1,0.9,1.2,1.4c0.2,0.6,0.4,1.6,0.4,3.1v0.5v5.3c0,1.2,0,2.1,0.1,2.7
		c0.1,0.6,0.2,1.1,0.4,1.5L319,73.8L319,73.8z M331,67.9h4.1c0,0.1,0,0.2,0,0.3s0,0.2,0,0.3c0,1.9-0.5,3.3-1.3,4.3
		c-0.9,0.9-2.2,1.4-4,1.4c-2,0-3.5-0.6-4.3-1.7c-0.8-1.2-1.3-3.2-1.3-6.1s0.4-5,1.3-6.2c0.8-1.2,2.3-1.8,4.3-1.8
		c1.8,0,3.2,0.5,4,1.4c0.9,0.9,1.3,2.4,1.3,4.4v0.3h-4V64c0-0.9-0.1-1.5-0.3-1.9c-0.2-0.4-0.5-0.6-1-0.6c-0.5,0-0.9,0.3-1.1,0.8
		c-0.2,0.5-0.3,1.8-0.3,4c0,2.1,0.1,3.4,0.3,4s0.5,0.8,1,0.8c0.4,0,0.8-0.2,1-0.6c0.2-0.4,0.3-1,0.3-1.9c0-0.1,0-0.2,0-0.3
		C331,68.1,331,68,331,67.9L331,67.9z M336.6,57.3v-3.6h4.2v3.6L336.6,57.3L336.6,57.3z M336.6,73.8v-15h4.2v15H336.6L336.6,73.8z
		 M346.3,66.3c0,2.1,0.1,3.4,0.3,4s0.5,0.8,1,0.8c0.5,0,0.9-0.3,1-0.8c0.2-0.5,0.3-1.8,0.3-4s-0.1-3.5-0.3-4c-0.2-0.5-0.5-0.8-1-0.8
		c-0.5,0-0.9,0.3-1,0.8C346.4,62.9,346.3,64.2,346.3,66.3L346.3,66.3z M342.1,66.3c0-2.9,0.4-5,1.3-6.1c0.8-1.2,2.3-1.8,4.3-1.8
		c2,0,3.5,0.6,4.3,1.8s1.3,3.2,1.3,6.2c0,2.9-0.4,5-1.3,6.1s-2.3,1.8-4.3,1.8c-2,0-3.5-0.6-4.3-1.7
		C342.5,71.3,342.1,69.3,342.1,66.3L342.1,66.3z M345.6,57.2l2.6-3.7h3.8l-4.5,3.7H345.6L345.6,57.2z M354.6,73.8v-15h3.9v1.8
		c0.5-0.7,1-1.2,1.6-1.6c0.6-0.3,1.3-0.5,2.1-0.5c1.2,0,2,0.4,2.5,1.2c0.5,0.8,0.8,2,0.8,3.7v10.4h-4.2v-9.3c0-1.2-0.1-1.9-0.2-2.2
		c-0.1-0.3-0.4-0.4-0.8-0.4c-0.5,0-0.8,0.2-1.1,0.7s-0.4,1.1-0.4,1.9v9.4H354.6L354.6,73.8z M374.5,73.8V53.9h6.5l1.8,8.5
		c0,0,0.1,0.6,0.2,1.6c0.1,1,0.3,2,0.4,3.1c0.1-0.8,0.3-1.7,0.4-2.9s0.3-1.8,0.3-1.9l1.8-8.4h6.5v20H388l0.4-15.4l-3.2,15.4h-3.5
		l-3.2-15.4l0.4,15.4H374.5L374.5,73.8z M401,68.6h3.9v0.4c0,1.8-0.5,3.1-1.4,3.9c-0.9,0.9-2.3,1.3-4.1,1.3c-0.9,0-1.7-0.1-2.5-0.4
		c-0.7-0.3-1.3-0.6-1.7-1.1c-0.5-0.5-0.8-1.2-1-2.1s-0.3-2.3-0.3-4.2c0-2.1,0.1-3.6,0.3-4.4c0.2-0.8,0.5-1.5,1-2.1
		c0.5-0.5,1.1-0.9,1.8-1.2c0.7-0.3,1.6-0.4,2.5-0.4c1,0,1.8,0.1,2.5,0.4s1.3,0.7,1.8,1.3c0.4,0.5,0.6,1,0.8,1.7
		c0.2,0.7,0.3,1.8,0.3,3.3v1.8h-6.8c0,0,0,0.1,0,0.2c0,0.6,0,1.1,0,1.3c0,1.1,0.1,1.8,0.3,2.2c0.2,0.4,0.6,0.6,1.1,0.6
		c0.5,0,0.8-0.2,1.1-0.5c0.2-0.3,0.4-0.8,0.4-1.4c0-0.1,0-0.3,0-0.6C401,68.6,401,68.6,401,68.6L401,68.6z M398.3,64.3h2.8
		c0,0,0,0,0-0.1c0-0.4,0-0.7,0-0.8c0-0.7-0.1-1.3-0.4-1.6s-0.6-0.5-1.1-0.5c-0.5,0-0.9,0.2-1.1,0.5s-0.3,0.9-0.3,1.7
		c0,0.2,0,0.4,0,0.5C398.3,64.1,398.3,64.2,398.3,64.3L398.3,64.3z M411.8,62c-0.5,0-0.9,0.3-1.1,0.8c-0.2,0.5-0.3,1.8-0.3,3.6
		c0,1.9,0.1,3.2,0.3,3.6c0.2,0.5,0.5,0.7,1,0.7c0.6,0,0.9-0.3,1.1-0.9s0.3-2.1,0.3-4.6c0-1.3-0.1-2.1-0.3-2.6
		C412.6,62.3,412.3,62,411.8,62L411.8,62z M417.2,53.9v19.9h-3.8v-1.7c-0.4,0.7-0.9,1.2-1.5,1.5c-0.6,0.3-1.2,0.5-1.9,0.5
		c-0.6,0-1.1-0.1-1.6-0.3s-0.9-0.5-1.2-0.9c-0.4-0.5-0.6-1.1-0.8-1.9c-0.1-0.8-0.2-2.3-0.2-4.4c0-3.4,0.3-5.6,0.9-6.7
		c0.6-1.1,1.6-1.6,3.1-1.6c0.6,0,1.2,0.1,1.7,0.4c0.5,0.3,0.9,0.7,1.3,1.3v-6.3L417.2,53.9L417.2,53.9z M419,57.3v-3.6h4.2v3.6
		L419,57.3L419,57.3z M419,73.8v-15h4.2v15H419L419,73.8z M431.6,66.6c-1.1,0.3-1.9,0.7-2.4,1.1s-0.7,1-0.7,1.7
		c0,0.5,0.1,0.8,0.4,1.1s0.6,0.4,1,0.4c0.6,0,1.1-0.2,1.3-0.6c0.3-0.4,0.4-1.1,0.4-2.1L431.6,66.6L431.6,66.6z M432.1,73.8l-0.3-1.4
		c-0.5,0.6-1.1,1-1.7,1.3c-0.6,0.3-1.3,0.4-2,0.4c-1.2,0-2.1-0.4-2.8-1.1s-1-1.8-1-3.1c0-1.1,0.3-2.1,0.9-2.8
		c0.6-0.7,1.5-1.4,2.9-1.9c0.3-0.1,0.8-0.3,1.3-0.5c1.6-0.6,2.3-1.2,2.3-1.9c0-0.4-0.1-0.8-0.3-1c-0.2-0.2-0.5-0.3-1-0.3
		c-0.5,0-0.9,0.2-1.1,0.5c-0.2,0.3-0.4,0.8-0.4,1.4v0.1h-4.2c0-1.7,0.5-3,1.4-3.8c0.9-0.8,2.4-1.2,4.3-1.2c0.9,0,1.6,0.1,2.3,0.2
		c0.7,0.2,1.2,0.4,1.7,0.7c0.6,0.4,1,0.9,1.2,1.4c0.2,0.6,0.4,1.6,0.4,3.1v0.5v5.3c0,1.2,0,2.1,0.1,2.7c0.1,0.6,0.2,1.1,0.4,1.5
		L432.1,73.8L432.1,73.8z M444.3,67h4.3v0.6c0,1.1,0.1,1.9,0.4,2.3s0.7,0.7,1.3,0.7c0.5,0,0.9-0.2,1.2-0.5c0.3-0.3,0.4-0.8,0.4-1.4
		c0-1-0.7-1.9-2.1-2.8c-0.2-0.2-0.4-0.3-0.5-0.3c0,0-0.1-0.1-0.2-0.1c-1.9-1.3-3-2.2-3.5-2.8c-0.3-0.5-0.6-1-0.8-1.6
		c-0.2-0.6-0.3-1.3-0.3-2c0-1.7,0.5-3.1,1.5-4.1c1-1,2.4-1.5,4.2-1.5c1.9,0,3.4,0.5,4.4,1.5c1,1,1.5,2.4,1.5,4.2c0,0.1,0,0.2,0,0.3
		c0,0.1,0,0.2,0,0.3h-4.2v-0.3c0-0.9-0.1-1.5-0.4-2s-0.7-0.7-1.2-0.7c-0.4,0-0.8,0.2-1.1,0.5s-0.4,0.7-0.4,1.3
		c0,0.8,0.8,1.7,2.3,2.7c0.3,0.2,0.5,0.3,0.6,0.4c0.1,0.1,0.3,0.2,0.5,0.3c1.6,1,2.7,1.9,3.1,2.6c0.3,0.4,0.5,1,0.6,1.6
		c0.1,0.6,0.2,1.2,0.2,1.9c0,2-0.5,3.5-1.6,4.6c-1,1.1-2.5,1.6-4.4,1.6c-2,0-3.5-0.5-4.5-1.6c-1-1-1.5-2.6-1.5-4.6
		c0-0.1,0-0.3,0-0.4C444.3,67.6,444.3,67.3,444.3,67L444.3,67z M468.4,58.8v15h-3.9V72c-0.5,0.7-1,1.2-1.6,1.6
		c-0.6,0.3-1.3,0.5-2,0.5c-1.2,0-2-0.4-2.5-1.2c-0.5-0.8-0.8-2-0.8-3.7V58.8h4.2v9.3c0,1.2,0.1,1.9,0.2,2.2c0.1,0.3,0.4,0.4,0.8,0.4
		c0.5,0,0.8-0.2,1.1-0.7c0.3-0.4,0.4-1.1,0.4-1.9v-9.4L468.4,58.8L468.4,58.8z M475.7,70.7c0.5,0,0.9-0.3,1.1-0.9
		c0.2-0.6,0.3-2.1,0.3-4.3c0-1.4-0.1-2.3-0.3-2.8c-0.2-0.5-0.5-0.8-1-0.8c-0.5,0-0.9,0.3-1.1,0.9c-0.2,0.6-0.3,2.1-0.3,4.6
		c0,1.3,0.1,2.1,0.3,2.6C474.8,70.4,475.2,70.7,475.7,70.7L475.7,70.7z M470.3,78.8v-20h3.9v1.7c0.4-0.7,0.9-1.2,1.4-1.5
		c0.6-0.3,1.2-0.5,1.9-0.5c0.6,0,1.1,0.1,1.6,0.3c0.5,0.2,0.9,0.5,1.2,0.9c0.4,0.5,0.6,1.1,0.8,1.9s0.2,2.3,0.2,4.4
		c0,3.4-0.3,5.6-0.9,6.7c-0.6,1.1-1.6,1.6-3,1.6c-0.6,0-1.2-0.2-1.7-0.4c-0.5-0.3-0.9-0.7-1.3-1.3v6.4L470.3,78.8L470.3,78.8z
		 M489.3,68.6h3.9v0.4c0,1.8-0.5,3.1-1.4,3.9c-0.9,0.9-2.3,1.3-4.1,1.3c-0.9,0-1.7-0.1-2.5-0.4c-0.7-0.3-1.3-0.6-1.7-1.1
		c-0.5-0.5-0.8-1.2-1-2.1s-0.3-2.3-0.3-4.2c0-2.1,0.1-3.6,0.3-4.4c0.2-0.8,0.5-1.5,1-2.1c0.5-0.5,1.1-0.9,1.8-1.2
		c0.7-0.3,1.6-0.4,2.5-0.4c1,0,1.8,0.1,2.5,0.4s1.3,0.7,1.8,1.3c0.4,0.5,0.6,1,0.8,1.7c0.2,0.7,0.3,1.8,0.3,3.3v1.8h-6.8
		c0,0,0,0.1,0,0.2c0,0.6,0,1.1,0,1.3c0,1.1,0.1,1.8,0.3,2.2s0.6,0.6,1.1,0.6c0.5,0,0.8-0.2,1.1-0.5c0.2-0.3,0.4-0.8,0.4-1.4
		c0-0.1,0-0.3,0-0.6C489.3,68.6,489.3,68.6,489.3,68.6L489.3,68.6z M486.6,64.3h2.8c0,0,0,0,0-0.1c0-0.4,0-0.7,0-0.8
		c0-0.7-0.1-1.3-0.4-1.6s-0.6-0.5-1.1-0.5c-0.5,0-0.9,0.2-1.1,0.5s-0.3,0.9-0.3,1.7c0,0.2,0,0.4,0,0.5
		C486.6,64.1,486.6,64.2,486.6,64.3L486.6,64.3z M494.7,73.8v-15h3.8v2.1c0.5-0.8,1-1.3,1.5-1.7c0.5-0.4,1.2-0.6,1.9-0.7v4.8
		c-0.2,0-0.5-0.1-0.7-0.1c-0.2,0-0.4,0-0.6,0c-0.7,0-1.1,0.2-1.4,0.7c-0.3,0.5-0.4,1.4-0.4,2.8v7.2H494.7L494.7,73.8z M502.8,57.3
		v-3.6h4.2v3.6L502.8,57.3L502.8,57.3z M502.8,73.8v-15h4.2v15H502.8L502.8,73.8z M512.6,66.3c0,2.1,0.1,3.4,0.3,4s0.5,0.8,1,0.8
		c0.5,0,0.9-0.3,1-0.8c0.2-0.5,0.3-1.8,0.3-4s-0.1-3.5-0.3-4c-0.2-0.5-0.5-0.8-1-0.8c-0.5,0-0.9,0.3-1,0.8
		C512.7,62.9,512.6,64.2,512.6,66.3L512.6,66.3z M508.3,66.3c0-2.9,0.4-5,1.3-6.1c0.8-1.2,2.3-1.8,4.3-1.8c2,0,3.5,0.6,4.3,1.8
		s1.3,3.2,1.3,6.2c0,2.9-0.4,5-1.3,6.1s-2.3,1.8-4.3,1.8c-2,0-3.5-0.6-4.3-1.7C508.7,71.3,508.3,69.3,508.3,66.3L508.3,66.3z
		 M520.7,73.8v-15h3.8v2.1c0.5-0.8,1-1.3,1.5-1.7c0.5-0.4,1.2-0.6,1.9-0.7v4.8c-0.2,0-0.5-0.1-0.7-0.1c-0.2,0-0.4,0-0.6,0
		c-0.7,0-1.1,0.2-1.4,0.7c-0.3,0.5-0.4,1.4-0.4,2.8v7.2H520.7z"/>
</g>
</svg>
