<?xml version="1.0" encoding="utf-8"?>
<!-- Generator: Adobe Illustrator 24.2.0, SVG Export Plug-In . SVG Version: 6.00 Build 0)  -->
<svg version="1.1" id="Capa_1" xmlns="http://www.w3.org/2000/svg" xmlns:xlink="http://www.w3.org/1999/xlink" x="0px" y="0px"
	 viewBox="0 0 177.2 218.6" style="enable-background:new 0 0 177.2 218.6;" xml:space="preserve">
<style type="text/css">
	.st0{display:none;}
	.st1{display:inline;}
	.st2{fill:url(#SVGID_1_);}
	.st3{fill:url(#SVGID_2_);}
	.st4{fill:url(#SVGID_3_);}
	.st5{fill:url(#SVGID_4_);}
	.st6{fill:url(#SVGID_5_);}
	.st7{fill:url(#SVGID_6_);}
	.st8{fill:url(#SVGID_7_);}
	.st9{fill:#666666;}
	.st10{fill:none;stroke:#000000;stroke-width:0.1;stroke-miterlimit:10;}
	.st11{fill:#404040;}
	.st12{fill:none;stroke:#000000;stroke-miterlimit:10;}
</style>
<g id="Monocromático" class="st0">
	<path class="st1" d="M10.2,53.4c5.1,3.3,16.7,13.9,25.8,26.4c11,15.1,13.5,19.3,17.5,25.8c0.9,1.4,1.6,3.2,2.3,3
		c0.8-0.2,1-1.2,1.5-2.5c1.5-4.2,3.8-14.9,4.3-25.6c0.3-5.8-0.2-13.5-3.7-21.6c0,0-9.7-4.5-23.5-6.4c-14.2-2-21.2-1.5-24.2-1.4
		c-1.1,0-1.4,0.2-1.4,0.7C8.7,52.3,9.1,52.6,10.2,53.4z M27.5,133.8c2.4,2.3,3.4,3,4,2.6c0.5-0.3,0.4-1.1-0.5-2.7
		c-1.5-2.6-7.5-15.4-7.5-32.4s0.8-18.8,2.5-27.5c-6.6-7.3-15.9-13.6-23.8-15.7C1.9,64.1,1.4,78,5.4,93
		C9.3,108,16.9,123.3,27.5,133.8z M66.5,82.2c-1.3,10.9-4.1,19.8-5.5,23.5c-2.1,5.7-4.7,7.6-4,8.7c0.3,0.4,1.3,0.3,2.5,0
		c3-0.8,14.5-3.3,29.8-10.1c15.3-6.9,21.6-12.6,24.6-15.3c3.1-2.8,3.6-4.9,1.8-6.8c-1.8-1.9-9.1-9.2-20.1-15.7
		C83,58.8,69.9,56.3,68.7,56.1c-0.7-0.1-2-0.3-2.6,0.2C64.8,57.3,68.6,63.7,66.5,82.2z M128.5,174.4c10.2,5.7,20.6,7.8,33.7,8.6
		c7.8-5.1,13.3-12.4,17.6-20.1s7.1-18.3,8.2-25.3c1.1-7.2,1.8-9.8,0.5-10.2c-1.3-0.4-1.5,1.3-3.7,4.9c-5.5,9.1-10.3,14.3-18,20.5
		C156.3,161.4,142.8,168.9,128.5,174.4z M75.9,217.1h19.9v-5.6H76.5c-1.8,0-3.3-1.5-3.3-3.3v-8.6c0-1.8,1.5-3.3,3.3-3.3h19.4v-5.6
		h-20c-5.2,0-10.2,2.8-10.2,8.8v8.8C65.8,214.3,70.7,217.1,75.9,217.1z M63.8,217.1v-5.6H44.5c-1.8,0-3.3-1.5-3.3-3.3v-1.5h22.6V201
		H41.2v-1.5c0-1.8,1.5-3.3,3.3-3.3h19.4v-5.6h-20c-5.2,0-10.2,2.8-10.2,8.8v8.8c0,6,4.9,8.8,10.2,8.8h19.9V217.1z M143,217.1v-20.7
		h13.1v-5.6h-33.8v5.6h13.1v20.7H143z M168,196.4h19.4v-5.6h-19.9c-5.2,0-10.2,2.8-10.2,8.8v8.8c0,6,4.9,8.8,10.2,8.8h19.9v-5.6H168
		c-1.8,0-3.3-1.5-3.3-3.3v-1.5h22.6v-5.7h-22.6v-1.5C164.7,197.9,166.2,196.4,168,196.4z M115.5,198.5l-6.6,6.2l-6.6-6.2h-6.6
		l10.6,10v8.7h5.3v-8.7l10.6-10H115.5z M11.9,217.1h19.9v-5.6H12.5c-1.8,0-3.3-1.5-3.3-3.3v-8.6c0-1.8,1.5-3.3,3.3-3.3h19.4v-5.6
		h-20c-5.2,0-10.2,2.8-10.2,8.8v8.8C1.7,214.3,6.7,217.1,11.9,217.1z M147.7,123.5c-0.1,0-0.1,0.1-0.2,0.2c0.9,0.3,1.9,0.5,2.9,0.5
		c4.6,0,8.4-3.8,8.4-8.4s-3.8-8.4-8.4-8.4c-4.6,0-8.4,3.8-8.4,8.4c0,0.6,0.1,1.2,0.2,1.7c0.5-0.4,1.1-0.8,1.7-1.2
		c0.7-0.5,1.5-0.7,2.3-0.7c1.3,0,2.5,0.6,3.3,1.7c1,1.5,1,3.2-0.1,4.6C148.9,122.5,148.4,123,147.7,123.5z M63.5,117.2
		c-2.1,0.3-3.4,0.6-3.7,1.5s0.1,1.6,1.2,2.7c10.2,10.2,25.3,17.2,39.2,21.1c3.9-1.9,7.9-3.9,12-6.1c6.3-3.4,11.4-6.3,15.9-9.2
		c-0.8-3.5-1.4-7.5-1.6-12.1c-0.5-9.9,1.2-19.8,1.8-22.5c0.6-2.7,1.4-5.5,0.9-5.7c-0.8-0.3-1.6,0.8-3.2,2.2
		c-4,3.2-15.2,12.3-33.2,19.4C79.7,113.7,68.9,116.4,63.5,117.2z M136.1,146.6c0.7-0.7-0.5-1.9-2-4.3c-1.1-1.8-2.4-4.2-3.6-7.4
		c-4.2,2.5-8.9,5.2-14.2,8.1c-1.4,0.7-2.7,1.5-4.1,2.2c1.3,0.2,2.5,0.4,3.8,0.5C132.6,147.5,135.4,147.3,136.1,146.6z M72.6,135.2
		c-0.7,0.5-0.1,2.1,3.1,7c1.9,2.9,3.3,4.5,6.6,8.2c3.8-1.5,7.8-3.1,11.9-5c-7-2.7-12.9-5.7-16.9-7.9C74,135.6,73.3,134.6,72.6,135.2
		z M88.2,156.5c3.7,3.3,9.8,7.8,15.3,11c3.7,2.2,11.2,6.3,14.5,6.3c2.1,0,4-0.8,10-3.2c6.5-2.6,15.8-7.4,22.3-12.3
		c2.5-1.9,7.2-5.7,6.9-6.2c-0.2-0.3-1.9,0.2-4.1,0.5c-5.2,0.8-18.4,2.3-35.3-0.6c-4.6-0.8-8.9-1.9-13.1-3.1
		C99.1,151.7,93.6,154.2,88.2,156.5z M115.2,141.1c12.3-6.6,21.3-12.4,30.3-18.7c0.9-0.8,1.7-1.3,2.2-1.9c0.5-0.7,0.5-1.3,0-2
		s-1.6-1.1-2.6-0.4c-0.8,0.5-1.8,1.3-2.1,1.5c-9.6,7-17.1,11.9-29.9,18.7c-35.2,18.8-64.9,26.3-68.7,18.8c-2.6-5.1,7-15.7,23.6-27.4
		c-0.8-0.5-1.5-1-2.3-1.6c-21.7,14.7-35,28.5-31.5,35C39.3,172.3,77.4,161.6,115.2,141.1z M162.3,95.9c1,2.5-0.9,6.7-5.2,11.8
		c1.3,1.1,2.4,2.4,3,4c9.9-9.1,14.6-16.8,12.8-20.9c-2.7-6.1-20.2-3.8-42.9,4.5c-0.2,0.9-0.3,1.9-0.5,3
		C147.1,92.2,160.3,90.9,162.3,95.9z"/>
</g>
<g id="Escala_de_grises" class="st0">
	<g class="st1">
		
			<radialGradient id="SVGID_1_" cx="150.4605" cy="154.4489" r="8.3698" gradientTransform="matrix(1 0 0 -1 0 270.2979)" gradientUnits="userSpaceOnUse">
			<stop  offset="0" style="stop-color:#BFBFBF"/>
			<stop  offset="0.214" style="stop-color:#BBBBBB"/>
			<stop  offset="0.425" style="stop-color:#AFAFAF"/>
			<stop  offset="0.635" style="stop-color:#9C9C9C"/>
			<stop  offset="0.8432" style="stop-color:#808080"/>
			<stop  offset="1" style="stop-color:#666666"/>
		</radialGradient>
		<path class="st2" d="M158.8,115.8c0,4.6-3.8,8.4-8.4,8.4c-4.6,0-8.4-3.8-8.4-8.4s3.8-8.4,8.4-8.4
			C155.1,107.4,158.8,111.2,158.8,115.8z"/>
		
			<linearGradient id="SVGID_2_" gradientUnits="userSpaceOnUse" x1="35.1793" y1="216.5512" x2="35.1793" y2="184.3885" gradientTransform="matrix(1 0 0 -1 0 270.2979)">
			<stop  offset="0" style="stop-color:#BFBFBF"/>
			<stop  offset="1" style="stop-color:#666666"/>
		</linearGradient>
		<path class="st3" d="M8.8,51.8c0-0.5,0.3-0.7,1.4-0.7c3-0.1,9.9-0.6,24.1,1.3c13.8,1.9,23.5,6.4,23.5,6.4c3.5,8.1,4,15.8,3.7,21.6
			c-0.5,10.8-2.8,21.4-4.3,25.6c-0.5,1.3-0.7,2.3-1.5,2.5c-0.7,0.2-1.4-1.5-2.3-3c-4-6.6-6.4-10.7-17.5-25.8
			c-9.1-12.5-20.8-23-25.9-26.4C9.1,52.6,8.7,52.3,8.8,51.8z"/>
		
			<linearGradient id="SVGID_3_" gradientUnits="userSpaceOnUse" x1="14.2286" y1="137.4952" x2="19.7855" y2="207.9775" gradientTransform="matrix(1 0 0 -1 0 270.2979)">
			<stop  offset="0" style="stop-color:#BFBFBF"/>
			<stop  offset="1" style="stop-color:#666666"/>
		</linearGradient>
		<path class="st4" d="M2.2,58.1c8,2.1,17.2,8.3,23.9,15.7c-1.6,8.8-2.5,10.5-2.5,27.5s6,29.8,7.5,32.4c0.9,1.6,1,2.4,0.5,2.7
			c-0.6,0.4-1.7-0.3-4-2.6C16.9,123.3,9.3,108,5.3,93C1.4,78,1.9,64.1,2.2,58.1z"/>
		
			<linearGradient id="SVGID_4_" gradientUnits="userSpaceOnUse" x1="94.4284" y1="203.17" x2="66.8263" y2="167.5904" gradientTransform="matrix(1 0 0 -1 0 270.2979)">
			<stop  offset="0" style="stop-color:#BFBFBF"/>
			<stop  offset="1" style="stop-color:#666666"/>
		</linearGradient>
		<path class="st5" d="M66.1,56.3c0.6-0.5,2-0.3,2.6-0.2c1.2,0.2,14.3,2.7,26.9,10.3c10.9,6.6,18.2,13.8,20.1,15.7
			c1.8,1.9,1.3,4-1.8,6.8c-3,2.7-9.4,8.4-24.6,15.3c-15.4,6.9-26.8,9.4-29.9,10.2c-1.2,0.3-2.2,0.4-2.5,0c-0.7-1.1,1.9-3,4-8.7
			c1.4-3.8,4.2-12.6,5.5-23.5C68.6,63.7,64.8,57.3,66.1,56.3z"/>
		
			<linearGradient id="SVGID_5_" gradientUnits="userSpaceOnUse" x1="127.3324" y1="153.1348" x2="72.9989" y2="153.1348" gradientTransform="matrix(1 0 0 -1 0 270.2979)">
			<stop  offset="0" style="stop-color:#BFBFBF"/>
			<stop  offset="1" style="stop-color:#666666"/>
		</linearGradient>
		<path class="st6" d="M129.2,87.1c0.5,0.2-0.3,2.9-0.9,5.7c-0.6,2.7-2.3,12.6-1.8,22.5c0.7,13.9,4.8,22.6,7.6,27.1
			c1.5,2.4,2.7,3.6,2,4.3s-3.5,0.9-20.1-0.9c-16.6-2-40.7-10.2-55-24.4c-1.1-1.1-1.5-1.8-1.2-2.7c0.3-0.9,1.6-1.2,3.7-1.5
			c5.4-0.8,16.2-3.5,29.2-8.6c18-7.1,29.2-16.1,33.2-19.4C127.6,87.9,128.4,86.7,129.2,87.1z"/>
		
			<linearGradient id="SVGID_6_" gradientUnits="userSpaceOnUse" x1="154.2849" y1="115.7632" x2="93.0947" y2="115.7632" gradientTransform="matrix(1 0 0 -1 0 270.2979)">
			<stop  offset="0" style="stop-color:#BFBFBF"/>
			<stop  offset="1" style="stop-color:#666666"/>
		</linearGradient>
		<path class="st7" d="M72.6,135.2c0.7-0.5,1.4,0.5,4.7,2.3c8,4.4,22.9,11.5,40.5,14.6c16.8,2.9,30.1,1.4,35.3,0.6
			c2.3-0.3,4-0.8,4.1-0.5c0.3,0.5-4.4,4.3-6.9,6.2c-6.5,4.9-15.8,9.6-22.3,12.3c-6,2.4-7.9,3.2-10,3.2c-3.3,0-10.8-4.1-14.5-6.3
			c-7-4.1-15-10.3-17.8-13.4c-6-6.7-7.5-8.2-10-12C72.5,137.3,71.9,135.7,72.6,135.2z"/>
		
			<linearGradient id="SVGID_7_" gradientUnits="userSpaceOnUse" x1="183.934" y1="144.8472" x2="146.3703" y2="90.0932" gradientTransform="matrix(1 0 0 -1 0 270.2979)">
			<stop  offset="0" style="stop-color:#BFBFBF"/>
			<stop  offset="1" style="stop-color:#666666"/>
		</linearGradient>
		<path class="st8" d="M188.4,127.4c1.3,0.4,0.6,3-0.5,10.2c-1.1,7-3.9,17.6-8.2,25.3c-4.3,7.7-9.8,15-17.6,20.1
			c-13-0.8-23.5-2.9-33.7-8.6c14.3-5.4,27.8-13,38.2-21.5c7.6-6.2,12.5-11.5,18-20.5C186.9,128.7,187,127,188.4,127.4z"/>
		<path class="st9" d="M122.3,196.4h13.1v20.7h7.6v-20.7h13.1v-5.6h-33.8L122.3,196.4L122.3,196.4z M1.7,199.6v8.8
			c0,6,4.9,8.8,10.2,8.8h19.9v-5.6H12.5c-1.8,0-3.3-1.5-3.3-3.3v-8.6c0-1.8,1.5-3.3,3.3-3.3h19.4v-5.6h-20
			C6.7,190.8,1.7,193.6,1.7,199.6z M73.2,208.3v-8.6c0-1.8,1.5-3.3,3.3-3.3h19.4v-5.6h-20c-5.2,0-10.2,2.8-10.2,8.8v8.8
			c0,6,4.9,8.8,10.2,8.8h19.9v-5.6H76.5C74.7,211.5,73.2,210.1,73.2,208.3z M33.7,199.6v8.8c0,6,4.9,8.8,10.2,8.8h19.9v-5.6H44.5
			c-1.8,0-3.3-1.5-3.3-3.3v-1.5h22.6v-5.7H41.2v-1.5c0-1.8,1.5-3.3,3.3-3.3h19.4v-5.6h-20C38.7,190.8,33.7,193.6,33.7,199.6z
			 M168,196.4h19.4v-5.6h-19.9c-5.2,0-10.2,2.8-10.2,8.8v8.8c0,6,4.9,8.8,10.2,8.8h19.9v-5.6H168c-1.8,0-3.3-1.5-3.3-3.3v-1.5h22.6
			v-5.7h-22.6v-1.5C164.7,197.9,166.2,196.4,168,196.4z M108.9,204.7l-6.6-6.2h-6.6l10.6,10v8.7h5.3v-8.7l10.6-10h-6.6L108.9,204.7z
			"/>
		<path class="st10" d="M149.1,120.6"/>
		<path class="st11" d="M145.2,118.2c-0.8,0.5-1.8,1.3-2.1,1.5c-9.6,7-17.1,11.9-29.9,18.7c-35.2,18.8-64.9,26.3-68.7,18.8
			c-2.7-5.3,7.6-16.4,25.3-28.6c-0.7-0.5-1.5-1-2.2-1.6c-22.7,15.1-36.9,29.5-33.3,36.2c5,9.1,43.1-1.6,80.9-22.1
			c12.3-6.6,21.3-12.4,30.3-18.7c0.9-0.8,1.7-1.3,2.2-1.9c0.5-0.7,0.5-1.3,0-2C147.3,117.8,146.2,117.5,145.2,118.2z M172.9,90.7
			c-2.8-6.3-21.4-3.6-45.3,5.3c-0.1,0.9-0.3,1.9-0.4,3c18.7-6.7,33-8.4,35.1-3.2c1.1,2.7-1.3,7.6-6.7,13.4c1.3,1,2.2,2.4,2.8,3.9
			C169.5,103.4,174.8,95,172.9,90.7z"/>
	</g>
</g>
<path class="st12" d="M163.6,208.8h-150c-2.4,0-4.3-1.9-4.3-4.3V14.1c0-2.4,1.9-4.3,4.3-4.3h150c2.4,0,4.3,1.9,4.3,4.3v190.4
	C168,206.9,166,208.8,163.6,208.8z"/>
<g>
	<path d="M67.4,92.9h8.4v1.6h-6.3v5.8h5.1l-0.2,1.6h-4.9v7.5h-2V92.9z"/>
	<path d="M77.3,103.5c0-4,1.9-6.1,5.4-6.1c3.5,0,5.4,2.2,5.4,6.1c0,4.3-2.2,6.1-5.4,6.1C79.5,109.5,77.3,107.7,77.3,103.5z
		 M86.1,103.4c0-3.4-1.4-4.6-3.4-4.6c-2,0-3.4,1.2-3.4,4.6c0,3.1,1.3,4.5,3.4,4.5C84.8,108,86.1,106.6,86.1,103.4z"/>
	<path d="M89.9,97.5h1.9l0.4-2.7h1.5v2.7h3.7l-0.2,1.4h-3.5v7.2c0,1.1,0.4,1.8,1.6,1.8c0.6,0,1.4-0.2,2.3-0.5l0.2,1.5
		c-1.1,0.5-2.2,0.7-3,0.7c-2.3,0-3.1-1.2-3.1-3.3v-7.3h-1.9V97.5z"/>
	<path d="M99.6,103.5c0-4,1.9-6.1,5.4-6.1c3.5,0,5.4,2.2,5.4,6.1c0,4.3-2.2,6.1-5.4,6.1C101.8,109.5,99.6,107.7,99.6,103.5z
		 M108.4,103.4c0-3.4-1.4-4.6-3.4-4.6c-2,0-3.4,1.2-3.4,4.6c0,3.1,1.3,4.5,3.4,4.5C107.1,108,108.4,106.6,108.4,103.4z"/>
	<path d="M62.3,135.4c-0.5,0.2-1.2,0.4-1.7,0.4c-1.1,0-1.5-0.5-1.7-1.6l-0.1,0c-1.3,1-2.2,1.6-3.7,1.6c-2,0-3.6-1.4-3.6-3.5
		c0-1.6,1-2.3,2.7-2.7c1.5-0.4,3.4-0.8,4.5-1.1v-0.9c0-1.6-0.6-2.5-2.6-2.5c-1.3,0-2.6,0.5-3.7,1.1l-0.4-1.3
		c1.3-0.7,2.8-1.2,4.2-1.2c2.4,0,4.4,0.8,4.4,4.1v5.7c0,0.5,0,0.9,0.7,0.9c0.3,0,0.6,0,0.8,0L62.3,135.4z M55.6,134.4
		c1,0,2.2-0.6,3.2-1.6v-3c-1.3,0.2-2.8,0.6-3.8,0.9c-0.9,0.2-1.5,0.5-1.5,1.6C53.5,133.6,54.5,134.4,55.6,134.4z"/>
	<path d="M64.5,118.8h1.9v16.9h-1.9V118.8z"/>
	<path d="M79.2,135.7h-1.4l-0.4-1.4l-0.2,0c-1.2,1.1-2.4,1.6-3.8,1.6c-2.4,0-3.9-1.9-3.9-4.3v-7.7h1.9v7.3c0,1.9,0.9,3.1,2.5,3.1
		c1.2,0,2.5-0.9,3.3-1.6v-8.8h1.9V135.7z"/>
	<path d="M82.5,123.8H84l0.3,1.5l0.1,0c1.3-1.2,2.4-1.7,3.9-1.7c1.6,0,2.6,0.7,3.2,1.8l0.1,0c1.4-1.3,2.8-1.8,4.1-1.8
		c2.7,0,3.8,1.8,3.8,4.5v7.6h-2v-7.4c0-2-0.7-3.1-2.3-3.1c-1.2,0-2.5,0.6-3.3,1.6v8.8H90v-7.4c0-2-0.7-3.1-2.3-3.1
		c-1.2,0-2.6,0.8-3.4,1.8v8.6h-1.9V123.8z"/>
	<path d="M102.6,123.8h1.5l0.3,1.5l0.1,0c1.2-1.1,2.3-1.7,3.9-1.7c2.5,0,3.8,1.7,3.8,4.4v7.6h-1.9v-7.3c0-2.2-0.9-3.1-2.3-3.1
		c-1.3,0-2.5,0.8-3.4,1.7v8.7h-1.9V123.8z"/>
	<path d="M114.8,129.8c0-4,1.9-6.1,5.4-6.1c3.5,0,5.4,2.2,5.4,6.1c0,4.3-2.2,6.1-5.4,6.1C117,135.9,114.8,134,114.8,129.8z
		 M123.6,129.8c0-3.4-1.4-4.6-3.4-4.6c-2,0-3.4,1.2-3.4,4.6c0,3.1,1.3,4.5,3.4,4.5C122.3,134.3,123.6,132.9,123.6,129.8z"/>
</g>
</svg>
