<?xml version="1.0" encoding="utf-8"?>
<!-- Generator: Adobe Illustrator 24.2.0, SVG Export Plug-In . SVG Version: 6.00 Build 0)  -->
<svg version="1.1" id="Capa_1" xmlns="http://www.w3.org/2000/svg" xmlns:xlink="http://www.w3.org/1999/xlink" x="0px" y="0px"
	 viewBox="0 0 612 241" style="enable-background:new 0 0 612 241;" xml:space="preserve">
<style type="text/css">
	.st0{fill:#8D2746;}
	.st1{fill-rule:evenodd;clip-rule:evenodd;fill:#B2935F;}
	.st2{fill:#B2935F;}
</style>
<g>
	<g>
		<path class="st0" d="M430.41,86.14c0,1.08-0.07,2.12,0.01,3.15c0.28,3.56,0.64,7.11,0.93,10.67c0.12,1.48,0.82,2.54,2.18,3.06
			c3.11,1.19,6.25,2.3,9.38,3.44c0.29,0.11,0.6,0.18,1.01,0.31c-0.39,1.85-0.77,3.67-1.16,5.48c-0.39,1.78-0.4,1.78-2.28,1.78
			c-13.39,0-26.77-0.01-40.15,0.02c-0.8,0-1.16-0.17-1.3-1.02c-0.31-1.84-0.74-3.65-1.18-5.47c-0.15-0.63,0.01-0.89,0.62-1.09
			c2.95-0.99,5.89-2.04,8.84-3.03c0.64-0.22,1-0.49,1.03-1.23c0.28-5.91,0.77-11.81,0.87-17.72c0.15-9.05,0.12-18.1-0.02-27.15
			c-0.06-3.97-0.57-7.94-0.89-11.91c-0.15-1.88-1.09-3.32-2.78-4.15c-2.27-1.13-4.58-2.17-6.92-3.16c-0.68-0.29-0.92-0.5-0.72-1.28
			c0.47-1.8,0.85-3.63,1.18-5.47c0.12-0.67,0.38-0.86,1.05-0.86c4.72,0.03,9.43,0.09,14.15,0c8.09-0.16,16.18-0.39,24.27-0.65
			c7.13-0.23,14.21-0.06,21.11,2.01c5.29,1.59,9.98,4.15,13.5,8.5c2.92,3.6,4.44,7.78,4.98,12.33c0.7,5.96,0.11,11.76-2.48,17.24
			c-3.39,7.17-9.21,11.64-16.57,14.29c-6.58,2.37-13.41,2.91-20.33,2.56c-2.48-0.12-4.95-0.42-7.42-0.63
			C431.01,86.12,430.69,86.14,430.41,86.14z M430.31,74.17c5.61,0.84,11.14,1.05,16.73,0.43c3.96-0.44,6.29-2.5,7.49-6.11
			c0.02-0.06,0.04-0.12,0.06-0.18c1.53-4.04,1.88-8.25,1.67-12.51c-0.17-3.47-1.01-6.79-2.62-9.91c-1.21-2.33-3.01-3.83-5.52-4.62
			c-5.44-1.71-10.87-1.27-16.29,0.06c-0.26,0.06-0.55,0.5-0.6,0.8c-0.19,1.25-0.31,2.51-0.41,3.77c-0.7,9.19-0.58,18.4-0.57,27.6
			C430.26,73.69,430.29,73.87,430.31,74.17z"/>
		<path class="st0" d="M343.29,67.91c1.22-0.06,2.39-0.11,3.55-0.17c7.06-0.41,14.12-0.83,21.18-1.21c0.34-0.02,0.81,0.17,1.03,0.42
			c2.11,2.45,2.1,2.46,1.54,5.63c-0.4,2.27-0.8,4.54-1.23,6.91c-8.7-0.31-17.35-0.63-25.99-0.94c-0.06,0.13-0.14,0.21-0.14,0.3
			c-0.03,6.68-0.05,13.35,0.89,19.99c0.36,2.58,1.69,4.09,4.2,4.6c1.59,0.32,3.19,0.66,4.8,0.75c4.56,0.27,9.1-0.02,13.62-0.74
			c0.66-0.11,1.02-0.36,1.22-1.06c1.19-4.26,2.46-8.5,3.66-12.76c0.2-0.7,0.5-0.99,1.24-0.95c3.91,0.2,7.82,0.38,11.74,0.54
			c0.74,0.03,0.99,0.33,0.99,1.03c0.04,5.19,0.12,10.38,0.14,15.57c0.01,2.44-0.11,4.87-0.15,7.31c-0.01,0.65-0.25,0.88-0.91,0.86
			c-1.27-0.04-2.55-0.01-3.82-0.01c-22.44,0-44.87-0.01-67.31,0.02c-1.01,0-1.46-0.24-1.63-1.27c-0.27-1.68-0.64-3.35-1.06-5.01
			c-0.19-0.77-0.04-1.12,0.74-1.38c2.96-0.98,5.89-2.04,8.84-3.03c0.56-0.19,0.83-0.46,0.86-1.06c0.3-6.41,0.77-12.82,0.91-19.24
			c0.16-7.75,0.14-15.51-0.01-23.26c-0.09-4.77-0.57-9.53-0.91-14.29c-0.14-1.95-1.12-3.44-2.87-4.31c-2.3-1.14-4.65-2.17-7.02-3.18
			c-0.57-0.24-0.72-0.48-0.59-1.04c0.43-1.88,0.88-3.76,1.22-5.65c0.14-0.75,0.48-0.88,1.15-0.88c7.39,0.02,14.79,0.04,22.18,0
			c10.2-0.05,20.4-0.1,30.59-0.27c5.03-0.09,10.06-0.42,15.08-0.7c0.93-0.05,1.53,0.13,2.02,0.96c0.84,1.42,1.82,2.75,2.68,4.15
			c0.21,0.34,0.3,0.85,0.22,1.24c-1.28,6.35-2.6,12.69-3.88,19.04c-0.13,0.63-0.35,0.95-1.04,0.91c-3.69-0.2-7.38-0.39-11.06-0.57
			c-0.62-0.03-0.76-0.4-0.88-0.91c-0.89-4.01-1.83-8.01-2.68-12.03c-0.19-0.88-0.61-1.15-1.43-1.28c-6.68-1-13.4-0.91-20.13-0.65
			c-0.6,0.02-0.84,0.21-0.86,0.82c-0.25,8.73-0.51,17.46-0.77,26.18C343.22,67.47,343.26,67.66,343.29,67.91z"/>
		<path class="st0" d="M297.76,57.59c-4.31-0.2-8.57-0.4-12.87-0.59c-0.32-1.92-0.53-3.71-0.92-5.46c-0.56-2.53-1.2-5.04-1.91-7.53
			c-0.16-0.57-0.66-1.16-1.16-1.49c-3.65-2.34-7.74-2.81-11.93-2.42c-2.07,0.19-4.12,0.74-6.14,1.27c-0.56,0.15-1.18,0.7-1.43,1.23
			c-2.57,5.41-2.71,12.55,3.71,17.24c3.32,2.42,7.07,3.99,10.79,5.63c4.79,2.11,9.64,4.14,14.3,6.51c4.25,2.16,7.84,5.24,10.15,9.51
			c4.37,8.07,4.1,19.84-5.57,27.31c-4.51,3.48-9.65,5.57-15.21,6.47c-12.03,1.95-23.87,1.05-35.36-3.15
			c-1.96-0.72-3.78-1.81-5.66-2.72c-0.48-0.23-0.67-0.57-0.65-1.12c0.15-5.66,0.27-11.32,0.42-16.98c0.04-1.57,0.09-1.62,1.66-1.71
			c3.62-0.2,7.25-0.38,10.88-0.5c1.4-0.05,1.34,0.06,1.72,1.41c1.06,3.8,2.19,7.59,3.27,11.38c0.22,0.77,0.71,1.21,1.4,1.56
			c2.49,1.26,5.16,1.78,7.91,2c4.15,0.33,8.29,0.31,12.29-1.03c0.61-0.2,1.26-0.66,1.61-1.18c1.89-2.82,2.53-5.97,2.09-9.32
			c-0.26-1.94-1.34-3.46-2.76-4.75c-1.92-1.76-4.18-3.01-6.56-4c-4.49-1.87-9.02-3.63-13.51-5.49c-4.31-1.78-8.4-3.92-12.08-6.83
			c-10.32-8.18-11.43-24.43-0.43-34.04c5.04-4.4,10.93-7.07,17.43-8.35c12.43-2.44,24.31-0.69,35.61,5.03
			c1.04,0.52,1.44,1.43,2.04,2.27c0.94,1.3,1.1,2.61,0.7,4.17c-1.23,4.84-2.33,9.71-3.48,14.57
			C298.03,56.79,297.92,57.08,297.76,57.59z"/>
	</g>
	<g>
		<path class="st1" d="M67.91,68.04c0-0.75-0.08-1.49-0.83-1.33c-2.08,0.66-5.23,3.73-5.23,5.64c0,4.48,1.74,10.21,4.15,11.45
			c1,0.42,4.4,0,5.64-0.75c0.17-0.25-0.33-1.24-0.33-1.66c-0.83,0-2.9,0.91-3.82,0.42c-2.65-0.75-2.65-5.89-2.32-8.55l2.57-4.65
			c-0.99,1-2.66,1.91-3.24,1.66C64.34,69.2,67.08,67.04,67.91,68.04L67.91,68.04z"/>
		<path class="st1" d="M72.97,77.41c0.08,1.91-5.48,2.57-5.81-0.17C68.99,78.16,71.48,78.33,72.97,77.41L72.97,77.41z"/>
		<path class="st1" d="M81.85,79.24c4.4-1.58,8.21,7.22,4.4,11.12C87.58,86.79,86.33,80.32,81.85,79.24L81.85,79.24z"/>
		<path class="st1" d="M79.11,80.57c0.08-0.25,0.17-0.58,0.25-0.5c0.17,0.33,0.75,0.33,0.91,0.33c2.32,0.25,4.81,3.73,5.31,8.05
			c0.25,3.74-9.13,11.95-12.12,16.02c-1.33,3.32,1.41,7.3,0.66,6.89c-6.47-3.82-1.66-10.04-1.08-10.62
			c7.14-8.22,13.86-11.95,8.21-17.76c0,0-1.66-0.58-2.08-0.91C78.86,81.73,78.86,80.98,79.11,80.57L79.11,80.57z"/>
		<path class="st1" d="M91.48,121.57c0.16,0.08,1.66-1.91,1.83-2.16c0-0.08,0.08-0.33,0.58-1c1.41-2.32,0.58-6.39-2.41-8.22
			c-3.32-2.16-8.8,0.33-13.61-0.99c-2.41-1.25-2.57-5.23-2.74-4.65c-1.74,5.64,3.98,6.31,4.56,6.31c7.89,0.99,13.11-1.91,12.95,5.73
			c0,0-0.16,0.75-0.42,1.16c-0.91,1.08-2.24,2.74-2.24,2.74C89.49,120.57,91.31,121.32,91.48,121.57L91.48,121.57z"/>
		<path class="st1" d="M101.6,68.2c-1.58-1.49-4.4-2.24-6.39-2.66c-0.08,0-0.33,0.33-0.5,0.66c1.24,0.17,5.06,1.49,6.64,2.57
			C101.6,68.95,101.6,68.29,101.6,68.2L101.6,68.2z"/>
		<path class="st1" d="M102.6,78.66c0.08-2.24-0.08-3.57,0.17-4.98c0,0-0.58,0.5-0.91,0.5c0.25,0.75,0.17,3.4-0.17,4.48
			C101.69,78.83,102.6,78.66,102.6,78.66L102.6,78.66z"/>
		<path class="st1" d="M99.61,103.14c-0.75-7.22-0.5-7.47-0.33-10.46c0,0,0.67,0.08,1.58,0c-1.24,1.25-0.08,9.71,1,11.54
			C101.85,104.3,100.69,104.14,99.61,103.14L99.61,103.14z"/>
		<path class="st1" d="M108.33,101.81c-1.08-6.89-0.75-6.81-0.5-9.63c0,0,0.58,0,1.49-0.08c-1.24,1.16-0.58,6.72,0.33,8.55
			C109.65,100.65,109.4,102.73,108.33,101.81L108.33,101.81z"/>
		<path class="st1" d="M115.13,97c-0.83-4.81-0.83-4.56-0.83-6.56c0,0,0.33-0.17,0.91-0.25c-0.83,0.83,0.5,3.4,1,6.56
			C116.46,97.66,116.21,97.91,115.13,97L115.13,97z"/>
		<path class="st1" d="M119.94,89.36c-0.91-1.99-0.83-1.99-1.41-2.66c0,0-0.17,0.08-0.5,0.33c0.66-0.08,0.66,1.33,1.24,2.66
			C119.53,90.11,119.61,90.11,119.94,89.36L119.94,89.36z"/>
		<path class="st1" d="M98.45,88.95c0.66-2.16,1.25-3.9,1.74-5.23c0,0-0.58,0-0.91-0.08c0,0.83-1.41,3.98-1.66,5.23L98.45,88.95
			L98.45,88.95z"/>
		<path class="st1" d="M94.3,88.78c0.83-2.08,1.66-3.82,2.32-5.06c0,0-0.67,0-1-0.17c0,0.83-1.74,3.74-2.16,4.98
			C93.47,88.62,94.3,88.78,94.3,88.78L94.3,88.78z"/>
		<path class="st1" d="M105.34,88.62c0.33-3.15,0.42-5.15,0.58-7.14c0,0-0.58,0.75-0.99,0.75c0,1.08-0.75,5.06-0.75,6.72
			C104.17,89.03,105.26,88.62,105.34,88.62L105.34,88.62z"/>
		<path class="st1" d="M109.24,75.17c-0.99-2.9-1.74-4.56-2.24-6.39c0,0-0.25,0.91-0.58,1c0.58,0.91,1.66,4.23,1.91,5.81
			C108.41,75.75,109.16,75.17,109.24,75.17L109.24,75.17z"/>
		<path class="st1" d="M112.97,86.46c-0.08-3.73-0.33-6.06-0.25-8.47c0,0-0.5,0.91-0.83,0.91c0.33,1.33,0.33,5.81,0.08,7.8
			C111.98,86.88,112.89,86.46,112.97,86.46L112.97,86.46z"/>
		<path class="st1" d="M130.57,67.04c3.49,1.66,5.64,2.49,7.72,3.65c0,0-0.58-0.83-0.42-1.16c-1.33-0.33-5.31-2.24-6.97-3.4
			C130.73,66.04,130.65,67.04,130.57,67.04L130.57,67.04z"/>
		<path class="st1" d="M144.84,61.07c2.9-0.83,20.66,18.42,23.57,23.49c0,0,1.24-0.33,1.41-0.58c-1.08-3.24-19.75-24.15-23.9-23.98
			C145.92,59.99,144.84,60.98,144.84,61.07L144.84,61.07z"/>
		<path class="st1" d="M140.03,77.58c1.41-0.42,8.88,6.06,10.29,8.47c0,0,1.41,0.25,0.91-0.33c-0.58-1.58-8.63-9.3-10.54-9.21
			L140.03,77.58L140.03,77.58z"/>
		<path class="st1" d="M137.12,84.8c1,0.25,4.4,3.15,6.23,4.65c0,0,1.41,0.25,0.83-0.42c-0.83-1.08-5.15-5.64-6.64-5.89
			C137.54,83.14,137.21,84.8,137.12,84.8L137.12,84.8z"/>
		<path class="st1" d="M132.97,90.86c0.91,0.25,1.33,1,3.15,2.49c0,0,1.41,0.25,0.91-0.41c-0.91-1.08-2.16-3.15-3.57-3.49
			L132.97,90.86L132.97,90.86z"/>
		<path class="st1" d="M127.58,96.25c0.91,0.25,1.08,1.08,2.32,2.49c0,0,0.33-0.5,0.66-1.08c-0.91-1.08-1.16-1.49-2.16-2.41
			L127.58,96.25L127.58,96.25z"/>
		<path class="st1" d="M120.03,100.07c0.91,0.25,3.57,5.06,4.9,6.56c0,0,0.25-0.5,0.5-1.08c-0.83-1.08-4.23-6.47-5.23-7.3
			L120.03,100.07L120.03,100.07z"/>
		<path class="st1" d="M114.38,104.88c0.91,0.25,4.07,5.81,5.39,7.3c0,0,0.25-0.5,0.58-1.08c-0.91-1.08-3.98-6.31-4.9-7.05
			L114.38,104.88L114.38,104.88z"/>
		<path class="st1" d="M125.92,113.51c0.91,0.25,3.57,5.31,4.07,7.55c0,0,0.33-0.25,0.66-0.83c-0.42-1.33-2.82-7.3-3.82-7.89
			C125.92,111.77,125.34,113.1,125.92,113.51L125.92,113.51z"/>
		<path class="st1" d="M118.7,118c0.75,0,4.4,4.48,5.23,6.64c0,0,0.42,0.08,0.66-0.5c-0.25-1.33-3.82-6.31-4.73-6.89
			C118.87,116.59,117.87,117,118.7,118L118.7,118z"/>
		<path class="st1" d="M127.41,130.78c0.5,0.08,2.32,2.74,2.82,4.07c0,0,0.5,0.08,0.75-0.33c-0.17-0.83-1.66-3.57-2.24-3.9
			C128.16,130.2,126.92,130.28,127.41,130.78L127.41,130.78z"/>
		<path class="st1" d="M122.85,131.69c0.33,0,1.91,1.99,2.41,3.32c0,0,0.58,0,0.83-0.33c-0.16-0.91-2.16-3.49-2.65-3.82
			C122.85,130.53,122.93,131.19,122.85,131.69L122.85,131.69z"/>
		<path class="st1" d="M112.72,120.82c0.91,0.83,4.57,4.15,6.81,6.97c0,0-0.08,0.33,0.17-0.25c-1.58-2.74-5.23-6.39-5.98-7.06
			C111.31,118.25,111.73,118.49,112.72,120.82L112.72,120.82z"/>
		<path class="st1" d="M130.48,105.22c0.91,0.25,3.4,5.56,4.4,9.38c0,0,0.16-0.41,0.42-0.99c-0.33-1.91-3.49-8.96-4.4-9.71
			C130.9,103.89,130.48,105.13,130.48,105.22L130.48,105.22z"/>
		<path class="st1" d="M107.25,108.04c0.91,0.25,4.4,5.73,5.64,7.14c0,0,0.5-0.16,0.83-0.75c-0.91-1.08-4.73-6.06-5.64-6.72
			L107.25,108.04L107.25,108.04z"/>
		<path class="st1" d="M132.72,75.59c2.07,1.33,3.49,2.32,3.49,2.41c-0.17,0.17,0.33-0.75,0.41-1.16c-0.67-0.17-2.9-1.25-3.9-2.16
			C132.56,74.67,132.72,75.59,132.72,75.59L132.72,75.59z"/>
		<path class="st1" d="M129.99,83.31c2.07,1.24,2.07,1.33,2.07,1.33c-0.16,0.17,0.5-0.58,0.58-1c-0.66-0.17-1-0.66-2.07-1.33
			C130.57,82.31,129.99,83.22,129.99,83.31L129.99,83.31z"/>
		<path class="st1" d="M125.75,89.2c2.08,1.25,1.74,1.41,1.74,1.41c-0.08,0.17,0.58-0.58,0.66-1c-0.58-0.5-0.75-0.66-1.83-1.33
			C126.33,88.29,125.75,89.12,125.75,89.2L125.75,89.2z"/>
		<path class="st1" d="M113.06,72.19c-1.83-2.66-3.57-4.73-4.65-6.47c0,0,0,0.58-0.33,0.75c0.91,0.75,3.49,4.9,4.23,6.39
			C112.39,73.02,113.06,72.19,113.06,72.19L113.06,72.19z"/>
		<path class="st1" d="M71.23,67.54c0.33-0.08,0.5-1,0.67-0.83c0.83,1.41,1,3.07-0.17,4.81C71.89,69.95,71.81,68.95,71.23,67.54
			L71.23,67.54z"/>
		<path class="st1" d="M74.22,71.36c1.25,1.58-7.14,6.72-7.97,4.73c-0.33-0.91,1.16-5.39,2.24-7.47c0.75-1.41,0.17-2.41-0.16-2.49
			c-0.83-0.17,1.25-1.74,1.33-1.74c1.91-1.16,2.32,1.08,1.74,1.66c-2.16,2.24-1.33,2.99-1.08,2.91c0.58-0.33-0.08,2.41-1.83,3.73
			c-0.33,0.17-0.66,1.33-0.25,1.83C70.15,74.18,73.3,72.85,74.22,71.36L74.22,71.36z"/>
		<path class="st1" d="M80.19,75.42c-1,0.25-1.66-0.33-1.91-0.25c0,1.33-0.67,1.49-2.82,1.16c-0.83,0.33-1.74,1.41-2.07,1.99
			c-1.99,3.65,0.91,8.22,7.22,7.05c-5.23-3.9-2.24-7.8,3.65-7.14c0-0.25,2.49-1.33,2.49-1.83c-0.33,0-2.9-0.5-3.98-0.5
			c-0.5,0,0.75,1.16,0.25,1.16c-3.57,0.08-8.96,2.41-5.81,6.56c0.08,0.17-4.06-0.17-2.74-4.4c0.25-0.75,0.83-1.74,1.41-1.74
			c0.91,0,2.41-0.08,2.66-0.33L80.19,75.42L80.19,75.42z"/>
		<path class="st1" d="M77.37,73.85c10.29,1.33,9.46,0.41,10.87,0.33c1,0,3.15,0.08,4.56,2.24c0.66,1-4.07,3.73-6.72,4.07
			c2.32-1.99,4.81-3.24,4.07-3.98c-0.83-0.33-2.41-0.67-3.4-0.08C85.92,77,84.18,76.17,82.68,76c-0.75-0.17-1.58-0.33-2.57-0.33
			c-0.75,0-1.91-0.33-2.99-0.41C76.54,75.26,77.12,75.26,77.37,73.85L77.37,73.85z"/>
		<path class="st1" d="M82.77,62.06c0,1-0.41,4.81-1.49,5.56c-1.08,1.58-3.49,1.16-3.49,4.81c1.49,1.08,2.82,0.75,4.15,0.33
			l-0.08-0.91c-2.66,0.08-3.32,0-2.24-1.33c-0.08-0.5,1.83-1,3.07-3.32c-0.08,1.16-1.58,4.48-1.66,4.65
			c0.66,0.08,0.66,0.08,0.83,0.08c0.25,0,0.83-2.57,1.33-3.82c0.08-0.33,0.58-0.58,0.58-0.66C84.26,66.29,84.09,64.14,82.77,62.06
			L82.77,62.06z"/>
		<path class="st1" d="M83.51,69.28c0.33,0.08,0.16-1.58,0.66-1.16c1.49,1.58,1.91,3.98-1.82,5.31
			C84.26,71.6,84.67,70.11,83.51,69.28L83.51,69.28z"/>
		<path class="st1" d="M87.33,63.55c-0.25-0.17,0.74-0.58,0.74-1c-0.16-1.91-2.9-3.82-2.82-3.32c0.25,1.91,0.33,3.98-0.25,6.47
			c-0.08-0.33,0.83-0.41,1.08-0.91c0.58-1.25,0.33-1.91,0.33-3.07C86.42,61.48,87.25,62.23,87.33,63.55L87.33,63.55z"/>
		<path class="st1" d="M93.97,62.89c-0.16-0.25,0.5,1.49,0.83,1.16c3.49-4.32,0.91-7.14-0.91-7.3c-1.58-0.17-0.25,2.57-2.24,4.48
			c0.08-0.33,0.17,1.16,0.66,0.83c1.16-0.83,1.24-1.58,1.83-2.66C94.3,59.24,95.13,60.73,93.97,62.89L93.97,62.89z"/>
		<path class="st1" d="M84.26,67.37c0.25,0.08,0.74,1.16,1.16,0.91c4.57-2.82,7.06-5.98,3.65-11.12
			C89.57,62.06,89.4,64.3,84.26,67.37L84.26,67.37z"/>
		<path class="st1" d="M86.17,70.86c0-0.33-0.75,1.16,0.17,1.08c2.66-0.17,8.88-6.06,6.97-7.39c-0.25-0.17-0.33-0.66-0.42-0.66
			c-1.74,0-4.65,3.65-6.97,5.15c0.25-0.25-0.08,0.91,0.41,0.75c1.99-0.58,5.15-4.48,5.89-4.07C92.97,66.04,88.33,70.03,86.17,70.86
			L86.17,70.86z"/>
		<path class="st1" d="M97.62,61.73c0.08,0.25-0.91-1.08-0.16-1.16c1.82,0,6.06,2.41,8.21,1.99c0.58-0.08,1.83,0.41,1.83,1.08
			c0.08,0.17-1.16,2.74-1.41,2.74c-1.91,0.17-6.47-2.16-9.13-2.9c0.33,0.17-0.5-0.83,0.17-0.83c1.99,0.17,7.3,2.74,8.05,2.32
			c0.08,0,0.58-0.08,0.33-0.25C104.34,63.72,99.45,61.81,97.62,61.73L97.62,61.73z"/>
		<path class="st1" d="M113.47,61.07c0.25,0.33-0.75-0.5-0.66-0.83c0.08-0.91,2.99-0.08,3.32-0.25c0.17-0.08,0.33,0.08,0.66,0.33
			c0,0.08,1.91,3.07,1.66,3.57c-0.5,0.91-2.07,0.33-3.07,0.58c0.25,0.08-0.92-1-0.67-1c1.24-0.08,2.49,0.17,2.49-0.33
			c0-0.17-0.75-1.99-1.08-2.16C114.96,60.65,114.3,60.98,113.47,61.07L113.47,61.07z"/>
		<path class="st1" d="M132.89,53.6c0.33,0.25-0.75-0.58-1.08-0.5c-0.91,0.25,0.58,2.91,0.5,3.24c-0.08,0.17,0.42,0.41,0.75,0.66
			c0,0,2.9,1.33,3.4,1c0.83-0.58,0.33-2.08,0.42-3.07c0.08,0.17-1.58-0.67-1.49-0.5c0.16,1.24,0.42,2.16-0.08,2.24
			c-0.25,0-1.5-0.17-1.66-0.41C133.14,55.26,132.89,54.51,132.89,53.6L132.89,53.6z"/>
		<path class="st1" d="M124.76,52.02c0.33,0.08-1.58-0.5-1.91-0.33c-0.75,0.41,3.24,3.15,3.15,3.49c0,0.08,0.25,0.33,0.66,0.42
			c0,0,3.57,0.83,3.9,0.41c0.66-0.83-0.58-2.16-0.75-3.15c0.08,0.08-1.58-0.5-1.5-0.25c0.5,1.08,0.75,1.74,0.25,1.91
			c-0.17,0.08-1.49,0.17-1.66,0C126.17,53.68,125.01,52.85,124.76,52.02L124.76,52.02z"/>
		<path class="st1" d="M116.21,66.63c0.17,0.41-0.17-1,0-1c1.24,0.08,2.32,0,2.66-0.17c0.17-0.08,0.5,0.25,0.66,0.66
			c0.17,0.75,1.66,4.32,0.91,5.15c-0.91,1-2.74,0.17-3.65,0.33c0.25,0.08-0.66-0.91,0.08-1.16c1.08-0.25,2.41,0,2.57-0.33
			c0.25-0.58-0.5-2.82-0.91-2.99C117.62,66.71,117.04,66.63,116.21,66.63L116.21,66.63z"/>
		<path class="st1" d="M117.12,73.85c0.25,0.41,0.17-1.08,0.33-1.08c1.08-0.25,2.41-0.08,2.82,0c0.91,0.25,1.24,1.08,1.33,1.58
			c0.16,1.66,0.16,1.58-0.42,2.57c-0.66,1.16-1.41,2.57-2.32,2.91c0.17,0.08-0.42-1.49,0.08-2.16c0.75-1,1.16-1.58,1.16-1.91
			c0.41-1.24-0.42-1.74-0.83-1.83C118.28,73.76,117.87,73.76,117.12,73.85L117.12,73.85z"/>
		<path class="st1" d="M106.33,57.99c0.5,0.25-1.83-0.75-1.83-1c0.08-0.58,4.32,0.41,3.82-0.58c-0.17-0.25,0.75-0.17,1.82,0.41
			c0.25,0.08,2.91,1.41,2.91,1.91c0,0.66-0.91,0.83-2.32,0.91c0.33,0.08-1.25-0.08-1.41-0.5c-0.16-0.75,2.74,0.17,2.32-0.33
			c0,0-1.41-1.16-2.32-1.08C108.57,57.75,106.58,57.5,106.33,57.99L106.33,57.99z"/>
		<path class="st1" d="M95.88,65.05c0.08,0.25-0.08-0.75,0.5-0.83c0.91-0.25,9.13,3.15,8.47,4.56c0,0-0.75,1.41-1.66,2.49
			c-1.58,1.66-6.06-2.82-8.38-3.57c0.33,0.25-0.33-0.83,0.17-0.75c2.07,0.17,6.72,2.74,7.47,3.07c0.66,0.17,1.16-1.24,0.91-1.49
			C102.1,67.21,98.12,65.05,95.88,65.05L95.88,65.05z"/>
		<path class="st1" d="M95.21,69.36c0.08,0.25-0.25-0.5,0.25-0.66c0.83-0.17,6.47,2.57,5.73,3.98c0,0-0.91,1.91-2.07,2.49
			c-0.83,0.42-2.07-2.41-3.32-3.32c0.33,0.17-0.17-1.99,0.33-1.08c0.66,1.24,1.91,2.24,2.57,2.49c0.5,0.25,1.16-0.83,1-0.91
			C98.45,71.27,97.04,70.19,95.21,69.36L95.21,69.36z"/>
		<path class="st1" d="M94.88,73.26c-0.08,0.17,0.08-0.58,0.5-0.5c0.67,0.17,2.74,2.9,1.83,3.65c0,0-1.16,1.24-2.16,1.33
			c-0.66,0.08-0.99-2.16-1.66-3.15c0.17,0.25,0.83-1.58,0.91-0.83c0.25,1.08,0.5,0.91,1.08,2.16c0.17,0.33,0.33-0.08,0.33-0.5
			C95.79,74.09,95.88,74.43,94.88,73.26L94.88,73.26z"/>
		<path class="st1" d="M102.27,54.59c0.17,0.08-0.33-0.33-0.08-0.58c0.33-0.41,3.32-0.83,3.48,0.17c0,0,0.42,1.41,0,2.16
			c-0.25,0.5-1.99-0.08-2.99-0.08c0.25,0-0.83-1.33-0.25-1.08c0.91,0.33,0.91,0.08,1.99,0.17c0.42,0,0.17-0.25-0.17-0.5
			C103.35,54.26,103.68,54.34,102.27,54.59L102.27,54.59z"/>
		<path class="st1" d="M97.62,77.5c-0.16,0.17,0.67-1.33,1-1c0.5,0.66,0.83,3.82-1.91,6.14c-0.41,0.42-2.65,0.67-2.99-0.5
			c-0.25-0.83,0.33-2.24,1.99-3.98c-0.08,0.33,1.41-1.33,0.99-0.58c-0.66,1.08-0.99,2.07-1.41,3.49c-0.08,0.33,0.42,0.91,1.25-0.33
			C97.46,79.32,97.37,79.57,97.62,77.5L97.62,77.5z"/>
		<path class="st1" d="M103.51,72.77c-0.16,0.25,0.91-1.66,1.08-1.16c0.41,1.66,1.25,7.05-0.5,9.54c-0.58,0.75-3.74,1.41-4.57-0.08
			c-0.5-0.83,0.25-3.32,0.66-5.64c0,0.41,1.41-0.91,1.08-0.17c-0.5,1.33-0.83,3.15-0.33,4.56c0.08,0.17,1.66,0.75,2.24-0.5
			C103.93,77.83,103.76,75.09,103.51,72.77L103.51,72.77z"/>
		<path class="st1" d="M97.87,93.27c0.25,0.42-1-0.58-1.24,0.33c-1.16,3.98-0.33,9.3,1.99,12.95c0.75,1.08,4.31,2.41,5.81,0.58
			c1.08-1.33-0.08-5.14-0.91-8.88c0,0.08,0.25-3.24,0-4.07c-0.33-0.91-1.41,0.08-1.49,0.17c-0.25,0.25-0.25,3.32-0.33,3.65
			c-0.25,3.15,2.08,4.07,1.16,7.97c0,0-2.82,0-3.65-1.24C97.2,101.73,97.54,96.83,97.87,93.27L97.87,93.27z"/>
		<path class="st1" d="M92.14,92.1c0.5-0.33,0.16-2.49-1.41,0.5c-2.49,4.56,1.91,8.38,2.16,12.86c0.08,1.24,2.16,3.24,3.48,1.08
			c1.16-1.99-1.16-4.98-1.74-8.96c0,0.17,0.83-3.9,0.58-4.73c-0.17-0.83-1.16-0.5-1.25-0.41c-0.16,0.17-0.75,4.07-0.83,4.31
			c-0.16,3.15,2.24,4.65,1.66,8.55c0,0-1,0.58-1-0.91C93.89,101.65,88.57,98.08,92.14,92.1L92.14,92.1z"/>
		<path class="st1" d="M106.58,92.35c0.25,0.42-0.99-0.58-1.25,0.33c-1.16,3.82-0.33,8.88,2.08,12.37c0.66,1.08,4.15,0.75,4.56-0.91
			c0.75-2.24,0.25-3.49-0.58-7.14c0,0.17,0.33-4.15,0-4.81c-0.33-0.75-1.16-0.25-1.25-0.08c-0.17,0.17,0,2.9-0.17,3.98
			c-0.41,2.57,0.67,5.31,0.75,7.3c0,0-1.99,1.16-2.82-0.08C106,100.49,106.25,95.76,106.58,92.35L106.58,92.35z"/>
		<path class="st1" d="M113.8,90.94c0.25,0.25-1-0.5-1.33,0.25c-1.16,3.24-0.33,7.64,2.07,10.62c0.66,0.83,3.32-0.58,3.82-1.83
			c0.83-1.74,0.91-2.32,0.08-5.15c0,0.08-1.66-4.9-1.99-5.48c-0.33-0.5-0.83,0.25-0.91,0.33c-0.16,0.17,1,3.32,1.16,4.07
			c0.5,2.16,1,2.99,0.58,4.81c-0.17,0.33-1.66,1.83-2.08,0.83C114.05,96.67,113.39,93.76,113.8,90.94L113.8,90.94z"/>
		<path class="st1" d="M120.61,97.25c0.17,0.42,0-1.91,0.33-1.49c2.74,3.32,6.06,7.22,7.3,11.04c0.33,0.91-0.25,4.23-1.91,4.32
			c-2.32,0-6.81-6.56-7.72-8.96c-0.25-0.5,0.83-1.16,0.99-1.25c0.16-0.08,5.14,8.05,6.39,8.3c0.08,0,1.41-1.58,0.83-2.99
			C125.83,103.56,122.6,99.32,120.61,97.25L120.61,97.25z"/>
		<path class="st1" d="M116.46,103.22c0.08,0.33,1-1.41,1.16-1.08c2.49,4.23,5.31,7.3,6.06,11.12c0.33,1.41-0.91,2.9-2.32,3.07
			c-2.41,0.25-8.05-7.72-9.38-9.96c-0.25-0.33-0.08-0.25,1.24-0.91c0.08-0.08,5.81,8.55,6.89,8.72c0,0,2.57,0.16,1.99-1.99
			C121.35,109.45,118.37,105.3,116.46,103.22L116.46,103.22z"/>
		<path class="st1" d="M109.49,107.37c0.16,0.33,0.33-1.33,0.75-0.75c3.07,3.4,5.81,5.89,6.64,9.63c0.25,1.33-0.17,2.41-1.49,2.65
			c-2.41,0.25-9.13-7.3-10.38-9.54c-0.08-0.25-0.08-0.33,1.33-0.91c0,0,6.72,8.63,7.8,8.71c0,0,2.07,0.17,1.16-1.99
			C114.13,112.68,111.48,109.45,109.49,107.37L109.49,107.37z"/>
		<path class="st1" d="M99.53,113.6c0.08,0.25,0.5,0.58,0.91,0.99c0.08,0.17,0.5-0.33-0.33,0.91c-0.25,0.25-0.5,0.33-1,0.33
			c-1.08,0-2.24-3.57-1.99-5.48c0,0,0.83,1.08,1.08,1.41c0.08,0.08,0,1.99,0.75,2.57c0,0,0.08,0.08,0.33-0.33
			C99.7,113.18,99.2,113.68,99.53,113.6L99.53,113.6z"/>
		<path class="st1" d="M101.93,110.03c0.17,0.41,0.92-0.83,1.25-0.33c2.91,3.4,4.07,5.06,6.14,7.3c2.24,2.41,0.99,2.74-0.25,2.32
			c-5.23-1.49-10.87-9.87-13.03-11.62c0,0,0.83,0.08,1.99,0.17c0,0,8.71,9.21,9.79,9.38c0,0,1.49,1.41,0.17-0.33
			C106.25,114.84,104.01,112.1,101.93,110.03L101.93,110.03z"/>
		<path class="st1" d="M129.82,107.12c0.25,0.33-0.83,0.67-0.33,1.5c1.91,2.9,4.31,9.13,4.73,12.03c0.5,3.15,1.58,2.49,1.99,1.33
			c2.41-6.22-1.24-17.35-3.49-19.59c0,0-0.25,0.17-0.91,0.75c0,0,5.39,7.8,4.07,16.02c0,0-0.25,1.08-0.83-0.25
			C133.8,115.51,131.4,109.53,129.82,107.12L129.82,107.12z"/>
		<path class="st1" d="M125.26,114.76c0.25,0.33-1.16,0.5-0.75,1.16c1.83,3.4,3.15,6.89,5.4,9.29c2.07,2.33,2.82,0.58,2.99-0.5
			c1.08-6.47-1.99-11.45-3.9-14.44c0,0-0.42,0.5-0.91,1.08c0,0,4.57,5.56,3.65,12.12c0,0-0.58,1.08-1.33,0.25
			C127.83,120.99,126.83,118.74,125.26,114.76L125.26,114.76z"/>
		<path class="st1" d="M118.2,118.66c0.25,0.25-1.41,0.33-0.91,0.91c2.41,2.82,5.23,7.14,7.88,9.05c2.41,1.82,3.07-0.17,2.82-1.08
			c-1.83-7.06-2.57-7.3-4.9-10.87c0,0-0.75,0.16-1.16,0.91c0,0,3.4,2.32,4.65,9.05c0,0-0.33,1.08-1.24,0.41
			C122.35,124.88,120.52,122.23,118.2,118.66L118.2,118.66z"/>
		<path class="st1" d="M126.17,130.94c0.34,0.25-2.65-1.49-1.82-0.5c2.41,2.74,3.73,5.48,6.22,7.47c2.74,2.16,3.07,0,2.99-1.08
			c-0.25-2.9-1.41-5.14-3.65-8.55c0,0-0.33,0.75-0.75,1.49c0,0,1.33,2.82,2.99,6.14c0.08,0.25-0.42,0.91-1.08,0.5
			C128.66,135.09,128.33,134.1,126.17,130.94L126.17,130.94z"/>
		<path class="st1" d="M131.89,127.62c0.16,0.25-1.08-0.33-0.83,0.08c0.75,1.66,2.82,5.23,4.4,7.05c1.49,1.74,1.58,0.5,1.41-0.5
			c-0.75-4.4-1.58-5.14-2.82-7.96c0,0-0.42,0.17-0.83,0.66c0,0,1.08,0.99,2.57,5.73c0,0,0,1.08-0.5,0.5
			C133.47,131.03,133.39,130.36,131.89,127.62L131.89,127.62z"/>
		<path class="st1" d="M111.81,120.9c0.33,0.25-2.08-0.25-1.58,0.17c3.07,2.49,6.97,7.72,9.88,9.71c1.91,1.33,2.32-0.5,2.07-1.33
			c-0.5-2.08-1.99-4.32-5.73-9.05c0,0-0.91-0.33-1.24,0.42c0,0,2.41,0.91,5.48,7.47c0,0-0.25,1.24-0.75,0.83
			C117.62,126.96,114.72,124.14,111.81,120.9L111.81,120.9z"/>
		<path class="st1" d="M117.95,87.87c0.17,0.17-0.42-0.17-0.42,0.17c0,1.49,0.42,3.98,1.99,5.39c0.42,0.33,1.33-0.08,1.66-0.58
			c0.58-0.75,1.16-1.58,0.58-2.82c0.33-0.17-1.41-4.81-1.99-4.81c-0.33,0-0.5,0.33-0.16,1.33c0,0.08,0.91,2.66,0.99,2.99
			c0.33,1,0.25,1.24-0.08,1.99c-0.08,0.17-0.41,0.58-0.75,0.25C118.7,90.78,117.7,89.2,117.95,87.87L117.95,87.87z"/>
		<path class="st1" d="M122.35,92.85c0.16,0.08-0.58,1.49-0.42,1.66c2.32,3.24,6.81,10.21,7.22,9.38c0.5-0.75,0.58-2.49-0.17-3.74
			c0.25-0.17-5.23-9.63-5.73-9.54c-0.25,0-0.58,0.83-0.08,1.66c0.75,1.41,5.15,6.56,4.65,7.88c0,0-0.5,0.42-0.66,0.17
			C126.25,98.91,122.35,94.18,122.35,92.85L122.35,92.85z"/>
		<path class="st1" d="M100.61,83.64c-0.25,0.25,0.83-0.33,0.91,0.08c0.25,1.58-0.08,5.48-1.99,7.72c-0.58,0.66-3.15,1-4.15-0.5
			c-0.75-1.08,1.58-6.64,3.15-8.96c0,0.41,0.83,0.66,0.09,1.74c-0.66,1-2.41,4.9-1.99,6.31c0,0.08,1.66,0.91,2.32-0.17
			C99.78,88.53,100.61,85.96,100.61,83.64L100.61,83.64z"/>
		<path class="st1" d="M107,80.9c-0.17,0.33,1.41-0.5,1.41,0.08c-0.08,1.99,0.75,7.22-1.33,10.12c-0.58,0.91-4.9,2.16-5.89,0.42
			c-0.58-0.91,1-5.48,1.49-8.3c0.08,0.5,1.08-1.08,0.91-0.17c-0.42,2.16-1.33,5.64-0.83,7.3c0,0.17,2.66,0.5,3.4-0.83
			C107,87.87,107.33,83.72,107,80.9L107,80.9z"/>
		<path class="st1" d="M107.25,68.2c-0.08,0.33-0.08-2.07,0.5-1.16c2.07,3.24,4.56,7.8,3.65,10.21c-0.33,0.91-3.48,3.57-4.73,1.91
			c-0.58-0.91-0.99-5.06-1.16-8.3c0.16,0.58,0.25-1.41,0.5-0.42c0.5,1.91,1,5.06,1.74,6.72c0.08,0.08,1.99-0.33,2.41-1.83
			C110.48,73.43,108.66,70.36,107.25,68.2L107.25,68.2z"/>
		<path class="st1" d="M128.91,58.58c0.16,0.25-2.16-1.49-1.25-1.24c3.74,0.75,12.62,3.57,13.61,5.39c0.33,0.66,0.75,4.57-1.25,4.23
			c-1.08-0.17-8.3-3.57-10.62-5.4c0.5,0.25-0.75-1.58,0-1.16c1.58,0.75,8.3,4.31,9.88,4.73c0,0,0.33-1.74-0.42-2.74
			C138.03,61.07,131.4,59.16,128.91,58.58L128.91,58.58z"/>
		<path class="st1" d="M143.18,67.7c0.08,0.33-1.41-2.41,0.25-1.91c3.98,1.08,18.84,16.6,19.25,18.67c0.67,2.57-2.07,4.56-4.15,2.32
			c-4.98-5.39-12.53-13.28-16.02-15.02c0.41,0.42-0.25-1.58,0.33-2.41c0.66-1,15.27,14.86,16.35,15.77c0,0,1.66,0.5,1.33-0.75
			C160.2,82.89,145.42,69.03,143.18,67.7L143.18,67.7z"/>
		<path class="st1" d="M141.69,74.67c0,0.25-0.75-1.58,0.58-1.24c3.15,0.83,13.2,12.03,13.2,13.28c0,2.41-3.4,3.49-4.65,2.49
			c-4.23-3.4-8.05-7.55-10.7-8.88c0.17-1.16-0.25,1.49,0.17-2.07c0.08-0.91,9.96,8.8,10.62,9.38c0,0,3.15,0.67,3.07-1.33
			C153.97,85.38,143.51,75.75,141.69,74.67L141.69,74.67z"/>
		<path class="st1" d="M138.7,82.23c0.08,0.25,0.25-1.41,0.5-1.33c3.15,0.75,8.88,7.88,8.88,9.13c0.08,2.41-3.4,3.49-4.65,2.49
			c-4.15-3.32-4.81-3.82-7.55-5.06c0.5-0.83,0.58-0.67,0.83-1.74c0.08-0.75,6.14,4.65,6.89,5.23c0,0,2.74,0.33,2.65-1.58
			C146.17,88.45,140.36,83.06,138.7,82.23L138.7,82.23z"/>
		<path class="st1" d="M134.55,88.87c0.08,0.25,0.33-1.25,0.83-1.08c3.07,1.25,5.23,5.06,5.31,6.23c0.08,2.41-3.9,3.07-5.06,2.24
			c-4.07-3.24-1.66-1.74-4.4-2.99c0.42-0.83,0.58-0.42,0.83-1.24c0.25-0.75,3.65,2.24,4.32,2.82c0,0,2.16,0.42,2.49-1.33
			C139.03,92.68,136.21,89.78,134.55,88.87L134.55,88.87z"/>
		<path class="st1" d="M148.33,59.65c0.08,0.42,1.49-1.83,1.82-1.66c18.09,11.12,21.16,27.22,27.31,30.87
			c2.66,1.49-7.3,0.25-9.71-1.58c-6.31-4.81-15.19-19.17-24.32-23.49c0.5,0.58-0.83-2.08-0.66-2.08
			c13.11,4.73,22.24,22.33,25.81,24.4c0,0,4.23,1.83,3.57,0.25C169.16,79.24,155.13,61.31,148.33,59.65L148.33,59.65z"/>
		<path class="st1" d="M130.73,65.05c0.17,0.33-0.91-1.24-0.33-1.16c4.4,0.91,9.46,4.15,10.54,5.48c0.41,0.58,0.66,4.57-1.25,4.32
			c-0.83-0.08-5.23-1-7.55-2.9c0.5,0.25-0.17-0.33-0.25-1.74c-0.08-0.5,5.64,3.15,7.05,2.74c0,0,1.08-1.58,0.42-2.49
			C138.45,68.12,133.14,65.8,130.73,65.05L130.73,65.05z"/>
		<path class="st1" d="M132.48,73.35c0.08,0.25-0.17-1.24,0.17-1.16c2.9,0.83,5.31,2.9,5.97,4.23c0.25,0.5-0.16,4.81-1.33,4.15
			c-2.49-1.41-3.07-0.5-5.14-2.41c-0.09-0.75,0.08-0.58,0.08-1.74c0.08-0.41,3.73,2.99,4.65,2.57c0,0,0.75-1.49,0.25-2.41
			C136.62,75.51,134.05,74.09,132.48,73.35L132.48,73.35z"/>
		<path class="st1" d="M128.91,84.22c0.33,0-0.66,0.83-0.5,1.08c1.99,2.07,3.4,2.66,4.81,2.49c0.41,0,3.07-3.73,2.41-4.56
			c-0.25-0.41-1.33-2.16-4.32-2.82c0.08,0.25-0.58,1.91-0.33,1.33c0.08-0.17,2.65,0.5,2.99,2.07c0,0-0.58,2.16-1.41,2.24
			C131.48,86.21,130.32,85.22,128.91,84.22L128.91,84.22z"/>
		<path class="st1" d="M124.92,89.7c0.25-0.08-0.42,0.66-0.33,0.83c1.83,1.99,2.32,3.24,3.65,2.99c0.25-0.08,3.48-3.24,2.99-4.15
			c-0.08-0.25-0.66-1.58-3.4-3.15c0.08,0.25-0.83,1.83-0.66,1.25c0-0.08,2.49,0.58,2.9,2.07c0,0-1.33,2.16-2.07,2.32
			C127,92.02,126.33,90.69,124.92,89.7L124.92,89.7z"/>
		<path class="st1" d="M113.72,77.25c-0.16,0.33,0.66-1,1-0.08c1.49,3.49,0.83,8.13-0.25,10.71c-0.5,1.08-3.4,3.98-4.56,1.24
			c-0.42-0.91-0.5-5.98-0.08-9.13c0.08,0.5,1-1.08,1-0.17c0.17,1.83-0.08,8.71,0.67,8.47c0.5-0.17,1.74-0.5,2.32-2.32
			C114.38,84.14,114.13,80.07,113.72,77.25L113.72,77.25z"/>
		<path class="st1" d="M138.29,117.42c0.58,0.08-0.08,1.41,0.33,1.74c4.15,2.99,19.59,14.44,23.16,15.27
			c1.5,0.33,8.96-1.99,6.14-3.98c-0.91-0.75-25.73-16.02-29.71-17.84c0.66,0.5-0.08,1.08,0.58,1.49
			c1.66,1.16,28.3,16.93,27.63,17.26c-0.5,0.25-2.74,1.99-4.9,1.25C159.11,131.77,141.11,119.74,138.29,117.42L138.29,117.42z"/>
		<path class="st1" d="M137.45,122.06c0.5,0.08-0.83,0.75-0.33,1.16c3.24,2.74,14.52,12.53,17.43,13.36
			c0.99,0.25,6.81,0.41,4.98-1.49c-0.66-0.66-2.74-0.91-1.08-0.58c0.42,0.08-2.66,1.08-4.32,0.33
			C152.14,134.1,139.7,124.22,137.45,122.06L137.45,122.06z"/>
		<path class="st1" d="M135.55,124.97c0.33,0.08-1.66,0.08-0.5,1.08c2.49,1.99,11.7,11.04,13.78,11.62
			c0.67,0.16,5.23,0.25,4.57-0.33c-0.41-0.41-1.33-0.66-1.49-0.83c0,0-1.66,0.33-2.82-0.08
			C147.75,135.84,137.21,126.63,135.55,124.97L135.55,124.97z"/>
		<path class="st1" d="M138.29,120.32c0.33,0.08-1,0.5,0.08,1.33c2.32,1.91,16.76,12.03,16.68,11.87c-0.17-0.41,1.91,0,1.49-0.16
			C155.38,132.85,139.94,122.06,138.29,120.32L138.29,120.32z"/>
		<path class="st1" d="M136.54,123.64c0.25,0.08-0.83,0.16-0.25,0.91c1.49,1.99,12.61,11.12,13.03,10.79
			c0.25-0.17,1.58,0.08,1.24-0.08C149.65,134.84,137.79,125.22,136.54,123.64L136.54,123.64z"/>
		<path class="st1" d="M136.46,128.7c0.17,0.08,0.08,1.25,0.42,1.66c3.4,4.56,7.55,7.22,7.97,7.39c2.07,0.58,1.99-0.25,1.83-0.42
			C143.85,135.67,145.09,137.17,136.46,128.7L136.46,128.7z"/>
		<path class="st1" d="M138.2,114.93c0.33,0.08-1,0.42,0.66,1.91c1.91,1.83,22.57,14.69,22.57,14.61c-0.08-0.42,1.91-0.5,1.58-0.67
			C162.02,130.44,139.86,116.67,138.2,114.93L138.2,114.93z"/>
		<path class="st1" d="M108.74,65.3c0,0.33-1.16-2.08,0.08-1.08c2.9,2.16,7.47,6.39,7.38,9.13c-0.08,1.24-3.49,3.9-3.65,2.82
			c-0.25-1.24-0.17-0.91-0.08-1.41c0,0,1.91-0.75,1.91-2.24C114.3,70.77,110.73,66.96,108.74,65.3L108.74,65.3z"/>
		<path class="st1" d="M94.97,83.97c0.08,0.17,0-1-0.75-0.25c-1.83,1.83-3.65,4.48-2.99,6.14c0.58,1.41,3.57,1.91,3.49,1.08
			c-0.08-0.75-0.08-0.58-0.25-0.83c0,0-1.74-0.25-1.99-1.08C92.06,87.95,93.8,85.3,94.97,83.97L94.97,83.97z"/>
		<path class="st1" d="M122.18,132.19c0.25,0-1.16,0.5-0.5,1.24c1.16,1.33,2.66,3.24,3.82,4.23c0.66,0.5,1.99-0.66,1.91-1
			c-0.08-0.58-0.25-0.75-0.58-0.83c0,0-1.16,0.58-1.58,0.16C124.84,135.34,123.1,133.6,122.18,132.19L122.18,132.19z"/>
		<path class="st1" d="M115.79,76c-0.25,0.33,0.25-2.32,0.75-0.83c0.99,3.49,2.74,9.88,0.42,11.79c-0.83,0.66-1.5,1.08-1.25,0.41
			c0.42-0.91,0.25-1.49,0.33-1.58c0,0-0.33,0.25,0.33-0.66C117.37,83.8,116.29,78.58,115.79,76L115.79,76z"/>
		<path class="st1" d="M116.21,69.12c-0.08-0.17,0.08,0.83-0.17,1.08c-0.25,0.25-0.91-0.08-1.25-1.08
			c-2.99-11.7-15.02-8.47-15.02-11.2c0-2.74-0.17-4.32,0.66-5.98c0.25-0.66,2.41-0.83,4.07-1c2.16-0.17,0.08,1.66-0.25,1.49
			c-0.58-0.33-2.32-0.25-2.57,0.58c-0.33,1.41-0.91,2.9-0.25,4.07C102.19,58.24,113.06,56.42,116.21,69.12L116.21,69.12z"/>
		<path class="st1" d="M123.51,65.55c0.99-0.17,2.16,7.22,2.07,9.71c-0.08,0.75-3.9,7.3-6.06,8.38c-0.08,0-0.16-2.66,0-2.74
			c1.91-0.83,3.9-4.65,3.9-5.89c-0.08-5.15-0.75-5.81-2.07-9.13c-4.07-10.71-13.69-9.46-14.61-11.45c-1.24-2.82-0.08-4.32,0.67-5.98
			c0.33-0.58,19.67-3.9,37.01,6.06c0.91,0.5,3.57,1.41,5.89,1.25c0.58,0-3.49,3.4-6.06,4.07c-0.83,0.17-3.65,1.33-5.98-0.33
			c0,0-0.66-1.91-0.58-2.41c0.17-0.58,2.49,0.25,1.91,0c-0.33-0.08-0.08,1.41,0.33,1.41c1.41,0.08,4.81-0.83,4.81-0.83
			c-12.53-9.63-35.6-8.71-35.77-8.05c-0.58,1.66-1.16,2.9-0.16,3.82C109.74,54.34,120.28,53.93,123.51,65.55L123.51,65.55z"/>
		<path class="st1" d="M90.4,72.93c0.08-0.25,0.17,0.91,0.91,0.75c2.32-0.83,5.14-2.32,3.24-4.15c-0.16-0.08-2.24-0.33-2.57,0
			c-1,1.08-4.4,2.41-6.89,3.9c0.25-0.17-1.74,0.91,0.08,0.75c2.49-0.25,8.46-5.06,8.38-3.4C93.47,71.6,92.56,71.6,90.4,72.93
			L90.4,72.93z"/>
		<path class="st1" d="M114.13,61.73h1.41l0.5,1c-0.5,0-0.91,0.08-1.49,0L114.13,61.73L114.13,61.73z"/>
		<path class="st1" d="M116.21,53.84l2.32-0.08l1.41,0.91c-0.83,0-1.33,0.08-2.32,0L116.21,53.84L116.21,53.84z"/>
		<path class="st1" d="M116.62,67.46l1.41,0.08l0.41,1.74c-0.41,0.08-1,0.08-1.49-0.08L116.62,67.46L116.62,67.46z"/>
		<path class="st1" d="M117.7,75.09l1.25-0.25l0.25,0.99c-0.42,0-0.25,0.75-0.83,0.58L117.7,75.09L117.7,75.09z"/>
		<path class="st1" d="M121.85,83.47c1.58,0.75,2.74,1.83,3.82,2.99c-0.08,0.83-0.91,1.91-1.91,2.74c-0.33-0.5-0.58-1.24-0.91-1.74
			c0.25-0.42,0.67-0.42,1-0.67c-0.58-1.08-1.58-1.74-2.74-2.49C121.35,84.05,121.61,83.8,121.85,83.47L121.85,83.47z"/>
		<path class="st1" d="M130.32,93.93c1.74,0.58,3.24,2.41,4.15,3.65c0,0.83-0.91,1.49-1.91,2.32c-2.49,3.98-1.58,0.83-1.58-0.25
			c0.25-0.5,1.16-2.07,1.49-2.32c-0.58-1-1.83-1.74-2.9-2.49C129.82,94.51,130.07,94.18,130.32,93.93L130.32,93.93z"/>
		<path class="st1" d="M125.26,78.99c1.25,0.75,2.49,1.41,3.82,1.91c0.25,0,0.5,0,0.66-0.08c-0.91,1.91-2.07,3.24-3.48,4.65
			c-1.25-0.91-2.32-1.66-3.49-2.74c0.25-0.33,0.33-0.66,0.66-1c0.58,0.91,1.74,1.58,2.65,2.07c0.42-0.58,0.75-1.24,1.16-1.82
			c-1.16-0.58-1.83-1.49-2.57-2.16C125.01,79.49,124.92,79.32,125.26,78.99L125.26,78.99z"/>
		<path class="st1" d="M126.42,72.1c1.49,0.17,2.49,1.24,3.9,1c0.17-0.17,0.33-0.41,0.41-0.66c0.25,2.66,0.25,5.97-0.41,6.64
			c-1.58,0.17-2.74-0.17-4.23-0.91c0.08-0.58,0.42-1.41,0.5-1.91c1,0.58,1.58,0.83,2.66,0.83c0.08-0.83,0-1.83,0.17-2.66
			c-1.33,0-1.91-0.66-2.9-0.91C126.67,72.93,126.33,72.68,126.42,72.1L126.42,72.1z"/>
		<path class="st1" d="M124.76,64.22c1.41,0.17,2.41,0.83,3.74,0.33c0.17-0.17,0.17-0.33,0.33-0.58c0.75,2.57,1.74,5.81,1.74,7.55
			c-1.58,0.5-3.15-0.42-4.9-0.83c0-0.58,0.25-1.41,0.16-1.91c1.08,0.33,1.75,0.5,2.82,0.25c-0.17-0.83-0.33-2.32-0.42-3.15
			c-1.25,0.33-1.99-0.25-2.99-0.33C125.26,64.97,124.76,64.8,124.76,64.22L124.76,64.22z"/>
		<path class="st1" d="M110.65,51.44c1.25-0.75,5.98-0.25,7.39-0.33c0-0.33,0.91,0.08,1.24-0.5c2.24,1.49,4.9,4.56,6.06,5.89
			c-0.83,1.58-2.82,0.25-4.56,0.58c-0.66-0.91-0.66-0.75-1-1.16c1.08-0.41,1.99,0.25,2.9-0.16c-0.83-0.5-2.74-2.24-2.99-3.07
			c-0.91-0.17-6.72-0.41-7.72-0.17C111.56,52.02,111.07,51.94,110.65,51.44L110.65,51.44z"/>
		<path class="st1" d="M121.85,58.16c1.41-0.25,2.07,0.08,3.65-0.17c0.08-0.17,0.25-0.5,0.33-0.66c1.58,1.83,2.33,4.15,2.33,5.48
			c-1.41,0.5-2.24,0.08-3.9-0.08c-0.16-0.41-0.33-1-0.5-1.41c1.16,0.17,1.83,0.17,2.74-0.17c-0.25-0.58-0.58-1.33-0.83-1.91
			c-1.08,0.08-1.74,0.08-2.74,0.17C122.77,58.99,121.94,58.58,121.85,58.16L121.85,58.16z"/>
		<path class="st1" d="M81.93,86.79c-0.16,0.17,0.42-0.58-0.08-1.66c-0.08-0.08-0.5,1.16-1.08,1.58c-3.07,3.9-9.05,5.15-11.7,11.29
			c-1.91,4.48-1.99,9.46,0.17,14.02c2.49,5.4,13.11,3.15,18.51,3.15c1.58,0.08,0.58,2.66,0.58,3.57c0.5-0.25,1.33-1.82,1.41-1.91
			c1.08-2.74-0.75-3.57-1.41-3.48c-9.3,1.16-14.69,0.75-16.93-2.91c-3.24-5.39-2.16-8.96-0.25-11.7
			C75.71,92.35,77.04,93.85,81.93,86.79L81.93,86.79z"/>
		<path class="st1" d="M175.47,91.11c0.25,1.83,1.41,4.57,2.24,6.89c0.42,1,0.91,2.66,0.83,3.32c-1.41,11.04-0.08,29.79-2.57,31.37
			c0-0.58-0.25-1.24-0.25-1.82c0.33-8.96-3.4-17.43-4.15-26.06c-0.08-0.66-0.25-1.83-0.58-2.32c-1.66-2.99-5.15-2.82-7.47-13.86
			c0.42,0,1-1.25,1.16-1c0.66,0.91,1,0,1.08,1.08c0.66,8.22,4.73,8.96,6.81,12.37c0.25,0.41,0.99,1.58,0.91,2.9
			c-0.25,2.99,2.08,13.44,2.24,15.52c0.08,1,0.83,1.66,0.83,0.58c-0.33-6.72-0.08-11.78-0.25-17.18c0-0.33,0.08-1.41,0.08-1.91
			c0-1.99-1.24-3.9-3.07-10.29L175.47,91.11L175.47,91.11z"/>
		<path class="st1" d="M169.9,103.72c1.66,11.2,2.82,13.69,1.66,24.9c-0.16-0.42-0.58-0.91-0.58-1.66
			c-0.17-7.89-4.81-14.03-6.22-22.33c-0.08-0.33,0.25-1.99-1-3.48c-1.91-2.57-3.82-2.91-8.55-10.96c0.58-0.41,1.99-2.99,2.24-0.66
			c0.91,5.98,5.89,7.55,8.13,10.62c0.25,0.25,0.41,2.41,0.5,3.57c0.33,2.9,2.82,9.71,3.07,11.7c0.08,0.83,1,1.25,0.83,0.17
			c0.17-6.81-1.16-8.47-2.41-13.61C167.33,100.73,169.82,102.89,169.9,103.72L169.9,103.72z"/>
		<path class="st1" d="M162.44,101.98c2.07,8.3,4.32,12.45,3.65,23.65c-0.16-0.42-0.58,0.33-0.75-1.58
			c-0.41-6.56-5.14-10.37-6.89-20.33c-0.25-1.16-0.91-0.66-1.66-1.58c-2.99-3.98-3.48-1.41-8.46-9.3c0.5-0.41,0.25-2.82,1.49-1
			c3.98,5.98,5.4,5.31,7.64,8.22c0.17,0.17,1,0.58,1.66,1.41c2.16,2.74,1.91,8.55,3.98,11.95c0.41,0.66,1.08,1.24,0.91,0.17
			c-0.91-6.89-1.83-5.64-3.24-12.61C160.53,99.91,162.35,101.32,162.44,101.98L162.44,101.98z"/>
		<path class="st1" d="M155.88,102.56c1.99,5.97,2.08,5.97,2.99,14.27c-1.16-0.33-1.24-0.5-1.33-1.08
			c-1.24-5.73-2.91-6.14-4.98-10.46c-0.16-0.25-1.91-1.66-2.41-1.99c-2.99-1.99-3.98-1.08-8.63-6.22c0.25-0.33,0.5-2.9,1.33-1.58
			c2.24,3.98,2.57,2.91,4.73,4.48c0.17,0,2.32,0.66,2.9,1c2.24,0.91,4.73,5.48,5.48,7.88c0,0,1.08,0.42,0.5-1.08
			c-1.99-4.81-0.17-2.32-2.74-6.56C153.39,100.73,155.8,102.15,155.88,102.56L155.88,102.56z"/>
		<path class="st1" d="M148.16,103.31c2.49,4.23,2.65,4.07,4.48,10.37c-0.91-0.08-1-0.33-1.16-0.58c-3.24-4.15-3.9-4.07-5.81-7.3
			c-0.08-0.17-1.24-1.25-1.66-1.41c-2.57-1.16-4.73-0.83-9.05-4.15c0.25-0.33,0.99-2.16,1.74-1.24c2.24,2.82,3.24,1.99,5.06,2.9
			c0.08,0,1.08,0.17,1.49,0.25c2.24,0.5,4.4,4.48,5.81,5.97c0,0,0.83,0.08,0.25-1c-2.24-3.49-0.17-0.66-2.66-3.57
			C146.33,103.22,148,103.06,148.16,103.31L148.16,103.31z"/>
		<path class="st1" d="M170.82,91.27c0.5,1.66,1.91,4.81,1.91,5.98c-1.33-0.17-4.81-5.15-5.23-8.05
			C167.25,89.2,170.82,90.11,170.82,91.27L170.82,91.27z"/>
		<path class="st1" d="M161.36,89.2c0.5,1.66,1.33,5.06,2.99,7.88c-1.25-0.08-4.9-5.48-5.31-8.38
			C158.78,88.7,161.02,88.87,161.36,89.2L161.36,89.2z"/>
		<path class="st1" d="M153.89,90.86c0.75,1.49,2.41,4.15,3.82,7.14c-2.07-0.58-4.56-4.4-5.89-6.89
			C151.56,91.11,153.56,90.61,153.89,90.86L153.89,90.86z"/>
		<path class="st1" d="M146.58,94.1c0.25,1.33,1.58,2.74,3.9,5.14c-1.66-0.17-4.98-2.99-5.98-5.06
			C144.68,94.1,146.25,93.85,146.58,94.1L146.58,94.1z"/>
		<path class="st1" d="M139.7,97.5c0.16,0.75,0.83,1.49,2.16,2.82c-0.99-0.17-3.24-1.16-3.73-2.32
			C138.12,97.91,139.53,97.42,139.7,97.5L139.7,97.5z"/>
		<path class="st1" d="M109.32,121.57c0,2.41,0.5,3.4,0.58,3.74c0.83,2.32,0.99,3.32,2.24,5.06c0.5,0.58,0.75,0.66,1.91,0.66
			c0.83-0.08,0.5-2.82,0.58-4.31c-0.25-0.08-0.5-0.42-0.91-0.58c-0.16,0.41,0.33,2.49-0.25,3.4c-0.08-0.08-0.25,0-0.33,0
			c-1.08-0.58-1.33-1.74-1.58-1.99c-0.75-1.41-1.16-2.99-1.41-4.57C110.07,122.98,109.16,121.57,109.32,121.57L109.32,121.57z"/>
		<path class="st1" d="M102.77,127.21c-1.49-0.17-4.4-0.58-5.06-0.58c-1.49-0.08-1.99-0.08-3.07,0.5c-0.41,0.25-1.25,0.75-0.17,1.33
			c0.25,0.66,4.32,0.5,6.06,1.08c0-0.17-0.08-0.41,0.08-0.66c-0.17-0.25-3.57-0.83-4.23-0.91c-0.08,0-0.5,0.08-0.41-0.5
			c0.08-0.17,0.41-0.25,0.58-0.33c0.91,0,3.57,0.17,5.14,0.91C101.69,127.96,102.77,127.13,102.77,127.21L102.77,127.21z"/>
		<path class="st1" d="M102.85,121.9c-0.66-0.08-1.99,0-2.16,0.08c-1.24,0.58-0.66,0-1.41,0.58c-0.33,0.25-0.91,0.58-0.83,2.32
			c0.25,1.08,3.4,0.75,5.15,1.66c0-0.25,0.33-0.25,0.5-0.66c-0.17-0.33-3.4-1-4.07-1.25c-0.33-0.58-0.17-0.16-0.08-0.99
			c0-0.17,0.25-0.42,0.41-0.58c0.91,0,0.83-0.16,2.74-0.16C103.1,122.81,102.93,121.73,102.85,121.9L102.85,121.9z"/>
		<path class="st1" d="M102.19,120.65c-0.5-0.17-2.66-1.16-2.66-1.16c-0.66-0.58-0.5-0.33-0.75-0.83c-0.08-0.25-0.99-1.74-0.83-2.16
			c0.99-0.75,1.66,0.58,3.07,0.58c-0.08,0.08,0.16,0.41,0.08,0.75c-0.17,0.17-0.5-0.08-0.99-0.17c-1.08-0.25-0.67-0.17-0.41,0.66
			c0.08,0,0.5,0.41,0.58,0.58c0.5,0.33,0.58,0.25,1.74,0.83C102.02,119.82,102.1,120.74,102.19,120.65L102.19,120.65z"/>
		<path class="st1" d="M108.57,124.88c-0.91,0.08-2.32,1.08-2.49,1.16c-1.99,1.41-2.74,1.82-3.98,3.49
			c-0.42,0.58-0.75,2.16,0.33,2.24c0.25,0.75,6.06-1.16,7.47-1.49c0-0.25-0.25-0.58-0.42-1.08c-0.5,0-4.81,1.66-5.64,1.41
			c0-0.17-0.25-0.58-0.16-0.66c0.16-1.16,0.91-1.41,1.08-1.66c1.16-1,2.32-1.58,3.82-2.32
			C108.57,125.88,108.74,124.55,108.57,124.88L108.57,124.88z"/>
		<path class="st1" d="M102.1,116c0,1.74,1.16,4.07,1.25,4.32c0.83,1.58,1.24,1.99,2.41,3.24c0.5,0.5,0.83,0.58,1.99,0.58
			c0.75-0.08,0.25-2.41,0.25-3.49c-0.25-0.08-0.5-0.42-1-0.58c-0.17,0.25,0.17,1.33,0.08,2.57c-0.17-0.08,0.25,0.58-0.58,0.17
			c-0.91-0.42-1.16-1.08-1.33-1.25c-0.75-1-1.33-3.07-1.58-4.23C103.51,117.33,101.93,116,102.1,116L102.1,116z"/>
		<path class="st1" d="M112.64,127.04c-0.25-0.66-0.25-1.58-0.25-2.24c-0.33-0.25-0.66-0.67-0.91-0.91v1.16c0,0,0.16,0.91,0.33,0.91
			C111.9,126.3,112.56,127.13,112.64,127.04L112.64,127.04z"/>
		<path class="st1" d="M105.5,129.37c0.66-0.33,2.99-1.08,3.73-1.16c-0.08-0.5-0.08-0.5-0.16-0.83c-0.66-0.08-1.16,0-1.74,0.42
			c0,0-0.83,0.41-0.83,0.58C106.17,128.45,105.42,129.28,105.5,129.37L105.5,129.37z"/>
		<path class="st1" d="M105.26,124.97c-3.4,0.42-3.24-0.91-3.9-0.99c0-0.33-0.17-0.17-0.08-0.5c0.66-0.08,1.58,0.5,2.16,0.5
			c0,0,0,0.33,1.74,0.66C105.59,124.72,105.34,124.88,105.26,124.97L105.26,124.97z"/>
		<path class="st1" d="M85.25,121.32c-0.25-1-0.17-1.33-0.17-1.99c0.08-1.33,1.99-2.74,2.32-2.65c0.17,0.41-0.42,1.24-0.08,2.74
			c0.08,0.5,1.08,0.5,0.66,1.41C86.75,121.98,85.34,121.98,85.25,121.32L85.25,121.32z"/>
		<path class="st1" d="M85.42,127.79c0.67,0.33,0.83,0.5,1.33,0.58c0.91,0.16,1.83-0.75,1.83-1c-0.25-0.25-1.49,0.08-1.91-0.58
			c-0.17-0.16-1.08-0.25-1.74-0.08C83.84,127.37,85,127.62,85.42,127.79L85.42,127.79z"/>
		<path class="st1" d="M83.43,128.62c0.41,0.33,0.58,0.41,0.91,0.58c0.66,0.16,1.33-0.5,1.41-0.67c-0.25-0.16-1.16,0-1.41-0.5
			c-0.08-0.17-0.75-0.25-1.25-0.25C82.27,128.2,83.1,128.45,83.43,128.62L83.43,128.62z"/>
		<path class="st1" d="M81.35,129.53c0.41,0.33,0.5,0.33,0.75,0.5c0.58,0.17,1.16-0.42,1.24-0.58c-0.17-0.08-1,0-1.16-0.42
			c-0.08-0.16-0.66-0.25-1.08-0.16C80.36,129.2,81.1,129.45,81.35,129.53L81.35,129.53z"/>
		<path class="st1" d="M82.93,125.22c-1.33-1.99,0.66-2.74-1.58-5.73c0-1.16,0.25-1,0.58-1.41c0.5-0.42,2.16-0.5,2.74-1.08
			c-0.41,0.83-2.16,3.32,0.5,6.06c0.08,0.08-0.08,1.08,0.17,3.07c-0.5-0.17-0.75,0.08-1.08-0.08
			C83.68,125.88,83.1,125.38,82.93,125.22L82.93,125.22z"/>
		<path class="st1" d="M83.18,127.46c-0.08-0.17,0-0.67-0.08-0.75c-1.08-0.83-2.32-1.99-1.66-5.23c-0.67-0.99-0.58-1.58-0.91-1.74
			c-0.58-0.25-1.33,1.33-1.33,1.82c0.75,0.58,1,1.49,1.25,3.98c0,0,0.25,0.58,1.24,1.91C82.18,127.71,82.68,127.37,83.18,127.46
			L83.18,127.46z"/>
		<path class="st1" d="M80.77,128.45c-0.08-0.17,0.17-0.5-0.17-1.08c-0.5-0.83-1.08-1.33-1.16-3.65c-0.5-0.83-0.66-1.24-0.91-1.33
			c-0.5-0.25-0.83,1.08-0.83,1.5c0.58,0.5,2.99,3.4,1,3.07c-0.58-0.08,0.75,0.83,1.16,1.24C80.36,128.45,80.36,128.45,80.77,128.45
			L80.77,128.45z"/>
		<path class="st1" d="M106.09,120.57c-0.25-0.5-0.33-1.08-0.33-1.66c-0.25-0.16-0.58-0.5-0.91-0.58v0.83c0,0,0.16,0.58,0.33,0.58
			C105.26,120.07,105.92,120.65,106.09,120.57L106.09,120.57z"/>
		<path class="st1" d="M95.63,118.91c0.66,0.42,1.08,0.5,1.08,1.75c-0.5,1.58-2.57,2.49-4.98,5.15c-0.33,0.41-1.08,0.08-1.33,0.08
			c-0.91-0.58-1.99-0.67-2.24-1.74c0-0.08,0.17-0.33,0.17-0.42c0.91-0.67,1.91,0.25,2.82,0.25l-0.17-1.41
			c-0.17-0.5-1.16-0.75-2.16-0.83c-0.67,0.25-1.83,0.91-2.32,1.66c-0.42,0.58,0,1.99,0.33,1.99c0.5,0.66,2.57,2.07,3.73,2.32
			c0.41,0,1.33,0.5,2.57-0.66c0.58-1.66,4.32-2.66,4.98-6.06c0.17-0.75,0-1-0.08-1.83c-0.25-0.5-1.33-1.41-1.83-1.49L95.63,118.91
			L95.63,118.91z"/>
		<path class="st1" d="M60.36,96.67c2.66,0.91,4.9,3.65,5.06,4.65c0.83,3.65-2.16,7.39-0.99,10.21c1.24,3.07,4.48,2.08,7.3,5.89
			c2.66,3.4-0.25,4.73,4.82,7.06c0.25,0.33,0.58,0.83,0.83,1.33c-4.56,0-5.39-2.99-6.47-7.22c-1.16-3.49-5.73-2.41-7.88-6.56
			c-0.41-4.07,1.66-6.31,1.41-9.63c0.17-2.32-4.07-4.73-4.82-4.81C59.2,97.58,60.27,97,60.36,96.67L60.36,96.67z"/>
		<path class="st1" d="M58.37,98.91c2.66,0.91,3.32,2.74,3.57,3.57c0.99,3.57-2.66,7.06-1.66,9.79c1.16,2.99,3.9,3.57,8.05,6.97
			c3.24,2.66-0.58,11.45,10.37,9.54c0.33,0.42,1.16,1.08,1.41,1.58c-10.54,3.49-11.45-5.73-12.62-9.96
			c-2.99-2.74-6.31-2.82-8.55-6.97c-1.08-5.81,2.16-6.47,1.91-9.79c0.17-2.24-1.66-3.65-2.41-3.65
			C58.03,99.99,58.28,99.16,58.37,98.91L58.37,98.91z"/>
		<path class="st1" d="M59.11,96c-0.91,1.08-2.24,1.91-1.74,4.23c0.08,0.08,0.41,1.08,0.41,1.24c-0.41,0-1.41-0.25-1.91-0.41
			c-0.08-2.41-1.08-3.24,1.41-5.48C58.28,95.26,58.61,95.67,59.11,96L59.11,96z"/>
		<path class="st1" d="M56.29,95.09c-0.83,1.08-2.24,1.91-1.66,4.23c0,0.08,0.41,1.08,0.41,1.33c-0.5,0-1.41-0.33-1.91-0.5
			c-0.08-2.41-1.16-3.24,1.33-5.48C55.46,94.34,55.79,94.84,56.29,95.09L56.29,95.09z"/>
		<path class="st1" d="M53.47,94.51c-0.92,1.08-2.32,1.91-1.74,4.15c0,0.08,0.41,1.08,0.41,1.33c-0.58,0.5-1.41-0.25-1.91-0.5
			c-0.58-1.58-1.41-2.16-1.24-3.15c0.08-0.58,1.66-1.41,2.65-2.32C52.56,93.76,52.97,94.18,53.47,94.51L53.47,94.51z"/>
		<path class="st1" d="M123.1,139.32c-0.66,0.08-1.74,0.08-2.41,0.58c0-0.09-0.58,4.56,0.58,4.15c0.5-0.16,1,0.08,1.33-0.5
			c0.42,0,0.42-2.65,0.91-2.65c0-0.25,1.66-0.33,2.24-0.33c1,0,2.08-0.91,2.08-0.66c0.25,0,0.91,0,1.33,0.16
			c-1.16,0.83-2.99,3.4-4.23,3.4c-0.33,0-1.49,0.83-1.49,1.16c0,1,0.91,2.32,1.66,3.24c0.58,0.25,2.24,0.33,3.24-1.74
			c0.83-0.33,3.57-4.07,4.32-4.07c0.25-0.41,1.33-0.5,2.24-0.25c1.74,0.25,1.58,1.5,2.07,1.58c0,0.75,0.5,1.58,2.82,1.82
			c3.9-0.5,3.9,0.42,5.06-2.24c1.58-1.82,0.83-1.74,0.5-2.65c-0.58-0.67-1.33-1.25-2.24-1.5c-3.15,0.25-4.4-0.5-5.06-2.16
			c0,0-0.91-0.08-1.58-0.08c0.91,1.5,1.41,2.33,2.99,2.82c0.41,0.41,2.41,0.17,2.66,1.25c-0.5,1.82-1.33,2.07-1.5,2.07
			c-1.58,0.08-1.74-1.25-2.24-1.66c-0.42-0.41-3.32-2.41-3.4-2.82c0,0-0.83,1.66-2.32,1.49c-0.75,0-4.65,4.65-5.56,5.39
			c-1-0.08-1.49-0.41-0.92-0.75c0.67-0.67,3.74-3.73,4.15-4.15c0.17-0.58,0.08-0.83-0.08-1.16c-0.17-0.33-0.5-0.5-1-0.5
			C127.25,138.58,123.76,139.99,123.1,139.32L123.1,139.32z"/>
		<path class="st1" d="M119.45,140.24c-0.17,1.24,0,2.65,0.33,4.07c-0.58,0-1.24-0.08-1.91,0.08c-0.75,0.25-1.57,1.33-0.66,2.32
			l-0.33-0.25c-1.49-0.41-2.49-2.41-0.91-4.56C116.38,141.15,118.87,140.07,119.45,140.24L119.45,140.24z"/>
		<path class="st1" d="M122.6,145.47c0.42,1.25,1,2.08,1.91,3.07c-0.99,0.66-2.32,3.07-0.16,3.57c-0.08,0-1.16,0.16-1.16,0.16
			c-1.5,0.33-3.32-1.08-2.99-3.57C120.28,147.96,122.02,145.63,122.6,145.47L122.6,145.47z"/>
		<path class="st1" d="M146.75,142.15c-1,0.91-1.41,1.5-1.74,2.82c0.99,0.58,2.32,3.15,0.25,3.65c0.08,0,1.16,0.16,1.16,0.16
			c1.49,0.33,3.24-1.16,2.99-3.57C149.32,144.47,147.33,142.31,146.75,142.15L146.75,142.15z"/>
		<path class="st1" d="M157.62,141.81v-2.32l-1.83,1.74l-0.58,1.08l-2.32,1.58l-0.91-2.08l-0.25,2.74c0,1.16-1.08,3.4-1.33,4.07
			c-1.08,2.49-3.49,2.41-5.15,1.82l-0.08,1.08c7.55,1.66,5.06-4.15,8.55-6.39c0,0,0.33-0.5,0.5-0.66c1.74-1.25,4.9-1.58,6.06-1
			c0.33,0.25,0.58-0.99,0.83-0.99C161.11,141.98,158.2,141.65,157.62,141.81L157.62,141.81z"/>
		<path class="st1" d="M165.26,150.28l2.57,0.25c-1.16,0.5-2.24,0.58-3.4,1.08c-1.33,0.83-1.33,1.5-4.23,2.65l1.99,1.66
			c-1.24-0.25-3.07-0.58-3.82-0.67c-1.66,1.91-9.54,0.5-9.46,0.75v2.41c0,0.42-1.24-2.41-2.82-2.9c-1.5-0.58-3.82-0.75-3.98-0.25
			l1.16-1.66c6.06,0.41,8.88,2.24,15.27-0.17c2.82-1.08,5.31-3.65,5.31-4.9c0.08-0.25,1-0.17,1.41-0.5
			C165.84,148.29,165.84,149.78,165.26,150.28L165.26,150.28z"/>
		<path class="st1" d="M154.88,151.44c-1.16,0-2.41-0.42-3.15-0.17c-1.33,1.41,0.58,1.91,1.16,1.5L154.88,151.44L154.88,151.44z"/>
		<path class="st1" d="M155.55,146.13c-0.75,0.91-1.91,1.49-2.24,2.16c0.17,1.99,1.82,0.91,1.91,0.25L155.55,146.13L155.55,146.13z"
			/>
		<path class="st1" d="M159.45,146.79c-0.91,0.83-2.07,1.33-2.41,1.91c-0.08,1.91,1.66,1,1.82,0.42L159.45,146.79L159.45,146.79z"/>
		<path class="st1" d="M159.45,151.11c-1,0-1.99-0.33-2.57-0.17c-1.16,1.17,0.41,1.58,0.91,1.25L159.45,151.11L159.45,151.11z"/>
		<path class="st1" d="M57.54,137.25c-1,0.17-1.33-0.41-2.24-0.41c0.5,1.91,1.16,2.41,2.57,1.99c1.08,1.16,1,1.83,3.57,3.57
			c-0.75,0.41-1.58,0.83-2.32,1.16c1.08,0.75,2.99,0.83,3.82,0.25c0.42,0.75,1.74,1.41,3.07,1.74c0.66,0.25-1.83,1.99-1.49,2.07
			c1.58,0.17,2.57-0.25,3.24-1.58c0.25,0,5.15,0.67,5.15,0.67c0.25-0.5,0-0.67,0.25-1.66c-6.14-1-4.48,0.58-9.88-3.07
			c-2.32-1.49-3.82-4.57-3.82-5.64c0-1.16,3.65-4.73,4.65-4.9c1.49-0.42,2.74,0.66,4.89,2.07c1.91,1.24,4.07,5.73,4.65,7.97
			l1.33-0.99c-0.5-1.82-0.58-2.57-0.83-3.15c-0.33-0.58,1.41-1.74,0.5-4.31c-0.58,0.75-1.08,1.41-1.66,2.16
			c-1.16-1.74-3.24-3.48-6.06-5.15c0.17-1.33-0.67-2.41-2.57-3.49l0.25,3.24C61.35,129.53,56.54,136.59,57.54,137.25L57.54,137.25z"
			/>
		<path class="st1" d="M68.66,141.15c1.16,0.33,2.41,0.17,3.07,0.58c1,1.66-1,1.74-1.49,1.24L68.66,141.15L68.66,141.15z"/>
		<path class="st1" d="M68.9,135.34c0.58,1.08,1.58,1.91,1.66,2.66c-0.58,1.91-1.91,0.41-1.91-0.25L68.9,135.34L68.9,135.34z"/>
		<path class="st1" d="M64.84,133.93c0.58,0.91,1.66,1.74,1.82,2.41c-0.33,1.82-1.82,0.58-1.82-0.08V133.93L64.84,133.93z"/>
		<path class="st1" d="M63.68,138.58c0.91,0.42,1.99,0.58,2.41,1c0.5,1.49-1.08,1.16-1.33,0.75L63.68,138.58L63.68,138.58z"/>
		<path class="st1" d="M99.36,155.26c-0.75,0.91-0.42,0.67-1.41,1.16c1.24,0.25,2.32,0,3.57-1c1.66,0.25,4.07,0.17,5.31,0.42
			c0.17,0.91-0.17,0.99-0.58,1.91c1.49-0.16,2.65-0.67,2.99-1.74c0.91,0.42,3.07,0.17,4.48-0.5c0.75-0.33,0.08,2.16,0.25,1.99
			c1.41-0.99,2.24-1.16,1.91-2.91c0.17-0.08,2.49-0.58,2.49-0.58c-0.08-0.58,0.33-1.16-0.08-2.24c-6.31,2.99-8.8,2.49-14.11,1.99
			c-1.16-0.08-4.9-0.83-6.06-1.5c-2.33-1.41-0.66-7.14,0-7.97c1.08-1.41,1.83-2.49,5.89-2.32c2.57,0.08,7.47,2.9,9.63,4.48
			l0.42-1.82c-1.74-1.24-2.32-1.91-2.9-2.16c-0.67-0.25,0-2.57-2.66-4.15c0,0.99,0.08,1.99,0.08,2.99c-1.16-0.33-3.32-1.08-4.4-0.99
			c-0.25-1.33-2.57-2.24-3.82-2.41c0,0,1,2.24,0.5,2.32c-0.58,0.08-1.49,0.75-1.99,0.83c-1.41-0.5-1.33-1-3.73-0.58l1.83,2.41
			C94.55,145.3,93.39,154.51,99.36,155.26L99.36,155.26z"/>
		<path class="st1" d="M108.08,147.87c1.24,0.08,2.57-0.25,3.32,0c1.25,1.5-0.75,1.91-1.33,1.5L108.08,147.87L108.08,147.87z"/>
		<path class="st1" d="M113.55,149.03c1.24-0.25,2.49-0.91,3.23-0.91c1.66,1.16-0.16,2.16-0.83,1.91L113.55,149.03L113.55,149.03z"
			/>
		<path class="st1" d="M105.92,143.81c1.16,0.5,2.57,0.58,3.15,1.08c0.75,1.99-1.33,1.66-1.74,1.08L105.92,143.81L105.92,143.81z"/>
		<path class="st1" d="M101.11,146.55c1.24-0.25,2.57-0.91,3.32-0.83c1.74,1.16-0.17,2.16-0.91,1.83L101.11,146.55L101.11,146.55z"
			/>
		<path class="st1" d="M103.93,151.19c1.16-0.25,2.33-0.99,2.99-0.91c1.66,0.99-0.08,1.91-0.75,1.74L103.93,151.19L103.93,151.19z"
			/>
		<path class="st1" d="M75.38,148.79c-0.25,1.25-0.83,2.32-2.16,2.08c1.41,1.49,2.49,0.25,3.65-0.75c1.41,0.5,2.9,1.33,5.98,1.66
			c-0.42,0.67-0.75,1.41-1.24,2.16c1.74-0.08,3.15-1,3.15-1.74c1,0.75,9.13-1,8.8-1.58c-0.17-0.33,0.08-0.67-0.17-1.66
			c-5.89,1.66-4.4,1.74-10.79,1.33c-2.57-0.17-5.48-2.24-5.97-3.24c-0.58-0.99,0.99-5.97,1.74-6.47c1.08-0.99,3.98-0.42,3.82-0.83
			c0,0,0.41-1.74,0.17-1.66c-0.75,0.25-1.58,0.16-2.82,0.16c-0.5-1.25-0.58-1.41-2.74-1.41c0.66,0.67,0.83,1.41,1.24,2.08
			C75.05,140.24,74.22,148.7,75.38,148.79L75.38,148.79z"/>
		<path class="st1" d="M89.9,146.63c1.16-0.08,2.41-0.67,3.15-0.58c1.49,1.25-0.42,1.99-1,1.66L89.9,146.63L89.9,146.63z"/>
		<path class="st1" d="M90.73,141.07c1.16,0.41,4.31,2.41,4.31,3.32c-0.16,0.25-0.5,0.83-0.91,0.83c-0.91-1.08-2.16-2.16-3.73-2.57
			L90.73,141.07L90.73,141.07z"/>
		<path class="st1" d="M79.36,144.22c1.16-0.17,2.32-0.67,2.99-0.58c1.49,1.24-0.33,1.91-0.91,1.66L79.36,144.22L79.36,144.22z"/>
		<path class="st1" d="M83.01,147.96c1,0.08,2.08-0.16,2.57,0.08c1.08,1.24-0.58,1.5-1,1.16L83.01,147.96L83.01,147.96z"/>
		<path class="st1" d="M86.25,138l0.17-1.08c-1.83-0.33-2.99,0.66-2.91,3.15c0.08,2.41,0.42,3.57,1.83,4.32
			c1.5,0.75,3.32,0.17,4.15-3.15c0.83-3.24-0.75-4.07-2.99-4.31L86.25,138c0.75,0.16,1.41,1.41,1.16,2.66
			c-0.25,1.24-1.16,2.41-1.91,2.24c-0.75-0.16-1.08-1.49-0.83-2.74C84.84,139,85.59,138.08,86.25,138L86.25,138z"/>
		<path class="st1" d="M83.35,134.26c0.5-0.66,1.24-0.91,2.07-0.75c0.42,0.91,0.5,1.74,0.17,2.57c-0.25,0-0.5,0.08-0.75,0.17
			C84.09,135.84,83.59,135.09,83.35,134.26L83.35,134.26z"/>
		<path class="st1" d="M86.75,133.27c0.75-0.41,1.49-0.33,2.32,0.17c0,1-0.25,1.74-0.83,2.41c-0.25-0.08-0.5-0.08-0.83-0.08
			C86.91,135.01,86.75,134.18,86.75,133.27L86.75,133.27z"/>
		<path class="st1" d="M89.9,134.18c0.83-0.08,1.49,0.33,1.99,1.16c-0.5,0.83-1.08,1.41-1.91,1.74c-0.17-0.16-0.42-0.33-0.67-0.5
			C89.24,135.76,89.49,134.93,89.9,134.18L89.9,134.18z"/>
		<path class="st1" d="M166.67,142.31l1.33-1c-0.91-0.91-2.99-0.75-4.57,0.33c-1.82,1.24-2.74,3.24-1.91,4.4
			c0.75,1.08,2.99,1.25,4.81,0c1.91-1.16,2.49-3.57,1.66-4.73l-1.24,1c0.42,0.66,0,2.07-1.08,2.74c-1.08,0.75-2.57,0.75-3.07,0.08
			c-0.42-0.75,0.25-1.91,1.33-2.57C164.93,141.9,166.17,141.81,166.67,142.31L166.67,142.31z"/>
		<path class="st1" d="M167.5,136.67c0.75,0,1.33,0.42,1.74,1.08c-0.5,0.83-1,1.33-1.74,1.58c-0.25-0.16-0.41-0.25-0.58-0.41
			C166.83,138.16,167,137.33,167.5,136.67L167.5,136.67z"/>
		<path class="st1" d="M169.9,138.49c0.75,0.08,1.25,0.58,1.58,1.41c-0.58,0.66-1.24,1.08-2.08,1.16c-0.08-0.16-0.25-0.33-0.5-0.5
			C169.07,139.74,169.32,139,169.9,138.49L169.9,138.49z"/>
		<path class="st1" d="M172.39,141.32c0.5,0.58,0.58,1.24,0.17,2.08c-0.83,0.08-1.58,0-2.24-0.5c0-0.25,0-0.5,0-0.66
			C170.9,141.65,171.56,141.32,172.39,141.32L172.39,141.32z"/>
		<path class="st1" d="M173.06,136.17c-0.67,0.25-1.24,0.66-1.74,1.33c0.25,0.5,0.58,0.91,1.16,1.24c0.66-0.33,1.08-0.75,1.49-1.33
			c0.66,0.5,1.66-0.25,1.99-0.91c0.42-0.75,0.25-1.74-0.58-2.16c-0.75-0.41-1.75-0.17-2.08,0.58
			C173.14,135.26,172.97,135.76,173.06,136.17L173.06,136.17z"/>
		<path class="st1" d="M56.54,125.13l-0.75-0.83c1.49-1.33,3.15-1.24,4.4,0.91c1.16,2.07,1.5,3.24,0.58,4.73
			c-0.99,1.49-2.99,2.07-5.48-0.17c-2.49-2.32-1.49-3.98,0.41-5.56l0.83,0.83c-0.66,0.58-0.5,2.07,0.33,2.99
			c0.91,0.91,2.41,1.33,2.99,0.75c0.58-0.58,0.17-1.91-0.66-2.82C58.37,125.13,57.2,124.72,56.54,125.13L56.54,125.13z"/>
		<path class="st1" d="M58.45,119.74c-0.66-0.42-1.41-0.33-2.24,0.16c0,1,0.25,1.74,0.91,2.41c0.25-0.08,0.49-0.08,0.74-0.08
			C58.37,121.48,58.61,120.65,58.45,119.74L58.45,119.74z"/>
		<path class="st1" d="M54.71,120.57c-0.83-0.08-1.49,0.33-1.99,1.08c0.42,0.91,1,1.49,1.83,1.82c0.25-0.16,0.42-0.33,0.66-0.42
			C55.29,122.15,55.13,121.32,54.71,120.57L54.71,120.57z"/>
		<path class="st1" d="M51.15,122.64c-0.66,0.5-1,1.16-0.91,2.08c0.91,0.5,1.74,0.58,2.57,0.41c0.08-0.25,0.16-0.5,0.25-0.75
			C52.64,123.56,51.98,122.98,51.15,122.64L51.15,122.64z"/>
		<path class="st1" d="M52.22,117.5c0.66,0.41,1,1,1.33,1.74c-0.33,0.41-0.75,0.75-1.33,0.91c-0.58-0.41-0.91-0.99-1.16-1.58
			c-0.83,0.25-1.58-0.67-1.74-1.41c-0.16-0.83,0.25-1.74,1.08-1.99c0.75-0.16,1.66,0.33,1.91,1.08
			C52.39,116.67,52.47,117.17,52.22,117.5L52.22,117.5z"/>
		<path class="st1" d="M124.92,155.76c-0.66,1.16-1.74,2.08-1.91,2.91c0.5,2.07,2.07,0.5,2.07-0.25L124.92,155.76L124.92,155.76z"/>
		<path class="st1" d="M131.15,150.28c-1.16,0.66-2.66,0.91-3.24,1.41c-0.66,2.16,1.49,1.66,1.91,0.99L131.15,150.28L131.15,150.28z
			"/>
		<path class="st1" d="M138.2,145.63c-1.41,0.25-2.99,0-3.82,0.33c-1.41,1.99,1.08,2.24,1.66,1.66L138.2,145.63L138.2,145.63z"/>
		<path class="st1" d="M137.37,150.78c-1.41,0-2.9-0.58-3.73-0.33c-1.74,1.58,0.58,2.32,1.33,1.91L137.37,150.78L137.37,150.78z"/>
		<path class="st1" d="M132.56,144.89c-1,0.67-2.24,1-2.74,1.58c-0.42,2.08,1.41,1.41,1.74,0.75L132.56,144.89L132.56,144.89z"/>
		<path class="st1" d="M135.46,142.56c-0.75,0.09-1.58-0.16-1.99,0c-0.91,1,0.33,1.25,0.66,1L135.46,142.56L135.46,142.56z"/>
		<path class="st1" d="M121.27,153.35l-1.74-1.66c-1.49,3.82-0.83,8.71,0.08,13.44c1.99,0.08,5.64-0.08,8.38-0.33
			c-0.25-7.14,2.66-7.06,7.55-8.47c1,0.25,5.56,0.33,5.48,0.33c-0.16-0.33-1.24-0.91-1.49-1.66c-0.25-1,1.91-1.99,2.32-2.33
			c2.57-1.74,3.07-4.73,2.57-6.72c-0.08-0.08-0.17-0.16-0.17-0.33c-0.58,0.33-1.49,0.41-2.16,0.83c0.66,2.82,0.33,3.74-4.9,7.14
			c-1.66,1.08-6.8,2.65-7.97,3.32c-2.74,1.49-2.66,3.48-2.9,6.47c0,0.16-5.56,0-5.56-0.17C120.77,159.33,119.2,156.84,121.27,153.35
			L121.27,153.35z"/>
		<path class="st1" d="M105,164.72c-0.75-0.16-1.58-1.25-1.49-2.24c0.08-1.08,1.08-1.41,1.74-1.16c0.58,0.25,1.24,0.25,1.08,1.16
			c0,0.41,1.16,0.33,1.16-0.08c0.16-1.49-0.83-2.49-2.08-2.57c-1.33-0.08-2.99,0.25-3.32,2.07c-0.17,0.83,0.33,2.32,0.75,2.82
			c-0.66,3.9-0.58,5.31,0.99,8.46c-0.41,0.5,0-0.08-0.25,0.58c-0.25,0.67-0.5,1.91-0.08,2.82c0.91,1.83,2.49,1.83,3.73,1.41
			c1.33-0.42,1.91-2.08,1.5-3.49c-0.25-0.75-1.41-0.41-1.16,0.33c0.33,0.83-0.16,1.33-0.75,1.66c-0.67,0.42-1.66,0.33-1.99-0.75
			c-0.25-1.08,0.5-1.99,1.08-2.41C104.76,171.86,103.43,167.21,105,164.72L105,164.72z"/>
		<path class="st1" d="M133.64,163.81c0.67-0.33,1.16-1.74,1-2.65c-0.25-1-1.33-1.08-1.91-0.83c-0.58,0.34-1.08,0.83-0.83,1.58
			c0.16,0.75-1.41,0.99-1.66,0.25c-0.41-1.33,0.83-2.9,2.07-3.15c1.25-0.33,3.32,0,3.9,1.58c0.25,0.83,0,2.65-0.75,2.9
			c1.33,3.57,1.41,4.57,0.33,7.72c0.58,0.42,0.33,0,0.66,0.5c0.33,0.58,0.83,1.74,0.5,2.65c-0.5,1.82-2.07,2.08-3.4,1.91
			c-1.33-0.16-2.24-1.58-2.07-2.99c0.17-0.75,1.33-0.67,1.24,0.08c-0.16,0.83,0.42,0.99,1.08,1.24c0.67,0.25,1.33-0.08,1.41-1.16
			c0.08-1.08-0.58-1.91-1.25-2.16C134.88,169.7,135.55,165.88,133.64,163.81L133.64,163.81z"/>
		<path class="st1" d="M117.37,161.82c-2.82-0.33-5.98,0-8.71,0.5c0.08-0.33-0.33-0.91-0.08-1.74c2.74-0.58,5.89-0.66,8.72-0.5
			C117.29,160.4,117.37,161.48,117.37,161.82L117.37,161.82z"/>
		<path class="st1" d="M109.57,176.42c5.48,3.24,19.25,1.08,21.83-0.25c-0.08,0.33,1.58,0.33,1.24,1.16
			c-3.24,2.91-22.41,2.99-23.74,1.16C108.99,178.16,109.49,176.75,109.57,176.42L109.57,176.42z"/>
		<path class="st1" d="M112.39,163.81c5.23,5.48,3.07,8.55,8.13,13.11c-0.41,0-1-0.08-1.33,0.08c-5.48-5.23-4.07-9.13-9.05-13.61
			C110.56,163.23,112.06,162.98,112.39,163.81L112.39,163.81z"/>
		<path class="st1" d="M116.79,163.23c4.65,5.15,2.99,8.88,7.97,13.53c-0.41,0-1.08,0.42-1.74-0.5c-5.06-5.39-3.57-8.72-8.47-13.19
			C114.96,162.89,115.79,162.89,116.79,163.23L116.79,163.23z"/>
		<path class="st1" d="M122.93,166.79c1.91,1.16,1.08,5.64,5.73,9.54c-0.33,0-0.75,0.25-1.25-0.33c-4.23-3.48-2.99-5.06-6.06-9.3
			C121.69,166.63,122.27,166.55,122.93,166.79L122.93,166.79z"/>
		<path class="st1" d="M148.66,171.19l-0.16,1.49c1.83,0,2.74-0.58,2.99-2.82c0.17-1.82-0.67-3.07-2.16-3.24
			c-1.41-0.25-2.82,0.08-3.24,2.07c-0.5,1.91,0.83,3.74,2.41,3.98l0.16-1.41c-0.66-0.25-1.24-0.91-1.16-2.07
			c0-1.08,1-1.41,1.66-1.08c0.75,0.25,1.25,0.75,1,1.74C149.9,170.78,149.49,171.19,148.66,171.19L148.66,171.19z"/>
		<path class="st1" d="M157.95,159.08c-2.41-0.58-4.15-0.75-6.64,0.25c-1.82,1.33-1.08,3.32,0.5,3.82c2.74,0.75,4.15,0.58,6.81-1.74
			c-1.58-0.17-3.99-0.17-5.48-0.5c0.08,0.08-0.5,0.91,0.08,1.49c-0.41-0.08-0.83,0.17-1.08-0.41c-1.33-3.24,3.73-2.08,6.14-1.83
			C158.28,160.07,158.04,159.16,157.95,159.08L157.95,159.08z"/>
		<path class="st1" d="M138.03,162.89c3.57-0.25,7.47-0.99,10.79-1.99c0,0.33,0,0.58,0.08,0.83c-3.32,1.16-7.38,1.99-10.95,2.41
			C137.95,163.81,138.03,163.23,138.03,162.89L138.03,162.89z"/>
		<path class="st1" d="M139.11,173.52c1.99-1.08,4.15-1.91,6.06-2.32c0-0.33,0-0.66,0-0.99c-1.74-0.08-4.32,0.5-6.47,1.58
			C138.78,172.03,139.03,173.27,139.11,173.52L139.11,173.52z"/>
		<path class="st1" d="M145.17,167.62c-3.65-0.41,1.58-2.9,4.81-3.98c-0.17-0.25-0.33-0.49-0.41-0.75
			c-4.48,0.91-11.95,4.9-4.56,5.89C145.26,169.04,145.01,167.38,145.17,167.62L145.17,167.62z"/>
		<path class="st1" d="M86.5,175.26c2.07-1.41,3.65-2.16,6.39-1.99c2.08,0.66,2.08,2.99,0.66,3.98c-2.24,1.75-3.65,1.99-6.97,0.58
			c1.41-0.67,3.74-1.58,5.06-2.41c-0.08,0.17,0.75,0.83,0.42,1.49c0.33-0.08,0.83,0,0.91-0.75c0.16-3.73-4.23-0.75-6.39,0.33
			C86.5,176.42,86.5,175.43,86.5,175.26L86.5,175.26z"/>
		<path class="st1" d="M91.56,157.92l-0.25,1.49c1.82,0,2.82-0.58,2.99-2.82c0.25-1.82-0.67-3.07-2.07-3.32
			c-1.49-0.16-2.82,0.16-3.32,2.07c-0.42,1.99,0.91,3.82,2.41,4.07L91.56,157.92c-0.67-0.17-1.24-0.92-1.24-1.99
			c0.08-1.08,1.08-1.41,1.74-1.16c0.67,0.33,1.25,0.83,1,1.82C92.81,157.5,92.39,157.92,91.56,157.92L91.56,157.92z"/>
		<path class="st1" d="M79.2,169.37l-0.17,1.49c1.83,0,2.74-0.58,2.99-2.82c0.17-1.83-0.66-3.07-2.16-3.32
			c-1.41-0.16-2.82,0.16-3.32,2.07c-0.42,1.99,0.91,3.82,2.49,4.07L79.2,169.37c-0.66-0.16-1.24-0.83-1.16-1.99
			c0-1.08,1-1.41,1.66-1.08c0.75,0.25,1.25,0.75,1,1.74C80.44,168.95,80.03,169.37,79.2,169.37L79.2,169.37z"/>
		<path class="st1" d="M68.49,154.59c2.49-0.08,4.23,0.17,6.39,1.74c1.49,1.66,0.33,3.49-1.33,3.57c-2.9,0.16-4.15-0.41-6.22-3.24
			c1.49,0.16,3.9,0.75,5.48,0.75c-0.17,0.08,0.16,0.99-0.42,1.41c0.33,0.08,0.75,0.42,1.08-0.08c2.07-2.9-3.15-2.9-5.56-3.24
			C67.91,155.42,68.41,154.68,68.49,154.59L68.49,154.59z"/>
		<path class="st1" d="M91.48,160.57c0.42,2.49-12.04-3.74-14.44-3.24c-0.25,0.33,0,0.75,0,1c4.57,0.33,15.52,7.22,15.69,2.57
			C92.72,160.57,91.48,160.9,91.48,160.57L91.48,160.57z"/>
		<path class="st1" d="M100.53,163.56c-2.08-0.91-4.65-3.07-6.23-4.23c-0.25,0.17-0.25,0.5-0.5,0.67c0.42,1.99,4.15,4.48,6.81,4.73
			C100.86,164.56,100.36,163.72,100.53,163.56L100.53,163.56z"/>
		<path class="st1" d="M101.44,176.67c-1.99-1.25-3.49-1.5-5.73-0.91c-0.08-0.25-0.17-0.91-0.25-1.16c1.74-1.08,4.07-1.08,6.06,0.58
			C101.6,175.51,101.44,176.42,101.44,176.67L101.44,176.67z"/>
		<path class="st1" d="M82.35,164.56c0.83-1.49-2.41-3.07-6.22-4.15c0.17-0.25,0.42-0.58,0.58-0.83c4.48,0.91,10.63,4.4,6.31,6.14
			C82.85,165.96,82.52,164.3,82.35,164.56L82.35,164.56z"/>
		<path class="st1" d="M94.38,172.77c4.9-3.4-7.3-4.9-10.71-4.65c0.08-0.25-0.08-0.75-0.08-1c4.81-0.83,17.84,1.49,11.78,6.47
			C95.21,173.85,94.55,172.52,94.38,172.77L94.38,172.77z"/>
		<path class="st1" d="M116.54,181.9c0.75-0.08,1.33-0.08,2.08-0.08c-0.33,2.32,0.08,4.81,0.75,7.22c-0.58,0-1.41-0.16-1.91-0.08
			C116.79,186.71,116.54,184.39,116.54,181.9L116.54,181.9z"/>
		<path class="st1" d="M116.54,189.45c0.58,1.08,0.91,1.16,1.99,1.24c-2.57,1.83-7.64,4.23-8.13,7.89
			c-0.58-0.58-0.66-1.58-1.33-2.16C109.74,193.77,113.89,191.77,116.54,189.45L116.54,189.45z"/>
		<path class="st1" d="M122.02,189.95c0.5,0.41,0.58,0.16,1.82,0.25c-1.66,2.66-6.22,5.56-7.3,8.8c-0.58-0.58-0.5-1.58-1.08-2.16
			C116.04,194.1,119.45,192.27,122.02,189.95L122.02,189.95z"/>
		<path class="st1" d="M134.39,194.18c-0.17,0.67-1.91,0.16-1.5,1.33c-3.07-0.5-5.15-3.32-8.46-3.07c0.25-0.83,0.5-1.08,0.75-1.83
			C127.91,190.11,131.23,192.69,134.39,194.18L134.39,194.18z"/>
		<path class="st1" d="M132.56,188.62c-0.17,0.67-1.5-0.08-1.08,1.08c-3.15-0.41-2.82-2.08-6.14-1.83c0.25-0.83,0.66-1.08,0.91-1.91
			C128.99,185.55,129.41,187.13,132.56,188.62L132.56,188.62z"/>
		<path class="st1" d="M108.91,189.62c0.25,0.67,1.66-0.16,1.33,0.99c3.07-0.75,2.32-2.49,5.73-2.57c-0.42-0.75,0.08-1.08-0.25-1.82
			C112.97,185.97,111.98,187.79,108.91,189.62L108.91,189.62z"/>
		<path class="st1" d="M134.63,190.03c0,0.41-0.33,0.25-0.16,1.16c-1.08-0.41-1.16-0.58-2.32-0.41c0.08-0.58,0-0.75,0.08-1.33
			C132.81,189.04,133.39,188.96,134.63,190.03L134.63,190.03z"/>
		<path class="st1" d="M106.66,191.36c0.08,0.58,0.42,0.33,0.33,1.33c1.16-0.5,1.24-0.75,2.57-0.66c-0.17-0.75,0-0.83-0.17-1.49
			C108.66,190.11,107.99,190.03,106.66,191.36L106.66,191.36z"/>
		<path class="st1" d="M128.91,196.92c-0.25,0.67-1.91,0-1.49,1.16c-3.15-0.5-2.82-2.49-6.22-2.24c0.33-0.83,1.16-0.75,1.41-1.49
			C125.34,193.85,125.75,195.43,128.91,196.92L128.91,196.92z"/>
		<path class="st1" d="M124.34,181.9c-0.75-0.08-1.41-0.08-2.16-0.08c0.33,2.32,0,4.81-0.75,7.22c0.58,0,1.41-0.16,1.99-0.08
			C124.09,186.71,124.34,184.39,124.34,181.9L124.34,181.9z"/>
		<path class="st1" d="M115.3,182.23c0.08,0.67,0.16,0.75,0.25,1.41c-2.49-0.08-7.72,2.9-9.13,4.31c-0.08-0.16-1.66-2.99-2.32-3.82
			l-0.66,1.66l-2.82-0.08l-4.15-3.98l0.91,4.15l-1.83,0.08l-5.64-3.73l1.91,3.48l-2.49,0.17l-5.73-2.33l1.66,2.24l-4.98,1.5
			l9.38-0.42l-2.49,3.9l4.4-2.99l4.73-0.17l-2.91,4.81l4.81-4.81l3.65-0.16l-1.16,4.07l3.82-4.9l1-0.33l0.83,1.58l-5.81,5.48
			l-1.66,0.17l1.49-4.4l-1.99,0.33l-3.9,4.4l-2.74-0.17l-0.41-1.49l2.82-3.32l-2.49,0.5l-3.9,2.49l-3.07-0.16l2.82-3.57l-3.98,0.25
			l-0.42,0.83l-5.39-0.33l0.5-1.82l4.23-2.33l-0.75-1.41l2.41-0.99l5.73,2.07l-2.49-3.57l3.48-0.16l4.73,3.48l-1-4.73l2.57-0.08
			l4.07,4.73l1-2.07l2.07,0.41l2.41,1.74C108.74,183.23,112.81,182.48,115.3,182.23L115.3,182.23z"/>
		<polygon class="st1" points="80.77,181.73 75.21,177.58 74.71,172.94 73.06,172.6 72.47,174.6 71.56,173.27 71.15,168.37 
			67.83,165.8 67.41,170.69 65.75,168.54 65.42,163.31 63.01,161.73 62.6,165.39 59.69,162.06 58.53,163.31 59.44,165.55 
			59.94,166.38 56.29,166.79 55.38,168.04 57.95,168.62 61.19,171.19 55.54,171.03 57.62,173.35 64.17,174.68 64.92,176.01 
			58.95,177.33 62.6,180.07 68.57,179.24 68.74,181.24 76.79,180.49 74.96,179.24 70.23,179.49 70.23,177.75 63.76,178.58 
			62.76,177.92 66.66,177.09 67.83,175.84 64.67,173.1 59.78,172.44 63.93,172.44 63.51,169.87 58.95,167.87 61.1,167.54 
			61.02,165.47 63.51,168.87 64.26,164.89 64.67,170.2 68.49,174.26 68.9,168.7 70.07,170.53 70.4,175.84 72.47,177.58 73.8,175.18 
			74.13,178.5 80.03,182.73 80.77,181.73 		"/>
		<path class="st1" d="M81.93,181.24c-0.75-1.41-1.41-2.99-0.25-4.07c0.17-0.33,0.25-0.67-0.16-1.25c-1.08,0.08-1.91,0-3.49,0.83
			c-0.58,0.42-0.83,1.25-0.17,1.58C80.03,178.91,80.36,181.07,81.93,181.24L81.93,181.24z"/>
		<path class="st1" d="M79.03,183.64c-1.49,0.08-3.24,0.25-3.57,1.82c-0.25,0.33-0.5,0.58-1.16,0.5c-0.5-0.91-1-1.66-1-3.4
			c0-0.75,0.58-1.41,1.25-0.99C76.13,183.23,78.12,182.4,79.03,183.64L79.03,183.64z"/>
		<path class="st1" d="M79.03,175.68c0.66,0,1.24-0.58,1.24-1.25c0-0.75-0.58-1.33-1.24-1.33c-0.75,0-1.33,0.58-1.33,1.33
			C77.7,175.1,78.28,175.68,79.03,175.68L79.03,175.68z"/>
		<path class="st1" d="M70.65,185.14c-0.42-0.58-0.17-1.41,0.41-1.74c0.66-0.33,1.41-0.17,1.74,0.5c0.41,0.58,0.16,1.33-0.42,1.74
			C71.73,185.97,70.98,185.72,70.65,185.14L70.65,185.14z"/>
		<path class="st1" d="M56.79,163.31c-0.25-1.49-0.42-3.24,1.08-3.82c0.25-0.33,0.42-0.66,0.25-1.33c-0.99-0.25-1.83-0.58-3.57-0.25
			c-0.66,0.16-1.16,0.91-0.66,1.41C55.79,160.57,55.38,162.73,56.79,163.31L56.79,163.31z"/>
		<path class="st1" d="M54.63,166.3c-1.49-0.42-3.24-0.75-3.98,0.67c-0.33,0.25-0.66,0.33-1.25,0.08c-0.25-1-0.5-1.83,0-3.57
			c0.33-0.66,1.08-1.08,1.5-0.5C51.98,164.97,54.13,164.81,54.63,166.3L54.63,166.3z"/>
		<path class="st1" d="M56.62,154.76c-0.67-0.25-1.41,0.16-1.66,0.83c-0.25,0.66,0.17,1.41,0.83,1.58c0.66,0.25,1.41-0.08,1.58-0.75
			C57.62,155.76,57.29,155.01,56.62,154.76L56.62,154.76z"/>
		<path class="st1" d="M46.08,165.13c-0.08-0.66,0.33-1.33,0.99-1.5c0.75-0.16,1.41,0.25,1.58,1c0.08,0.67-0.33,1.33-0.99,1.49
			C46.91,166.3,46.25,165.88,46.08,165.13L46.08,165.13z"/>
		<polygon class="st1" points="57.78,165.8 57.54,164.3 55.96,164.14 52.47,159.83 53.05,152.44 51.81,151.11 49.82,153.77 
			50.15,145.39 47.58,144.8 45.92,149.53 44.92,148.95 44.92,143.72 43.43,143.14 42.35,146.46 39.86,143.56 38.7,143.89 
			39.28,144.8 36.29,145.05 38.45,147.62 34.38,148.04 35.96,150.28 41.18,151.44 42.68,152.52 37.29,152.35 37.95,154.85 
			41.18,155.93 44.67,156.51 46,157.5 42.51,157.58 42.6,158.66 45.75,160.24 52.47,162.81 50.98,160.57 45.92,158.66 48.57,158.33 
			46.66,155.67 39.69,153.77 45.42,153.68 42.51,150.45 37.29,149.12 41.18,149.37 38.78,146.13 40.69,146.96 40.19,145.47 
			42.43,148.12 43.68,145.88 43.76,150.03 46.83,152.44 48.65,146.63 48.41,153.85 48.99,156.25 51.56,153.93 50.9,160.32 
			52.56,162.98 55.13,165.39 57.78,165.8 		"/>
		<path class="st1" d="M41.52,141.48c0.33-1.49,0.83-3.15,2.49-3.15c0.33-0.25,0.58-0.5,0.58-1.16c-0.83-0.58-1.41-1.25-3.15-1.58
			c-0.75,0-1.49,0.42-1.16,1.08C41.6,138.58,40.44,140.4,41.52,141.48L41.52,141.48z"/>
		<path class="st1" d="M37.12,142.81c-1.16-0.99-2.57-2.07-3.9-1.08c-0.42,0-0.75,0-1.16-0.58c0.25-1,0.41-1.83,1.66-3.15
			c0.5-0.5,1.41-0.5,1.49,0.25C35.29,140.49,37.37,141.23,37.12,142.81L37.12,142.81z"/>
		<path class="st1" d="M44.42,133.43c-0.5-0.42-1.33-0.33-1.74,0.17c-0.5,0.58-0.41,1.41,0.17,1.82c0.5,0.42,1.33,0.42,1.74-0.16
			C45.09,134.68,45,133.93,44.42,133.43L44.42,133.43z"/>
		<path class="st1" d="M29.98,138.08c0.17-0.67,0.83-1.08,1.49-0.91c0.66,0.16,1.16,0.83,1,1.58c-0.17,0.67-0.91,1.08-1.58,0.91
			C30.23,139.49,29.82,138.83,29.98,138.08L29.98,138.08z"/>
		<polygon class="st1" points="39.94,142.65 37.7,136.5 38.78,134.26 38.7,132.93 37.12,133.18 40.44,130.28 40.52,127.13 
			36.46,128.62 37.37,127.21 41.02,123.72 41.35,120.99 37.12,123.14 37.62,121.65 39.61,119.49 38.86,116.75 37.45,117.25 
			35.62,119.08 35.05,117.17 32.97,118.58 32.89,123.97 30.15,121.07 29.15,124.3 32.06,129.45 28.16,128.45 28.49,131.36 
			30.73,132.1 33.05,133.76 32.72,135.18 36.37,137.83 36.46,136.17 34.05,134.76 34.8,133.27 30.4,130.61 33.88,131.27 33.8,129.2 
			30.56,123.81 33.72,126.71 34.3,119.08 35.21,120.9 37.95,119.24 35.46,122.64 35.38,125.55 38.78,123.81 34.88,128.04 
			35.46,130.2 38.95,129.61 35.79,132.44 36.21,134.51 37.7,134.51 36.46,136.17 36.46,137.83 38.78,142.65 39.94,142.65 		"/>
		<path class="st1" d="M125.42,182.32c2.57-0.08,7.8,1.49,10.04,2.49c3.15,0.91,10.37-5.97,21.41-6.64l0.08,0.17
			c-0.25-0.25,0.66,0.08,0.83,0.25c-6.06,0.33-9.38,4.73-18.34,6.8c-0.5,0.67,0.16,0.42,0.41,0.67c6.72,1,10.04-3.49,17.01-6.23
			c0.17,0,1.08-0.5,2.32-0.08c-2.99,2.82-11.95,8.46-19.09,8.55c-2.41-0.08-11.2-4.15-14.85-4.31
			C125.26,183.4,125.26,183.31,125.42,182.32L125.42,182.32z"/>
		<path class="st1" d="M153.22,175.26c-0.41-0.42-1.41-0.58-2.07-0.58c-2.41,0.42-4.57,1.74-6.64,2.24
			c-3.49,0.83-5.06,3.4-8.46,5.81c-0.91,0-1.66-0.17-2.66-0.17c0,0.58,0.83,0.91,0.91,1.08c0.91,0.5,2.16,0.75,2.99,0.16
			c5.89-3.4,11.2-5.48,17.1-6.72c-0.42-0.16-0.83-0.33-1.25-0.41c-0.66-0.58-4.23,0.5-13.11,4.31c0-0.08,0.17-0.16,0.08-0.25
			c2.66-1.58,2.82-2.57,4.9-2.9C147.5,177.42,151.15,175.18,153.22,175.26L153.22,175.26z"/>
		<path class="st1" d="M157.95,184.89c-0.5-0.41-1-0.83-1.66-0.91c-3.15,0.58-4.15,2.99-11.12,4.65c-0.33,0-1.33,0.67-2.41,0.75
			c-1.16,0.08-2.66,0.08-3.15,0.08c-0.08,0.58,0.41,0.66,1.25,1.24c0.91,0.42,1.33,0.5,1.91,0.67c6.06,1.74,12.2-4.07,18.09-5.31
			c-0.42-0.16-0.83-0.33-1.24-0.5c-3.57-0.67-11.87,5.64-13.94,4.56c0-0.16-0.83-0.41,0.17-0.58
			C148.49,189.2,153.22,185.47,157.95,184.89L157.95,184.89z"/>
		<path class="st1" d="M164.26,178.91c-0.58-0.42-1.25-0.67-1.99-0.83c-0.33,0.41-0.5,0.99-0.5,1.58c0.58,0.41,1.16,0.58,1.83,0.75
			c-0.08,0.83,1,1.33,1.82,1.33c0.83-0.08,1.58-0.66,1.58-1.58c0-0.83-0.75-1.58-1.49-1.58
			C165.09,178.58,164.51,178.66,164.26,178.91L164.26,178.91z"/>
		<path class="st1" d="M158.2,172.27c-0.16,0.75-0.08,1.41,0.08,2.16c0.25,0.08,0.25,0.75,0.5,0.75c0.25,0,0.83-0.83,1.16-1
			c0.17-0.66,0-1.24-0.16-1.91c0.75-0.33,0.75-1.49,0.33-2.24c-0.33-0.67-1.25-1.16-2.07-0.75c-0.75,0.42-1.08,1.41-0.66,2.08
			C157.54,171.69,157.79,172.19,158.2,172.27L158.2,172.27z"/>
		<path class="st1" d="M159.28,177.09c1.08-2.32,2.07-2.99,4.73-3.9c6.72-9.54,10.12-10.12,15.02-15.85
			c0.17,1.83-0.66,2.16-0.83,2.41c-2.9,3.82-4.9,2.41-11.45,11.62c-0.08,0.91,0.42,0.33,0.75,0.41c6.31-5.14,10.62-8.88,12.86-13.36
			c0.5,1.33,0.33,2.82-1.49,5.06c-2.9,3.57-5.89,5.73-10.04,9.13c-1.99,1.99-8.22,2.74-7.97,5.48
			C160.11,178,160.03,177.67,159.28,177.09L159.28,177.09z"/>
		<path class="st1" d="M172.56,155.84c-2.24,3.65-4.9,5.23-5.89,5.89c-4.23,3.07-2.32,6.47-3.4,10.12c0.99-0.58,0.41-1.41,1.82-1.99
			c3.65-5.31,2.74-3.57,6.39-7.39c0.58-0.58,1.49-3.4,0.58-2.82c-6.06,7.64-6.81,7.47-6.89,8.3c-0.08-0.16-1.25,0.83-0.33-0.66
			c0.5-4.23,2.74-4.57,2.99-4.81c2.41-1.91,2.74-2.65,4.07-3.98C172.64,157.83,172.56,156.09,172.56,155.84L172.56,155.84z"/>
		<path class="st1" d="M181.86,162.89c-3.15,4.4-9.54,9.46-10.71,10.21c-0.33,0.16-0.41,0.5-0.99,0.83
			c-0.83,0.66-3.15,1.24-3.65,1.49c0.17,0.5,1.41,0.25,2.41,0.5c1,0.08,1.25,0,1.91-0.08c2.24,0.66,4.57-1,7.14-3.15
			c1.99-1.74,3.82-3.73,5.39-6.14c0.08-0.08,0.33-1.58,0.25-2.32c-3.4,5.64-7.22,7.3-10.21,9.87c-0.66,0.33-1.91,0.08-0.66-0.75
			c5.06-3.32,5.64-4.48,8.38-8.3C181.36,164.72,181.52,163.23,181.86,162.89L181.86,162.89z"/>
		<path class="st1" d="M187.09,156.59c-0.67-0.16-1.41-0.08-2.16,0.08c-0.08,0.5-0.08,1.08,0.17,1.66c0.75,0.16,1.33,0.08,1.99-0.08
			c0.25,0.75,1.41,0.75,2.16,0.42c0.75-0.33,1.16-1.25,0.83-2.08c-0.33-0.75-1.33-1.16-2.07-0.75
			C187.67,155.93,187.25,156.25,187.09,156.59L187.09,156.59z"/>
		<path class="st1" d="M177.71,152.69c0.17,0.75,0.5,1.33,1.08,1.91c0.17-0.08,0.5,0.58,0.67,0.5c0.33-0.16,0.5-1.08,0.75-1.41
			c-0.25-0.66-0.58-1.16-0.99-1.66c0.58-0.58,0.08-1.66-0.58-2.16c-0.66-0.5-1.66-0.5-2.24,0.17c-0.5,0.66-0.42,1.66,0.25,2.16
			C176.88,152.44,177.37,152.69,177.71,152.69L177.71,152.69z"/>
		<path class="st1" d="M181.03,157.75c0.08-2.57,0.75-3.57,2.82-5.4c1.33-11.87,6.39-18.26,7.39-18.26
			c-3.49,5.39-0.25,2.9-5.23,13.45c-0.83,2.65,0.83,1.41,1.08,1.33c2.65-3.15,4.4-11.12,5.89-17.43c0.99,0.91,1.41,3.4,0.66,6.06
			c-1.24,4.48-1.83,9.38-5.56,12.36c-1.08,2.66-6.56,5.81-5.23,8.22C182.1,158.25,181.86,158,181.03,157.75L181.03,157.75z"/>
		<path class="st1" d="M185.42,133.6c-3.24,5.4-7.3,11.37-2.66,17.18c0.75-0.83,0.41-1.41,0.25-3.32
			c2.49-5.73,4.73-13.45,4.48-13.11c-1.66,2.99-3.32,7.06-4.98,11.21c-0.08-0.08-1.16,1.82-0.75,0.16
			C182.02,140.15,184.93,138.08,185.42,133.6L185.42,133.6z"/>
		<path class="st1" d="M197.13,136.75c-4.15,2.08-2.16,5.23-6.8,12.28c-0.91,0.91-2.24,2.91-3.24,3.98c0.33,0.41,1.41-0.33,2.41-0.5
			c0.91-0.41,2.74-1.5,3.32-1.83c2.16-2.99,5.98-10.46,5.31-13.61c-1.91,6.47-4.65,11.29-5.31,11.87c-2.65,1.66-2.99,2.74-0.99-0.42
			C195.05,143.39,194.8,139.58,197.13,136.75L197.13,136.75z"/>
		<path class="st1" d="M197.21,128.79c-0.75,0.08-1.33,0.33-1.99,0.75c0,0.5,0.17,1.08,0.66,1.49c0.66-0.08,1.24-0.33,1.83-0.75
			c0.5,0.75,1.66,0.33,2.24-0.25c0.58-0.58,0.66-1.58,0.08-2.16c-0.58-0.66-1.58-0.66-2.16-0.16
			C197.54,127.96,197.21,128.45,197.21,128.79L197.21,128.79z"/>
		<path class="st1" d="M188.16,128.12c0.33,0.66,0.83,1.08,1.58,1.49c0.16-0.08,0.66,0.33,0.83,0.25c0.17-0.25,0.08-1.24,0.17-1.58
			c-0.33-0.58-0.83-0.91-1.49-1.33c0.42-0.66-0.42-1.58-1.16-1.83c-0.83-0.25-1.74,0.08-2.08,0.91c-0.25,0.75,0.17,1.74,0.91,1.99
			C187.25,128.12,187.75,128.29,188.16,128.12L188.16,128.12z"/>
		<path class="st1" d="M191.65,130.61c0.91-2.9,0.66-3.73,1.41-5.81c-2.32-10.37,0.58-18.68,1.58-18.92
			c1.16,5.39-2.41,8.38-0.99,13.69c0,2.49,1.33,1.66,1.82,0.99c-0.33-13.78,1.25-5.48,0.58-14.77c2.49,0.66,1.49,13.94-0.08,16.1
			c-0.17,2.57-2.9,3.57-2.99,8.3C192.31,130.61,192.56,130.53,191.65,130.61L191.65,130.61z"/>
		<path class="st1" d="M187.5,107.12c-0.25,11.2-1.99,9.55,3.9,16.27c0.5-0.83,0.08-1.66-0.5-3.32c-1.08-4.15,0.33-8.38-1.33-9.46
			c0.67,3.07-0.25,4.48,0.17,8.71c-0.08-0.08-0.83,1.08-0.83-0.5C187.09,114.1,189.08,112.93,187.5,107.12L187.5,107.12z"/>
		<path class="st1" d="M199.7,108.78c-1.41,3.49-0.5,5.73-2.07,12.95c-0.42,0.33-2.66,3.65-2.24,5.23c0.58-1.16,1.41-2.41,2.41-2.91
			c0.83-0.58,2.24-1.08,2.74-1.41c2.24-3.32,1.91-11.45,0.41-14.02c0.75,9.04-0.66,11.53-1.16,12.2c-2.07,2.07-1.08,0.91-0.83,0.17
			C200.78,115.76,200.03,111.77,199.7,108.78L199.7,108.78z"/>
		<path class="st1" d="M27.08,104.3l4.32,0.25v0.17l-1.83,0.08c-0.41,0.08-0.83,0.25-1.25,0.5c-0.42,0.16-0.75,0.58-0.91,1.08
			c-0.17,0.5-0.25,1.08-0.25,1.82l-0.08,0.66l-0.08,0.91v0.16v0.08l5.48,0.33l0.08-0.91v-0.83c0.08-0.33-0.08-0.58-0.42-0.75
			c-0.25-0.17-0.58-0.33-0.99-0.42l-1.16-0.25v-0.17l5.81,0.41v0.08l-1,0.08c-0.25,0-0.41,0-0.5,0c0,0-0.17,0.08-0.42,0.08
			c-0.17,0.08-0.41,0.17-0.58,0.33c-0.17,0.16-0.25,0.42-0.25,0.66l-0.17,1.74l6.47,0.33v-0.5l0.08-0.67v-0.5
			c0.08-1.24-0.08-2.16-0.5-2.66c-0.42-0.5-0.83-0.83-1.08-1c-0.17-0.08-0.33-0.16-0.41-0.25c-0.08,0-0.25-0.08-0.42-0.16l-1-0.17
			l-1.08-0.25l0.08-0.08l4.9,0.25l-0.16,2.9l-0.17,3.73l-0.25,2.9h-0.25l0.17-1.82l-0.08-0.08l-0.17-0.08l-12.03-0.75
			c-0.08,0.33-0.17,0.83-0.25,1.49v0.41h-0.17L27.08,104.3L27.08,104.3z"/>
		<path class="st1" d="M28.49,97.75c0.33-0.5,0.83-0.83,1.33-1.08c-0.17-0.5-0.58-0.91-1.08-1.33l1.41,0.17l1.74,0.33l1.41,0.25
			c-0.91,0.08-1.58,0.17-1.99,0.25c-0.42,0.08-0.83,0.17-1.33,0.41c-0.5,0.25-0.91,0.66-1.24,1.08c-0.41,0.5-0.58,1-0.66,1.49
			c-0.08,0.33-0.08,0.75,0.08,1.25c0.08,0.58,0.33,0.91,0.75,1.24c0.5,0.25,0.75,0.33,0.99,0.42c0.25,0,0.66-0.08,1.08-0.42
			c0.41-0.33,0.91-0.91,1.41-1.58l1.66-2.16c0.5-0.75,1-1.25,1.66-1.58c0.58-0.33,1.33-0.41,2.16-0.25l0.5,0.08
			c1.16,0.33,1.83,0.91,2.07,1.74c0.33,0.83,0.42,1.49,0.33,1.99c-0.17,0.83-0.42,1.41-0.75,1.83c-0.42,0.33-0.75,0.66-0.91,0.75
			l-0.5,0.33c0.17,0.25,0.33,0.5,0.66,0.83l0.75,0.67l-5.06-0.83v-0.17c1.16,0,2.24-0.17,3.15-0.58c1-0.33,1.58-0.83,1.91-1.41
			c0.33-0.66,0.5-1.08,0.58-1.41c0.17-0.75,0-1.41-0.5-2.08c-0.41-0.58-0.91-0.91-1.58-1c-0.33-0.08-0.75,0-1.08,0.25
			c-0.33,0.25-0.75,0.66-1.25,1.24l-1.66,2.16c-0.58,0.83-1.16,1.41-1.83,1.83c-0.66,0.33-1.33,0.5-2.07,0.33
			c-0.5-0.08-1.16-0.33-1.91-0.75c-0.66-0.41-1-1.33-0.91-2.57C27.99,98.74,28.16,98.16,28.49,97.75L28.49,97.75z"/>
		<path class="st1" d="M36.95,84.97h0.08v0.08h-0.08c-1-0.17-1.74-0.25-2.16-0.33c-0.41,0-0.83,0-1.08,0c-0.25,0-0.58,0.08-1,0.17
			c-0.33,0.08-0.66,0.33-0.91,0.58c-0.33,0.33-0.5,0.66-0.58,0.91l-0.08,0.25l-0.17,0.5l3.57,1.16l4.65,1.58l3.57,1.16l0.66-1.91
			l0.17,0.08l-1.74,5.23l-0.17-0.08l0.58-1.74l-3.57-1.16l-4.65-1.58l-3.57-1.16l-0.08,0.33l-0.17,0.33
			c-0.08,0.25-0.08,0.58-0.08,0.91c0.08,0.33,0.25,0.66,0.5,1.08c0.17,0.33,0.5,0.66,0.83,1c0.42,0.25,0.83,0.58,1.41,0.83
			l1.25,0.58l-0.08,0.17l-4.98-1.74l2.91-8.88L36.95,84.97L36.95,84.97z"/>
		<path class="st1" d="M37.87,76.17L43.34,77l5.06,0.75l0.75-1.41l0.08,0.08l0.08,0.08l-0.75,1.41l-0.83,1.82L47,81.15l-0.08-0.08
			l-0.08-0.08l0.83-1.58l-1.24-0.25l-1.58-0.25l-1.25-0.25l-1.66,3.4l1.08,1l1.08,1.08l0.17,0.17c0.5,0.25,1.08-0.25,1.66-1.49
			l0.25,0.08l-1.91,3.82l-0.25-0.08c0.5-0.91,0.42-1.66-0.16-2.16l-2.9-2.82l-3.82-3.57l-1.99-1.83l-0.08-0.17l0.25-0.17
			c0.08-0.08,0.17-0.08,0.25-0.08L37.87,76.17L37.87,76.17z M41.43,78.33l-2.41-0.41l-1.83-0.25l1.33,1.24l1.83,1.66l1.33,1.24
			l1.58-3.15L41.43,78.33L41.43,78.33z"/>
		<path class="st1" d="M42.6,63.55c0.33-0.5,0.83-0.83,1.33-1.08c0.58-0.25,1.25-0.33,1.91-0.33c0.66,0.08,1.41,0.17,2.16,0.5
			c0.75,0.25,1.41,0.58,2.08,1c0.66,0.5,1.25,0.91,1.66,1.33c0.41,0.42,0.83,0.91,1.08,1.33c0.33,0.5,0.5,1,0.58,1.49
			c0.17,0.5,0.17,1.08,0,1.83c-0.08,0.75-0.42,1.49-0.91,2.32l-2.9,4.23L49.4,76l1.08-1.58l-3.15-2.16l-3.98-2.74l-3.15-2.16
			l-1,1.58l-0.17-0.17L42.6,63.55L42.6,63.55z M41.18,66.04l10.21,6.97l0.91-1.33c0.42-0.58,0.66-1.16,0.75-1.83
			c0-0.66-0.41-1.41-1.25-2.32c-0.83-0.83-1.91-1.74-3.07-2.49c-1.33-1-2.49-1.49-3.32-1.74c-0.83-0.17-1.58-0.08-1.99,0.17
			c-0.5,0.17-0.83,0.5-1.16,0.91L41.18,66.04L41.18,66.04z"/>
		<path class="st1" d="M50.73,54.34c0.66-0.17,1.24-0.17,1.99-0.08c0.66,0.17,1.41,0.42,2.16,0.83c0.83,0.41,1.49,0.91,2.16,1.49
			c0.5,0.5,1,1.08,1.41,1.58c0.41,0.58,0.67,1.16,0.83,1.74c0.25,0.58,0.25,1.24,0.17,1.99c-0.08,0.75-0.41,1.41-0.91,1.99
			c-0.33,0.42-0.75,0.75-1.08,0.91c-0.25,0.16-0.58,0.25-0.99,0.25c-0.33,0.08-1,0-2.16-0.17c-1.08-0.17-2.32-0.83-3.65-2.07
			c-1.16-1.08-1.99-2.32-2.32-3.82c-0.33-1.49-0.08-2.74,0.91-3.82C49.65,54.76,50.15,54.43,50.73,54.34L50.73,54.34z M48.74,56.75
			c0,0.41,0.08,0.83,0.25,1.24c0.25,0.41,0.66,1,1.33,1.74c0.66,0.75,1.33,1.49,2.07,2.16c0.58,0.58,1.16,1,1.58,1.41
			c0.5,0.33,0.83,0.58,1.16,0.75c0.41,0.17,0.58,0.25,0.75,0.33c0.17,0,0.33,0.08,0.42,0.08c0.08,0,0.25,0,0.33,0
			c0.17,0,0.41-0.08,0.75-0.08c0.33-0.08,0.58-0.25,0.91-0.58c0.33-0.33,0.5-0.75,0.58-1.16c0-0.42,0-0.83-0.08-1.16
			c-0.08-0.42-0.25-0.66-0.42-0.91l-1.83-1.83l-1.33-1.33c-1.33-1.16-2.32-1.99-2.99-2.32c-0.66-0.33-1.24-0.41-1.74-0.33
			c-0.42,0.08-0.75,0.25-1.08,0.58C48.99,55.84,48.82,56.25,48.74,56.75L48.74,56.75z"/>
		<path class="st1" d="M57.29,47.87c0.58-0.17,1.16-0.17,1.74,0c0.08-0.5,0.08-1.08,0-1.74l0.91,1.08l1.24,1.33l0.92,1l-0.08,0.08
			c-0.75-0.5-1.33-0.91-1.66-1.08c-0.33-0.25-0.75-0.41-1.24-0.5c-0.58-0.08-1.16-0.08-1.74,0.08c-0.58,0.08-1.08,0.33-1.41,0.66
			c-0.25,0.25-0.5,0.58-0.75,1.08c-0.25,0.41-0.25,0.91-0.08,1.41c0.17,0.42,0.33,0.75,0.41,0.91c0.25,0.17,0.58,0.33,1.08,0.33
			c0.58,0,1.24-0.08,2.16-0.33l2.57-0.66c0.91-0.17,1.66-0.25,2.32-0.08c0.66,0.08,1.24,0.5,1.83,1.16l0.33,0.33
			c0.67,1,0.91,1.83,0.58,2.74c-0.33,0.83-0.66,1.41-1.08,1.74c-0.58,0.5-1.16,0.83-1.74,0.83c-0.5,0.08-0.91,0.08-1.16,0.08
			l-0.58-0.08c0,0.33,0,0.66,0,1.08l0.17,1l-3.4-3.82l0.08-0.08c0.91,0.66,1.83,1.24,2.82,1.49c1,0.33,1.83,0.33,2.41,0.08
			c0.66-0.25,1.08-0.5,1.33-0.75c0.58-0.5,0.83-1.08,0.91-1.83c0-0.75-0.17-1.41-0.58-1.91c-0.25-0.25-0.58-0.41-1-0.41
			c-0.42-0.08-1,0-1.74,0.17l-2.66,0.66c-0.99,0.25-1.82,0.33-2.57,0.25c-0.75-0.08-1.33-0.5-1.91-1.08
			c-0.33-0.33-0.66-0.91-0.91-1.74c-0.25-0.75,0-1.66,0.91-2.57C56.21,48.28,56.79,47.95,57.29,47.87L57.29,47.87z"/>
		<path class="st1" d="M76.13,35.09c-1.25,0.66-1.58,1.41-1.16,2.16l4.48,7.55c0.5,0.75,0.5,1.49,0.08,2.24
			c-0.33,0.75-0.91,1.33-1.58,1.74c-0.5,0.25-1,0.5-1.58,0.66c-0.49,0.08-0.99,0.17-1.49,0.08c-0.42-0.08-0.83-0.25-1.25-0.41
			c-0.33-0.25-0.66-0.5-0.83-0.91l-4.9-8.3l-1.58,0.91h-0.08v-0.17l4.57-2.66l0.08,0.17l-1.66,1l5.39,9.13
			c0.17,0.33,0.5,0.58,0.83,0.67c0.42,0.17,0.83,0.17,1.24,0.08c0.42-0.08,0.75-0.25,1.08-0.42c0.58-0.33,1-0.75,1.33-1.24
			c0.33-0.41,0.5-0.83,0.42-1.33c0-0.42-0.17-0.83-0.42-1.16l-0.16-0.42l-1.83-2.99l-1.41-2.32L74.8,37.5
			c-0.5-0.83-1.24-0.91-2.16-0.42l-0.25,0.17l-0.17,0.08l-0.08-0.17l3.9-2.24L76.13,35.09L76.13,35.09z"/>
		<path class="st1" d="M81.77,32.6l2.49,2.24l3.15,2.82l2.49,2.16l-2.66-7.55c-0.33-0.83-1.08-1-2.24-0.58l-0.08-0.17l3.9-1.41
			l0.08,0.17c-1.24,0.5-1.74,1.08-1.49,1.74l3.9,10.87l-0.25,0.08l-2.99-2.66l-3.73-3.4l-2.99-2.66l3.23,9.05
			c0.25,0.75,0.67,1,1.16,1c0.58,0,0.91,0,1-0.08l0.42-0.08l0.08,0.17l-1.33,0.5l-1.66,0.58l-1.25,0.5l-0.08-0.25l0.5-0.17
			l0.41-0.17c0.25-0.16,0.42-0.41,0.42-0.75c0-0.33,0-0.58,0-0.83c0-0.25-0.08-0.5-0.17-0.75c-0.08-0.42-0.33-1.08-0.58-1.74
			l-2.57-7.3c-0.17-0.5-0.83-0.5-2.07,0l-0.08-0.25L81.77,32.6L81.77,32.6z"/>
		<polygon class="st1" points="95.79,28.37 95.88,28.53 94.05,29.03 97.2,40.98 98.95,40.57 99.03,40.81 93.89,42.14 93.8,41.89 
			95.54,41.48 92.39,29.45 90.73,29.86 90.65,29.69 95.79,28.37 		"/>
		<path class="st1" d="M104.01,27.04c0.58-0.08,1.16,0,1.66,0.25c0.58,0.25,1.08,0.66,1.5,1.24c0.41,0.5,0.83,1.16,1.16,1.91
			c0.25,0.66,0.5,1.41,0.58,2.16c0.08,0.83,0.17,1.49,0.17,2.16c-0.08,0.58-0.17,1.16-0.25,1.74c-0.17,0.5-0.42,1-0.75,1.41
			c-0.33,0.41-0.75,0.83-1.41,1.24c-0.58,0.41-1.33,0.66-2.32,0.83l-5.06,0.66V40.4l1.91-0.25l-0.5-3.73l-0.66-4.81l-0.5-3.74
			l-1.82,0.25v-0.25L104.01,27.04L104.01,27.04z M101.19,27.62l1.66,12.28l1.66-0.17c0.66-0.08,1.25-0.33,1.74-0.75
			c0.5-0.33,0.83-1.16,0.91-2.41c0.08-1.25,0-2.57-0.17-3.98c-0.17-1.66-0.5-2.82-1-3.65c-0.41-0.75-0.91-1.24-1.41-1.41
			c-0.5-0.17-0.99-0.25-1.49-0.17L101.19,27.62L101.19,27.62z"/>
		<path class="st1" d="M116.46,27.29c0.5,0.33,1,0.83,1.25,1.41c0.42,0.58,0.75,1.33,0.92,2.16c0.16,0.83,0.33,1.74,0.33,2.57
			c-0.08,0.75-0.17,1.49-0.25,2.16c-0.16,0.66-0.42,1.33-0.75,1.83c-0.33,0.5-0.66,1-1.33,1.41c-0.58,0.42-1.24,0.66-2.07,0.66
			c-0.58,0-0.99-0.08-1.33-0.17c-0.33-0.17-0.67-0.33-0.91-0.58c-0.25-0.25-0.66-0.83-1.33-1.74c-0.58-0.91-0.91-2.32-0.91-4.07
			c0.08-1.66,0.5-3.07,1.33-4.32c0.83-1.24,1.99-1.91,3.4-1.91C115.46,26.71,115.96,26.96,116.46,27.29L116.46,27.29z M113.3,27.37
			c-0.33,0.33-0.58,0.66-0.75,1.08c-0.17,0.41-0.25,1.08-0.42,2.07c-0.16,1-0.25,2.08-0.25,3.07c0,0.83,0.08,1.49,0.08,2.07
			c0.08,0.58,0.16,1,0.25,1.41c0.08,0.33,0.17,0.58,0.25,0.75c0,0.17,0.08,0.25,0.17,0.33c0.08,0.08,0.16,0.17,0.25,0.25
			c0.08,0.08,0.25,0.25,0.5,0.5c0.33,0.17,0.66,0.33,1.08,0.33c0.5,0,0.92-0.17,1.25-0.42c0.33-0.25,0.66-0.5,0.83-0.75
			c0.25-0.41,0.33-0.66,0.33-1l0.25-2.57l0.08-1.91c0-1.74-0.08-2.99-0.33-3.74c-0.25-0.75-0.5-1.25-0.83-1.49
			c-0.42-0.25-0.83-0.41-1.25-0.41C114.22,26.96,113.72,27.12,113.3,27.37L113.3,27.37z"/>
		<path class="st1" d="M125.59,27.37c0.5,0.33,0.91,0.75,1.16,1.33c0.42-0.25,0.83-0.66,1.24-1.16l-0.08,1.41l-0.25,1.74l-0.16,1.41
			c-0.17-0.91-0.25-1.58-0.33-1.99c-0.08-0.33-0.25-0.83-0.5-1.24c-0.33-0.5-0.66-0.91-1.16-1.25c-0.5-0.33-1.08-0.5-1.58-0.58
			c-0.25-0.08-0.66,0-1.25,0.17c-0.5,0.17-0.83,0.41-1.08,0.83c-0.25,0.42-0.42,0.75-0.42,1c0,0.25,0.17,0.58,0.5,1
			c0.33,0.42,0.91,0.91,1.66,1.41l2.24,1.49c0.66,0.5,1.24,1,1.58,1.58c0.42,0.58,0.5,1.33,0.42,2.16l-0.08,0.5
			c-0.25,1.16-0.75,1.91-1.58,2.24c-0.91,0.25-1.58,0.41-2.08,0.33c-0.75-0.08-1.33-0.25-1.74-0.66c-0.42-0.33-0.75-0.67-0.83-0.83
			l-0.33-0.42c-0.25,0.08-0.5,0.33-0.83,0.66l-0.66,0.75l0.58-5.15l0.16,0.08c0,1.16,0.25,2.16,0.75,3.07
			c0.42,1,0.91,1.58,1.58,1.91c0.58,0.25,1.08,0.41,1.41,0.41c0.75,0.17,1.41-0.08,1.99-0.5c0.58-0.5,0.91-1.08,0.99-1.74
			c0-0.33-0.08-0.66-0.33-1c-0.25-0.33-0.75-0.75-1.33-1.16l-2.24-1.58c-0.83-0.58-1.49-1.16-1.91-1.74
			c-0.41-0.58-0.58-1.33-0.5-2.08c0.08-0.5,0.25-1.16,0.67-1.91c0.41-0.75,1.24-1.08,2.57-1.08
			C124.59,26.87,125.17,27.12,125.59,27.37L125.59,27.37z"/>
		<path class="st1" d="M146.75,32.18L148,32.6l0.99,0.25l-0.08,0.25l-1.66-0.58l-3.65,11.87l1.66,0.58v0.17l-5.06-1.58l0.08-0.17
			l1.83,0.58l3.57-11.37l-2.24,3.49l-3.07,4.73c-0.58,0.83-0.91,1.33-1.16,1.66c-0.25,0.25-0.42,0.5-0.5,0.66c0-0.17,0-0.41,0-0.75
			c-0.08-0.33-0.08-0.66-0.08-1l0.08-4.48l0.08-4.15l0.08-2.16l-3.24,10.46c-0.08,0.17-0.08,0.33,0,0.41
			c0.08,0.17,0.17,0.25,0.25,0.33c0.08,0.08,0.17,0.08,0.25,0.17l0.66,0.33l0.5,0.17l-0.08,0.08v0.08l-1.25-0.41l-1.66-0.5
			l-1.24-0.41l0.08-0.17c1.25,0.33,1.91,0.33,2.07-0.25l1-3.15l1.24-3.98l1-3.15c0.08-0.16,0-0.41-0.17-0.58
			c-0.17-0.17-0.33-0.25-0.66-0.42l-0.91-0.33l0.08-0.25l3.73,1.16l-0.08,1.83l-0.08,3.4l-0.17,3.24l-0.08,1.58h0.08l1.66-2.57
			l2.24-3.24l1.66-2.57L146.75,32.18L146.75,32.18z"/>
		<path class="st1" d="M160.2,39.16l-2.16,3.82l-0.08-0.08l0.66-1.74c0.08-0.41,0.16-0.83,0.16-1.33c-0.08-0.5-0.25-0.91-0.58-1.24
			c-0.41-0.33-0.91-0.75-1.58-1.08l-0.58-0.33l-0.83-0.41l-0.09-0.08l-0.08-0.08l-2.74,4.73l0.83,0.5l0.67,0.42
			c0.33,0.17,0.66,0.17,0.91,0c0.33-0.25,0.58-0.5,0.83-0.83l0.75-0.91l0.08,0.08l-2.82,5.06l-0.08-0.08l0.33-0.91
			c0.08-0.25,0.16-0.33,0.16-0.41c0-0.08,0.08-0.25,0.08-0.42c0.08-0.25,0.08-0.41,0-0.66c-0.08-0.25-0.17-0.41-0.41-0.58
			l-1.49-0.83l-3.15,5.64l0.41,0.25l0.58,0.33l0.42,0.25c1.16,0.58,1.99,0.83,2.66,0.66c0.66-0.17,1.08-0.33,1.33-0.5
			c0.17-0.17,0.33-0.25,0.41-0.33c0.08,0,0.17-0.08,0.33-0.25l0.58-0.83l0.66-0.83l0.08,0.08l-2.41,4.31l-2.57-1.41l-3.24-1.83
			l-2.49-1.5l0.08-0.17l1.58,0.83h0.08l0.16-0.08l5.98-10.54c-0.25-0.25-0.66-0.5-1.24-0.83l-0.33-0.17l0.08-0.17L160.2,39.16
			L160.2,39.16z"/>
		<path class="st1" d="M170.49,46.62c-0.91-0.66-1.74-0.83-2.33-0.58l-1.33,0.66l-1.66,0.75l-1.33,0.66l-0.42,2.49l-0.5,3.15
			l-0.42,2.49l1.16,0.75l-0.17,0.25l-1.33-0.91l-1.58-1.25l-1.33-0.91l0.17-0.25l1.66,1.24l0.33-1.99l0.42-2.49l0.33-1.99
			l-1.41,0.75l-1.74,0.83l-1.41,0.66c-0.17,0.17-0.33,0.25-0.42,0.33c-0.25,0.42,0,1,1,1.74l-0.08,0.17l-1.08-0.83l-1.41-1
			l-1.08-0.83l0.17-0.08c0.91,0.66,1.91,0.83,2.82,0.33l1.41-0.66l1.91-1l1.41-0.66l0.33-2.16l0.41-2.74l0.33-2.16l-1.08-0.83
			l0.08-0.17l3.98,2.9l-0.17,0.17l-1.49-1.08l-0.25,1.66l-0.25,2.16l-0.25,1.58l1.25-0.58l1.49-0.75l1.16-0.58
			c0.16-0.08,0.25-0.17,0.33-0.25c0.17-0.17,0.17-0.42-0.08-0.66c-0.16-0.17-0.5-0.5-0.91-0.83l0.08-0.17l3.32,2.49L170.49,46.62
			L170.49,46.62z"/>
		<polygon class="st1" points="176.79,52.02 176.63,52.19 175.3,50.94 166.75,59.9 168.08,61.15 167.91,61.4 164.09,57.75 
			164.18,57.58 165.51,58.74 174.05,49.69 172.73,48.53 172.89,48.37 176.79,52.02 		"/>
		<path class="st1" d="M180.78,56.25c0.5,0.58,0.75,1.58,0.58,2.82h0.83h0.91v0.08v0.08l-3.4,2.99l-0.08-0.08
			c1.16-1.91,1.74-3.24,1.58-4.15c-0.16-0.83-0.41-1.41-0.66-1.66c-0.33-0.42-0.83-0.58-1.41-0.67c-0.66,0-1.33,0.17-2.07,0.5
			c-0.83,0.33-1.58,0.91-2.41,1.58c-0.17,0.17-0.33,0.33-0.58,0.58c-0.25,0.25-0.5,0.5-0.83,0.83l-1.08,1.08
			c-0.33,0.33-0.58,0.66-0.83,1c-0.25,0.25-0.5,0.66-0.75,1.16c-0.25,0.5-0.25,1.16,0,1.91c0.08,0.25,0.25,0.41,0.41,0.66
			c0.25,0.25,0.58,0.5,0.91,0.58c0.67,0.17,1.25,0.17,1.83,0.08c0.58-0.17,1.08-0.25,1.41-0.41c0.33-0.17,0.66-0.25,1.08-0.5
			c0.33-0.17,0.66-0.33,1-0.5l0.08,0.08l-3.9,3.49c-0.08-0.17-0.08-0.33-0.08-0.42c0.08-0.17,0.08-0.33,0.17-0.58l0.16-0.66v-0.08
			l-0.08-0.08c-1.25,0.08-2.16-0.17-2.66-0.83c-0.5-0.58-0.83-1.25-0.91-1.99c0-0.75,0.17-1.66,0.58-2.82
			c0.41-1.16,1.25-2.24,2.41-3.24c1-0.91,1.91-1.49,2.66-1.66c0.66-0.08,1.25-0.25,1.58-0.25c0.33-0.08,0.66-0.08,0.91-0.08
			c0.25-0.08,0.58,0,0.99,0.08c0.42,0.17,0.91,0.33,1.33,0.66L180.78,56.25L180.78,56.25z"/>
		<path class="st1" d="M186.34,68.04l-3.49,4.23l-3.24,3.98l0.83,1.33l-0.17,0.08h-0.08l-0.83-1.33l-1.08-1.66l-0.83-1.33l0.08-0.08
			h0.08l0.99,1.49l0.83-0.91l1.08-1.24l0.75-0.91l-1.99-3.15l-1.49,0.33l-1.41,0.41l-0.25,0.08c-0.42,0.33-0.33,1,0.42,2.16
			l-0.17,0.17l-2.32-3.65l0.17-0.08c0.58,0.83,1.24,1.16,1.99,0.91l3.9-1.08l5.06-1.41l2.57-0.75l0.17,0.08v0.25
			c0.08,0.08,0,0.17,0,0.25L186.34,68.04L186.34,68.04z M182.69,69.95l1.58-1.83l1.25-1.41l-1.83,0.5l-2.32,0.66l-1.74,0.58
			l1.91,2.99L182.69,69.95L182.69,69.95z"/>
		<path class="st1" d="M193.47,75.42l-1.99,2.66l-2.49,3.49l-1.91,2.66l7.22-3.4c0.83-0.41,0.91-1.16,0.41-2.32l0.17-0.08l1.83,3.73
			l-0.25,0.08c-0.58-1.16-1.16-1.58-1.83-1.24l-10.46,4.98l-0.08-0.25l2.32-3.24l2.99-4.07l2.33-3.24l-8.72,4.15
			c-0.58,0.33-0.91,0.75-0.83,1.24c0.08,0.58,0.17,0.91,0.25,1l0.16,0.42l-0.25,0.08l-0.58-1.25l-0.75-1.58L180.45,78l0.16-0.08
			l0.25,0.41l0.17,0.41c0.16,0.25,0.42,0.33,0.75,0.33c0.41,0,0.67,0,0.91-0.08c0.25,0,0.42-0.08,0.66-0.25
			c0.41-0.08,1-0.33,1.74-0.75l6.97-3.32c0.41-0.17,0.33-0.91-0.25-2.07l0.25-0.08L193.47,75.42L193.47,75.42z"/>
		<path class="st1" d="M198.45,90.78c-0.17,0.58-0.5,1.16-0.91,1.66c-0.5,0.58-1.08,1.08-1.82,1.49c-0.75,0.41-1.58,0.83-2.32,1.08
			c-0.75,0.17-1.5,0.33-2.16,0.33c-0.75,0.08-1.33,0-1.99-0.08c-0.58-0.16-1.16-0.5-1.74-0.91c-0.58-0.5-1-1.08-1.24-1.83
			c-0.17-0.58-0.25-1-0.17-1.41c0-0.33,0.08-0.66,0.25-1c0.17-0.25,0.58-0.83,1.24-1.74c0.75-0.83,1.91-1.49,3.65-2.07
			c1.58-0.42,3.07-0.5,4.48,0c1.49,0.41,2.41,1.33,2.82,2.74C198.7,89.61,198.7,90.2,198.45,90.78L198.45,90.78z M197.46,87.79
			c-0.33-0.25-0.75-0.41-1.25-0.41c-0.42,0-1.16,0.08-2.16,0.25c-1,0.08-1.91,0.33-2.91,0.67c-0.83,0.25-1.49,0.41-1.99,0.66
			c-0.5,0.17-0.91,0.42-1.24,0.58c-0.33,0.25-0.58,0.41-0.67,0.5c-0.16,0.08-0.25,0.17-0.33,0.25c0,0.08-0.08,0.25-0.17,0.33
			c0,0.08-0.17,0.33-0.25,0.66c-0.17,0.25-0.17,0.66,0,1.08c0.16,0.5,0.33,0.83,0.75,1.08c0.33,0.25,0.67,0.41,1,0.5
			c0.33,0.17,0.66,0.17,1,0.08l2.49-0.5l1.82-0.5c1.66-0.5,2.82-1,3.49-1.41c0.67-0.41,1.08-0.83,1.24-1.24
			c0.08-0.42,0.08-0.83,0-1.24C198.12,88.53,197.87,88.12,197.46,87.79L197.46,87.79z"/>
		<path class="st1" d="M200.69,99.91c-0.16,0.5-0.42,1-0.91,1.41c0.42,0.41,0.91,0.66,1.58,0.91l-1.41,0.25l-1.83,0.33l-1.33,0.25
			c0.83-0.42,1.41-0.75,1.74-0.91c0.33-0.17,0.75-0.5,1.08-0.83c0.41-0.42,0.66-0.91,0.83-1.49c0.17-0.58,0.25-1.16,0.17-1.66
			c-0.08-0.25-0.25-0.66-0.58-1.08c-0.25-0.5-0.67-0.75-1.08-0.83c-0.5-0.08-0.83-0.17-1.08-0.08c-0.25,0-0.58,0.25-0.83,0.75
			c-0.33,0.41-0.58,1.08-0.83,1.99l-0.83,2.57c-0.17,0.83-0.58,1.49-1,1.99c-0.41,0.5-1.08,0.83-1.99,1l-0.42,0.08
			c-1.24,0.08-2.08-0.16-2.66-0.91c-0.5-0.66-0.83-1.33-0.91-1.83c-0.17-0.75-0.17-1.41,0.08-1.91c0.25-0.5,0.42-0.83,0.58-1
			l0.33-0.5c-0.17-0.17-0.5-0.33-0.91-0.5l-0.91-0.41l5.06-1v0.17c-1.08,0.42-1.99,0.91-2.74,1.66c-0.75,0.66-1.24,1.33-1.33,1.99
			c-0.08,0.66-0.08,1.16,0,1.49c0.08,0.75,0.5,1.33,1.08,1.74c0.66,0.41,1.24,0.58,1.91,0.5c0.33-0.08,0.67-0.33,0.91-0.66
			c0.25-0.33,0.5-0.83,0.75-1.66l0.83-2.57c0.25-0.91,0.66-1.66,1.08-2.24c0.5-0.58,1.08-1,1.83-1.16c0.5-0.08,1.16,0,1.99,0.17
			c0.83,0.17,1.41,0.83,1.82,2.07C200.86,98.74,200.86,99.32,200.69,99.91L200.69,99.91z"/>
	</g>
	<g>
		<path class="st2" d="M251.67,152.86l1.11-2.42c0,0-1.43-1.65-5.78-1.72s-7.21,2.03-7.21,5.31s2.45,4.51,6.2,5.24
			c3.75,0.73,4.29,1.88,4.29,2.67c0,0.79-0.73,2.22-3.62,2.22c-2.89,0-5.09-1.14-6.1-1.84l-1.14,2.45c0,0,2.29,2.19,7.02,2.19
			s7.18-2.77,7.18-5.34c0,0,0.44-3.72-5.5-4.89c-5.94-1.18-4.96-2.61-4.99-3.08s0.46-2.13,3.77-2.13
			C246.89,151.53,248.93,151.27,251.67,152.86z"/>
		<polygon class="st2" points="260.37,148.98 273.26,148.98 273.26,151.75 263.66,151.75 263.66,156.42 272.19,156.42 
			272.19,159.07 263.66,159.07 263.66,164.05 273.67,164.05 273.67,166.69 260.37,166.69 		"/>
		<polygon class="st2" points="325.06,149 337.96,149 337.96,151.76 328.35,151.76 328.35,156.44 336.88,156.44 336.88,159.08 
			328.35,159.08 328.35,164.06 338.36,164.06 338.36,166.71 325.06,166.71 		"/>
		<polygon class="st2" points="240.92,180.64 253.81,180.64 253.81,183.4 244.21,183.4 244.21,188.08 252.74,188.08 252.74,190.72 
			244.21,190.72 244.21,195.7 254.22,195.7 254.22,198.35 240.92,198.35 		"/>
		<path class="st2" d="M405.65,189.49c0,5.01-4.32,9.08-9.65,9.08s-9.65-4.06-9.65-9.08c0-5.01,4.32-9.08,9.65-9.08
			S405.65,184.48,405.65,189.49z M396.01,183.37c-3.51,0-6.36,2.74-6.36,6.12c0,3.38,2.85,6.12,6.36,6.12
			c3.51,0,6.36-2.74,6.36-6.12C402.37,186.11,399.52,183.37,396.01,183.37z"/>
		<path class="st2" d="M296.26,164.01c-1.76,1.79-4.28,2.9-7.07,2.9c-5.33,0-9.65-4.06-9.65-9.08c0-5.01,4.32-9.08,9.65-9.08
			c2.82,0,5.36,1.14,7.12,2.96l-2.33,2.1c-1.17-1.29-2.88-2.1-4.8-2.1c-3.51,0-6.36,2.74-6.36,6.12s2.85,6.12,6.36,6.12
			c1.93,0,3.66-0.83,4.82-2.13L296.26,164.01z"/>
		<path class="st2" d="M324.94,195.64c-1.76,1.79-4.28,2.9-7.07,2.9c-5.33,0-9.65-4.06-9.65-9.08c0-5.01,4.32-9.08,9.65-9.08
			c2.82,0,5.36,1.14,7.12,2.96l-2.33,2.1c-1.17-1.29-2.88-2.1-4.8-2.1c-3.51,0-6.36,2.74-6.36,6.12c0,3.38,2.85,6.12,6.36,6.12
			c1.93,0,3.66-0.83,4.82-2.13L324.94,195.64z"/>
		<path class="st2" d="M369.56,195.66c-1.76,1.79-4.28,2.9-7.07,2.9c-5.33,0-9.65-4.06-9.65-9.08c0-5.01,4.32-9.08,9.65-9.08
			c2.82,0,5.36,1.14,7.13,2.96l-2.33,2.1c-1.17-1.29-2.88-2.1-4.8-2.1c-3.51,0-6.36,2.74-6.36,6.12c0,3.38,2.85,6.12,6.36,6.12
			c1.93,0,3.66-0.83,4.82-2.13L369.56,195.66z"/>
		<path class="st2" d="M561.55,195.67c-1.76,1.79-4.28,2.9-7.07,2.9c-5.33,0-9.65-4.06-9.65-9.08c0-5.01,4.32-9.08,9.65-9.08
			c2.82,0,5.36,1.14,7.13,2.96l-2.33,2.1c-1.17-1.29-2.88-2.1-4.8-2.1c-3.51,0-6.36,2.74-6.36,6.12c0,3.38,2.85,6.12,6.36,6.12
			c1.93,0,3.66-0.83,4.82-2.13L561.55,195.67z"/>
		<path class="st2" d="M369.85,149.01h3.31l8.01,17.71h-3.5l-1.84-4.05h-8.75l-1.88,4.05h-3.43L369.85,149.01z M371.47,152.42
			l-3.31,7.6h6.66L371.47,152.42z"/>
		<path class="st2" d="M426.13,149.01h3.31l8.01,17.71h-3.5l-1.84-4.05h-8.75l-1.88,4.05h-3.43L426.13,149.01z M427.75,152.42
			l-3.31,7.6h6.66L427.75,152.42z"/>
		<path class="st2" d="M336.88,180.64h3.31l8.01,17.71h-3.5l-1.84-4.05h-8.75l-1.88,4.05h-3.43L336.88,180.64z M338.51,184.04
			l-3.31,7.6h6.66L338.51,184.04z"/>
		<path class="st2" d="M573.68,180.65h3.31l8.01,17.71h-3.5l-1.84-4.05h-8.75l-1.88,4.05h-3.43L573.68,180.65z M575.3,184.05
			l-3.31,7.6h6.66L575.3,184.05z"/>
		<polygon class="st2" points="478.57,149 491.47,149 491.47,151.76 481.86,151.76 481.86,156.44 490.4,156.44 490.4,159.08 
			481.86,159.08 481.86,164.06 491.88,164.06 491.88,166.71 478.57,166.71 		"/>
		<path class="st2" d="M453.93,149h8.66c0,0,8.74,0.18,8.74,8.86s-8.7,8.86-8.7,8.86h-8.7V149z M468.09,157.85
			c0-5.54-5.48-6.03-5.48-6.03h-5.43v12.07h5.45C462.63,163.88,468.09,163.38,468.09,157.85z"/>
		<path class="st2" d="M261.51,180.62h8.66c0,0,8.74,0.18,8.74,8.86c0,8.67-8.7,8.86-8.7,8.86h-8.7V180.62z M275.67,189.46
			c0-5.54-5.48-6.03-5.48-6.03h-5.43v12.07h5.45C270.22,195.5,275.67,195,275.67,189.46z"/>
		<path class="st2" d="M303.16,149h8.01c0,0,6.67,0.15,6.67,6.23c0,0,0.5,3.93-3.72,5.65l4.03,5.83h-3.48l-3.65-5.14h-4.67v5.14
			h-3.19V149z M306.45,158.85h4.74c0,0,3.46-0.19,3.46-3.62c0-3.43-3.83-3.4-3.83-3.4h-4.37V158.85z"/>
		<path class="st2" d="M387.13,149.01h8.01c0,0,6.67,0.15,6.67,6.23c0,0,0.5,3.93-3.72,5.65l4.03,5.83h-3.48l-3.65-5.14h-4.67v5.14
			h-3.19V149.01z M390.43,158.86h4.74c0,0,3.46-0.19,3.46-3.62c0-3.43-3.83-3.4-3.83-3.4h-4.37V158.86z"/>
		<rect x="409.35" y="149.01" class="st2" width="3.24" height="17.71"/>
		<path class="st2" d="M394.09,179.11c0.1-0.1,3.38-3.43,3.38-3.43h3.75l-4.29,3.43H394.09z"/>
		<path class="st2" d="M408.83,147.51c0.1-0.1,3.38-3.43,3.38-3.43h3.75l-4.29,3.43H408.83z"/>
		<path class="st2" d="M474.98,179.11c0.1-0.1,3.38-3.43,3.38-3.43h3.75l-4.29,3.43H474.98z"/>
		<polyline class="st2" points="349.5,166.71 352.74,166.71 352.74,151.75 358.59,151.75 358.59,149.01 343.56,149.01 
			343.56,151.75 349.5,151.75 349.5,166.71 		"/>
		<path class="st2" d="M285.94,180.62v10.87c0,0-0.07,7.06,7.91,7.06c7.99,0,7.51-7.54,7.51-7.54v-10.39h-3.22v9.94
			c0,0,0.36,5.15-4.34,5.13s-4.6-3.91-4.6-5.29v-9.77H285.94z"/>
		<rect x="376.37" y="180.62" class="st2" width="3.24" height="17.71"/>
		<path class="st2" d="M469.42,180.64v10.87c0,0-0.07,7.06,7.91,7.06c7.99,0,7.51-7.54,7.51-7.54v-10.39h-3.22v9.94
			c0,0,0.36,5.15-4.34,5.13c-4.7-0.02-4.6-3.91-4.6-5.29v-9.77H469.42z"/>
		<rect x="534.83" y="180.65" class="st2" width="3.24" height="17.71"/>
		<polygon class="st2" points="516.11,180.65 519.38,180.65 519.38,195.64 528.6,195.64 528.6,198.36 516.11,198.36 		"/>
		<path class="st2" d="M493.26,180.65h8.2c0,0,6.48-0.42,6.48,4.51c0,0,0.32,2.54-2.07,3.94c0,0,2.77,0.83,3.02,3.59
			c0.25,2.77-0.95,3.97-1.91,4.54s-2.42,1.13-5.18,1.13c-2.77,0-8.55,0-8.55,0V180.65z M496.52,188.06h4.91
			c0.62,0,3.31-0.14,3.31-2.51s-3.11-2.32-3.11-2.32h-5.1V188.06z M496.52,195.82h5.46c0.69,0,3.68-0.15,3.68-2.68
			c0-2.53-3.46-2.48-3.46-2.48h-5.67V195.82z"/>
		<polygon class="st2" points="413,180.64 415.67,180.64 425.37,192.63 425.37,180.64 428.61,180.64 428.61,198.37 425.89,198.37 
			416.22,186.41 416.22,198.37 413,198.37 		"/>
		<path class="st2" d="M447.68,180.64h7.63c0,0,7.06-0.13,7.06,6.2s-6.42,6.39-7.34,6.39c-0.92,0-4.1,0-4.1,0v5.15h-3.24V180.64z
			 M450.95,190.43c0,0,4,0,4.51,0c0.51,0,3.69-0.41,3.62-3.66s-3.85-3.31-3.85-3.31h-4.29V190.43z"/>
	</g>
</g>
</svg>
