<?xml version="1.0" encoding="utf-8"?>
<!-- Generator: Adobe Illustrator 24.2.0, SVG Export Plug-In . SVG Version: 6.00 Build 0)  -->
<svg version="1.1" id="Capa_1" xmlns="http://www.w3.org/2000/svg" xmlns:xlink="http://www.w3.org/1999/xlink" x="0px" y="0px"
	 viewBox="0 0 1046.1 233" style="enable-background:new 0 0 1046.1 233;" xml:space="preserve">
<style type="text/css">
	.st0{fill-rule:evenodd;clip-rule:evenodd;fill:#B2935F;}
	.st1{fill:#B2935F;}
	.st2{fill:#832640;}
	.st3{fill:#842640;}
</style>
<g>
	<g>
		<path class="st0" d="M67.9,86c0-0.8-0.1-1.5-0.8-1.3c-2.1,0.7-5.2,3.7-5.2,5.6c0,4.5,1.7,10.2,4.1,11.4c1,0.4,4.4,0,5.6-0.8
			c0.2-0.3-0.3-1.2-0.3-1.7c-0.8,0-2.9,0.9-3.8,0.4c-2.7-0.8-2.7-5.9-2.3-8.6l2.6-4.7c-1,1-2.7,1.9-3.2,1.7
			C64.3,87.2,67.1,85,67.9,86L67.9,86z"/>
		<path class="st0" d="M73,95.4c0.1,1.9-5.5,2.6-5.8-0.2C69,96.2,71.5,96.3,73,95.4L73,95.4z"/>
		<path class="st0" d="M81.8,97.2c4.4-1.6,8.2,7.2,4.4,11.1C87.6,104.8,86.3,98.3,81.8,97.2L81.8,97.2z"/>
		<path class="st0" d="M79.1,98.6c0.1-0.3,0.2-0.6,0.3-0.5c0.2,0.3,0.8,0.3,0.9,0.3c2.3,0.3,4.8,3.7,5.3,8.1
			c0.3,3.7-9.1,11.9-12.1,16c-1.3,3.3,1.4,7.3,0.7,6.9c-6.5-3.8-1.7-10-1.1-10.6c7.1-8.2,13.9-11.9,8.2-17.8c0,0-1.7-0.6-2.1-0.9
			C78.9,99.7,78.9,99,79.1,98.6L79.1,98.6z"/>
		<path class="st0" d="M91.5,139.6c0.2,0.1,1.7-1.9,1.8-2.2c0-0.1,0.1-0.3,0.6-1c1.4-2.3,0.6-6.4-2.4-8.2c-3.3-2.2-8.8,0.3-13.6-1
			c-2.4-1.3-2.6-5.2-2.7-4.7c-1.7,5.6,4,6.3,4.6,6.3c7.9,1,13.1-1.9,12.9,5.7c0,0-0.2,0.8-0.4,1.2c-0.9,1.1-2.2,2.7-2.2,2.7
			C89.5,138.6,91.3,139.3,91.5,139.6L91.5,139.6z"/>
		<path class="st0" d="M101.6,86.2c-1.6-1.5-4.4-2.2-6.4-2.7c-0.1,0-0.3,0.3-0.5,0.7c1.2,0.2,5.1,1.5,6.6,2.6
			C101.6,86.9,101.6,86.3,101.6,86.2L101.6,86.2z"/>
		<path class="st0" d="M102.6,96.7c0.1-2.2-0.1-3.6,0.2-5c0,0-0.6,0.5-0.9,0.5c0.3,0.8,0.2,3.4-0.2,4.5
			C101.7,96.8,102.6,96.7,102.6,96.7L102.6,96.7z"/>
		<path class="st0" d="M99.6,121.1c-0.8-7.2-0.5-7.5-0.3-10.5c0,0,0.7,0.1,1.6,0c-1.2,1.3-0.1,9.7,1,11.5
			C101.8,122.3,100.7,122.1,99.6,121.1L99.6,121.1z"/>
		<path class="st0" d="M108.3,119.8c-1.1-6.9-0.8-6.8-0.5-9.6c0,0,0.6,0,1.5-0.1c-1.2,1.2-0.6,6.7,0.3,8.6
			C109.7,118.7,109.4,120.7,108.3,119.8L108.3,119.8z"/>
		<path class="st0" d="M115.1,115c-0.8-4.8-0.8-4.6-0.8-6.6c0,0,0.3-0.2,0.9-0.3c-0.8,0.8,0.5,3.4,1,6.6
			C116.5,115.7,116.2,115.9,115.1,115L115.1,115z"/>
		<path class="st0" d="M119.9,107.4c-0.9-2-0.8-2-1.4-2.7c0,0-0.2,0.1-0.5,0.3c0.7-0.1,0.7,1.3,1.2,2.7
			C119.5,108.1,119.6,108.1,119.9,107.4L119.9,107.4z"/>
		<path class="st0" d="M98.4,106.9c0.7-2.2,1.3-3.9,1.7-5.2c0,0-0.6,0-0.9-0.1c0,0.8-1.4,4-1.7,5.2L98.4,106.9L98.4,106.9z"/>
		<path class="st0" d="M94.3,106.8c0.8-2.1,1.7-3.8,2.3-5.1c0,0-0.7,0-1-0.2c0,0.8-1.7,3.7-2.2,5C93.5,106.6,94.3,106.8,94.3,106.8
			L94.3,106.8z"/>
		<path class="st0" d="M105.3,106.6c0.3-3.2,0.4-5.2,0.6-7.1c0,0-0.6,0.8-1,0.8c0,1.1-0.8,5.1-0.8,6.7
			C104.2,107,105.3,106.6,105.3,106.6L105.3,106.6z"/>
		<path class="st0" d="M109.2,93.2c-1-2.9-1.7-4.6-2.2-6.4c0,0-0.3,0.9-0.6,1c0.6,0.9,1.7,4.2,1.9,5.8
			C108.4,93.8,109.2,93.2,109.2,93.2L109.2,93.2z"/>
		<path class="st0" d="M113,104.5c-0.1-3.7-0.3-6.1-0.3-8.5c0,0-0.5,0.9-0.8,0.9c0.3,1.3,0.3,5.8,0.1,7.8
			C112,104.9,112.9,104.5,113,104.5L113,104.5z"/>
		<path class="st0" d="M130.6,85c3.5,1.7,5.6,2.5,7.7,3.7c0,0-0.6-0.8-0.4-1.2c-1.3-0.3-5.3-2.2-7-3.4C130.7,84,130.6,85,130.6,85
			L130.6,85z"/>
		<path class="st0" d="M144.8,79.1c2.9-0.8,20.7,18.4,23.6,23.5c0,0,1.2-0.3,1.4-0.6c-1.1-3.2-19.8-24.2-23.9-24
			C145.9,78,144.8,79,144.8,79.1L144.8,79.1z"/>
		<path class="st0" d="M140,95.6c1.4-0.4,8.9,6.1,10.3,8.5c0,0,1.4,0.3,0.9-0.3c-0.6-1.6-8.6-9.3-10.5-9.2L140,95.6L140,95.6z"/>
		<path class="st0" d="M137.1,102.8c1,0.3,4.4,3.2,6.2,4.7c0,0,1.4,0.3,0.8-0.4c-0.8-1.1-5.1-5.6-6.6-5.9
			C137.5,101.1,137.2,102.8,137.1,102.8L137.1,102.8z"/>
		<path class="st0" d="M133,108.9c0.9,0.3,1.3,1,3.1,2.5c0,0,1.4,0.3,0.9-0.4c-0.9-1.1-2.2-3.2-3.6-3.5L133,108.9L133,108.9z"/>
		<path class="st0" d="M127.6,114.3c0.9,0.3,1.1,1.1,2.3,2.5c0,0,0.3-0.5,0.7-1.1c-0.9-1.1-1.2-1.5-2.2-2.4L127.6,114.3L127.6,114.3
			z"/>
		<path class="st0" d="M120,118.1c0.9,0.3,3.6,5.1,4.9,6.6c0,0,0.3-0.5,0.5-1.1c-0.8-1.1-4.2-6.5-5.2-7.3L120,118.1L120,118.1z"/>
		<path class="st0" d="M114.4,122.9c0.9,0.3,4.1,5.8,5.4,7.3c0,0,0.3-0.5,0.6-1.1c-0.9-1.1-4-6.3-4.9-7.1L114.4,122.9L114.4,122.9z"
			/>
		<path class="st0" d="M125.9,131.5c0.9,0.3,3.6,5.3,4.1,7.5c0,0,0.3-0.3,0.7-0.8c-0.4-1.3-2.8-7.3-3.8-7.9
			C125.9,129.8,125.3,131.1,125.9,131.5L125.9,131.5z"/>
		<path class="st0" d="M118.7,136c0.8,0,4.4,4.5,5.2,6.6c0,0,0.4,0.1,0.7-0.5c-0.3-1.3-3.8-6.3-4.7-6.9
			C118.9,134.6,117.9,135,118.7,136L118.7,136z"/>
		<path class="st0" d="M127.4,148.8c0.5,0.1,2.3,2.7,2.8,4.1c0,0,0.5,0.1,0.8-0.3c-0.2-0.8-1.7-3.6-2.2-3.9
			C128.2,148.2,126.9,148.3,127.4,148.8L127.4,148.8z"/>
		<path class="st0" d="M122.8,149.7c0.3,0,1.9,2,2.4,3.3c0,0,0.6,0,0.8-0.3c-0.2-0.9-2.2-3.5-2.7-3.8
			C122.8,148.5,122.9,149.2,122.8,149.7L122.8,149.7z"/>
		<path class="st0" d="M112.7,138.8c0.9,0.8,4.6,4.1,6.8,7c0,0-0.1,0.3,0.2-0.3c-1.6-2.7-5.2-6.4-6-7.1
			C111.3,136.3,111.7,136.5,112.7,138.8L112.7,138.8z"/>
		<path class="st0" d="M130.5,123.2c0.9,0.3,3.4,5.6,4.4,9.4c0,0,0.2-0.4,0.4-1c-0.3-1.9-3.5-9-4.4-9.7
			C130.9,121.9,130.5,123.1,130.5,123.2L130.5,123.2z"/>
		<path class="st0" d="M107.3,126c0.9,0.3,4.4,5.7,5.6,7.1c0,0,0.5-0.2,0.8-0.8c-0.9-1.1-4.7-6.1-5.6-6.7L107.3,126L107.3,126z"/>
		<path class="st0" d="M132.7,93.6c2.1,1.3,3.5,2.3,3.5,2.4c-0.2,0.2,0.3-0.8,0.4-1.2c-0.7-0.2-2.9-1.3-3.9-2.2
			C132.6,92.7,132.7,93.6,132.7,93.6L132.7,93.6z"/>
		<path class="st0" d="M130,101.3c2.1,1.2,2.1,1.3,2.1,1.3c-0.2,0.2,0.5-0.6,0.6-1c-0.7-0.2-1-0.7-2.1-1.3
			C130.6,100.3,130,101.2,130,101.3L130,101.3z"/>
		<path class="st0" d="M125.8,107.2c2.1,1.3,1.7,1.4,1.7,1.4c-0.1,0.2,0.6-0.6,0.7-1c-0.6-0.5-0.8-0.7-1.8-1.3
			C126.3,106.3,125.8,107.1,125.8,107.2L125.8,107.2z"/>
		<path class="st0" d="M113.1,90.2c-1.8-2.7-3.6-4.7-4.7-6.5c0,0,0,0.6-0.3,0.8c0.9,0.8,3.5,4.9,4.2,6.4
			C112.4,91,113.1,90.2,113.1,90.2L113.1,90.2z"/>
		<path class="st0" d="M71.2,85.5c0.3-0.1,0.5-1,0.7-0.8c0.8,1.4,1,3.1-0.2,4.8C71.9,87.9,71.8,86.9,71.2,85.5L71.2,85.5z"/>
		<path class="st0" d="M74.2,89.4c1.3,1.6-7.1,6.7-8,4.7c-0.3-0.9,1.2-5.4,2.2-7.5c0.8-1.4,0.2-2.4-0.2-2.5
			c-0.8-0.2,1.3-1.7,1.3-1.7c1.9-1.2,2.3,1.1,1.7,1.7c-2.2,2.2-1.3,3-1.1,2.9c0.6-0.3-0.1,2.4-1.8,3.7c-0.3,0.2-0.7,1.3-0.3,1.8
			C70.2,92.2,73.3,90.8,74.2,89.4L74.2,89.4z"/>
		<path class="st0" d="M80.2,93.4c-1,0.3-1.7-0.3-1.9-0.3c0,1.3-0.7,1.5-2.8,1.2c-0.8,0.3-1.7,1.4-2.1,2c-2,3.7,0.9,8.2,7.2,7.1
			c-5.2-3.9-2.2-7.8,3.7-7.1c0-0.3,2.5-1.3,2.5-1.8c-0.3,0-2.9-0.5-4-0.5c-0.5,0,0.8,1.2,0.3,1.2c-3.6,0.1-9,2.4-5.8,6.6
			c0.1,0.2-4.1-0.2-2.7-4.4c0.3-0.8,0.8-1.7,1.4-1.7c0.9,0,2.4-0.1,2.7-0.3L80.2,93.4L80.2,93.4z"/>
		<path class="st0" d="M77.4,91.8c10.3,1.3,9.5,0.4,10.9,0.3c1,0,3.2,0.1,4.6,2.2c0.7,1-4.1,3.7-6.7,4.1c2.3-2,4.8-3.2,4.1-4
			c-0.8-0.3-2.4-0.7-3.4-0.1c-0.8,0.6-2.6-0.3-4.1-0.4c-0.8-0.2-1.6-0.3-2.6-0.3c-0.8,0-1.9-0.3-3-0.4
			C76.5,93.3,77.1,93.3,77.4,91.8L77.4,91.8z"/>
		<path class="st0" d="M82.8,80.1c0,1-0.4,4.8-1.5,5.6c-1.1,1.6-3.5,1.2-3.5,4.8c1.5,1.1,2.8,0.8,4.2,0.3l-0.1-0.9
			c-2.7,0.1-3.3,0-2.2-1.3c-0.1-0.5,1.8-1,3.1-3.3c-0.1,1.2-1.6,4.5-1.7,4.7c0.7,0.1,0.7,0.1,0.8,0.1c0.3,0,0.8-2.6,1.3-3.8
			c0.1-0.3,0.6-0.6,0.6-0.7C84.3,84.3,84.1,82.1,82.8,80.1L82.8,80.1z"/>
		<path class="st0" d="M83.5,87.3c0.3,0.1,0.2-1.6,0.7-1.2c1.5,1.6,1.9,4-1.8,5.3C84.3,89.6,84.7,88.1,83.5,87.3L83.5,87.3z"/>
		<path class="st0" d="M87.3,81.6c-0.3-0.2,0.7-0.6,0.7-1c-0.2-1.9-2.9-3.8-2.8-3.3c0.3,1.9,0.3,4-0.3,6.5c-0.1-0.3,0.8-0.4,1.1-0.9
			c0.6-1.3,0.3-1.9,0.3-3.1C86.4,79.5,87.3,80.2,87.3,81.6L87.3,81.6z"/>
		<path class="st0" d="M94,80.9c-0.2-0.3,0.5,1.5,0.8,1.2c3.5-4.3,0.9-7.1-0.9-7.3c-1.6-0.2-0.3,2.6-2.2,4.5
			c0.1-0.3,0.2,1.2,0.7,0.8c1.2-0.8,1.2-1.6,1.8-2.7C94.3,77.2,95.1,78.7,94,80.9L94,80.9z"/>
		<path class="st0" d="M84.3,85.4c0.3,0.1,0.7,1.2,1.2,0.9c4.6-2.8,7.1-6,3.7-11.1C89.6,80.1,89.4,82.3,84.3,85.4L84.3,85.4z"/>
		<path class="st0" d="M86.2,88.9c0-0.3-0.8,1.2,0.2,1.1c2.7-0.2,8.9-6.1,7-7.4c-0.3-0.2-0.3-0.7-0.4-0.7c-1.7,0-4.7,3.7-7,5.2
			c0.3-0.3-0.1,0.9,0.4,0.8c2-0.6,5.2-4.5,5.9-4.1C93,84,88.3,88,86.2,88.9L86.2,88.9z"/>
		<path class="st0" d="M97.6,79.7c0.1,0.3-0.9-1.1-0.2-1.2c1.8,0,6.1,2.4,8.2,2c0.6-0.1,1.8,0.4,1.8,1.1c0.1,0.2-1.2,2.7-1.4,2.7
			c-1.9,0.2-6.5-2.2-9.1-2.9c0.3,0.2-0.5-0.8,0.2-0.8c2,0.2,7.3,2.7,8.1,2.3c0.1,0,0.6-0.1,0.3-0.3C104.3,81.7,99.4,79.8,97.6,79.7
			L97.6,79.7z"/>
		<path class="st0" d="M113.5,79.1c0.3,0.3-0.8-0.5-0.7-0.8c0.1-0.9,3-0.1,3.3-0.3c0.2-0.1,0.3,0.1,0.7,0.3c0,0.1,1.9,3.1,1.7,3.6
			c-0.5,0.9-2.1,0.3-3.1,0.6c0.3,0.1-0.9-1-0.7-1c1.2-0.1,2.5,0.2,2.5-0.3c0-0.2-0.8-2-1.1-2.2C115,78.7,114.3,79,113.5,79.1
			L113.5,79.1z"/>
		<path class="st0" d="M132.9,71.6c0.3,0.3-0.8-0.6-1.1-0.5c-0.9,0.3,0.6,2.9,0.5,3.2c-0.1,0.2,0.4,0.4,0.8,0.7c0,0,2.9,1.3,3.4,1
			c0.8-0.6,0.3-2.1,0.4-3.1c0.1,0.2-1.6-0.7-1.5-0.5c0.2,1.2,0.4,2.2-0.1,2.2c-0.3,0-1.5-0.2-1.7-0.4
			C133.1,73.3,132.9,72.5,132.9,71.6L132.9,71.6z"/>
		<path class="st0" d="M124.8,70c0.3,0.1-1.6-0.5-1.9-0.3c-0.8,0.4,3.2,3.1,3.2,3.5c0,0.1,0.3,0.3,0.7,0.4c0,0,3.6,0.8,3.9,0.4
			c0.7-0.8-0.6-2.2-0.8-3.1c0.1,0.1-1.6-0.5-1.5-0.3c0.5,1.1,0.8,1.7,0.3,1.9c-0.2,0.1-1.5,0.2-1.7,0C126.2,71.7,125,70.8,124.8,70
			L124.8,70z"/>
		<path class="st0" d="M116.2,84.6c0.2,0.4-0.2-1,0-1c1.2,0.1,2.3,0,2.7-0.2c0.2-0.1,0.5,0.3,0.7,0.7c0.2,0.8,1.7,4.3,0.9,5.2
			c-0.9,1-2.7,0.2-3.7,0.3c0.3,0.1-0.7-0.9,0.1-1.2c1.1-0.3,2.4,0,2.6-0.3c0.3-0.6-0.5-2.8-0.9-3C117.6,84.7,117,84.6,116.2,84.6
			L116.2,84.6z"/>
		<path class="st0" d="M117.1,91.8c0.3,0.4,0.2-1.1,0.3-1.1c1.1-0.3,2.4-0.1,2.8,0c0.9,0.3,1.2,1.1,1.3,1.6c0.2,1.7,0.2,1.6-0.4,2.6
			c-0.7,1.2-1.4,2.6-2.3,2.9c0.2,0.1-0.4-1.5,0.1-2.2c0.8-1,1.2-1.6,1.2-1.9c0.4-1.2-0.4-1.7-0.8-1.8
			C118.3,91.8,117.9,91.8,117.1,91.8L117.1,91.8z"/>
		<path class="st0" d="M106.3,76c0.5,0.3-1.8-0.8-1.8-1c0.1-0.6,4.3,0.4,3.8-0.6c-0.2-0.3,0.8-0.2,1.8,0.4c0.3,0.1,2.9,1.4,2.9,1.9
			c0,0.7-0.9,0.8-2.3,0.9c0.3,0.1-1.3-0.1-1.4-0.5c-0.2-0.8,2.7,0.2,2.3-0.3c0,0-1.4-1.2-2.3-1.1C108.6,75.8,106.6,75.5,106.3,76
			L106.3,76z"/>
		<path class="st0" d="M95.9,83.1c0.1,0.3-0.1-0.8,0.5-0.8c0.9-0.3,9.1,3.2,8.5,4.6c0,0-0.8,1.4-1.7,2.5c-1.6,1.7-6.1-2.8-8.4-3.6
			c0.3,0.3-0.3-0.8,0.2-0.8c2.1,0.2,6.7,2.7,7.5,3.1c0.7,0.2,1.2-1.2,0.9-1.5C102.1,85.2,98.1,83.1,95.9,83.1L95.9,83.1z"/>
		<path class="st0" d="M95.2,87.4c0.1,0.3-0.3-0.5,0.3-0.7c0.8-0.2,6.5,2.6,5.7,4c0,0-0.9,1.9-2.1,2.5c-0.8,0.4-2.1-2.4-3.3-3.3
			c0.3,0.2-0.2-2,0.3-1.1c0.7,1.2,1.9,2.2,2.6,2.5c0.5,0.3,1.2-0.8,1-0.9C98.4,89.3,97,88.2,95.2,87.4L95.2,87.4z"/>
		<path class="st0" d="M94.9,91.3c-0.1,0.2,0.1-0.6,0.5-0.5c0.7,0.2,2.7,2.9,1.8,3.7c0,0-1.2,1.2-2.2,1.3c-0.7,0.1-1-2.2-1.7-3.2
			c0.2,0.3,0.8-1.6,0.9-0.8c0.3,1.1,0.5,0.9,1.1,2.2c0.2,0.3,0.3-0.1,0.3-0.5C95.8,92.1,95.9,92.4,94.9,91.3L94.9,91.3z"/>
		<path class="st0" d="M102.3,72.6c0.2,0.1-0.3-0.3-0.1-0.6c0.3-0.4,3.3-0.8,3.5,0.2c0,0,0.4,1.4,0,2.2c-0.3,0.5-2-0.1-3-0.1
			c0.3,0-0.8-1.3-0.3-1.1c0.9,0.3,0.9,0.1,2,0.2c0.4,0,0.2-0.3-0.2-0.5C103.3,72.3,103.7,72.3,102.3,72.6L102.3,72.6z"/>
		<path class="st0" d="M97.6,95.5c-0.2,0.2,0.7-1.3,1-1c0.5,0.7,0.8,3.8-1.9,6.1c-0.4,0.4-2.7,0.7-3-0.5c-0.3-0.8,0.3-2.2,2-4
			c-0.1,0.3,1.4-1.3,1-0.6c-0.7,1.1-1,2.1-1.4,3.5c-0.1,0.3,0.4,0.9,1.3-0.3C97.5,97.3,97.4,97.6,97.6,95.5L97.6,95.5z"/>
		<path class="st0" d="M103.5,90.8c-0.2,0.3,0.9-1.7,1.1-1.2c0.4,1.7,1.3,7.1-0.5,9.5c-0.6,0.8-3.7,1.4-4.6-0.1
			c-0.5-0.8,0.3-3.3,0.7-5.6c0,0.4,1.4-0.9,1.1-0.2c-0.5,1.3-0.8,3.2-0.3,4.6c0.1,0.2,1.7,0.8,2.2-0.5
			C103.9,95.8,103.8,93.1,103.5,90.8L103.5,90.8z"/>
		<path class="st0" d="M97.9,111.3c0.3,0.4-1-0.6-1.2,0.3c-1.2,4-0.3,9.3,2,12.9c0.8,1.1,4.3,2.4,5.8,0.6c1.1-1.3-0.1-5.1-0.9-8.9
			c0,0.1,0.3-3.2,0-4.1c-0.3-0.9-1.4,0.1-1.5,0.2c-0.3,0.3-0.3,3.3-0.3,3.7c-0.3,3.2,2.1,4.1,1.2,8c0,0-2.8,0-3.7-1.2
			C97.2,119.7,97.5,114.8,97.9,111.3L97.9,111.3z"/>
		<path class="st0" d="M92.1,110.1c0.5-0.3,0.2-2.5-1.4,0.5c-2.5,4.6,1.9,8.4,2.2,12.9c0.1,1.2,2.2,3.2,3.5,1.1c1.2-2-1.2-5-1.7-9
			c0,0.2,0.8-3.9,0.6-4.7c-0.2-0.8-1.2-0.5-1.3-0.4c-0.2,0.2-0.8,4.1-0.8,4.3c-0.2,3.2,2.2,4.7,1.7,8.6c0,0-1,0.6-1-0.9
			C93.9,119.7,88.6,116.1,92.1,110.1L92.1,110.1z"/>
		<path class="st0" d="M106.6,110.3c0.3,0.4-1-0.6-1.3,0.3c-1.2,3.8-0.3,8.9,2.1,12.4c0.7,1.1,4.2,0.8,4.6-0.9
			c0.8-2.2,0.3-3.5-0.6-7.1c0,0.2,0.3-4.2,0-4.8c-0.3-0.8-1.2-0.3-1.3-0.1c-0.2,0.2,0,2.9-0.2,4c-0.4,2.6,0.7,5.3,0.8,7.3
			c0,0-2,1.2-2.8-0.1C106,118.5,106.3,113.8,106.6,110.3L106.6,110.3z"/>
		<path class="st0" d="M113.8,108.9c0.3,0.3-1-0.5-1.3,0.3c-1.2,3.2-0.3,7.6,2.1,10.6c0.7,0.8,3.3-0.6,3.8-1.8
			c0.8-1.7,0.9-2.3,0.1-5.2c0,0.1-1.7-4.9-2-5.5c-0.3-0.5-0.8,0.3-0.9,0.3c-0.2,0.2,1,3.3,1.2,4.1c0.5,2.2,1,3,0.6,4.8
			c-0.2,0.3-1.7,1.8-2.1,0.8C114.1,114.7,113.4,111.8,113.8,108.9L113.8,108.9z"/>
		<path class="st0" d="M120.6,115.3c0.2,0.4,0-1.9,0.3-1.5c2.7,3.3,6.1,7.2,7.3,11c0.3,0.9-0.3,4.2-1.9,4.3c-2.3,0-6.8-6.6-7.7-9
			c-0.3-0.5,0.8-1.2,1-1.3c0.2-0.1,5.1,8.1,6.4,8.3c0.1,0,1.4-1.6,0.8-3C125.8,121.6,122.6,117.3,120.6,115.3L120.6,115.3z"/>
		<path class="st0" d="M116.5,121.2c0.1,0.3,1-1.4,1.2-1.1c2.5,4.2,5.3,7.3,6.1,11.1c0.3,1.4-0.9,2.9-2.3,3.1
			c-2.4,0.3-8.1-7.7-9.4-10c-0.3-0.3-0.1-0.3,1.2-0.9c0.1-0.1,5.8,8.6,6.9,8.7c0,0,2.6,0.2,2-2C121.3,127.4,118.4,123.3,116.5,121.2
			L116.5,121.2z"/>
		<path class="st0" d="M109.5,125.4c0.2,0.3,0.3-1.3,0.8-0.8c3.1,3.4,5.8,5.9,6.6,9.6c0.3,1.3-0.2,2.4-1.5,2.6
			c-2.4,0.3-9.1-7.3-10.4-9.5c-0.1-0.3-0.1-0.3,1.3-0.9c0,0,6.7,8.6,7.8,8.7c0,0,2.1,0.2,1.2-2C114.1,130.7,111.5,127.4,109.5,125.4
			L109.5,125.4z"/>
		<path class="st0" d="M99.5,131.6c0.1,0.3,0.5,0.6,0.9,1c0.1,0.2,0.5-0.3-0.3,0.9c-0.3,0.3-0.5,0.3-1,0.3c-1.1,0-2.2-3.6-2-5.5
			c0,0,0.8,1.1,1.1,1.4c0.1,0.1,0,2,0.8,2.6c0,0,0.1,0.1,0.3-0.3C99.7,131.2,99.2,131.7,99.5,131.6L99.5,131.6z"/>
		<path class="st0" d="M101.9,128c0.2,0.4,0.9-0.8,1.3-0.3c2.9,3.4,4.1,5.1,6.1,7.3c2.2,2.4,1,2.7-0.3,2.3
			c-5.2-1.5-10.9-9.9-13-11.6c0,0,0.8,0.1,2,0.2c0,0,8.7,9.2,9.8,9.4c0,0,1.5,1.4,0.2-0.3C106.3,132.8,104,130.1,101.9,128
			L101.9,128z"/>
		<path class="st0" d="M129.8,125.1c0.3,0.3-0.8,0.7-0.3,1.5c1.9,2.9,4.3,9.1,4.7,12c0.5,3.2,1.6,2.5,2,1.3
			c2.4-6.2-1.2-17.4-3.5-19.6c0,0-0.3,0.2-0.9,0.8c0,0,5.4,7.8,4.1,16c0,0-0.3,1.1-0.8-0.3C133.8,133.5,131.4,127.5,129.8,125.1
			L129.8,125.1z"/>
		<path class="st0" d="M125.3,132.8c0.3,0.3-1.2,0.5-0.8,1.2c1.8,3.4,3.2,6.9,5.4,9.3c2.1,2.3,2.8,0.6,3-0.5
			c1.1-6.5-2-11.4-3.9-14.4c0,0-0.4,0.5-0.9,1.1c0,0,4.6,5.6,3.6,12.1c0,0-0.6,1.1-1.3,0.3C127.8,139,126.8,136.7,125.3,132.8
			L125.3,132.8z"/>
		<path class="st0" d="M118.2,136.7c0.3,0.3-1.4,0.3-0.9,0.9c2.4,2.8,5.2,7.1,7.9,9.1c2.4,1.8,3.1-0.2,2.8-1.1
			c-1.8-7.1-2.6-7.3-4.9-10.9c0,0-0.8,0.2-1.2,0.9c0,0,3.4,2.3,4.7,9c0,0-0.3,1.1-1.2,0.4C122.3,142.9,120.5,140.2,118.2,136.7
			L118.2,136.7z"/>
		<path class="st0" d="M126.2,148.9c0.3,0.3-2.7-1.5-1.8-0.5c2.4,2.7,3.7,5.5,6.2,7.5c2.7,2.2,3.1,0,3-1.1c-0.3-2.9-1.4-5.1-3.6-8.6
			c0,0-0.3,0.8-0.8,1.5c0,0,1.3,2.8,3,6.1c0.1,0.3-0.4,0.9-1.1,0.5C128.7,153.1,128.3,152.1,126.2,148.9L126.2,148.9z"/>
		<path class="st0" d="M131.9,145.6c0.2,0.3-1.1-0.3-0.8,0.1c0.8,1.7,2.8,5.2,4.4,7c1.5,1.7,1.6,0.5,1.4-0.5c-0.8-4.4-1.6-5.1-2.8-8
			c0,0-0.4,0.2-0.8,0.7c0,0,1.1,1,2.6,5.7c0,0,0,1.1-0.5,0.5C133.5,149,133.4,148.4,131.9,145.6L131.9,145.6z"/>
		<path class="st0" d="M111.8,138.9c0.3,0.3-2.1-0.3-1.6,0.2c3.1,2.5,7,7.7,9.9,9.7c1.9,1.3,2.3-0.5,2.1-1.3c-0.5-2.1-2-4.3-5.7-9.1
			c0,0-0.9-0.3-1.2,0.4c0,0,2.4,0.9,5.5,7.5c0,0-0.3,1.2-0.8,0.8C117.6,145,114.7,142.1,111.8,138.9L111.8,138.9z"/>
		<path class="st0" d="M117.9,105.9c0.2,0.2-0.4-0.2-0.4,0.2c0,1.5,0.4,4,2,5.4c0.4,0.3,1.3-0.1,1.7-0.6c0.6-0.8,1.2-1.6,0.6-2.8
			c0.3-0.2-1.4-4.8-2-4.8c-0.3,0-0.5,0.3-0.2,1.3c0,0.1,0.9,2.7,1,3c0.3,1,0.3,1.2-0.1,2c-0.1,0.2-0.4,0.6-0.8,0.3
			C118.7,108.8,117.7,107.2,117.9,105.9L117.9,105.9z"/>
		<path class="st0" d="M122.3,110.8c0.2,0.1-0.6,1.5-0.4,1.7c2.3,3.2,6.8,10.2,7.2,9.4c0.5-0.8,0.6-2.5-0.2-3.7
			c0.3-0.2-5.2-9.6-5.7-9.5c-0.3,0-0.6,0.8-0.1,1.7c0.8,1.4,5.2,6.6,4.7,7.9c0,0-0.5,0.4-0.7,0.2
			C126.3,116.9,122.3,112.2,122.3,110.8L122.3,110.8z"/>
		<path class="st0" d="M100.6,101.6c-0.3,0.3,0.8-0.3,0.9,0.1c0.3,1.6-0.1,5.5-2,7.7c-0.6,0.7-3.2,1-4.2-0.5c-0.8-1.1,1.6-6.6,3.2-9
			c0,0.4,0.8,0.7,0.1,1.7c-0.7,1-2.4,4.9-2,6.3c0,0.1,1.7,0.9,2.3-0.2C99.8,106.5,100.6,104,100.6,101.6L100.6,101.6z"/>
		<path class="st0" d="M107,98.9c-0.2,0.3,1.4-0.5,1.4,0.1c-0.1,2,0.8,7.2-1.3,10.1c-0.6,0.9-4.9,2.2-5.9,0.4
			c-0.6-0.9,1-5.5,1.5-8.3c0.1,0.5,1.1-1.1,0.9-0.2c-0.4,2.2-1.3,5.6-0.8,7.3c0,0.2,2.7,0.5,3.4-0.8C107,105.9,107.3,101.7,107,98.9
			L107,98.9z"/>
		<path class="st0" d="M107.3,86.2c-0.1,0.3-0.1-2.1,0.5-1.2c2.1,3.2,4.6,7.8,3.7,10.2c-0.3,0.9-3.5,3.6-4.7,1.9
			c-0.6-0.9-1-5.1-1.2-8.3c0.2,0.6,0.3-1.4,0.5-0.4c0.5,1.9,1,5.1,1.7,6.7c0.1,0.1,2-0.3,2.4-1.8C110.5,91.4,108.7,88.4,107.3,86.2
			L107.3,86.2z"/>
		<path class="st0" d="M128.9,76.6c0.2,0.3-2.2-1.5-1.3-1.2c3.7,0.8,12.6,3.6,13.6,5.4c0.3,0.7,0.8,4.6-1.3,4.2
			c-1.1-0.2-8.3-3.6-10.6-5.4c0.5,0.3-0.8-1.6,0-1.2c1.6,0.8,8.3,4.3,9.9,4.7c0,0,0.3-1.7-0.4-2.7C138,79.1,131.4,77.2,128.9,76.6
			L128.9,76.6z"/>
		<path class="st0" d="M143.2,85.7c0.1,0.3-1.4-2.4,0.3-1.9c4,1.1,18.8,16.6,19.3,18.7c0.7,2.6-2.1,4.6-4.1,2.3
			c-5-5.4-12.5-13.3-16-15c0.4,0.4-0.3-1.6,0.3-2.4c0.7-1,15.3,14.9,16.4,15.8c0,0,1.7,0.5,1.3-0.8C160.2,100.9,145.4,87,143.2,85.7
			L143.2,85.7z"/>
		<path class="st0" d="M141.7,92.7c0,0.3-0.8-1.6,0.6-1.2c3.1,0.8,13.2,12,13.2,13.3c0,2.4-3.4,3.5-4.6,2.5
			c-4.2-3.4-8.1-7.6-10.7-8.9c0.2-1.2-0.3,1.5,0.2-2.1c0.1-0.9,10,8.8,10.6,9.4c0,0,3.1,0.7,3.1-1.3
			C154,103.4,143.5,93.8,141.7,92.7L141.7,92.7z"/>
		<path class="st0" d="M138.7,100.2c0.1,0.3,0.3-1.4,0.5-1.3c3.1,0.8,8.9,7.9,8.9,9.1c0.1,2.4-3.4,3.5-4.6,2.5
			c-4.1-3.3-4.8-3.8-7.6-5.1c0.5-0.8,0.6-0.7,0.8-1.7c0.1-0.8,6.1,4.7,6.9,5.2c0,0,2.7,0.3,2.6-1.6
			C146.2,106.4,140.4,101.1,138.7,100.2L138.7,100.2z"/>
		<path class="st0" d="M134.6,106.9c0.1,0.3,0.3-1.3,0.8-1.1c3.1,1.3,5.2,5.1,5.3,6.2c0.1,2.4-3.9,3.1-5.1,2.2
			c-4.1-3.2-1.7-1.7-4.4-3c0.4-0.8,0.6-0.4,0.8-1.2c0.3-0.8,3.6,2.2,4.3,2.8c0,0,2.2,0.4,2.5-1.3C139,110.7,136.2,107.8,134.6,106.9
			L134.6,106.9z"/>
		<path class="st0" d="M148.3,77.7c0.1,0.4,1.5-1.8,1.8-1.7c18.1,11.1,21.2,27.2,27.3,30.9c2.7,1.5-7.3,0.3-9.7-1.6
			c-6.3-4.8-15.2-19.2-24.3-23.5c0.5,0.6-0.8-2.1-0.7-2.1c13.1,4.7,22.2,22.3,25.8,24.4c0,0,4.2,1.8,3.6,0.3
			C169.2,97.2,155.1,79.3,148.3,77.7L148.3,77.7z"/>
		<path class="st0" d="M130.7,83.1c0.2,0.3-0.9-1.2-0.3-1.2c4.4,0.9,9.5,4.2,10.5,5.5c0.4,0.6,0.7,4.6-1.3,4.3
			c-0.8-0.1-5.2-1-7.6-2.9c0.5,0.3-0.2-0.3-0.3-1.7c-0.1-0.5,5.6,3.2,7.1,2.7c0,0,1.1-1.6,0.4-2.5C138.4,86.1,133.1,83.8,130.7,83.1
			L130.7,83.1z"/>
		<path class="st0" d="M132.5,91.3c0.1,0.3-0.2-1.2,0.2-1.2c2.9,0.8,5.3,2.9,6,4.2c0.3,0.5-0.2,4.8-1.3,4.2
			c-2.5-1.4-3.1-0.5-5.1-2.4c-0.1-0.8,0.1-0.6,0.1-1.7c0.1-0.4,3.7,3,4.6,2.6c0,0,0.8-1.5,0.3-2.4C136.6,93.5,134.1,92.1,132.5,91.3
			L132.5,91.3z"/>
		<path class="st0" d="M128.9,102.2c0.3,0-0.7,0.8-0.5,1.1c2,2.1,3.4,2.7,4.8,2.5c0.4,0,3.1-3.7,2.4-4.6c-0.3-0.4-1.3-2.2-4.3-2.8
			c0.1,0.3-0.6,1.9-0.3,1.3c0.1-0.2,2.6,0.5,3,2.1c0,0-0.6,2.2-1.4,2.2C131.5,104.2,130.3,103.2,128.9,102.2L128.9,102.2z"/>
		<path class="st0" d="M124.9,107.7c0.3-0.1-0.4,0.7-0.3,0.8c1.8,2,2.3,3.2,3.6,3c0.3-0.1,3.5-3.2,3-4.2c-0.1-0.3-0.7-1.6-3.4-3.2
			c0.1,0.3-0.8,1.8-0.7,1.3c0-0.1,2.5,0.6,2.9,2.1c0,0-1.3,2.2-2.1,2.3C127,110,126.3,108.7,124.9,107.7L124.9,107.7z"/>
		<path class="st0" d="M113.7,95.3c-0.2,0.3,0.7-1,1-0.1c1.5,3.5,0.8,8.1-0.3,10.7c-0.5,1.1-3.4,4-4.6,1.2c-0.4-0.9-0.5-6-0.1-9.1
			c0.1,0.5,1-1.1,1-0.2c0.2,1.8-0.1,8.7,0.7,8.5c0.5-0.2,1.7-0.5,2.3-2.3C114.4,102.1,114.1,98.1,113.7,95.3L113.7,95.3z"/>
		<path class="st0" d="M138.3,135.4c0.6,0.1-0.1,1.4,0.3,1.7c4.1,3,19.6,14.4,23.2,15.3c1.5,0.3,9-2,6.1-4
			c-0.9-0.8-25.7-16-29.7-17.8c0.7,0.5-0.1,1.1,0.6,1.5c1.7,1.2,28.3,16.9,27.6,17.3c-0.5,0.3-2.7,2-4.9,1.3
			C159.1,149.8,141.1,137.7,138.3,135.4L138.3,135.4z"/>
		<path class="st0" d="M137.4,140.1c0.5,0.1-0.8,0.8-0.3,1.2c3.2,2.7,14.5,12.5,17.4,13.4c1,0.3,6.8,0.4,5-1.5
			c-0.7-0.7-2.7-0.9-1.1-0.6c0.4,0.1-2.7,1.1-4.3,0.3C152.1,152.1,139.7,142.2,137.4,140.1L137.4,140.1z"/>
		<path class="st0" d="M135.6,143c0.3,0.1-1.7,0.1-0.5,1.1c2.5,2,11.7,11,13.8,11.6c0.7,0.2,5.2,0.3,4.6-0.3
			c-0.4-0.4-1.3-0.7-1.5-0.8c0,0-1.7,0.3-2.8-0.1C147.8,153.8,137.2,144.6,135.6,143L135.6,143z"/>
		<path class="st0" d="M138.3,138.3c0.3,0.1-1,0.5,0.1,1.3c2.3,1.9,16.8,12,16.7,11.9c-0.2-0.4,1.9,0,1.5-0.2
			C155.4,150.9,139.9,140.1,138.3,138.3L138.3,138.3z"/>
		<path class="st0" d="M136.5,141.6c0.3,0.1-0.8,0.2-0.3,0.9c1.5,2,12.6,11.1,13,10.8c0.3-0.2,1.6,0.1,1.2-0.1
			C149.6,152.8,137.8,143.2,136.5,141.6L136.5,141.6z"/>
		<path class="st0" d="M136.5,146.7c0.2,0.1,0.1,1.3,0.4,1.7c3.4,4.6,7.6,7.2,8,7.4c2.1,0.6,2-0.3,1.8-0.4
			C143.9,153.7,145.1,155.2,136.5,146.7L136.5,146.7z"/>
		<path class="st0" d="M138.2,132.9c0.3,0.1-1,0.4,0.7,1.9c1.9,1.8,22.6,14.7,22.6,14.6c-0.1-0.4,1.9-0.5,1.6-0.7
			C162,148.4,139.9,134.7,138.2,132.9L138.2,132.9z"/>
		<path class="st0" d="M108.7,83.3c0,0.3-1.2-2.1,0.1-1.1c2.9,2.2,7.5,6.4,7.4,9.1c-0.1,1.2-3.5,3.9-3.7,2.8
			c-0.3-1.2-0.2-0.9-0.1-1.4c0,0,1.9-0.8,1.9-2.2C114.3,88.8,110.7,85,108.7,83.3L108.7,83.3z"/>
		<path class="st0" d="M95,102c0.1,0.2,0-1-0.8-0.3c-1.8,1.8-3.7,4.5-3,6.1c0.6,1.4,3.6,1.9,3.5,1.1c-0.1-0.8-0.1-0.6-0.3-0.8
			c0,0-1.7-0.3-2-1.1C92.1,105.9,93.8,103.3,95,102L95,102z"/>
		<path class="st0" d="M122.2,150.2c0.3,0-1.2,0.5-0.5,1.2c1.2,1.3,2.7,3.2,3.8,4.2c0.7,0.5,2-0.7,1.9-1c-0.1-0.6-0.3-0.8-0.6-0.8
			c0,0-1.2,0.6-1.6,0.2C124.8,153.3,123.1,151.6,122.2,150.2L122.2,150.2z"/>
		<path class="st0" d="M115.8,94c-0.3,0.3,0.3-2.3,0.8-0.8c1,3.5,2.7,9.9,0.4,11.8c-0.8,0.7-1.5,1.1-1.3,0.4
			c0.4-0.9,0.3-1.5,0.3-1.6c0,0-0.3,0.3,0.3-0.7C117.4,101.8,116.3,96.6,115.8,94L115.8,94z"/>
		<path class="st0" d="M116.2,87.1c-0.1-0.2,0.1,0.8-0.2,1.1s-0.9-0.1-1.3-1.1c-3-11.7-15-8.5-15-11.2c0-2.7-0.2-4.3,0.7-6
			c0.3-0.7,2.4-0.8,4.1-1c2.2-0.2,0.1,1.7-0.3,1.5c-0.6-0.3-2.3-0.3-2.6,0.6c-0.3,1.4-0.9,2.9-0.3,4.1
			C102.2,76.2,113.1,74.4,116.2,87.1L116.2,87.1z"/>
		<path class="st0" d="M123.5,83.6c1-0.2,2.2,7.2,2.1,9.7c-0.1,0.8-3.9,7.3-6.1,8.4c-0.1,0-0.2-2.7,0-2.7c1.9-0.8,3.9-4.7,3.9-5.9
			c-0.1-5.2-0.8-5.8-2.1-9.1c-4.1-10.7-13.7-9.5-14.6-11.4c-1.2-2.8-0.1-4.3,0.7-6c0.3-0.6,19.7-3.9,37,6.1c0.9,0.5,3.6,1.4,5.9,1.3
			c0.6,0-3.5,3.4-6.1,4.1c-0.8,0.2-3.6,1.3-6-0.3c0,0-0.7-1.9-0.6-2.4c0.2-0.6,2.5,0.3,1.9,0c-0.3-0.1-0.1,1.4,0.3,1.4
			c1.4,0.1,4.8-0.8,4.8-0.8c-12.5-9.6-35.6-8.7-35.8-8c-0.6,1.7-1.2,2.9-0.2,3.8C109.7,72.3,120.3,71.9,123.5,83.6L123.5,83.6z"/>
		<path class="st0" d="M90.4,90.9c0.1-0.3,0.2,0.9,0.9,0.8c2.3-0.8,5.1-2.3,3.2-4.2c-0.2-0.1-2.2-0.3-2.6,0c-1,1.1-4.4,2.4-6.9,3.9
			c0.3-0.2-1.7,0.9,0.1,0.8c2.5-0.3,8.5-5.1,8.4-3.4C93.5,89.6,92.6,89.6,90.4,90.9L90.4,90.9z"/>
		<path class="st0" d="M114.1,79.7h1.4l0.5,1c-0.5,0-0.9,0.1-1.5,0L114.1,79.7L114.1,79.7z"/>
		<path class="st0" d="M116.2,71.8l2.3-0.1l1.4,0.9c-0.8,0-1.3,0.1-2.3,0L116.2,71.8L116.2,71.8z"/>
		<path class="st0" d="M116.6,85.5l1.4,0.1l0.4,1.7c-0.4,0.1-1,0.1-1.5-0.1L116.6,85.5L116.6,85.5z"/>
		<path class="st0" d="M117.7,93.1l1.3-0.3l0.3,1c-0.4,0-0.3,0.8-0.8,0.6L117.7,93.1L117.7,93.1z"/>
		<path class="st0" d="M121.8,101.5c1.6,0.8,2.7,1.8,3.8,3c-0.1,0.8-0.9,1.9-1.9,2.7c-0.3-0.5-0.6-1.2-0.9-1.7
			c0.3-0.4,0.7-0.4,1-0.7c-0.6-1.1-1.6-1.7-2.7-2.5C121.3,102.1,121.6,101.8,121.8,101.5L121.8,101.5z"/>
		<path class="st0" d="M130.3,111.9c1.7,0.6,3.2,2.4,4.1,3.7c0,0.8-0.9,1.5-1.9,2.3c-2.5,4-1.6,0.8-1.6-0.3c0.3-0.5,1.2-2.1,1.5-2.3
			c-0.6-1-1.8-1.7-2.9-2.5C129.8,112.5,130.1,112.2,130.3,111.9L130.3,111.9z"/>
		<path class="st0" d="M125.3,97c1.3,0.8,2.5,1.4,3.8,1.9c0.3,0,0.5,0,0.7-0.1c-0.9,1.9-2.1,3.2-3.5,4.7c-1.3-0.9-2.3-1.7-3.5-2.7
			c0.3-0.3,0.3-0.7,0.7-1c0.6,0.9,1.7,1.6,2.7,2.1c0.4-0.6,0.8-1.2,1.2-1.8c-1.2-0.6-1.8-1.5-2.6-2.2C125,97.5,124.9,97.3,125.3,97
			L125.3,97z"/>
		<path class="st0" d="M126.4,90.1c1.5,0.2,2.5,1.2,3.9,1c0.2-0.2,0.3-0.4,0.4-0.7c0.3,2.7,0.3,6-0.4,6.6c-1.6,0.2-2.7-0.2-4.2-0.9
			c0.1-0.6,0.4-1.4,0.5-1.9c1,0.6,1.6,0.8,2.7,0.8c0.1-0.8,0-1.8,0.2-2.7c-1.3,0-1.9-0.7-2.9-0.9C126.7,90.9,126.3,90.7,126.4,90.1
			L126.4,90.1z"/>
		<path class="st0" d="M124.8,82.2c1.4,0.2,2.4,0.8,3.7,0.3c0.2-0.2,0.2-0.3,0.3-0.6c0.8,2.6,1.7,5.8,1.7,7.6
			c-1.6,0.5-3.2-0.4-4.9-0.8c0-0.6,0.3-1.4,0.2-1.9c1.1,0.3,1.8,0.5,2.8,0.3c-0.2-0.8-0.3-2.3-0.4-3.2c-1.3,0.3-2-0.3-3-0.3
			C125.3,83,124.8,82.8,124.8,82.2L124.8,82.2z"/>
		<path class="st0" d="M110.7,69.4c1.3-0.8,6-0.3,7.4-0.3c0-0.3,0.9,0.1,1.2-0.5c2.2,1.5,4.9,4.6,6.1,5.9c-0.8,1.6-2.8,0.3-4.6,0.6
			c-0.7-0.9-0.7-0.8-1-1.2c1.1-0.4,2,0.3,2.9-0.2c-0.8-0.5-2.7-2.2-3-3.1c-0.9-0.2-6.7-0.4-7.7-0.2C111.6,70,111.1,69.9,110.7,69.4
			L110.7,69.4z"/>
		<path class="st0" d="M121.8,76.2c1.4-0.3,2.1,0.1,3.7-0.2c0.1-0.2,0.3-0.5,0.3-0.7c1.6,1.8,2.3,4.2,2.3,5.5
			c-1.4,0.5-2.2,0.1-3.9-0.1c-0.2-0.4-0.3-1-0.5-1.4c1.2,0.2,1.8,0.2,2.7-0.2c-0.3-0.6-0.6-1.3-0.8-1.9c-1.1,0.1-1.7,0.1-2.7,0.2
			C122.8,77,121.9,76.6,121.8,76.2L121.8,76.2z"/>
		<path class="st0" d="M81.9,104.8c-0.2,0.2,0.4-0.6-0.1-1.7c-0.1-0.1-0.5,1.2-1.1,1.6c-3.1,3.9-9.1,5.2-11.7,11.3
			c-1.9,4.5-2,9.5,0.2,14c2.5,5.4,13.1,3.2,18.5,3.2c1.6,0.1,0.6,2.7,0.6,3.6c0.5-0.3,1.3-1.8,1.4-1.9c1.1-2.7-0.8-3.6-1.4-3.5
			c-9.3,1.2-14.7,0.8-16.9-2.9c-3.2-5.4-2.2-9-0.3-11.7C75.7,110.3,77,111.8,81.9,104.8L81.9,104.8z"/>
		<path class="st0" d="M175.5,109.1c0.3,1.8,1.4,4.6,2.2,6.9c0.4,1,0.9,2.7,0.8,3.3c-1.4,11-0.1,29.8-2.6,31.4
			c0-0.6-0.3-1.2-0.3-1.8c0.3-9-3.4-17.4-4.1-26.1c-0.1-0.7-0.3-1.8-0.6-2.3c-1.7-3-5.1-2.8-7.5-13.9c0.4,0,1-1.3,1.2-1
			c0.7,0.9,1,0,1.1,1.1c0.7,8.2,4.7,9,6.8,12.4c0.3,0.4,1,1.6,0.9,2.9c-0.3,3,2.1,13.4,2.2,15.5c0.1,1,0.8,1.7,0.8,0.6
			c-0.3-6.7-0.1-11.8-0.3-17.2c0-0.3,0.1-1.4,0.1-1.9c0-2-1.2-3.9-3.1-10.3L175.5,109.1L175.5,109.1z"/>
		<path class="st0" d="M169.9,121.7c1.7,11.2,2.8,13.7,1.7,24.9c-0.2-0.4-0.6-0.9-0.6-1.7c-0.2-7.9-4.8-14-6.2-22.3
			c-0.1-0.3,0.3-2-1-3.5c-1.9-2.6-3.8-2.9-8.6-11c0.6-0.4,2-3,2.2-0.7c0.9,6,5.9,7.6,8.1,10.6c0.3,0.3,0.4,2.4,0.5,3.6
			c0.3,2.9,2.8,9.7,3.1,11.7c0.1,0.8,1,1.3,0.8,0.2c0.2-6.8-1.2-8.5-2.4-13.6C167.3,118.7,169.8,120.9,169.9,121.7L169.9,121.7z"/>
		<path class="st0" d="M162.4,120c2.1,8.3,4.3,12.4,3.6,23.7c-0.2-0.4-0.6,0.3-0.8-1.6c-0.4-6.6-5.1-10.4-6.9-20.3
			c-0.3-1.2-0.9-0.7-1.7-1.6c-3-4-3.5-1.4-8.5-9.3c0.5-0.4,0.3-2.8,1.5-1c4,6,5.4,5.3,7.6,8.2c0.2,0.2,1,0.6,1.7,1.4
			c2.2,2.7,1.9,8.6,4,11.9c0.4,0.7,1.1,1.2,0.9,0.2c-0.9-6.9-1.8-5.6-3.2-12.6C160.5,117.9,162.4,119.3,162.4,120L162.4,120z"/>
		<path class="st0" d="M155.9,120.6c2,6,2.1,6,3,14.3c-1.2-0.3-1.2-0.5-1.3-1.1c-1.2-5.7-2.9-6.1-5-10.5c-0.2-0.3-1.9-1.7-2.4-2
			c-3-2-4-1.1-8.6-6.2c0.3-0.3,0.5-2.9,1.3-1.6c2.2,4,2.6,2.9,4.7,4.5c0.2,0,2.3,0.7,2.9,1c2.2,0.9,4.7,5.5,5.5,7.9
			c0,0,1.1,0.4,0.5-1.1c-2-4.8-0.2-2.3-2.7-6.6C153.4,118.7,155.8,120.2,155.9,120.6L155.9,120.6z"/>
		<path class="st0" d="M148.2,121.3c2.5,4.2,2.6,4.1,4.5,10.4c-0.9-0.1-1-0.3-1.2-0.6c-3.2-4.2-3.9-4.1-5.8-7.3
			c-0.1-0.2-1.2-1.3-1.7-1.4c-2.6-1.2-4.7-0.8-9.1-4.2c0.3-0.3,1-2.2,1.7-1.2c2.2,2.8,3.2,2,5.1,2.9c0.1,0,1.1,0.2,1.5,0.3
			c2.2,0.5,4.4,4.5,5.8,6c0,0,0.8,0.1,0.3-1c-2.2-3.5-0.2-0.7-2.7-3.6C146.3,121.2,148,121.1,148.2,121.3L148.2,121.3z"/>
		<path class="st0" d="M170.8,109.3c0.5,1.7,1.9,4.8,1.9,6c-1.3-0.2-4.8-5.2-5.2-8.1C167.3,107.2,170.8,108.1,170.8,109.3
			L170.8,109.3z"/>
		<path class="st0" d="M161.4,107.2c0.5,1.7,1.3,5.1,3,7.9c-1.3-0.1-4.9-5.5-5.3-8.4C158.8,106.7,161,106.9,161.4,107.2L161.4,107.2
			z"/>
		<path class="st0" d="M153.9,108.9c0.8,1.5,2.4,4.2,3.8,7.1c-2.1-0.6-4.6-4.4-5.9-6.9C151.6,109.1,153.6,108.6,153.9,108.9
			L153.9,108.9z"/>
		<path class="st0" d="M146.6,112.1c0.3,1.3,1.6,2.7,3.9,5.1c-1.7-0.2-5-3-6-5.1C144.7,112.1,146.3,111.8,146.6,112.1L146.6,112.1z"
			/>
		<path class="st0" d="M139.7,115.5c0.2,0.8,0.8,1.5,2.2,2.8c-1-0.2-3.2-1.2-3.7-2.3C138.1,115.9,139.5,115.4,139.7,115.5
			L139.7,115.5z"/>
		<path class="st0" d="M109.3,139.6c0,2.4,0.5,3.4,0.6,3.7c0.8,2.3,1,3.3,2.2,5.1c0.5,0.6,0.8,0.7,1.9,0.7c0.8-0.1,0.5-2.8,0.6-4.3
			c-0.3-0.1-0.5-0.4-0.9-0.6c-0.2,0.4,0.3,2.5-0.3,3.4c-0.1-0.1-0.3,0-0.3,0c-1.1-0.6-1.3-1.7-1.6-2c-0.8-1.4-1.2-3-1.4-4.6
			C110.1,141,109.2,139.6,109.3,139.6L109.3,139.6z"/>
		<path class="st0" d="M102.8,145.2c-1.5-0.2-4.4-0.6-5.1-0.6c-1.5-0.1-2-0.1-3.1,0.5c-0.4,0.3-1.3,0.8-0.2,1.3
			c0.3,0.7,4.3,0.5,6.1,1.1c0-0.2-0.1-0.4,0.1-0.7c-0.2-0.3-3.6-0.8-4.2-0.9c-0.1,0-0.5,0.1-0.4-0.5c0.1-0.2,0.4-0.3,0.6-0.3
			c0.9,0,3.6,0.2,5.1,0.9C101.7,146,102.8,145.1,102.8,145.2L102.8,145.2z"/>
		<path class="st0" d="M102.8,139.9c-0.7-0.1-2,0-2.2,0.1c-1.2,0.6-0.7,0-1.4,0.6c-0.3,0.3-0.9,0.6-0.8,2.3c0.3,1.1,3.4,0.8,5.2,1.7
			c0-0.3,0.3-0.3,0.5-0.7c-0.2-0.3-3.4-1-4.1-1.3c-0.3-0.6-0.2-0.2-0.1-1c0-0.2,0.3-0.4,0.4-0.6c0.9,0,0.8-0.2,2.7-0.2
			C103.1,140.8,102.9,139.7,102.8,139.9L102.8,139.9z"/>
		<path class="st0" d="M102.2,138.6c-0.5-0.2-2.7-1.2-2.7-1.2c-0.7-0.6-0.5-0.3-0.8-0.8c-0.1-0.3-1-1.7-0.8-2.2
			c1-0.8,1.7,0.6,3.1,0.6c-0.1,0.1,0.2,0.4,0.1,0.8c-0.2,0.2-0.5-0.1-1-0.2c-1.1-0.3-0.7-0.2-0.4,0.7c0.1,0,0.5,0.4,0.6,0.6
			c0.5,0.3,0.6,0.3,1.7,0.8C102,137.8,102.1,138.7,102.2,138.6L102.2,138.6z"/>
		<path class="st0" d="M108.6,142.9c-0.9,0.1-2.3,1.1-2.5,1.2c-2,1.4-2.7,1.8-4,3.5c-0.4,0.6-0.8,2.2,0.3,2.2
			c0.3,0.8,6.1-1.2,7.5-1.5c0-0.3-0.3-0.6-0.4-1.1c-0.5,0-4.8,1.7-5.6,1.4c0-0.2-0.3-0.6-0.2-0.7c0.2-1.2,0.9-1.4,1.1-1.7
			c1.2-1,2.3-1.6,3.8-2.3C108.6,143.9,108.7,142.6,108.6,142.9L108.6,142.9z"/>
		<path class="st0" d="M102.1,134c0,1.7,1.2,4.1,1.3,4.3c0.8,1.6,1.2,2,2.4,3.2c0.5,0.5,0.8,0.6,2,0.6c0.8-0.1,0.3-2.4,0.3-3.5
			c-0.3-0.1-0.5-0.4-1-0.6c-0.2,0.3,0.2,1.3,0.1,2.6c-0.2-0.1,0.3,0.6-0.6,0.2c-0.9-0.4-1.2-1.1-1.3-1.3c-0.8-1-1.3-3.1-1.6-4.2
			C103.5,135.3,101.9,134,102.1,134L102.1,134z"/>
		<path class="st0" d="M112.6,145c-0.3-0.7-0.3-1.6-0.3-2.2c-0.3-0.3-0.7-0.7-0.9-0.9v1.2c0,0,0.2,0.9,0.3,0.9
			C111.9,144.3,112.6,145.1,112.6,145L112.6,145z"/>
		<path class="st0" d="M105.5,147.4c0.7-0.3,3-1.1,3.7-1.2c-0.1-0.5-0.1-0.5-0.2-0.8c-0.7-0.1-1.2,0-1.7,0.4c0,0-0.8,0.4-0.8,0.6
			C106.2,146.4,105.4,147.3,105.5,147.4L105.5,147.4z"/>
		<path class="st0" d="M105.3,143c-3.4,0.4-3.2-0.9-3.9-1c0-0.3-0.2-0.2-0.1-0.5c0.7-0.1,1.6,0.5,2.2,0.5c0,0,0,0.3,1.7,0.7
			C105.6,142.7,105.3,142.9,105.3,143L105.3,143z"/>
		<path class="st0" d="M85.3,139.3c-0.3-1-0.2-1.3-0.2-2c0.1-1.3,2-2.7,2.3-2.7c0.2,0.4-0.4,1.2-0.1,2.7c0.1,0.5,1.1,0.5,0.7,1.4
			C86.8,140,85.3,140,85.3,139.3L85.3,139.3z"/>
		<path class="st0" d="M85.4,145.8c0.7,0.3,0.8,0.5,1.3,0.6c0.9,0.2,1.8-0.8,1.8-1c-0.3-0.3-1.5,0.1-1.9-0.6
			c-0.2-0.2-1.1-0.3-1.7-0.1C83.8,145.4,85,145.6,85.4,145.8L85.4,145.8z"/>
		<path class="st0" d="M83.4,146.6c0.4,0.3,0.6,0.4,0.9,0.6c0.7,0.2,1.3-0.5,1.4-0.7c-0.3-0.2-1.2,0-1.4-0.5
			c-0.1-0.2-0.8-0.3-1.3-0.3C82.3,146.2,83.1,146.4,83.4,146.6L83.4,146.6z"/>
		<path class="st0" d="M81.3,147.5c0.4,0.3,0.5,0.3,0.8,0.5c0.6,0.2,1.2-0.4,1.2-0.6c-0.2-0.1-1,0-1.2-0.4c-0.1-0.2-0.7-0.3-1.1-0.2
			C80.4,147.2,81.1,147.4,81.3,147.5L81.3,147.5z"/>
		<path class="st0" d="M82.9,143.2c-1.3-2,0.7-2.7-1.6-5.7c0-1.2,0.3-1,0.6-1.4c0.5-0.4,2.2-0.5,2.7-1.1c-0.4,0.8-2.2,3.3,0.5,6.1
			c0.1,0.1-0.1,1.1,0.2,3.1c-0.5-0.2-0.8,0.1-1.1-0.1C83.7,143.9,83.1,143.4,82.9,143.2L82.9,143.2z"/>
		<path class="st0" d="M83.2,145.5c-0.1-0.2,0-0.7-0.1-0.8c-1.1-0.8-2.3-2-1.7-5.2c-0.7-1-0.6-1.6-0.9-1.7c-0.6-0.3-1.3,1.3-1.3,1.8
			c0.8,0.6,1,1.5,1.3,4c0,0,0.3,0.6,1.2,1.9C82.2,145.7,82.7,145.4,83.2,145.5L83.2,145.5z"/>
		<path class="st0" d="M80.8,146.4c-0.1-0.2,0.2-0.5-0.2-1.1c-0.5-0.8-1.1-1.3-1.2-3.6c-0.5-0.8-0.7-1.2-0.9-1.3
			c-0.5-0.3-0.8,1.1-0.8,1.5c0.6,0.5,3,3.4,1,3.1c-0.6-0.1,0.8,0.8,1.2,1.2C80.4,146.4,80.4,146.4,80.8,146.4L80.8,146.4z"/>
		<path class="st0" d="M106.1,138.6c-0.3-0.5-0.3-1.1-0.3-1.7c-0.3-0.2-0.6-0.5-0.9-0.6v0.8c0,0,0.2,0.6,0.3,0.6
			C105.3,138.1,105.9,138.6,106.1,138.6L106.1,138.6z"/>
		<path class="st0" d="M95.6,136.9c0.7,0.4,1.1,0.5,1.1,1.8c-0.5,1.6-2.6,2.5-5,5.1c-0.3,0.4-1.1,0.1-1.3,0.1
			c-0.9-0.6-2-0.7-2.2-1.7c0-0.1,0.2-0.3,0.2-0.4c0.9-0.7,1.9,0.3,2.8,0.3l-0.2-1.4c-0.2-0.5-1.2-0.8-2.2-0.8
			c-0.7,0.3-1.8,0.9-2.3,1.7c-0.4,0.6,0,2,0.3,2c0.5,0.7,2.6,2.1,3.7,2.3c0.4,0,1.3,0.5,2.6-0.7c0.6-1.7,4.3-2.7,5-6.1
			c0.2-0.8,0-1-0.1-1.8c-0.3-0.5-1.3-1.4-1.8-1.5L95.6,136.9L95.6,136.9z"/>
		<path class="st0" d="M60.4,114.7c2.7,0.9,4.9,3.7,5.1,4.7c0.8,3.7-2.2,7.4-1,10.2c1.2,3.1,4.5,2.1,7.3,5.9
			c2.7,3.4-0.3,4.7,4.8,7.1c0.3,0.3,0.6,0.8,0.8,1.3c-4.6,0-5.4-3-6.5-7.2c-1.2-3.5-5.7-2.4-7.9-6.6c-0.4-4.1,1.7-6.3,1.4-9.6
			c0.2-2.3-4.1-4.7-4.8-4.8C59.2,115.6,60.3,115,60.4,114.7L60.4,114.7z"/>
		<path class="st0" d="M58.4,116.9c2.7,0.9,3.3,2.7,3.6,3.6c1,3.6-2.7,7.1-1.7,9.8c1.2,3,3.9,3.6,8.1,7c3.2,2.7-0.6,11.4,10.4,9.5
			c0.3,0.4,1.2,1.1,1.4,1.6c-10.5,3.5-11.4-5.7-12.6-10c-3-2.7-6.3-2.8-8.5-7c-1.1-5.8,2.2-6.5,1.9-9.8c0.2-2.2-1.7-3.7-2.4-3.7
			C58,118,58.3,117.2,58.4,116.9L58.4,116.9z"/>
		<path class="st0" d="M59.1,114c-0.9,1.1-2.2,1.9-1.7,4.2c0.1,0.1,0.4,1.1,0.4,1.2c-0.4,0-1.4-0.3-1.9-0.4
			c-0.1-2.4-1.1-3.2,1.4-5.5C58.3,113.3,58.6,113.7,59.1,114L59.1,114z"/>
		<path class="st0" d="M56.3,113.1c-0.8,1.1-2.2,1.9-1.7,4.2c0,0.1,0.4,1.1,0.4,1.3c-0.5,0-1.4-0.3-1.9-0.5
			c-0.1-2.4-1.2-3.2,1.3-5.5C55.5,112.3,55.8,112.8,56.3,113.1L56.3,113.1z"/>
		<path class="st0" d="M53.5,112.5c-0.9,1.1-2.3,1.9-1.7,4.2c0,0.1,0.4,1.1,0.4,1.3c-0.6,0.5-1.4-0.3-1.9-0.5
			c-0.6-1.6-1.4-2.2-1.2-3.2c0.1-0.6,1.7-1.4,2.7-2.3C52.6,111.8,53,112.2,53.5,112.5L53.5,112.5z"/>
		<path class="st0" d="M123.1,157.3c-0.7,0.1-1.7,0.1-2.4,0.6c0-0.1-0.6,4.6,0.6,4.1c0.5-0.2,1,0.1,1.3-0.5c0.4,0,0.4-2.6,0.9-2.6
			c0-0.3,1.7-0.3,2.2-0.3c1,0,2.1-0.9,2.1-0.7c0.3,0,0.9,0,1.3,0.2c-1.2,0.8-3,3.4-4.2,3.4c-0.3,0-1.5,0.8-1.5,1.2
			c0,1,0.9,2.3,1.7,3.2c0.6,0.3,2.2,0.3,3.2-1.7c0.8-0.3,3.6-4.1,4.3-4.1c0.3-0.4,1.3-0.5,2.2-0.3c1.7,0.3,1.6,1.5,2.1,1.6
			c0,0.8,0.5,1.6,2.8,1.8c3.9-0.5,3.9,0.4,5.1-2.2c1.6-1.8,0.8-1.7,0.5-2.6c-0.6-0.7-1.3-1.3-2.2-1.5c-3.1,0.3-4.4-0.5-5.1-2.2
			c0,0-0.9-0.1-1.6-0.1c0.9,1.5,1.4,2.3,3,2.8c0.4,0.4,2.4,0.2,2.7,1.3c-0.5,1.8-1.3,2.1-1.5,2.1c-1.6,0.1-1.7-1.3-2.2-1.7
			c-0.4-0.4-3.3-2.4-3.4-2.8c0,0-0.8,1.7-2.3,1.5c-0.8,0-4.6,4.6-5.6,5.4c-1-0.1-1.5-0.4-0.9-0.8c0.7-0.7,3.7-3.7,4.1-4.1
			c0.2-0.6,0.1-0.8-0.1-1.2c-0.2-0.3-0.5-0.5-1-0.5C127.3,156.6,123.8,158,123.1,157.3L123.1,157.3z"/>
		<path class="st0" d="M119.4,158.2c-0.2,1.2,0,2.6,0.3,4.1c-0.6,0-1.2-0.1-1.9,0.1c-0.8,0.3-1.6,1.3-0.7,2.3l-0.3-0.3
			c-1.5-0.4-2.5-2.4-0.9-4.6C116.4,159.1,118.9,158.1,119.4,158.2L119.4,158.2z"/>
		<path class="st0" d="M122.6,163.5c0.4,1.3,1,2.1,1.9,3.1c-1,0.7-2.3,3.1-0.2,3.6c-0.1,0-1.2,0.2-1.2,0.2c-1.5,0.3-3.3-1.1-3-3.6
			C120.3,166,122,163.6,122.6,163.5L122.6,163.5z"/>
		<path class="st0" d="M146.8,160.1c-1,0.9-1.4,1.5-1.7,2.8c1,0.6,2.3,3.1,0.3,3.6c0.1,0,1.2,0.2,1.2,0.2c1.5,0.3,3.2-1.2,3-3.6
			C149.3,162.5,147.3,160.3,146.8,160.1L146.8,160.1z"/>
		<path class="st0" d="M157.6,159.8v-2.3l-1.8,1.7l-0.6,1.1l-2.3,1.6l-0.9-2.1l-0.3,2.7c0,1.2-1.1,3.4-1.3,4.1
			c-1.1,2.5-3.5,2.4-5.1,1.8l-0.1,1.1c7.6,1.7,5.1-4.1,8.6-6.4c0,0,0.3-0.5,0.5-0.7c1.7-1.3,4.9-1.6,6.1-1c0.3,0.3,0.6-1,0.8-1
			C161.1,160,158.2,159.6,157.6,159.8L157.6,159.8z"/>
		<path class="st0" d="M165.3,168.3l2.6,0.3c-1.2,0.5-2.2,0.6-3.4,1.1c-1.3,0.8-1.3,1.5-4.2,2.6l2,1.7c-1.2-0.3-3.1-0.6-3.8-0.7
			c-1.7,1.9-9.5,0.5-9.5,0.8v2.4c0,0.4-1.2-2.4-2.8-2.9c-1.5-0.6-3.8-0.8-4-0.3l1.2-1.7c6.1,0.4,8.9,2.2,15.3-0.2
			c2.8-1.1,5.3-3.6,5.3-4.9c0.1-0.3,1-0.2,1.4-0.5C165.8,166.3,165.8,167.8,165.3,168.3L165.3,168.3z"/>
		<path class="st0" d="M154.9,169.4c-1.2,0-2.4-0.4-3.1-0.2c-1.3,1.4,0.6,1.9,1.2,1.5L154.9,169.4L154.9,169.4z"/>
		<path class="st0" d="M155.6,164.1c-0.8,0.9-1.9,1.5-2.2,2.2c0.2,2,1.8,0.9,1.9,0.3L155.6,164.1L155.6,164.1z"/>
		<path class="st0" d="M159.4,164.8c-0.9,0.8-2.1,1.3-2.4,1.9c-0.1,1.9,1.7,1,1.8,0.4L159.4,164.8L159.4,164.8z"/>
		<path class="st0" d="M159.4,169.1c-1,0-2-0.3-2.6-0.2c-1.2,1.2,0.4,1.6,0.9,1.3L159.4,169.1L159.4,169.1z"/>
		<path class="st0" d="M57.5,155.3c-1,0.2-1.3-0.4-2.2-0.4c0.5,1.9,1.2,2.4,2.6,2c1.1,1.2,1,1.8,3.6,3.6c-0.8,0.4-1.6,0.8-2.3,1.2
			c1.1,0.8,3,0.8,3.8,0.3c0.4,0.8,1.7,1.4,3.1,1.7c0.7,0.3-1.8,2-1.5,2.1c1.6,0.2,2.6-0.3,3.2-1.6c0.3,0,5.2,0.7,5.2,0.7
			c0.3-0.5,0-0.7,0.3-1.7c-6.1-1-4.5,0.6-9.9-3.1c-2.3-1.5-3.8-4.6-3.8-5.6c0-1.2,3.7-4.7,4.6-4.9c1.5-0.4,2.7,0.7,4.9,2.1
			c1.9,1.2,4.1,5.7,4.7,8l1.3-1c-0.5-1.8-0.6-2.6-0.8-3.1c-0.3-0.6,1.4-1.7,0.5-4.3c-0.6,0.8-1.1,1.4-1.7,2.2
			c-1.2-1.7-3.2-3.5-6.1-5.1c0.2-1.3-0.7-2.4-2.6-3.5l0.3,3.2C61.3,147.5,56.5,154.6,57.5,155.3L57.5,155.3z"/>
		<path class="st0" d="M68.7,159.1c1.2,0.3,2.4,0.2,3.1,0.6c1,1.7-1,1.7-1.5,1.2L68.7,159.1L68.7,159.1z"/>
		<path class="st0" d="M68.9,153.3c0.6,1.1,1.6,1.9,1.7,2.7c-0.6,1.9-1.9,0.4-1.9-0.3L68.9,153.3L68.9,153.3z"/>
		<path class="st0" d="M64.8,151.9c0.6,0.9,1.7,1.7,1.8,2.4c-0.3,1.8-1.8,0.6-1.8-0.1V151.9L64.8,151.9z"/>
		<path class="st0" d="M63.7,156.6c0.9,0.4,2,0.6,2.4,1c0.5,1.5-1.1,1.2-1.3,0.8L63.7,156.6L63.7,156.6z"/>
		<path class="st0" d="M99.4,173.3c-0.8,0.9-0.4,0.7-1.4,1.2c1.2,0.3,2.3,0,3.6-1c1.7,0.3,4.1,0.2,5.3,0.4c0.2,0.9-0.2,1-0.6,1.9
			c1.5-0.2,2.7-0.7,3-1.7c0.9,0.4,3.1,0.2,4.5-0.5c0.8-0.3,0.1,2.2,0.3,2c1.4-1,2.2-1.2,1.9-2.9c0.2-0.1,2.5-0.6,2.5-0.6
			c-0.1-0.6,0.3-1.2-0.1-2.2c-6.3,3-8.8,2.5-14.1,2c-1.2-0.1-4.9-0.8-6.1-1.5c-2.3-1.4-0.7-7.1,0-8c1.1-1.4,1.8-2.5,5.9-2.3
			c2.6,0.1,7.5,2.9,9.6,4.5l0.4-1.8c-1.7-1.2-2.3-1.9-2.9-2.2c-0.7-0.3,0-2.6-2.7-4.1c0,1,0.1,2,0.1,3c-1.2-0.3-3.3-1.1-4.4-1
			c-0.3-1.3-2.6-2.2-3.8-2.4c0,0,1,2.2,0.5,2.3c-0.6,0.1-1.5,0.8-2,0.8c-1.4-0.5-1.3-1-3.7-0.6l1.8,2.4
			C94.6,163.3,93.4,172.5,99.4,173.3L99.4,173.3z"/>
		<path class="st0" d="M108.1,165.9c1.2,0.1,2.6-0.3,3.3,0c1.3,1.5-0.8,1.9-1.3,1.5L108.1,165.9L108.1,165.9z"/>
		<path class="st0" d="M113.6,167c1.2-0.3,2.5-0.9,3.2-0.9c1.7,1.2-0.2,2.2-0.8,1.9L113.6,167L113.6,167z"/>
		<path class="st0" d="M105.9,161.8c1.2,0.5,2.6,0.6,3.2,1.1c0.8,2-1.3,1.7-1.7,1.1L105.9,161.8L105.9,161.8z"/>
		<path class="st0" d="M101.1,164.6c1.2-0.3,2.6-0.9,3.3-0.8c1.7,1.2-0.2,2.2-0.9,1.8L101.1,164.6L101.1,164.6z"/>
		<path class="st0" d="M103.9,169.2c1.2-0.3,2.3-1,3-0.9c1.7,1-0.1,1.9-0.8,1.7L103.9,169.2L103.9,169.2z"/>
		<path class="st0" d="M75.4,166.8c-0.3,1.3-0.8,2.3-2.2,2.1c1.4,1.5,2.5,0.3,3.7-0.8c1.4,0.5,2.9,1.3,6,1.7
			c-0.4,0.7-0.8,1.4-1.2,2.2c1.7-0.1,3.2-1,3.2-1.7c1,0.8,9.1-1,8.8-1.6c-0.2-0.3,0.1-0.7-0.2-1.7c-5.9,1.7-4.4,1.7-10.8,1.3
			c-2.6-0.2-5.5-2.2-6-3.2c-0.6-1,1-6,1.7-6.5c1.1-1,4-0.4,3.8-0.8c0,0,0.4-1.7,0.2-1.7c-0.8,0.3-1.6,0.2-2.8,0.2
			c-0.5-1.3-0.6-1.4-2.7-1.4c0.7,0.7,0.8,1.4,1.2,2.1C75.1,158.2,74.2,166.7,75.4,166.8L75.4,166.8z"/>
		<path class="st0" d="M89.9,164.6c1.2-0.1,2.4-0.7,3.2-0.6c1.5,1.3-0.4,2-1,1.7L89.9,164.6L89.9,164.6z"/>
		<path class="st0" d="M90.7,159.1c1.2,0.4,4.3,2.4,4.3,3.3c-0.2,0.3-0.5,0.8-0.9,0.8c-0.9-1.1-2.2-2.2-3.7-2.6L90.7,159.1
			L90.7,159.1z"/>
		<path class="st0" d="M79.4,162.2c1.2-0.2,2.3-0.7,3-0.6c1.5,1.2-0.3,1.9-0.9,1.7L79.4,162.2L79.4,162.2z"/>
		<path class="st0" d="M83,166c1,0.1,2.1-0.2,2.6,0.1c1.1,1.2-0.6,1.5-1,1.2L83,166L83,166z"/>
		<path class="st0" d="M86.3,156l0.2-1.1c-1.8-0.3-3,0.7-2.9,3.1c0.1,2.4,0.4,3.6,1.8,4.3c1.5,0.8,3.3,0.2,4.2-3.1
			c0.8-3.2-0.8-4.1-3-4.3L86.3,156c0.8,0.2,1.4,1.4,1.2,2.7c-0.3,1.2-1.2,2.4-1.9,2.2c-0.8-0.2-1.1-1.5-0.8-2.7
			C84.8,157,85.6,156.1,86.3,156L86.3,156z"/>
		<path class="st0" d="M83.3,152.3c0.5-0.7,1.2-0.9,2.1-0.8c0.4,0.9,0.5,1.7,0.2,2.6c-0.3,0-0.5,0.1-0.8,0.2
			C84.1,153.8,83.6,153.1,83.3,152.3L83.3,152.3z"/>
		<path class="st0" d="M86.8,151.3c0.8-0.4,1.5-0.3,2.3,0.2c0,1-0.3,1.7-0.8,2.4c-0.3-0.1-0.5-0.1-0.8-0.1
			C86.9,153,86.8,152.2,86.8,151.3L86.8,151.3z"/>
		<path class="st0" d="M89.9,152.2c0.8-0.1,1.5,0.3,2,1.2c-0.5,0.8-1.1,1.4-1.9,1.7c-0.2-0.2-0.4-0.3-0.7-0.5
			C89.2,153.8,89.5,152.9,89.9,152.2L89.9,152.2z"/>
		<path class="st0" d="M166.7,160.3l1.3-1c-0.9-0.9-3-0.8-4.6,0.3c-1.8,1.2-2.7,3.2-1.9,4.4c0.8,1.1,3,1.3,4.8,0
			c1.9-1.2,2.5-3.6,1.7-4.7L166.7,160.3c0.5,0.7,0.1,2.1-1,2.7c-1.1,0.8-2.6,0.8-3.1,0.1c-0.4-0.8,0.3-1.9,1.3-2.6
			C164.9,159.9,166.2,159.8,166.7,160.3L166.7,160.3z"/>
		<path class="st0" d="M167.5,154.7c0.8,0,1.3,0.4,1.7,1.1c-0.5,0.8-1,1.3-1.7,1.6c-0.3-0.2-0.4-0.3-0.6-0.4
			C166.8,156.2,167,155.3,167.5,154.7L167.5,154.7z"/>
		<path class="st0" d="M169.9,156.5c0.8,0.1,1.3,0.6,1.6,1.4c-0.6,0.7-1.2,1.1-2.1,1.2c-0.1-0.2-0.3-0.3-0.5-0.5
			C169.1,157.7,169.3,157,169.9,156.5L169.9,156.5z"/>
		<path class="st0" d="M172.4,159.3c0.5,0.6,0.6,1.2,0.2,2.1c-0.8,0.1-1.6,0-2.2-0.5c0-0.3,0-0.5,0-0.7
			C170.9,159.6,171.6,159.3,172.4,159.3L172.4,159.3z"/>
		<path class="st0" d="M173.1,154.2c-0.7,0.3-1.2,0.7-1.7,1.3c0.3,0.5,0.6,0.9,1.2,1.2c0.7-0.3,1.1-0.8,1.5-1.3
			c0.7,0.5,1.7-0.3,2-0.9c0.4-0.8,0.3-1.7-0.6-2.2c-0.8-0.4-1.8-0.2-2.1,0.6C173.1,153.3,173,153.8,173.1,154.2L173.1,154.2z"/>
		<path class="st0" d="M56.5,143.1l-0.8-0.8c1.5-1.3,3.2-1.2,4.4,0.9c1.2,2.1,1.5,3.2,0.6,4.7c-1,1.5-3,2.1-5.5-0.2
			c-2.5-2.3-1.5-4,0.4-5.6L56.5,143.1c-0.7,0.5-0.5,2,0.3,2.9c0.9,0.9,2.4,1.3,3,0.8s0.2-1.9-0.7-2.8
			C58.4,143.1,57.2,142.7,56.5,143.1L56.5,143.1z"/>
		<path class="st0" d="M58.5,137.7c-0.7-0.4-1.4-0.3-2.2,0.2c0,1,0.3,1.7,0.9,2.4c0.3-0.1,0.5-0.1,0.7-0.1
			C58.4,139.5,58.6,138.6,58.5,137.7L58.5,137.7z"/>
		<path class="st0" d="M54.7,138.6c-0.8-0.1-1.5,0.3-2,1.1c0.4,0.9,1,1.5,1.8,1.8c0.3-0.2,0.4-0.3,0.7-0.4
			C55.3,140.1,55.1,139.3,54.7,138.6L54.7,138.6z"/>
		<path class="st0" d="M51.2,140.6c-0.7,0.5-1,1.2-0.9,2.1c0.9,0.5,1.7,0.6,2.6,0.4c0.1-0.3,0.2-0.5,0.3-0.8
			C52.6,141.6,52,141,51.2,140.6L51.2,140.6z"/>
		<path class="st0" d="M52.2,135.5c0.7,0.4,1,1,1.3,1.7c-0.3,0.4-0.8,0.8-1.3,0.9c-0.6-0.4-0.9-1-1.2-1.6c-0.8,0.3-1.6-0.7-1.7-1.4
			c-0.2-0.8,0.3-1.7,1.1-2c0.8-0.2,1.7,0.3,1.9,1.1C52.4,134.7,52.5,135.2,52.2,135.5L52.2,135.5z"/>
		<path class="st0" d="M124.9,173.8c-0.7,1.2-1.7,2.1-1.9,2.9c0.5,2.1,2.1,0.5,2.1-0.3L124.9,173.8L124.9,173.8z"/>
		<path class="st0" d="M131.1,168.3c-1.2,0.7-2.7,0.9-3.2,1.4c-0.7,2.2,1.5,1.7,1.9,1L131.1,168.3L131.1,168.3z"/>
		<path class="st0" d="M138.2,163.6c-1.4,0.3-3,0-3.8,0.3c-1.4,2,1.1,2.2,1.7,1.7L138.2,163.6L138.2,163.6z"/>
		<path class="st0" d="M137.4,168.8c-1.4,0-2.9-0.6-3.7-0.3c-1.7,1.6,0.6,2.3,1.3,1.9L137.4,168.8L137.4,168.8z"/>
		<path class="st0" d="M132.6,162.9c-1,0.7-2.2,1-2.7,1.6c-0.4,2.1,1.4,1.4,1.7,0.8L132.6,162.9L132.6,162.9z"/>
		<path class="st0" d="M135.5,160.6c-0.8,0.1-1.6-0.2-2,0c-0.9,1,0.3,1.3,0.7,1L135.5,160.6L135.5,160.6z"/>
		<path class="st0" d="M121.3,171.4l-1.7-1.7c-1.5,3.8-0.8,8.7,0.1,13.4c2,0.1,5.6-0.1,8.4-0.3c-0.3-7.1,2.7-7.1,7.5-8.5
			c1,0.3,5.6,0.3,5.5,0.3c-0.2-0.3-1.2-0.9-1.5-1.7c-0.3-1,1.9-2,2.3-2.3c2.6-1.7,3.1-4.7,2.6-6.7c-0.1-0.1-0.2-0.2-0.2-0.3
			c-0.6,0.3-1.5,0.4-2.2,0.8c0.7,2.8,0.3,3.7-4.9,7.1c-1.7,1.1-6.8,2.6-8,3.3c-2.7,1.5-2.7,3.5-2.9,6.5c0,0.2-5.6,0-5.6-0.2
			C120.8,177.3,119.2,174.8,121.3,171.4L121.3,171.4z"/>
		<path class="st0" d="M105,182.7c-0.8-0.2-1.6-1.3-1.5-2.2c0.1-1.1,1.1-1.4,1.7-1.2c0.6,0.3,1.2,0.3,1.1,1.2c0,0.4,1.2,0.3,1.2-0.1
			c0.2-1.5-0.8-2.5-2.1-2.6c-1.3-0.1-3,0.3-3.3,2.1c-0.2,0.8,0.3,2.3,0.8,2.8c-0.7,3.9-0.6,5.3,1,8.5c-0.4,0.5,0-0.1-0.3,0.6
			c-0.3,0.7-0.5,1.9-0.1,2.8c0.9,1.8,2.5,1.8,3.7,1.4c1.3-0.4,1.9-2.1,1.5-3.5c-0.3-0.8-1.4-0.4-1.2,0.3c0.3,0.8-0.2,1.3-0.8,1.7
			c-0.7,0.4-1.7,0.3-2-0.8c-0.3-1.1,0.5-2,1.1-2.4C104.8,189.9,103.4,185.2,105,182.7L105,182.7z"/>
		<path class="st0" d="M133.6,181.8c0.7-0.3,1.2-1.7,1-2.6c-0.3-1-1.3-1.1-1.9-0.8c-0.6,0.3-1.1,0.8-0.8,1.6c0.2,0.8-1.4,1-1.7,0.3
			c-0.4-1.3,0.8-2.9,2.1-3.1c1.3-0.3,3.3,0,3.9,1.6c0.3,0.8,0,2.6-0.8,2.9c1.3,3.6,1.4,4.6,0.3,7.7c0.6,0.4,0.3,0,0.7,0.5
			c0.3,0.6,0.8,1.7,0.5,2.6c-0.5,1.8-2.1,2.1-3.4,1.9c-1.3-0.2-2.2-1.6-2.1-3c0.2-0.8,1.3-0.7,1.2,0.1c-0.2,0.8,0.4,1,1.1,1.2
			c0.7,0.3,1.3-0.1,1.4-1.2s-0.6-1.9-1.3-2.2C134.9,187.7,135.6,183.9,133.6,181.8L133.6,181.8z"/>
		<path class="st0" d="M117.4,179.8c-2.8-0.3-6,0-8.7,0.5c0.1-0.3-0.3-0.9-0.1-1.7c2.7-0.6,5.9-0.7,8.7-0.5
			C117.3,178.4,117.4,179.5,117.4,179.8L117.4,179.8z"/>
		<path class="st0" d="M109.6,194.4c5.5,3.2,19.3,1.1,21.8-0.3c-0.1,0.3,1.6,0.3,1.2,1.2c-3.2,2.9-22.4,3-23.7,1.2
			C109,196.2,109.5,194.8,109.6,194.4L109.6,194.4z"/>
		<path class="st0" d="M112.4,181.8c5.2,5.5,3.1,8.6,8.1,13.1c-0.4,0-1-0.1-1.3,0.1c-5.5-5.2-4.1-9.1-9.1-13.6
			C110.6,181.2,112.1,181,112.4,181.8L112.4,181.8z"/>
		<path class="st0" d="M116.8,181.2c4.7,5.1,3,8.9,8,13.5c-0.4,0-1.1,0.4-1.7-0.5c-5.1-5.4-3.6-8.7-8.5-13.2
			C115,180.9,115.8,180.9,116.8,181.2L116.8,181.2z"/>
		<path class="st0" d="M122.9,184.8c1.9,1.2,1.1,5.6,5.7,9.5c-0.3,0-0.8,0.3-1.3-0.3c-4.2-3.5-3-5.1-6.1-9.3
			C121.7,184.6,122.3,184.6,122.9,184.8L122.9,184.8z"/>
		<path class="st0" d="M148.7,189.2l-0.2,1.5c1.8,0,2.7-0.6,3-2.8c0.2-1.8-0.7-3.1-2.2-3.2c-1.4-0.3-2.8,0.1-3.2,2.1
			c-0.5,1.9,0.8,3.7,2.4,4L148.7,189.2c-0.7-0.2-1.2-0.8-1.2-2c0-1.1,1-1.4,1.7-1.1c0.8,0.3,1.3,0.8,1,1.7
			C149.9,188.8,149.5,189.2,148.7,189.2L148.7,189.2z"/>
		<path class="st0" d="M157.9,177.1c-2.4-0.6-4.1-0.8-6.6,0.3c-1.8,1.3-1.1,3.3,0.5,3.8c2.7,0.8,4.1,0.6,6.8-1.7
			c-1.6-0.2-4-0.2-5.5-0.5c0.1,0.1-0.5,0.9,0.1,1.5c-0.4-0.1-0.8,0.2-1.1-0.4c-1.3-3.2,3.7-2.1,6.1-1.8
			C158.3,178.1,158,177.2,157.9,177.1L157.9,177.1z"/>
		<path class="st0" d="M138,180.9c3.6-0.3,7.5-1,10.8-2c0,0.3,0,0.6,0.1,0.8c-3.3,1.2-7.4,2-10.9,2.4
			C137.9,181.8,138,181.2,138,180.9L138,180.9z"/>
		<path class="st0" d="M139.1,191.5c2-1.1,4.1-1.9,6.1-2.3c0-0.3,0-0.7,0-1c-1.7-0.1-4.3,0.5-6.5,1.6
			C138.8,190,139,191.3,139.1,191.5L139.1,191.5z"/>
		<path class="st0" d="M145.2,185.6c-3.6-0.4,1.6-2.9,4.8-4c-0.2-0.3-0.3-0.5-0.4-0.8c-4.5,0.9-11.9,4.9-4.6,5.9
			C145.3,187,145,185.4,145.2,185.6L145.2,185.6z"/>
		<path class="st0" d="M86.5,193.3c2.1-1.4,3.7-2.2,6.4-2c2.1,0.7,2.1,3,0.7,4c-2.2,1.8-3.7,2-7,0.6c1.4-0.7,3.7-1.6,5.1-2.4
			c-0.1,0.2,0.8,0.8,0.4,1.5c0.3-0.1,0.8,0,0.9-0.8c0.2-3.7-4.2-0.8-6.4,0.3C86.5,194.4,86.5,193.4,86.5,193.3L86.5,193.3z"/>
		<path class="st0" d="M91.6,175.9l-0.3,1.5c1.8,0,2.8-0.6,3-2.8c0.3-1.8-0.7-3.1-2.1-3.3c-1.5-0.2-2.8,0.2-3.3,2.1
			c-0.4,2,0.9,3.8,2.4,4.1L91.6,175.9c-0.7-0.2-1.2-0.9-1.2-2c0.1-1.1,1.1-1.4,1.7-1.2c0.7,0.3,1.3,0.8,1,1.8
			C92.8,175.5,92.4,175.9,91.6,175.9L91.6,175.9z"/>
		<path class="st0" d="M79.2,187.4l-0.2,1.5c1.8,0,2.7-0.6,3-2.8c0.2-1.8-0.7-3.1-2.2-3.3c-1.4-0.2-2.8,0.2-3.3,2.1
			c-0.4,2,0.9,3.8,2.5,4.1L79.2,187.4c-0.7-0.2-1.2-0.8-1.2-2c0-1.1,1-1.4,1.7-1.1c0.8,0.3,1.3,0.8,1,1.7
			C80.4,186.9,80,187.4,79.2,187.4L79.2,187.4z"/>
		<path class="st0" d="M68.5,172.6c2.5-0.1,4.2,0.2,6.4,1.7c1.5,1.7,0.3,3.5-1.3,3.6c-2.9,0.2-4.2-0.4-6.2-3.2
			c1.5,0.2,3.9,0.8,5.5,0.8c-0.2,0.1,0.2,1-0.4,1.4c0.3,0.1,0.8,0.4,1.1-0.1c2.1-2.9-3.2-2.9-5.6-3.2
			C67.9,173.4,68.4,172.7,68.5,172.6L68.5,172.6z"/>
		<path class="st0" d="M91.5,178.6c0.4,2.5-12-3.7-14.4-3.2c-0.3,0.3,0,0.8,0,1c4.6,0.3,15.5,7.2,15.7,2.6
			C92.7,178.6,91.5,178.9,91.5,178.6L91.5,178.6z"/>
		<path class="st0" d="M100.5,181.6c-2.1-0.9-4.7-3.1-6.2-4.2c-0.3,0.2-0.3,0.5-0.5,0.7c0.4,2,4.2,4.5,6.8,4.7
			C100.9,182.6,100.4,181.7,100.5,181.6L100.5,181.6z"/>
		<path class="st0" d="M101.4,194.7c-2-1.3-3.5-1.5-5.7-0.9c-0.1-0.3-0.2-0.9-0.3-1.2c1.7-1.1,4.1-1.1,6.1,0.6
			C101.6,193.5,101.4,194.4,101.4,194.7L101.4,194.7z"/>
		<path class="st0" d="M82.3,182.6c0.8-1.5-2.4-3.1-6.2-4.1c0.2-0.3,0.4-0.6,0.6-0.8c4.5,0.9,10.6,4.4,6.3,6.1
			C82.8,184,82.5,182.3,82.3,182.6L82.3,182.6z"/>
		<path class="st0" d="M94.4,190.8c4.9-3.4-7.3-4.9-10.7-4.6c0.1-0.3-0.1-0.8-0.1-1c4.8-0.8,17.8,1.5,11.8,6.5
			C95.2,191.9,94.6,190.5,94.4,190.8L94.4,190.8z"/>
		<path class="st0" d="M116.5,199.9c0.8-0.1,1.3-0.1,2.1-0.1c-0.3,2.3,0.1,4.8,0.8,7.2c-0.6,0-1.4-0.2-1.9-0.1
			C116.8,204.7,116.5,202.4,116.5,199.9L116.5,199.9z"/>
		<path class="st0" d="M116.5,207.4c0.6,1.1,0.9,1.2,2,1.2c-2.6,1.8-7.6,4.2-8.1,7.9c-0.6-0.6-0.7-1.6-1.3-2.2
			C109.7,211.8,113.9,209.8,116.5,207.4L116.5,207.4z"/>
		<path class="st0" d="M122,207.9c0.5,0.4,0.6,0.2,1.8,0.3c-1.7,2.7-6.2,5.6-7.3,8.8c-0.6-0.6-0.5-1.6-1.1-2.2
			C116,212.1,119.4,210.3,122,207.9L122,207.9z"/>
		<path class="st0" d="M134.4,212.2c-0.2,0.7-1.9,0.2-1.5,1.3c-3.1-0.5-5.2-3.3-8.5-3.1c0.3-0.8,0.5-1.1,0.8-1.8
			C127.9,208.1,131.2,210.7,134.4,212.2L134.4,212.2z"/>
		<path class="st0" d="M132.6,206.6c-0.2,0.7-1.5-0.1-1.1,1.1c-3.1-0.4-2.8-2.1-6.1-1.8c0.3-0.8,0.7-1.1,0.9-1.9
			C129,203.6,129.4,205.1,132.6,206.6L132.6,206.6z"/>
		<path class="st0" d="M108.9,207.6c0.3,0.7,1.7-0.2,1.3,1c3.1-0.8,2.3-2.5,5.7-2.6c-0.4-0.8,0.1-1.1-0.3-1.8
			C113,204,112,205.8,108.9,207.6L108.9,207.6z"/>
		<path class="st0" d="M134.6,208c0,0.4-0.3,0.3-0.2,1.2c-1.1-0.4-1.2-0.6-2.3-0.4c0.1-0.6,0-0.8,0.1-1.3
			C132.8,207,133.4,207,134.6,208L134.6,208z"/>
		<path class="st0" d="M106.7,209.4c0.1,0.6,0.4,0.3,0.3,1.3c1.2-0.5,1.2-0.8,2.6-0.7c-0.2-0.8,0-0.8-0.2-1.5
			C108.7,208.1,108,208,106.7,209.4L106.7,209.4z"/>
		<path class="st0" d="M128.9,214.9c-0.3,0.7-1.9,0-1.5,1.2c-3.2-0.5-2.8-2.5-6.2-2.2c0.3-0.8,1.2-0.8,1.4-1.5
			C125.3,211.9,125.8,213.4,128.9,214.9L128.9,214.9z"/>
		<path class="st0" d="M124.3,199.9c-0.8-0.1-1.4-0.1-2.2-0.1c0.3,2.3,0,4.8-0.8,7.2c0.6,0,1.4-0.2,2-0.1
			C124.1,204.7,124.3,202.4,124.3,199.9L124.3,199.9z"/>
		<path class="st0" d="M115.3,200.2c0.1,0.7,0.2,0.8,0.3,1.4c-2.5-0.1-7.7,2.9-9.1,4.3c-0.1-0.2-1.7-3-2.3-3.8l-0.7,1.7l-2.8-0.1
			l-4.2-4l0.9,4.1l-1.8,0.1l-5.6-3.7l1.9,3.5l-2.5,0.2l-5.7-2.3l1.7,2.2l-5,1.5l9.4-0.4l-2.5,3.9l4.4-3l4.7-0.2l-2.9,4.8l4.8-4.8
			l3.7-0.2l-1.2,4.1l3.8-4.9l1-0.3l0.8,1.6l-5.8,5.5l-1.7,0.2l1.5-4.4l-2,0.3l-3.9,4.4l-2.7-0.2l-0.4-1.5l2.8-3.3l-2.5,0.5l-3.9,2.5
			l-3.1-0.2l2.8-3.6l-4,0.3l-0.4,0.8l-5.4-0.3l0.5-1.8l4.2-2.3l-0.8-1.4l2.4-1l5.7,2.1l-2.5-3.6l3.5-0.2l4.7,3.5l-1-4.7l2.6-0.1
			l4.1,4.7l1-2.1l2.1,0.4l2.4,1.7C108.7,201.2,112.8,200.5,115.3,200.2L115.3,200.2z"/>
		<polygon class="st0" points="80.8,199.7 75.2,195.6 74.7,190.9 73.1,190.6 72.5,192.6 71.6,191.3 71.2,186.4 67.8,183.8 
			67.4,188.7 65.8,186.5 65.4,181.3 63,179.7 62.6,183.4 59.7,180.1 58.5,181.3 59.4,183.6 59.9,184.4 56.3,184.8 55.4,186 
			58,186.6 61.2,189.2 55.5,189 57.6,191.4 64.2,192.7 64.9,194 59,195.3 62.6,198.1 68.6,197.2 68.7,199.2 76.8,198.5 75,197.2 
			70.2,197.5 70.2,195.8 63.8,196.6 62.8,195.9 66.7,195.1 67.8,193.8 64.7,191.1 59.8,190.4 63.9,190.4 63.5,187.9 59,185.9 
			61.1,185.5 61,183.5 63.5,186.9 64.3,182.9 64.7,188.2 68.5,192.3 68.9,186.7 70.1,188.5 70.4,193.8 72.5,195.6 73.8,193.2 
			74.1,196.5 80,200.7 		"/>
		<path class="st0" d="M81.9,199.2c-0.8-1.4-1.4-3-0.3-4.1c0.2-0.3,0.3-0.7-0.2-1.3c-1.1,0.1-1.9,0-3.5,0.8
			c-0.6,0.4-0.8,1.3-0.2,1.6C80,196.9,80.4,199.1,81.9,199.2L81.9,199.2z"/>
		<path class="st0" d="M79,201.6c-1.5,0.1-3.2,0.3-3.6,1.8c-0.3,0.3-0.5,0.6-1.2,0.5c-0.5-0.9-1-1.7-1-3.4c0-0.8,0.6-1.4,1.3-1
			C76.1,201.2,78.1,200.4,79,201.6L79,201.6z"/>
		<path class="st0" d="M79,193.7c0.7,0,1.2-0.6,1.2-1.3c0-0.8-0.6-1.3-1.2-1.3c-0.8,0-1.3,0.6-1.3,1.3
			C77.7,193.1,78.3,193.7,79,193.7L79,193.7z"/>
		<path class="st0" d="M70.7,203.1c-0.4-0.6-0.2-1.4,0.4-1.7c0.7-0.3,1.4-0.2,1.7,0.5c0.4,0.6,0.2,1.3-0.4,1.7
			C71.7,204,71,203.7,70.7,203.1L70.7,203.1z"/>
		<path class="st0" d="M56.8,181.3c-0.3-1.5-0.4-3.2,1.1-3.8c0.3-0.3,0.4-0.7,0.3-1.3c-1-0.3-1.8-0.6-3.6-0.3
			c-0.7,0.2-1.2,0.9-0.7,1.4C55.8,178.6,55.4,180.7,56.8,181.3L56.8,181.3z"/>
		<path class="st0" d="M54.6,184.3c-1.5-0.4-3.2-0.8-4,0.7c-0.3,0.3-0.7,0.3-1.3,0.1c-0.3-1-0.5-1.8,0-3.6c0.3-0.7,1.1-1.1,1.5-0.5
			C52,183,54.1,182.8,54.6,184.3L54.6,184.3z"/>
		<path class="st0" d="M56.6,172.8c-0.7-0.3-1.4,0.2-1.7,0.8c-0.3,0.7,0.2,1.4,0.8,1.6c0.7,0.3,1.4-0.1,1.6-0.8
			C57.6,173.8,57.3,173,56.6,172.8L56.6,172.8z"/>
		<path class="st0" d="M46.1,183.1c-0.1-0.7,0.3-1.3,1-1.5c0.8-0.2,1.4,0.3,1.6,1c0.1,0.7-0.3,1.3-1,1.5
			C46.9,184.3,46.3,183.9,46.1,183.1L46.1,183.1z"/>
		<polygon class="st0" points="57.8,183.8 57.5,182.3 56,182.1 52.5,177.8 53,170.4 51.8,169.1 49.8,171.8 50.2,163.4 47.6,162.8 
			45.9,167.5 44.9,166.9 44.9,161.7 43.4,161.1 42.3,164.5 39.9,161.6 38.7,161.9 39.3,162.8 36.3,163.1 38.5,165.6 34.4,166 
			36,168.3 41.2,169.4 42.7,170.5 37.3,170.4 38,172.9 41.2,173.9 44.7,174.5 46,175.5 42.5,175.6 42.6,176.7 45.8,178.2 
			52.5,180.8 51,178.6 45.9,176.7 48.6,176.3 46.7,173.7 39.7,171.8 45.4,171.7 42.5,168.4 37.3,167.1 41.2,167.4 38.8,164.1 
			40.7,165 40.2,163.5 42.4,166.1 43.7,163.9 43.8,168 46.8,170.4 48.7,164.6 48.4,171.9 49,174.3 51.6,171.9 50.9,178.3 52.6,181 
			55.1,183.4 		"/>
		<path class="st0" d="M41.5,159.5c0.3-1.5,0.8-3.1,2.5-3.1c0.3-0.3,0.6-0.5,0.6-1.2c-0.8-0.6-1.4-1.3-3.2-1.6
			c-0.8,0-1.5,0.4-1.2,1.1C41.6,156.6,40.4,158.4,41.5,159.5L41.5,159.5z"/>
		<path class="st0" d="M37.1,160.8c-1.2-1-2.6-2.1-3.9-1.1c-0.4,0-0.8,0-1.2-0.6c0.3-1,0.4-1.8,1.7-3.1c0.5-0.5,1.4-0.5,1.5,0.3
			C35.3,158.5,37.4,159.2,37.1,160.8L37.1,160.8z"/>
		<path class="st0" d="M44.4,151.4c-0.5-0.4-1.3-0.3-1.7,0.2c-0.5,0.6-0.4,1.4,0.2,1.8c0.5,0.4,1.3,0.4,1.7-0.2
			C45.1,152.7,45,151.9,44.4,151.4L44.4,151.4z"/>
		<path class="st0" d="M30,156.1c0.2-0.7,0.8-1.1,1.5-0.9c0.7,0.2,1.2,0.8,1,1.6c-0.2,0.7-0.9,1.1-1.6,0.9
			C30.2,157.5,29.8,156.8,30,156.1L30,156.1z"/>
		<polygon class="st0" points="39.9,160.6 37.7,154.5 38.8,152.3 38.7,150.9 37.1,151.2 40.4,148.3 40.5,145.1 36.5,146.6 
			37.4,145.2 41,141.7 41.3,139 37.1,141.1 37.6,139.6 39.6,137.5 38.9,134.8 37.5,135.3 35.6,137.1 35,135.2 33,136.6 32.9,142 
			30.1,139.1 29.1,142.3 32.1,147.4 28.2,146.4 28.5,149.4 30.7,150.1 33,151.8 32.7,153.2 36.4,155.8 36.5,154.2 34,152.8 
			34.8,151.3 30.4,148.6 33.9,149.3 33.8,147.2 30.6,141.8 33.7,144.7 34.3,137.1 35.2,138.9 38,137.2 35.5,140.6 35.4,143.6 
			38.8,141.8 34.9,146 35.5,148.2 39,147.6 35.8,150.4 36.2,152.5 37.7,152.5 36.5,154.2 36.5,155.8 38.8,160.6 		"/>
		<path class="st0" d="M125.4,200.3c2.6-0.1,7.8,1.5,10,2.5c3.1,0.9,10.4-6,21.4-6.6l0.1,0.2c-0.3-0.3,0.7,0.1,0.8,0.3
			c-6.1,0.3-9.4,4.7-18.3,6.8c-0.5,0.7,0.2,0.4,0.4,0.7c6.7,1,10-3.5,17-6.2c0.2,0,1.1-0.5,2.3-0.1c-3,2.8-11.9,8.5-19.1,8.6
			c-2.4-0.1-11.2-4.1-14.8-4.3C125.3,201.4,125.3,201.3,125.4,200.3L125.4,200.3z"/>
		<path class="st0" d="M153.2,193.3c-0.4-0.4-1.4-0.6-2.1-0.6c-2.4,0.4-4.6,1.7-6.6,2.2c-3.5,0.8-5.1,3.4-8.5,5.8
			c-0.9,0-1.7-0.2-2.7-0.2c0,0.6,0.8,0.9,0.9,1.1c0.9,0.5,2.2,0.8,3,0.2c5.9-3.4,11.2-5.5,17.1-6.7c-0.4-0.2-0.8-0.3-1.3-0.4
			c-0.7-0.6-4.2,0.5-13.1,4.3c0-0.1,0.2-0.2,0.1-0.3c2.7-1.6,2.8-2.6,4.9-2.9C147.5,195.4,151.1,193.2,153.2,193.3L153.2,193.3z"/>
		<path class="st0" d="M157.9,202.9c-0.5-0.4-1-0.8-1.7-0.9c-3.1,0.6-4.1,3-11.1,4.6c-0.3,0-1.3,0.7-2.4,0.8
			c-1.2,0.1-2.7,0.1-3.1,0.1c-0.1,0.6,0.4,0.7,1.3,1.2c0.9,0.4,1.3,0.5,1.9,0.7c6.1,1.7,12.2-4.1,18.1-5.3c-0.4-0.2-0.8-0.3-1.2-0.5
			c-3.6-0.7-11.9,5.6-13.9,4.6c0-0.2-0.8-0.4,0.2-0.6C148.5,207.2,153.2,203.5,157.9,202.9L157.9,202.9z"/>
		<path class="st0" d="M164.3,196.9c-0.6-0.4-1.3-0.7-2-0.8c-0.3,0.4-0.5,1-0.5,1.6c0.6,0.4,1.2,0.6,1.8,0.8c-0.1,0.8,1,1.3,1.8,1.3
			c0.8-0.1,1.6-0.7,1.6-1.6c0-0.8-0.8-1.6-1.5-1.6C165.1,196.6,164.5,196.7,164.3,196.9L164.3,196.9z"/>
		<path class="st0" d="M158.2,190.3c-0.2,0.8-0.1,1.4,0.1,2.2c0.3,0.1,0.3,0.8,0.5,0.8s0.8-0.8,1.2-1c0.2-0.7,0-1.2-0.2-1.9
			c0.8-0.3,0.8-1.5,0.3-2.2c-0.3-0.7-1.3-1.2-2.1-0.8c-0.8,0.4-1.1,1.4-0.7,2.1C157.5,189.7,157.8,190.2,158.2,190.3L158.2,190.3z"
			/>
		<path class="st0" d="M159.3,195.1c1.1-2.3,2.1-3,4.7-3.9c6.7-9.5,10.1-10.1,15-15.9c0.2,1.8-0.7,2.2-0.8,2.4
			c-2.9,3.8-4.9,2.4-11.4,11.6c-0.1,0.9,0.4,0.3,0.8,0.4c6.3-5.1,10.6-8.9,12.9-13.4c0.5,1.3,0.3,2.8-1.5,5.1
			c-2.9,3.6-5.9,5.7-10,9.1c-2,2-8.2,2.7-8,5.5C160.1,196,160,195.7,159.3,195.1L159.3,195.1z"/>
		<path class="st0" d="M172.6,173.8c-2.2,3.6-4.9,5.2-5.9,5.9c-4.2,3.1-2.3,6.5-3.4,10.1c1-0.6,0.4-1.4,1.8-2
			c3.6-5.3,2.7-3.6,6.4-7.4c0.6-0.6,1.5-3.4,0.6-2.8c-6.1,7.6-6.8,7.5-6.9,8.3c-0.1-0.2-1.3,0.8-0.3-0.7c0.5-4.2,2.7-4.6,3-4.8
			c2.4-1.9,2.7-2.6,4.1-4C172.6,175.8,172.6,174.1,172.6,173.8L172.6,173.8z"/>
		<path class="st0" d="M181.9,180.9c-3.1,4.4-9.5,9.5-10.7,10.2c-0.3,0.2-0.4,0.5-1,0.8c-0.8,0.7-3.1,1.2-3.6,1.5
			c0.2,0.5,1.4,0.3,2.4,0.5c1,0.1,1.3,0,1.9-0.1c2.2,0.7,4.6-1,7.1-3.1c2-1.7,3.8-3.7,5.4-6.1c0.1-0.1,0.3-1.6,0.3-2.3
			c-3.4,5.6-7.2,7.3-10.2,9.9c-0.7,0.3-1.9,0.1-0.7-0.8c5.1-3.3,5.6-4.5,8.4-8.3C181.4,182.7,181.5,181.2,181.9,180.9L181.9,180.9z"
			/>
		<path class="st0" d="M187.1,174.6c-0.7-0.2-1.4-0.1-2.2,0.1c-0.1,0.5-0.1,1.1,0.2,1.7c0.8,0.2,1.3,0.1,2-0.1
			c0.3,0.8,1.4,0.8,2.2,0.4s1.2-1.3,0.8-2.1c-0.3-0.8-1.3-1.2-2.1-0.8C187.7,173.9,187.3,174.3,187.1,174.6L187.1,174.6z"/>
		<path class="st0" d="M177.7,170.7c0.2,0.8,0.5,1.3,1.1,1.9c0.2-0.1,0.5,0.6,0.7,0.5c0.3-0.2,0.5-1.1,0.8-1.4
			c-0.3-0.7-0.6-1.2-1-1.7c0.6-0.6,0.1-1.7-0.6-2.2s-1.7-0.5-2.2,0.2c-0.5,0.7-0.4,1.7,0.3,2.2C176.9,170.4,177.4,170.7,177.7,170.7
			L177.7,170.7z"/>
		<path class="st0" d="M181,175.8c0.1-2.6,0.8-3.6,2.8-5.4c1.3-11.9,6.4-18.3,7.4-18.3c-3.5,5.4-0.3,2.9-5.2,13.4
			c-0.8,2.6,0.8,1.4,1.1,1.3c2.6-3.1,4.4-11.1,5.9-17.4c1,0.9,1.4,3.4,0.7,6.1c-1.2,4.5-1.8,9.4-5.6,12.4c-1.1,2.7-6.6,5.8-5.2,8.2
			C182.1,176.3,181.9,176,181,175.8L181,175.8z"/>
		<path class="st0" d="M185.4,151.6c-3.2,5.4-7.3,11.4-2.7,17.2c0.8-0.8,0.4-1.4,0.3-3.3c2.5-5.7,4.7-13.4,4.5-13.1
			c-1.7,3-3.3,7.1-5,11.2c-0.1-0.1-1.2,1.8-0.8,0.2C182,158.1,184.9,156.1,185.4,151.6L185.4,151.6z"/>
		<path class="st0" d="M197.1,154.8c-4.1,2.1-2.2,5.2-6.8,12.3c-0.9,0.9-2.2,2.9-3.2,4c0.3,0.4,1.4-0.3,2.4-0.5
			c0.9-0.4,2.7-1.5,3.3-1.8c2.2-3,6-10.5,5.3-13.6c-1.9,6.5-4.6,11.3-5.3,11.9c-2.6,1.7-3,2.7-1-0.4
			C195.1,161.4,194.8,157.6,197.1,154.8L197.1,154.8z"/>
		<path class="st0" d="M197.2,146.8c-0.8,0.1-1.3,0.3-2,0.8c0,0.5,0.2,1.1,0.7,1.5c0.7-0.1,1.2-0.3,1.8-0.8c0.5,0.8,1.7,0.3,2.2-0.3
			s0.7-1.6,0.1-2.2c-0.6-0.7-1.6-0.7-2.2-0.2C197.5,146,197.2,146.4,197.2,146.8L197.2,146.8z"/>
		<path class="st0" d="M188.2,146.1c0.3,0.7,0.8,1.1,1.6,1.5c0.2-0.1,0.7,0.3,0.8,0.3c0.2-0.3,0.1-1.2,0.2-1.6
			c-0.3-0.6-0.8-0.9-1.5-1.3c0.4-0.7-0.4-1.6-1.2-1.8c-0.8-0.3-1.7,0.1-2.1,0.9c-0.3,0.8,0.2,1.7,0.9,2
			C187.3,146.1,187.8,146.3,188.2,146.1L188.2,146.1z"/>
		<path class="st0" d="M191.6,148.6c0.9-2.9,0.7-3.7,1.4-5.8c-2.3-10.4,0.6-18.7,1.6-18.9c1.2,5.4-2.4,8.4-1,13.7
			c0,2.5,1.3,1.7,1.8,1c-0.3-13.8,1.3-5.5,0.6-14.8c2.5,0.7,1.5,13.9-0.1,16.1c-0.2,2.6-2.9,3.6-3,8.3
			C192.3,148.6,192.6,148.5,191.6,148.6L191.6,148.6z"/>
		<path class="st0" d="M187.5,125.1c-0.3,11.2-2,9.6,3.9,16.3c0.5-0.8,0.1-1.7-0.5-3.3c-1.1-4.2,0.3-8.4-1.3-9.5
			c0.7,3.1-0.3,4.5,0.2,8.7c-0.1-0.1-0.8,1.1-0.8-0.5C187.1,132.1,189.1,130.9,187.5,125.1L187.5,125.1z"/>
		<path class="st0" d="M199.7,126.8c-1.4,3.5-0.5,5.7-2.1,12.9c-0.4,0.3-2.7,3.7-2.2,5.2c0.6-1.2,1.4-2.4,2.4-2.9
			c0.8-0.6,2.2-1.1,2.7-1.4c2.2-3.3,1.9-11.4,0.4-14c0.8,9-0.7,11.5-1.2,12.2c-2.1,2.1-1.1,0.9-0.8,0.2
			C200.8,133.8,200,129.8,199.7,126.8L199.7,126.8z"/>
		<path class="st0" d="M27.1,122.3l4.3,0.3v0.2l-1.8,0.1c-0.4,0.1-0.8,0.3-1.3,0.5c-0.4,0.2-0.8,0.6-0.9,1.1
			c-0.2,0.5-0.3,1.1-0.3,1.8l-0.1,0.7l-0.1,0.9v0.2v0.1l5.5,0.3l0.1-0.9v-0.8c0.1-0.3-0.1-0.6-0.4-0.8c-0.3-0.2-0.6-0.3-1-0.4
			l-1.2-0.3V125l5.8,0.4v0.1l-1,0.1c-0.3,0-0.4,0-0.5,0c0,0-0.2,0.1-0.4,0.1c-0.2,0.1-0.4,0.2-0.6,0.3c-0.2,0.2-0.3,0.4-0.3,0.7
			l-0.2,1.7l6.5,0.3v-0.5l0.1-0.7v-0.5c0.1-1.2-0.1-2.2-0.5-2.7s-0.8-0.8-1.1-1c-0.2-0.1-0.3-0.2-0.4-0.3c-0.1,0-0.3-0.1-0.4-0.2
			l-1-0.2l-1.1-0.3l0.1-0.1l4.9,0.3l-0.2,2.9l-0.2,3.7l-0.3,2.9h-0.3l0.2-1.8l-0.1-0.1l-0.2-0.1l-12-0.8c-0.1,0.3-0.2,0.8-0.3,1.5
			v0.4h-0.2L27.1,122.3L27.1,122.3z"/>
		<path class="st0" d="M28.5,115.8c0.3-0.5,0.8-0.8,1.3-1.1c-0.2-0.5-0.6-0.9-1.1-1.3l1.4,0.2l1.7,0.3l1.4,0.3
			c-0.9,0.1-1.6,0.2-2,0.3c-0.4,0.1-0.8,0.2-1.3,0.4c-0.5,0.3-0.9,0.7-1.2,1.1c-0.4,0.5-0.6,1-0.7,1.5c-0.1,0.3-0.1,0.8,0.1,1.3
			c0.1,0.6,0.3,0.9,0.8,1.2c0.5,0.3,0.8,0.3,1,0.4c0.3,0,0.7-0.1,1.1-0.4c0.4-0.3,0.9-0.9,1.4-1.6l1.7-2.2c0.5-0.8,1-1.3,1.7-1.6
			c0.6-0.3,1.3-0.4,2.2-0.3l0.5,0.1c1.2,0.3,1.8,0.9,2.1,1.7c0.3,0.8,0.4,1.5,0.3,2c-0.2,0.8-0.4,1.4-0.8,1.8
			c-0.4,0.3-0.8,0.7-0.9,0.8l-0.5,0.3c0.2,0.3,0.3,0.5,0.7,0.8l0.8,0.7l-5.1-0.8v-0.2c1.2,0,2.2-0.2,3.2-0.6c1-0.3,1.6-0.8,1.9-1.4
			c0.3-0.7,0.5-1.1,0.6-1.4c0.2-0.8,0-1.4-0.5-2.1c-0.4-0.6-0.9-0.9-1.6-1c-0.3-0.1-0.8,0-1.1,0.3s-0.8,0.7-1.3,1.2l-1.7,2.2
			c-0.6,0.8-1.2,1.4-1.8,1.8c-0.7,0.3-1.3,0.5-2.1,0.3c-0.5-0.1-1.2-0.3-1.9-0.8c-0.7-0.4-1-1.3-0.9-2.6
			C28,116.7,28.2,116.2,28.5,115.8L28.5,115.8z"/>
		<path class="st0" d="M37,103L37,103L37,103L37,103c-1-0.1-1.7-0.2-2.2-0.3c-0.4,0-0.8,0-1.1,0s-0.6,0.1-1,0.2
			c-0.3,0.1-0.7,0.3-0.9,0.6c-0.3,0.3-0.5,0.7-0.6,0.9l-0.1,0.3l-0.2,0.5l3.6,1.2l4.7,1.6l3.6,1.2l0.7-1.9l0.2,0.1l-1.7,5.2
			l-0.2-0.1l0.6-1.7l-3.6-1.2l-4.7-1.6l-3.6-1.2l-0.1,0.3l-0.2,0.3c-0.1,0.3-0.1,0.6-0.1,0.9c0.1,0.3,0.3,0.7,0.5,1.1
			c0.2,0.3,0.5,0.7,0.8,1c0.4,0.3,0.8,0.6,1.4,0.8l1.3,0.6l-0.1,0.2l-5-1.7l2.9-8.9L37,103L37,103z"/>
		<path class="st0" d="M37.9,94.2l5.5,0.8l5.1,0.8l0.8-1.4l0.1,0.1l0.1,0.1l-0.8,1.4l-0.8,1.8L47,99.2l-0.1-0.1L46.8,99l0.8-1.6
			l-1.2-0.3l-1.6-0.3l-1.3-0.3l-1.7,3.4l1.1,1l1.1,1.1l0.2,0.2c0.5,0.3,1.1-0.3,1.7-1.5l0.3,0.1l-1.9,3.8l-0.3-0.1
			c0.5-0.9,0.4-1.7-0.2-2.2L41,99.7l-3.8-3.6l-2-1.8l-0.1-0.2l0.3-0.2c0.1-0.1,0.2-0.1,0.3-0.1L37.9,94.2L37.9,94.2z M41.4,96.3
			L39,95.9l-1.8-0.3l1.3,1.2l1.8,1.7l1.3,1.2l1.6-3.2L41.4,96.3L41.4,96.3z"/>
		<path class="st0" d="M42.6,81.6c0.3-0.5,0.8-0.8,1.3-1.1c0.6-0.3,1.3-0.3,1.9-0.3c0.7,0.1,1.4,0.2,2.2,0.5c0.8,0.3,1.4,0.6,2.1,1
			c0.7,0.5,1.3,0.9,1.7,1.3s0.8,0.9,1.1,1.3c0.3,0.5,0.5,1,0.6,1.5c0.2,0.5,0.2,1.1,0,1.8c-0.1,0.8-0.4,1.5-0.9,2.3l-2.9,4.2
			L49.4,94l1.1-1.6l-3.2-2.2l-4-2.7l-3.2-2.2l-1,1.6L39,86.8L42.6,81.6L42.6,81.6z M41.2,84l10.2,7l0.9-1.3c0.4-0.6,0.7-1.2,0.8-1.8
			c0-0.7-0.4-1.4-1.3-2.3c-0.8-0.8-1.9-1.7-3.1-2.5c-1.3-1-2.5-1.5-3.3-1.7c-0.8-0.2-1.6-0.1-2,0.2c-0.5,0.2-0.8,0.5-1.2,0.9
			L41.2,84L41.2,84z"/>
		<path class="st0" d="M50.7,72.3c0.7-0.2,1.2-0.2,2-0.1c0.7,0.2,1.4,0.4,2.2,0.8c0.8,0.4,1.5,0.9,2.2,1.5c0.5,0.5,1,1.1,1.4,1.6
			c0.4,0.6,0.7,1.2,0.8,1.7c0.3,0.6,0.3,1.2,0.2,2s-0.4,1.4-0.9,2c-0.3,0.4-0.8,0.8-1.1,0.9c-0.3,0.2-0.6,0.3-1,0.3
			c-0.3,0.1-1,0-2.2-0.2c-1.1-0.2-2.3-0.8-3.7-2.1c-1.2-1.1-2-2.3-2.3-3.8c-0.3-1.5-0.1-2.7,0.9-3.8C49.7,72.8,50.2,72.4,50.7,72.3
			L50.7,72.3z M48.7,74.8c0,0.4,0.1,0.8,0.3,1.2c0.3,0.4,0.7,1,1.3,1.7c0.7,0.8,1.3,1.5,2.1,2.2c0.6,0.6,1.2,1,1.6,1.4
			c0.5,0.3,0.8,0.6,1.2,0.8c0.4,0.2,0.6,0.3,0.8,0.3c0.2,0,0.3,0.1,0.4,0.1c0.1,0,0.3,0,0.3,0c0.2,0,0.4-0.1,0.8-0.1
			c0.3-0.1,0.6-0.3,0.9-0.6c0.3-0.3,0.5-0.8,0.6-1.2c0-0.4,0-0.8-0.1-1.2c-0.1-0.4-0.3-0.7-0.4-0.9l-1.8-1.8l-1.3-1.3
			c-1.3-1.2-2.3-2-3-2.3c-0.7-0.3-1.2-0.4-1.7-0.3c-0.4,0.1-0.8,0.3-1.1,0.6C49,73.8,48.8,74.3,48.7,74.8L48.7,74.8z"/>
		<path class="st0" d="M57.3,65.9c0.6-0.2,1.2-0.2,1.7,0c0.1-0.5,0.1-1.1,0-1.7l0.9,1.1l1.2,1.3l0.9,1L62,67.6
			c-0.8-0.5-1.3-0.9-1.7-1.1c-0.3-0.3-0.8-0.4-1.2-0.5C58.5,66,58,66,57.4,66.1c-0.6,0.1-1.1,0.3-1.4,0.7c-0.3,0.3-0.5,0.6-0.8,1.1
			c-0.3,0.4-0.3,0.9-0.1,1.4c0.2,0.4,0.3,0.8,0.4,0.9c0.3,0.2,0.6,0.3,1.1,0.3c0.6,0,1.2-0.1,2.2-0.3l2.6-0.7
			c0.9-0.2,1.7-0.3,2.3-0.1c0.7,0.1,1.2,0.5,1.8,1.2l0.3,0.3c0.7,1,0.9,1.8,0.6,2.7c-0.3,0.8-0.7,1.4-1.1,1.7
			c-0.6,0.5-1.2,0.8-1.7,0.8c-0.5,0.1-0.9,0.1-1.2,0.1l-0.6-0.1c0,0.3,0,0.7,0,1.1l0.2,1l-3.4-3.8l0.1-0.1c0.9,0.7,1.8,1.2,2.8,1.5
			c1,0.3,1.8,0.3,2.4,0.1c0.7-0.3,1.1-0.5,1.3-0.8c0.6-0.5,0.8-1.1,0.9-1.8c0-0.8-0.2-1.4-0.6-1.9c-0.3-0.3-0.6-0.4-1-0.4
			c-0.4-0.1-1,0-1.7,0.2l-2.7,0.7c-1,0.3-1.8,0.3-2.6,0.3s-1.3-0.5-1.9-1.1c-0.3-0.3-0.7-0.9-0.9-1.7c-0.3-0.8,0-1.7,0.9-2.6
			C56.2,66.3,56.8,65.9,57.3,65.9L57.3,65.9z"/>
		<path class="st0" d="M76.1,53.1c-1.3,0.7-1.6,1.4-1.2,2.2l4.5,7.5c0.5,0.8,0.5,1.5,0.1,2.2c-0.3,0.8-0.9,1.3-1.6,1.7
			c-0.5,0.3-1,0.5-1.6,0.7c-0.5,0.1-1,0.2-1.5,0.1c-0.4-0.1-0.8-0.3-1.3-0.4c-0.3-0.3-0.7-0.5-0.8-0.9l-4.9-8.3l-1.6,0.9h-0.1v-0.2
			l4.6-2.7l0.1,0.2l-1.7,1l5.4,9.1c0.2,0.3,0.5,0.6,0.8,0.7c0.4,0.2,0.8,0.2,1.2,0.1c0.4-0.1,0.8-0.3,1.1-0.4c0.6-0.3,1-0.8,1.3-1.2
			c0.3-0.4,0.5-0.8,0.4-1.3c0-0.4-0.2-0.8-0.4-1.2l-0.2-0.4l-1.8-3l-1.4-2.3l-0.9-1.7c-0.5-0.8-1.2-0.9-2.2-0.4l-0.3,0.2l-0.2,0.1
			l-0.1-0.2l3.9-2.2L76.1,53.1L76.1,53.1z"/>
		<path class="st0" d="M81.8,50.6l2.5,2.2l3.2,2.8l2.5,2.2l-2.7-7.5c-0.3-0.8-1.1-1-2.2-0.6l-0.1-0.2l3.9-1.4l0.1,0.2
			c-1.2,0.5-1.7,1.1-1.5,1.7l3.9,10.9L91.1,61l-3-2.7l-3.7-3.4l-3-2.7l3.2,9c0.3,0.8,0.7,1,1.2,1c0.6,0,0.9,0,1-0.1l0.4-0.1l0.1,0.2
			l-1.3,0.5l-1.7,0.6L83,63.9l-0.1-0.3l0.5-0.2l0.4-0.2c0.3-0.2,0.4-0.4,0.4-0.8c0-0.3,0-0.6,0-0.8s-0.1-0.5-0.2-0.8
			c-0.1-0.4-0.3-1.1-0.6-1.7l-2.6-7.3c-0.2-0.5-0.8-0.5-2.1,0l-0.1-0.3L81.8,50.6L81.8,50.6z"/>
		<polygon class="st0" points="95.8,46.4 95.9,46.5 94.1,47 97.2,59 98.9,58.6 99,58.8 93.9,60.1 93.8,59.9 95.5,59.5 92.4,47.5 
			90.7,47.9 90.7,47.7 		"/>
		<path class="st0" d="M104,45c0.6-0.1,1.2,0,1.7,0.3c0.6,0.3,1.1,0.7,1.5,1.2c0.4,0.5,0.8,1.2,1.2,1.9c0.3,0.7,0.5,1.4,0.6,2.2
			c0.1,0.8,0.2,1.5,0.2,2.2c-0.1,0.6-0.2,1.2-0.3,1.7c-0.2,0.5-0.4,1-0.8,1.4s-0.8,0.8-1.4,1.2c-0.6,0.4-1.3,0.7-2.3,0.8l-5.1,0.7
			v-0.2l1.9-0.3l-0.5-3.7l-0.7-4.8l-0.5-3.7l-1.8,0.3v-0.3L104,45L104,45z M101.2,45.6l1.7,12.3l1.7-0.2c0.7-0.1,1.3-0.3,1.7-0.8
			c0.5-0.3,0.8-1.2,0.9-2.4s0-2.6-0.2-4c-0.2-1.7-0.5-2.8-1-3.7c-0.4-0.8-0.9-1.2-1.4-1.4c-0.5-0.2-1-0.3-1.5-0.2L101.2,45.6
			L101.2,45.6z"/>
		<path class="st0" d="M116.5,45.3c0.5,0.3,1,0.8,1.3,1.4c0.4,0.6,0.8,1.3,0.9,2.2c0.2,0.8,0.3,1.7,0.3,2.6
			c-0.1,0.8-0.2,1.5-0.3,2.2c-0.2,0.7-0.4,1.3-0.8,1.8s-0.7,1-1.3,1.4c-0.6,0.4-1.2,0.7-2.1,0.7c-0.6,0-1-0.1-1.3-0.2
			c-0.3-0.2-0.7-0.3-0.9-0.6c-0.3-0.3-0.7-0.8-1.3-1.7c-0.6-0.9-0.9-2.3-0.9-4.1c0.1-1.7,0.5-3.1,1.3-4.3c0.8-1.2,2-1.9,3.4-1.9
			C115.5,44.7,116,45,116.5,45.3L116.5,45.3z M113.3,45.4c-0.3,0.3-0.6,0.7-0.8,1.1c-0.2,0.4-0.3,1.1-0.4,2.1
			c-0.2,1-0.3,2.1-0.3,3.1c0,0.8,0.1,1.5,0.1,2.1c0.1,0.6,0.2,1,0.3,1.4c0.1,0.3,0.2,0.6,0.3,0.8c0,0.2,0.1,0.3,0.2,0.3
			c0.1,0.1,0.2,0.2,0.3,0.3c0.1,0.1,0.3,0.3,0.5,0.5c0.3,0.2,0.7,0.3,1.1,0.3c0.5,0,0.9-0.2,1.3-0.4s0.7-0.5,0.8-0.8
			c0.3-0.4,0.3-0.7,0.3-1l0.3-2.6l0.1-1.9c0-1.7-0.1-3-0.3-3.7s-0.5-1.3-0.8-1.5c-0.4-0.3-0.8-0.4-1.3-0.4
			C114.2,45,113.7,45.1,113.3,45.4L113.3,45.4z"/>
		<path class="st0" d="M125.6,45.4c0.5,0.3,0.9,0.8,1.2,1.3c0.4-0.3,0.8-0.7,1.2-1.2l-0.1,1.4l-0.3,1.7l-0.2,1.4
			c-0.2-0.9-0.3-1.6-0.3-2c-0.1-0.3-0.3-0.8-0.5-1.2c-0.3-0.5-0.7-0.9-1.2-1.3c-0.5-0.3-1.1-0.5-1.6-0.6c-0.3-0.1-0.7,0-1.3,0.2
			c-0.5,0.2-0.8,0.4-1.1,0.8c-0.3,0.4-0.4,0.8-0.4,1s0.2,0.6,0.5,1c0.3,0.4,0.9,0.9,1.7,1.4l2.2,1.5c0.7,0.5,1.2,1,1.6,1.6
			c0.4,0.6,0.5,1.3,0.4,2.2l-0.1,0.5c-0.3,1.2-0.8,1.9-1.6,2.2c-0.9,0.3-1.6,0.4-2.1,0.3c-0.8-0.1-1.3-0.3-1.7-0.7
			c-0.4-0.3-0.8-0.7-0.8-0.8l-0.3-0.4c-0.3,0.1-0.5,0.3-0.8,0.7l-0.7,0.8l0.6-5.2l0.2,0.1c0,1.2,0.3,2.2,0.8,3.1
			c0.4,1,0.9,1.6,1.6,1.9c0.6,0.3,1.1,0.4,1.4,0.4c0.8,0.2,1.4-0.1,2-0.5c0.6-0.5,0.9-1.1,1-1.7c0-0.3-0.1-0.7-0.3-1
			c-0.3-0.3-0.8-0.8-1.3-1.2l-2.2-1.6c-0.8-0.6-1.5-1.2-1.9-1.7c-0.4-0.6-0.6-1.3-0.5-2.1c0.1-0.5,0.3-1.2,0.7-1.9
			c0.4-0.8,1.2-1.1,2.6-1.1C124.6,44.9,125.2,45.1,125.6,45.4L125.6,45.4z"/>
		<path class="st0" d="M146.8,50.2l1.3,0.4l1,0.3l-0.1,0.3l-1.7-0.6l-3.6,11.9l1.7,0.6v0.2l-5.1-1.6l0.1-0.2l1.8,0.6l3.6-11.4
			l-2.2,3.5l-3.1,4.7c-0.6,0.8-0.9,1.3-1.2,1.7c-0.3,0.3-0.4,0.5-0.5,0.7c0-0.2,0-0.4,0-0.8c-0.1-0.3-0.1-0.7-0.1-1l0.1-4.5l0.1-4.2
			l0.1-2.2l-3.2,10.5c-0.1,0.2-0.1,0.3,0,0.4c0.1,0.2,0.2,0.3,0.3,0.3s0.2,0.1,0.3,0.2l0.7,0.3l0.5,0.2l-0.1,0.1v0.1l-1.3-0.4
			l-1.7-0.5l-1.2-0.4l0.1-0.2c1.3,0.3,1.9,0.3,2.1-0.3l1-3.2l1.2-4l1-3.2c0.1-0.2,0-0.4-0.2-0.6s-0.3-0.3-0.7-0.4l-0.9-0.3l0.1-0.3
			l3.7,1.2l-0.1,1.8l-0.1,3.4l-0.2,3.2l-0.1,1.6h0.1l1.7-2.6l2.2-3.2l1.7-2.6L146.8,50.2L146.8,50.2z"/>
		<path class="st0" d="M160.2,57.2L158,61l-0.1-0.1l0.7-1.7c0.1-0.4,0.2-0.8,0.2-1.3c-0.1-0.5-0.3-0.9-0.6-1.2
			c-0.4-0.3-0.9-0.8-1.6-1.1l-0.6-0.3l-0.8-0.4l-0.1-0.1l-0.1-0.1l-2.7,4.7l0.8,0.5l0.7,0.4c0.3,0.2,0.7,0.2,0.9,0
			c0.3-0.3,0.6-0.5,0.8-0.8l0.8-0.9l0.1,0.1l-2.8,5.1l-0.1-0.1l0.3-0.9c0.1-0.3,0.2-0.3,0.2-0.4c0-0.1,0.1-0.3,0.1-0.4
			c0.1-0.3,0.1-0.4,0-0.7s-0.2-0.4-0.4-0.6l-1.5-0.8l-3.1,5.6l0.4,0.3L150,66l0.4,0.3c1.2,0.6,2,0.8,2.7,0.7
			c0.7-0.2,1.1-0.3,1.3-0.5c0.2-0.2,0.3-0.3,0.4-0.3c0.1,0,0.2-0.1,0.3-0.3l0.6-0.8l0.7-0.8l0.1,0.1l-2.4,4.3l-2.6-1.4l-3.2-1.8
			l-2.5-1.5l0.1-0.2l1.6,0.8h0.1l0.2-0.1l6-10.5c-0.3-0.3-0.7-0.5-1.2-0.8l-0.3-0.2l0.1-0.2L160.2,57.2L160.2,57.2z"/>
		<path class="st0" d="M170.5,64.6c-0.9-0.7-1.7-0.8-2.3-0.6l-1.3,0.7l-1.7,0.8l-1.3,0.7l-0.4,2.5l-0.5,3.2l-0.4,2.5l1.2,0.8
			l-0.2,0.3l-1.3-0.9l-1.6-1.3l-1.3-0.9l0.2-0.3l1.7,1.2l0.3-2l0.4-2.5l0.3-2l-1.4,0.8l-1.7,0.8l-1.4,0.7c-0.2,0.2-0.3,0.3-0.4,0.3
			c-0.3,0.4,0,1,1,1.7l-0.1,0.2l-1.1-0.8l-1.4-1l-1.1-0.8l0.2-0.1c0.9,0.7,1.9,0.8,2.8,0.3l1.4-0.7l1.9-1l1.4-0.7l0.3-2.2l0.4-2.7
			l0.3-2.2l-1.1-0.8l0.1-0.2l4,2.9l-0.2,0.2l-1.5-1.1l-0.3,1.7l-0.3,2.2l-0.3,1.6l1.3-0.6l1.5-0.8l1.2-0.6c0.2-0.1,0.3-0.2,0.3-0.3
			c0.2-0.2,0.2-0.4-0.1-0.7c-0.2-0.2-0.5-0.5-0.9-0.8l0.1-0.2l3.3,2.5L170.5,64.6L170.5,64.6z"/>
		<polygon class="st0" points="176.8,70 176.6,70.2 175.3,68.9 166.8,77.9 168.1,79.2 167.9,79.4 164.1,75.8 164.2,75.6 165.5,76.7 
			174.1,67.7 172.7,66.5 172.9,66.4 		"/>
		<path class="st0" d="M180.8,74.3c0.5,0.6,0.8,1.6,0.6,2.8h0.8h0.9v0.1v0.1l-3.4,3l-0.1-0.1c1.2-1.9,1.7-3.2,1.6-4.1
			c-0.2-0.8-0.4-1.4-0.7-1.7c-0.3-0.4-0.8-0.6-1.4-0.7c-0.7,0-1.3,0.2-2.1,0.5c-0.8,0.3-1.6,0.9-2.4,1.6c-0.2,0.2-0.3,0.3-0.6,0.6
			s-0.5,0.5-0.8,0.8l-1.1,1.1c-0.3,0.3-0.6,0.7-0.8,1c-0.3,0.3-0.5,0.7-0.8,1.2s-0.3,1.2,0,1.9c0.1,0.3,0.3,0.4,0.4,0.7
			c0.3,0.3,0.6,0.5,0.9,0.6c0.7,0.2,1.3,0.2,1.8,0.1c0.6-0.2,1.1-0.3,1.4-0.4c0.3-0.2,0.7-0.3,1.1-0.5c0.3-0.2,0.7-0.3,1-0.5
			l0.1,0.1l-3.9,3.5c-0.1-0.2-0.1-0.3-0.1-0.4c0.1-0.2,0.1-0.3,0.2-0.6l0.2-0.7V84l-0.1-0.1c-1.3,0.1-2.2-0.2-2.7-0.8
			c-0.5-0.6-0.8-1.3-0.9-2c0-0.8,0.2-1.7,0.6-2.8c0.4-1.2,1.3-2.2,2.4-3.2c1-0.9,1.9-1.5,2.7-1.7c0.7-0.1,1.3-0.3,1.6-0.3
			c0.3-0.1,0.7-0.1,0.9-0.1c0.3-0.1,0.6,0,1,0.1c0.4,0.2,0.9,0.3,1.3,0.7L180.8,74.3L180.8,74.3z"/>
		<path class="st0" d="M186.3,86l-3.5,4.2l-3.2,4l0.8,1.3l-0.2,0.1h-0.1l-0.8-1.3l-1.1-1.7l-0.8-1.3l0.1-0.1h0.1l1,1.5l0.8-0.9
			l1.1-1.2l0.8-0.9l-2-3.2l-1.5,0.3l-1.4,0.4l-0.3,0.1c-0.4,0.3-0.3,1,0.4,2.2l-0.2,0.2L174,86l0.2-0.1c0.6,0.8,1.2,1.2,2,0.9
			l3.9-1.1l5.1-1.4l2.6-0.8l0.2,0.1V84c0.1,0.1,0,0.2,0,0.3L186.3,86L186.3,86z M182.7,87.9l1.6-1.8l1.3-1.4l-1.8,0.5l-2.3,0.7
			l-1.7,0.6l1.9,3L182.7,87.9L182.7,87.9z"/>
		<path class="st0" d="M193.5,93.4l-2,2.7l-2.5,3.5l-1.9,2.7l7.2-3.4c0.8-0.4,0.9-1.2,0.4-2.3l0.2-0.1l1.8,3.7l-0.3,0.1
			c-0.6-1.2-1.2-1.6-1.8-1.2l-10.5,5l-0.1-0.3l2.3-3.2l3-4.1l2.3-3.2l-8.7,4.2c-0.6,0.3-0.9,0.8-0.8,1.2c0.1,0.6,0.2,0.9,0.3,1
			l0.2,0.4l-0.3,0.1l-0.6-1.3l-0.8-1.6l-0.6-1.2l0.2-0.1l0.3,0.4l0.2,0.4c0.2,0.3,0.4,0.3,0.8,0.3c0.4,0,0.7,0,0.9-0.1
			c0.3,0,0.4-0.1,0.7-0.3c0.4-0.1,1-0.3,1.7-0.8l7-3.3c0.4-0.2,0.3-0.9-0.3-2.1l0.3-0.1L193.5,93.4L193.5,93.4z"/>
		<path class="st0" d="M198.4,108.8c-0.2,0.6-0.5,1.2-0.9,1.7c-0.5,0.6-1.1,1.1-1.8,1.5c-0.8,0.4-1.6,0.8-2.3,1.1
			c-0.8,0.2-1.5,0.3-2.2,0.3c-0.8,0.1-1.3,0-2-0.1c-0.6-0.2-1.2-0.5-1.7-0.9c-0.6-0.5-1-1.1-1.2-1.8c-0.2-0.6-0.3-1-0.2-1.4
			c0-0.3,0.1-0.7,0.3-1c0.2-0.3,0.6-0.8,1.2-1.7c0.8-0.8,1.9-1.5,3.6-2.1c1.6-0.4,3.1-0.5,4.5,0c1.5,0.4,2.4,1.3,2.8,2.7
			C198.7,107.6,198.7,108.2,198.4,108.8L198.4,108.8z M197.5,105.8c-0.3-0.3-0.8-0.4-1.3-0.4c-0.4,0-1.2,0.1-2.2,0.3
			c-1,0.1-1.9,0.3-2.9,0.7c-0.8,0.3-1.5,0.4-2,0.7c-0.5,0.2-0.9,0.4-1.2,0.6c-0.3,0.3-0.6,0.4-0.7,0.5c-0.2,0.1-0.3,0.2-0.3,0.3
			c0,0.1-0.1,0.3-0.2,0.3c0,0.1-0.2,0.3-0.3,0.7c-0.2,0.3-0.2,0.7,0,1.1c0.2,0.5,0.3,0.8,0.8,1.1c0.3,0.3,0.7,0.4,1,0.5
			c0.3,0.2,0.7,0.2,1,0.1l2.5-0.5l1.8-0.5c1.7-0.5,2.8-1,3.5-1.4s1.1-0.8,1.2-1.2c0.1-0.4,0.1-0.8,0-1.2
			C198.1,106.5,197.9,106.1,197.5,105.8L197.5,105.8z"/>
		<path class="st0" d="M200.7,117.9c-0.2,0.5-0.4,1-0.9,1.4c0.4,0.4,0.9,0.7,1.6,0.9l-1.4,0.3l-1.8,0.3l-1.3,0.3
			c0.8-0.4,1.4-0.8,1.7-0.9c0.3-0.2,0.8-0.5,1.1-0.8c0.4-0.4,0.7-0.9,0.8-1.5c0.2-0.6,0.3-1.2,0.2-1.7c-0.1-0.3-0.3-0.7-0.6-1.1
			c-0.3-0.5-0.7-0.8-1.1-0.8c-0.5-0.1-0.8-0.2-1.1-0.1c-0.3,0-0.6,0.3-0.8,0.8c-0.3,0.4-0.6,1.1-0.8,2l-0.8,2.6
			c-0.2,0.8-0.6,1.5-1,2c-0.4,0.5-1.1,0.8-2,1l-0.4,0.1c-1.2,0.1-2.1-0.2-2.7-0.9c-0.5-0.7-0.8-1.3-0.9-1.8
			c-0.2-0.8-0.2-1.4,0.1-1.9s0.4-0.8,0.6-1l0.3-0.5c-0.2-0.2-0.5-0.3-0.9-0.5l-0.9-0.4l5.1-1v0.2c-1.1,0.4-2,0.9-2.7,1.7
			c-0.8,0.7-1.2,1.3-1.3,2c-0.1,0.7-0.1,1.2,0,1.5c0.1,0.8,0.5,1.3,1.1,1.7c0.7,0.4,1.2,0.6,1.9,0.5c0.3-0.1,0.7-0.3,0.9-0.7
			c0.3-0.3,0.5-0.8,0.8-1.7l0.8-2.6c0.3-0.9,0.7-1.7,1.1-2.2c0.5-0.6,1.1-1,1.8-1.2c0.5-0.1,1.2,0,2,0.2s1.4,0.8,1.8,2.1
			C200.9,116.7,200.9,117.3,200.7,117.9L200.7,117.9z"/>
	</g>
	<g>
		<path class="st1" d="M251.7,170.9l1.1-2.4c0,0-1.4-1.6-5.8-1.7s-7.2,2-7.2,5.3s2.4,4.5,6.2,5.2c3.8,0.7,4.3,1.9,4.3,2.7
			s-0.7,2.2-3.6,2.2s-5.1-1.1-6.1-1.8l-1.1,2.4c0,0,2.3,2.2,7,2.2s7.2-2.8,7.2-5.3c0,0,0.4-3.7-5.5-4.9c-5.9-1.2-5-2.6-5-3.1
			s0.5-2.1,3.8-2.1C246.9,169.5,248.9,169.3,251.7,170.9z"/>
		<polygon class="st1" points="260.4,167 273.3,167 273.3,169.8 263.7,169.8 263.7,174.4 272.2,174.4 272.2,177.1 263.7,177.1 
			263.7,182.1 273.7,182.1 273.7,184.7 260.4,184.7 		"/>
		<polygon class="st1" points="325.1,167 338,167 338,169.8 328.4,169.8 328.4,174.4 336.9,174.4 336.9,177.1 328.4,177.1 
			328.4,182.1 338.4,182.1 338.4,184.7 325.1,184.7 		"/>
		<polygon class="st1" points="512,166.4 524.9,166.4 524.9,169.2 515.3,169.2 515.3,173.9 523.8,173.9 523.8,176.5 515.3,176.5 
			515.3,181.5 525.3,181.5 525.3,184.1 512,184.1 		"/>
		<path class="st1" d="M676.7,175.3c0,5-4.3,9.1-9.6,9.1c-5.3,0-9.7-4.1-9.7-9.1c0-5,4.3-9.1,9.7-9.1
			C672.4,166.2,676.7,170.3,676.7,175.3z M667.1,169.2c-3.5,0-6.4,2.7-6.4,6.1c0,3.4,2.8,6.1,6.4,6.1s6.4-2.7,6.4-6.1
			S670.6,169.2,667.1,169.2z"/>
		<path class="st1" d="M296.3,182c-1.8,1.8-4.3,2.9-7.1,2.9c-5.3,0-9.6-4.1-9.6-9.1c0-5,4.3-9.1,9.6-9.1c2.8,0,5.4,1.1,7.1,3
			l-2.3,2.1c-1.2-1.3-2.9-2.1-4.8-2.1c-3.5,0-6.4,2.7-6.4,6.1s2.9,6.1,6.4,6.1c1.9,0,3.7-0.8,4.8-2.1L296.3,182z"/>
		<path class="st1" d="M596,181.4c-1.8,1.8-4.3,2.9-7.1,2.9c-5.3,0-9.7-4.1-9.7-9.1c0-5,4.3-9.1,9.7-9.1c2.8,0,5.4,1.1,7.1,3
			l-2.3,2.1c-1.2-1.3-2.9-2.1-4.8-2.1c-3.5,0-6.4,2.7-6.4,6.1c0,3.4,2.9,6.1,6.4,6.1c1.9,0,3.7-0.8,4.8-2.1L596,181.4z"/>
		<path class="st1" d="M640.6,181.4c-1.8,1.8-4.3,2.9-7.1,2.9c-5.3,0-9.7-4.1-9.7-9.1c0-5,4.3-9.1,9.7-9.1c2.8,0,5.4,1.1,7.1,3
			l-2.3,2.1c-1.2-1.3-2.9-2.1-4.8-2.1c-3.5,0-6.4,2.7-6.4,6.1c0,3.4,2.9,6.1,6.4,6.1c1.9,0,3.7-0.8,4.8-2.1L640.6,181.4z"/>
		<path class="st1" d="M832.6,181.5c-1.8,1.8-4.3,2.9-7.1,2.9c-5.3,0-9.7-4.1-9.7-9.1c0-5,4.3-9.1,9.7-9.1c2.8,0,5.4,1.1,7.1,3
			l-2.3,2.1c-1.2-1.3-2.9-2.1-4.8-2.1c-3.5,0-6.4,2.7-6.4,6.1c0,3.4,2.8,6.1,6.4,6.1c1.9,0,3.7-0.8,4.8-2.1L832.6,181.5z"/>
		<path class="st1" d="M369.9,167h3.3l8,17.7h-3.5l-1.8-4.1h-8.8l-1.9,4.1h-3.4L369.9,167z M371.5,170.4l-3.3,7.6h6.7L371.5,170.4z"
			/>
		<path class="st1" d="M426.1,167h3.3l8,17.7H434l-1.8-4.1h-8.8l-1.9,4.1h-3.4L426.1,167z M427.8,170.4l-3.3,7.6h6.7L427.8,170.4z"
			/>
		<path class="st1" d="M607.9,166.4h3.3l8,17.7h-3.5l-1.8-4.1h-8.8l-1.9,4.1h-3.4L607.9,166.4z M609.6,169.8l-3.3,7.6h6.7
			L609.6,169.8z"/>
		<path class="st1" d="M844.7,166.4h3.3l8,17.7h-3.5l-1.8-4.1H842l-1.9,4.1h-3.4L844.7,166.4z M846.4,169.8l-3.3,7.6h6.7
			L846.4,169.8z"/>
		<polygon class="st1" points="478.6,167 491.5,167 491.5,169.8 481.9,169.8 481.9,174.4 490.4,174.4 490.4,177.1 481.9,177.1 
			481.9,182.1 491.9,182.1 491.9,184.7 478.6,184.7 		"/>
		<path class="st1" d="M453.9,167h8.7c0,0,8.7,0.2,8.7,8.9s-8.7,8.9-8.7,8.9h-8.7L453.9,167L453.9,167z M468.1,175.9
			c0-5.5-5.5-6-5.5-6h-5.4v12.1h5.5C462.6,181.9,468.1,181.4,468.1,175.9z"/>
		<path class="st1" d="M532.6,166.4h8.7c0,0,8.7,0.2,8.7,8.9c0,8.7-8.7,8.9-8.7,8.9h-8.7L532.6,166.4L532.6,166.4z M546.7,175.2
			c0-5.5-5.5-6-5.5-6h-5.4v12.1h5.5C541.3,181.3,546.7,180.8,546.7,175.2z"/>
		<path class="st1" d="M303.2,167h8c0,0,6.7,0.1,6.7,6.2c0,0,0.5,3.9-3.7,5.6l4,5.8h-3.5l-3.6-5.1h-4.7v5.1h-3.2V167z M306.5,176.9
			h4.7c0,0,3.5-0.2,3.5-3.6s-3.8-3.4-3.8-3.4h-4.4V176.9z"/>
		<path class="st1" d="M387.1,167h8c0,0,6.7,0.1,6.7,6.2c0,0,0.5,3.9-3.7,5.6l4,5.8h-3.5l-3.6-5.1h-4.7v5.1h-3.2V167z M390.4,176.9
			h4.7c0,0,3.5-0.2,3.5-3.6s-3.8-3.4-3.8-3.4h-4.4V176.9z"/>
		<rect x="409.4" y="167" class="st1" width="3.2" height="17.7"/>
		<path class="st1" d="M665.1,164.9c0.1-0.1,3.4-3.4,3.4-3.4h3.8l-4.3,3.4H665.1z"/>
		<path class="st1" d="M408.8,165.5c0.1-0.1,3.4-3.4,3.4-3.4h3.8l-4.3,3.4H408.8z"/>
		<path class="st1" d="M746,164.9c0.1-0.1,3.4-3.4,3.4-3.4h3.8l-4.3,3.4H746z"/>
		<polyline class="st1" points="349.5,184.7 352.7,184.7 352.7,169.8 358.6,169.8 358.6,167 343.6,167 343.6,169.8 349.5,169.8 
			349.5,184.7 		"/>
		<path class="st1" d="M557,166.4v10.9c0,0-0.1,7.1,7.9,7.1c8,0,7.5-7.5,7.5-7.5v-10.4h-3.2v9.9c0,0,0.4,5.1-4.3,5.1
			c-4.7,0-4.6-3.9-4.6-5.3v-9.8L557,166.4L557,166.4z"/>
		<rect x="647.4" y="166.4" class="st1" width="3.2" height="17.7"/>
		<path class="st1" d="M740.5,166.4v10.9c0,0-0.1,7.1,7.9,7.1c8,0,7.5-7.5,7.5-7.5v-10.4h-3.2v9.9c0,0,0.4,5.1-4.3,5.1
			c-4.7,0-4.6-3.9-4.6-5.3v-9.8L740.5,166.4L740.5,166.4z"/>
		<rect x="805.9" y="166.4" class="st1" width="3.2" height="17.7"/>
		<polygon class="st1" points="787.2,166.4 790.4,166.4 790.4,181.4 799.7,181.4 799.7,184.1 787.2,184.1 		"/>
		<path class="st1" d="M764.3,166.4h8.2c0,0,6.5-0.4,6.5,4.5c0,0,0.3,2.5-2.1,3.9c0,0,2.8,0.8,3,3.6c0.3,2.8-1,4-1.9,4.5
			c-1,0.6-2.4,1.1-5.2,1.1c-2.8,0-8.5,0-8.5,0L764.3,166.4L764.3,166.4z M767.6,173.8h4.9c0.6,0,3.3-0.1,3.3-2.5s-3.1-2.3-3.1-2.3
			h-5.1L767.6,173.8L767.6,173.8z M767.6,181.6h5.5c0.7,0,3.7-0.1,3.7-2.7s-3.5-2.5-3.5-2.5h-5.7L767.6,181.6L767.6,181.6z"/>
		<polygon class="st1" points="684.1,166.4 686.7,166.4 696.4,178.4 696.4,166.4 699.7,166.4 699.7,184.2 696.9,184.2 687.3,172.2 
			687.3,184.2 684.1,184.2 		"/>
		<path class="st1" d="M718.7,166.4h7.6c0,0,7.1-0.1,7.1,6.2s-6.4,6.4-7.3,6.4s-4.1,0-4.1,0v5.1h-3.2L718.7,166.4L718.7,166.4z
			 M722,176.2c0,0,4,0,4.5,0s3.7-0.4,3.6-3.7s-3.9-3.3-3.9-3.3H722L722,176.2L722,176.2z"/>
	</g>
	<g>
		<path class="st2" d="M990.7,109.4c0-5,0-10.1,0-15.1c0-8.4,0-17.6-0.8-26c0-2.5-0.8-5-0.8-7.5c0-1.7-0.8-2.5-2.5-3.4
			c-3.4-0.8-6.7-1.7-9.2-2.5c-0.8,0-1.7-0.8-0.8-1.7c0.8-5,0.8-5,5.9-5c9.2,0,19.3,0,28.5,0c1.7,0,1.7,0,1.7,1.7
			c0,1.7,1.7,3.4,0.8,4.2c-0.8,0.8-2.5,0.8-4.2,1.7c-1.7,0.8-3.4,0.8-5,1.7c-0.8,0-1.7,0.8-1.7,1.7c-0.8,9.2-0.8,18.4-0.8,26.8
			c0,15.1,0,30.2,0,45.3c0,0.8,0,1.7-1.7,1.7c-3.4,0-5.9,0.8-9.2,0.8c-0.8,0-1.7,0-2.5-0.8c-10.9-15.1-22.6-30.2-34.4-44.4
			c-3.4-5-7.5-9.2-10.9-14.2l-0.8-0.8c0,4.2,0,9.2,0,13.4c0,10.9,0,21,0.8,31.9c0,4.2,0.8,4.2,4.2,5.9c2.5,0.8,5.9,1.7,8.4,2.5
			c0.8,0,1.7,0.8,0.8,1.7c-0.8,5-0.8,5-5.9,5c-9.2,0-19.3,0-28.5,0c-1.7,0-1.7,0-1.7-1.7s-0.8-3.4-0.8-4.2c0.8-0.8,2.5-0.8,4.2-1.7
			s3.4-0.8,4.2-1.7c1.7,0,2.5-0.8,2.5-2.5c0-5,0-10.1,0.8-15.1c0-12.6,0-25.1,0-37.7c0-2.5,0-5.9-0.8-8.4c0-1.7-0.8-2.5-2.5-3.4
			c-2.5-0.8-5-2.5-7.5-2.5c-0.8,0-1.7-0.8-1.7-1.7c0.8-1.7,0-3.4,0.8-4.2s3.4,0,4.2,0c5.9,0,11.7,0,17.6,0c0.8,0,1.7,0,2.5,0.8
			c8.4,13.4,18.4,25.1,27.7,37.7C978.1,94.3,984,101,990.7,109.4z"/>
		<path class="st2" d="M419.9,81.7c0-6.7,0-13.4-0.8-20.1c0-2.5-0.8-3.4-3.4-4.2c-2.5-0.8-5-1.7-6.7-2.5c-0.8,0-0.8-0.8-0.8-1.7
			c0.8-1.7,0-4.2,1.7-5c0.8-0.8,3.4,0,5,0c10.1,0,20.1,0,31,0c1.7,0,1.7,0,2.5,1.7c0.8,5,0.8,5-3.4,5.9c-1.7,0.8-3.4,0.8-5,1.7
			c-1.7,0-1.7,0.8-1.7,2.5c-0.8,12.6-0.8,25.1-0.8,36.9c0,4.2,0.8,7.5,1.7,11.7c3.4,13.4,11.7,17.6,23.5,16.8
			c4.2,0,7.5-1.7,10.9-3.4c3.4-1.7,5.9-4.2,5.9-8.4c0.8-5.9,1.7-10.9,1.7-16.8c0-8.4,0-15.9,0-24.3c0-4.2,0-8.4-0.8-12.6
			c0-0.8-0.8-1.7-1.7-2.5c-3.4-0.8-5.9-1.7-9.2-2.5c-0.8,0-0.8-0.8-0.8-1.7c0.8-5,0.8-5,5.9-5c9.2,0,18.4,0,26.8,0
			c1.7,0,1.7,0,1.7,1.7c0,1.7,1.7,3.4,0.8,4.2c-0.8,0.8-2.5,0.8-4.2,1.7c-1.7,0.8-3.4,0.8-5.9,1.7c-0.8,0-1.7,0.8-1.7,1.7
			c0,5.9,0,11.7-0.8,17.6c0,8.4,0,15.9,0,24.3c0,6.7-1.7,12.6-4.2,18.4c-4.2,7.5-10.1,11.7-17.6,14.2c-8.4,2.5-15.9,2.5-24.3,0.8
			c-12.6-2.5-19.3-10.1-22.6-22.6c-1.7-5.9-2.5-10.9-2.5-16.8C419.9,90.9,419.9,85.9,419.9,81.7z"/>
		<path class="st2" d="M268.1,133.7c-10.9,0-22.6,0-33.5,0c-1.7,0-1.7,0-1.7-1.7c0-0.8,0-1.7-0.8-2.5c-0.8-1.7,0-1.7,1.7-2.5
			c2.5-0.8,4.2-1.7,6.7-1.7c1.7,0,2.5-1.7,2.5-3.4c0-6.7,0.8-12.6,0.8-19.3c0-12.6,0-25.1,0-37.7c0-0.8,0-1.7,0-2.5
			c0-3.4-1.7-5-4.2-5.9c-1.7-0.8-4.2-0.8-5.9-1.7c-0.8,0-0.8-0.8-0.8-1.7c0.8-5,0.8-5,5.9-5c15.9,0,31,0,46.9,0c5,0,10.1,0,15.1-0.8
			c0.8,0,1.7,0,2.5,0.8c1.7,1.7,1.7,4.2,1.7,6.7c-0.8,5-1.7,10.1-2.5,15.9c0,1.7-0.8,1.7-1.7,1.7c-2.5,0-4.2,0-6.7,0
			c-0.8,0-1.7,0-1.7-1.7c-0.8-4.2-1.7-8.4-1.7-11.7c0-0.8-0.8-1.7-1.7-1.7c-8.4-0.8-17.6,0-26,0c-1.7,0-0.8,0.8-0.8,1.7
			c0,5-0.8,10.1-0.8,15.9c0,4.2,0,7.5,0,11.7c0,0.8,0,1.7,1.7,1.7c8.4,0,15.9-0.8,24.3-0.8c1.7,0,3.4,1.7,3.4,3.4
			c0,1.7-0.8,4.2-0.8,5.9c0,0.8-0.8,0.8-1.7,0.8c-8.4,0-16.8-0.8-25.1-0.8c-0.8,0-1.7,0-1.7,0.8c0,7.5,0,15.1,0.8,23.5
			c0,3.4,0.8,4.2,4.2,4.2c7.5,0.8,15.1,0.8,23.5,0c3.4,0,3.4,0,4.2-3.4c0.8-3.4,1.7-6.7,2.5-10.1c0-0.8,0.8-1.7,1.7-1.7
			c2.5,0,5,0,7.5,0c0.8,0,0.8,0.8,0.8,1.7c0,7.5,0,14.2,0,21.8c0,1.7-0.8,0.8-1.7,0.8C290.8,133.7,279,133.7,268.1,133.7z"/>
		<path class="st2" d="M766,116.1c0,1.7,0,4.2,0,5.9c0,3.4-0.8,5.9-4.2,7.5c-13.4,6.7-27.7,9.2-42.7,5
			c-12.6-3.4-21.8-11.7-25.1-25.1c-4.2-12.6-3.4-25.1,1.7-37.7c6.7-13.4,17.6-21.8,31.9-24.3c12.6-2.5,24.3,0,36,5.9
			c1.7,0.8,2.5,3.4,2.5,5c-0.8,6.7-2.5,12.6-3.4,19.3c0,0.8-0.8,1.7-1.7,1.7c-2.5,0-5,0-7.5,0c-0.8,0-1.7-0.8-1.7-1.7
			c-0.8-5-1.7-10.1-2.5-15.1c0-0.8-0.8-1.7-1.7-1.7c-5.9-2.5-11.7-2.5-17.6-2.5c-1.7,0-2.5,0.8-4.2,0.8c-6.7,0.8-10.9,5-13.4,10.9
			c-5.9,12.6-6.7,25.1-2.5,37.7s14.2,18.4,26.8,17.6c4.2,0,7.5-0.8,10.9-2.5c1.7-0.8,1.7-1.7,2.5-2.5c0.8-4.2,1.7-8.4,2.5-12.6
			c0-0.8,0.8-1.7,1.7-1.7c2.5,0,5.9,0,8.4,0c0.8,0,1.7,0.8,1.7,1.7C766,110.2,766,112.7,766,116.1L766,116.1z"/>
		<path class="st2" d="M583.3,116.1c0,1.7,0,4.2,0,5.9c0,3.4-0.8,5.9-4.2,6.7c-14.2,7.5-28.5,9.2-43.6,4.2
			c-12.6-4.2-21-12.6-25.1-26c-3.4-13.4-3.4-26,3.4-38.6s17.6-20.1,31.9-22.6c12.6-2.5,24.3,0,36,5.9c1.7,0.8,2.5,2.5,2.5,4.2
			c-0.8,6.7-2.5,13.4-3.4,19.3c0,0.8-0.8,0.8-0.8,0.8c-2.5,0-5.9,0-8.4,0c-0.8,0-0.8-0.8-0.8-1.7c-0.8-5-1.7-10.1-2.5-15.1
			c0-0.8-0.8-1.7-1.7-2.5c-10.1-4.2-20.1-3.4-29.3,1.7c-0.8,0.8-1.7,1.7-2.5,2.5c-5,7.5-7.5,15.9-8.4,25.1c0,5.9,0,11.7,2.5,17.6
			c4.2,12.6,14.2,18.4,27.7,17.6c4.2,0,7.5-0.8,10.9-2.5c0.8-0.8,1.7-0.8,2.5-2.5c0.8-4.2,1.7-8.4,2.5-12.6c0-1.7,0.8-1.7,1.7-1.7
			c2.5,0,5,0,7.5,0c0.8,0,1.7,0,1.7,1.7C583.3,110.2,583.3,113.6,583.3,116.1L583.3,116.1z"/>
		<path class="st2" d="M798.7,133.7c-5.9,0-10.9,0-16.8,0c-0.8,0-1.7-0.8-1.7-1.7c-0.8-5-0.8-5,3.4-5.9c1.7-0.8,3.4-0.8,5-1.7
			c0.8,0,1.7-0.8,1.7-1.7c0-5.9,0.8-12.6,0.8-18.4c0-12.6,0-24.3,0-36.9c0-2.5,0-5,0-6.7c0-1.7-0.8-3.4-2.5-4.2
			c-2.5-0.8-4.2-1.7-6.7-2.5c-0.8,0-1.7-0.8-1.7-1.7c0.8-1.7,0-3.4,1.7-4.2c0.8-0.8,3.4,0,4.2,0c10.1,0,20.1,0,30.2,0
			c1.7,0,1.7,0,1.7,1.7c0,1.7,1.7,3.4,0.8,4.2c-0.8,0.8-2.5,0.8-4.2,1.7c-1.7,0.8-3.4,0.8-5,1.7c-0.8,0-1.7,0.8-1.7,2.5
			c0,6.7-0.8,13.4-0.8,21c0,12.6,0,25.1,0,37.7c0,6.7,0,5.9,6.7,8.4c0.8,0,1.7,0.8,3.4,0.8c1.7,0,2.5,0.8,1.7,2.5
			c-0.8,4.2-0.8,4.2-5,4.2C807.9,133.7,803.8,133.7,798.7,133.7z"/>
		<path class="st3" d="M849.9,39.8c-0.8,0-1.7-0.8-2.5-1.7c-1.7-4.2-1.7-4.2,2.5-6.7c10.9-6.7,22.6-11.7,34.4-17.6
			c0.8-0.8,1.7,0,1.7,0.8c1.7,2.5,3.4,5.9,4.2,9.2c0.8,1.7-0.8,5-2.5,5c-11.7,3.4-23.5,6.7-35.2,10.1C851.5,39,850.7,39,849.9,39.8z
			"/>
		<path class="st2" d="M340.2,48.2c6.7,0,14.2-0.8,21-0.8c5.9,0,10.9,0.8,16.8,3.4c11.7,4.2,19.3,11.7,23.5,23.5
			c4.2,12.6,3.4,24.3-0.8,36c-5,14.2-15.9,21.8-30.2,24.3c-6.7,0.8-13.4,0.8-20.1,0c-10.1-0.8-20.1-0.8-30.2-0.8
			c-1.7,0-1.7,0-2.5-1.7c0-1.7-1.7-3.4-0.8-4.2c0.8-0.8,2.5-0.8,4.2-1.7c1.7-0.8,3.4-0.8,5-1.7c0.8,0,0.8,0,0.8-1.7
			c0.8-10.9,0.8-21.8,0.8-33.5c0-9.2,0-18.4,0-27.7c0-4.2-0.8-5-4.2-5.9c-1.7-0.8-4.2-0.8-5.9-1.7c-0.8,0-0.8-0.8-0.8-1.7
			c0.8-5,0.8-5,5.9-5C327.7,48.2,334.4,48.2,340.2,48.2z M344.4,121.9c0,1.7,0.8,2.5,2.5,2.5c7.5,1.7,15.1,2.5,23.5,0
			c5-1.7,9.2-5.9,11.7-10.1c7.5-14.2,7.5-28.5,1.7-42.7c-3.4-7.5-8.4-11.7-16.8-13.4c-5.9-0.8-11.7-0.8-17.6-0.8
			c-3.4,0-3.4,0.8-4.2,4.2c0,0.8,0,1.7,0,2.5c0,10.9-0.8,22.6,0,33.5C343.6,106,343.6,113.6,344.4,121.9z"/>
		<path class="st2" d="M827.2,93.4c0-11.7,2.5-22.6,10.1-31.9c7.5-9.2,16.8-13.4,27.7-15.1c7.5-0.8,15.1,0,22.6,3.4
			c10.9,5,18.4,13.4,21,25.1c3.4,15.1,2.5,29.3-5.9,42.7c-7.5,11.7-18.4,17.6-32.7,18.4c-9.2,0-17.6-1.7-25.1-5.9
			c-10.1-6.7-15.1-15.9-17.6-27.7C827.2,99.3,827.2,96,827.2,93.4z M891.8,75.8c-2.5-8.4-6.7-15.1-15.1-17.6
			c-6.7-1.7-12.6-1.7-18.4,0.8c-4.2,1.7-7.5,4.2-9.2,8.4c-5.9,13.4-6.7,26.8-2.5,41.1c2.5,8.4,7.5,13.4,16.8,15.9
			c5,0.8,10.1,0.8,15.1-0.8c5-1.7,9.2-4.2,11.7-10.1c3.4-7.5,4.2-15.1,4.2-23.5C893.4,85.9,893.4,80.9,891.8,75.8z"/>
		<path class="st2" d="M670.5,133.7c-5.9,0-11.7,0-17.6,0c-0.8,0-1.7,0-1.7-1.7s-1.7-3.4-0.8-5c0.8-0.8,2.5-0.8,4.2-1.7
			c2.5-0.8,4.2-0.8,6.7-1.7c0.8,0.8,0.8,0.8,0.8,0c-1.7-5.9-4.2-11.7-5.9-16.8c0-0.8-0.8-0.8-1.7-0.8c-9.2,0-18.4,0.8-27.7,0.8
			c-3.4,0-4.2,0.8-5,4.2c-0.8,4.2-3.4,9.2-4.2,13.4c0,0.8,0,1.7,0.8,1.7c3.4,0.8,6.7,1.7,10.1,2.5c0.8,0,1.7,0.8,0.8,1.7
			c-0.8,1.7,0,3.4-1.7,4.2c-0.8,0.8-3.4,0-5,0c-9.2,0-18.4,0-26.8,0c-1.7,0-2.5-0.8-2.5-1.7c0-1.7-1.7-3.4-0.8-4.2
			c0.8-0.8,2.5-1.7,4.2-1.7c4.2-0.8,6.7-3.4,8.4-7.5c7.5-19.3,15.1-38.6,21.8-58.7c1.7-3.4,2.5-7.5,3.4-10.9c0-0.8,0.8-1.7,1.7-1.7
			c5.9-0.8,11.7-0.8,17.6-1.7c0.8,0,1.7,0,1.7,0.8c5,15.1,10.1,29.3,15.9,43.6c4.2,10.9,8.4,21,11.7,31.9c0.8,0.8,0.8,1.7,2.5,1.7
			c2.5,0.8,5,1.7,7.5,2.5c0.8,0,1.7,0.8,0.8,1.7l0,0c0,1.7,0,3.4-1.7,4.2c-0.8,0.8-3.4,0-4.2,0C679.7,133.7,674.7,133.7,670.5,133.7
			z M638.6,58.2c-4.2,12.6-8.4,25.1-12.6,37.7c9.2,0,17.6,0,26.8,0C647.8,84.2,643.7,71.6,638.6,58.2z"/>
	</g>
</g>
</svg>
